<svg width="155" height="150" viewBox="0 0 155 150" fill="none" xmlns="http://www.w3.org/2000/svg">
<g clip-path="url(#clip0_1056_2801)">
<path opacity="0.4" d="M79.8861 32.7389C95.9776 53.4841 110.081 75.6736 122.014 99.0192C122.668 100.287 123.681 101.338 124.929 102.042C126.177 102.747 127.605 103.075 129.038 102.986C130.471 102.896 131.846 102.394 132.995 101.54C134.144 100.686 135.017 99.5181 135.506 98.1791C138.747 89.2296 141.479 80.7003 143.788 72.6753C146.096 64.6502 148.024 56.688 149.676 49.1881C150.521 45.3708 150.365 41.4024 149.223 37.6619C148.081 33.9215 145.991 30.5338 143.152 27.8229C117.401 3.43086 84.1154 -11.6444 48.6659 -14.9705C47.6402 -15.083 46.6047 -14.872 45.7065 -14.3681C44.8083 -13.8642 44.0931 -13.0928 43.6619 -12.1629C43.2307 -11.2331 43.1054 -10.192 43.3041 -9.18766C43.5027 -8.18329 44.015 -7.2666 44.7685 -6.56729C57.3461 5.74221 69.0784 18.8738 79.8861 32.7389V32.7389Z" fill="white"/>
<path opacity="0.2" fill-rule="evenodd" clip-rule="evenodd" d="M76.2556 133.468C86.6324 146.653 95.7273 160.757 103.422 175.595C103.844 176.401 104.497 177.069 105.302 177.516C106.107 177.964 107.028 178.173 107.952 178.116C108.876 178.059 109.763 177.74 110.504 177.197C111.245 176.654 111.808 175.912 112.123 175.061C114.213 169.373 115.974 163.951 117.463 158.851C118.952 153.75 120.195 148.689 121.26 143.923C121.805 141.496 121.705 138.974 120.968 136.597C120.232 134.219 118.884 132.066 117.053 130.343C100.447 114.84 78.9829 105.258 56.123 103.144C55.4616 103.072 54.7938 103.206 54.2146 103.527C53.6354 103.847 53.1742 104.337 52.8961 104.928C52.618 105.519 52.5372 106.181 52.6653 106.819C52.7935 107.458 53.1238 108.04 53.6097 108.485C61.7205 116.309 69.2862 124.655 76.2556 133.468ZM115.685 131.802C99.4076 116.606 78.361 107.209 55.9388 105.135L55.9235 105.134L55.9081 105.132C55.6541 105.105 55.3996 105.157 55.1825 105.277C54.9662 105.396 54.8022 105.575 54.7058 105.78C54.6096 105.984 54.5828 106.209 54.6262 106.426C54.6698 106.643 54.7833 106.848 54.9596 107.009L54.9792 107.027L54.9982 107.045C63.1733 114.931 70.7992 123.344 77.8243 132.227L76.2559 133.467L77.8273 132.231C88.2806 145.513 97.4432 159.721 105.196 174.67C105.434 175.125 105.807 175.509 106.275 175.769C106.744 176.03 107.284 176.153 107.829 176.12C108.374 176.086 108.892 175.898 109.322 175.584C109.75 175.27 110.069 174.846 110.247 174.368C112.32 168.726 114.067 163.349 115.543 158.29C117.017 153.242 118.249 148.225 119.308 143.486L119.309 143.484C119.777 141.399 119.691 139.232 119.058 137.188C118.425 135.146 117.265 133.29 115.685 131.802Z" fill="white"/>
<path fill-rule="evenodd" clip-rule="evenodd" d="M66.8617 36.905C77.2385 50.0905 86.3334 64.194 94.0283 79.0323C94.4501 79.8381 95.1034 80.506 95.908 80.9539C96.7127 81.4017 97.6336 81.6101 98.5577 81.5534C99.4818 81.4966 100.369 81.1773 101.11 80.6346C101.851 80.0918 102.414 79.3494 102.729 78.4983C104.819 72.8102 106.581 67.389 108.069 62.2883C109.558 57.1876 110.801 52.1269 111.866 47.3601C112.411 44.9338 112.311 42.4115 111.574 40.0341C110.838 37.6567 109.49 35.5035 107.66 33.7804C91.0535 18.277 69.589 8.69527 46.7291 6.58124C46.0677 6.50977 45.3999 6.64382 44.8207 6.96412C44.2415 7.28441 43.7803 7.7747 43.5022 8.36571C43.2241 8.95672 43.1433 9.61841 43.2714 10.2568C43.3995 10.8952 43.7299 11.4778 44.2158 11.9223C52.3266 19.7461 59.8922 28.0925 66.8617 36.905ZM106.291 35.2394C90.0136 20.0436 68.9671 10.6463 46.5449 8.57274L46.5295 8.57132L46.5142 8.56967C46.2601 8.54221 46.0057 8.59427 45.7885 8.71433C45.5722 8.83394 45.4083 9.01223 45.3119 9.21724C45.2157 9.42161 45.1889 9.64693 45.2323 9.86326C45.2759 10.0801 45.3894 10.2853 45.5657 10.4466L45.5852 10.4644L45.6043 10.4828C53.7794 18.3686 61.4052 26.7814 68.4304 35.6644L66.8619 36.9049L68.4334 35.6682C78.8867 48.9509 88.0492 63.159 95.8019 78.1079C96.0405 78.5624 96.4133 78.9462 96.8807 79.2063C97.3496 79.4673 97.8902 79.5906 98.4352 79.5571C98.98 79.5237 99.4986 79.3355 99.9279 79.0211C100.356 78.7073 100.675 78.2834 100.853 77.8059C102.926 72.1633 104.673 66.7863 106.149 61.7279C107.623 56.68 108.855 51.6628 109.915 46.9238L109.915 46.9218C110.383 44.8368 110.297 42.6697 109.664 40.6259C109.031 38.5831 107.872 36.7278 106.291 35.2394Z" fill="white"/>
</g>
<defs>
<clipPath id="clip0_1056_2801">
<rect width="155" height="150" fill="white"/>
</clipPath>
</defs>
</svg>
