<svg width="155" height="150" viewBox="0 0 155 150" fill="none" xmlns="http://www.w3.org/2000/svg">
<g clip-path="url(#clip0_630_2214)">
<path opacity="0.4" d="M39.6739 39.7389C55.7654 60.4841 69.8691 82.6736 81.8019 106.019C82.4559 107.287 83.469 108.338 84.7168 109.042C85.9646 109.747 87.3927 110.075 88.8257 109.986C90.2587 109.896 91.634 109.394 92.7831 108.54C93.9322 107.686 94.8052 106.518 95.2942 105.179C98.5348 96.2296 101.267 87.7003 103.576 79.6753C105.884 71.6502 107.812 63.688 109.464 56.1881C110.309 52.3708 110.153 48.4024 109.011 44.6619C107.869 40.9215 105.778 37.5338 102.94 34.8229C77.1888 10.4309 43.9033 -4.64444 8.45376 -7.97051C7.42808 -8.08296 6.39256 -7.87205 5.49437 -7.36812C4.59619 -6.86419 3.88099 -6.0928 3.44974 -5.16294C3.0185 -4.23309 2.89324 -3.19203 3.09191 -2.18766C3.29058 -1.18329 3.80285 -0.266603 4.55635 0.432708C17.134 12.7422 28.8662 25.8738 39.6739 39.7389Z" fill="white"/>
<path fill-rule="evenodd" clip-rule="evenodd" d="M96.6495 44.3425C107.026 57.528 116.121 71.6315 123.816 86.4698C124.238 87.2756 124.891 87.9435 125.696 88.3914C126.501 88.8392 127.421 89.0476 128.346 88.9909C129.27 88.9341 130.157 88.6148 130.898 88.0721C131.639 87.5293 132.201 86.7869 132.517 85.9358C134.607 80.2477 136.368 74.8265 137.857 69.7258C139.346 64.6251 140.589 59.5644 141.654 54.7976C142.199 52.3713 142.099 49.849 141.362 47.4716C140.626 45.0942 139.278 42.941 137.447 41.2179C120.841 25.7145 99.3769 16.1328 76.5169 14.0187C75.8555 13.9473 75.1877 14.0813 74.6085 14.4016C74.0293 14.7219 73.5681 15.2122 73.29 15.8032C73.0119 16.3942 72.9312 17.0559 73.0593 17.6943C73.1874 18.3327 73.5177 18.9153 74.0036 19.3598C82.1144 27.1836 89.6801 35.53 96.6495 44.3425ZM136.079 42.6769C119.801 27.4811 98.7549 18.0838 76.3327 16.0102L76.3174 16.0088L76.3021 16.0072C76.048 15.9797 75.7935 16.0318 75.5764 16.1518C75.3601 16.2714 75.1962 16.4497 75.0997 16.6547C75.0035 16.8591 74.9768 17.0844 75.0202 17.3008C75.0637 17.5176 75.1772 17.7228 75.3535 17.8841L75.3731 17.9019L75.3921 17.9203C83.5672 25.8061 91.1931 34.2189 98.2183 43.1019L96.6498 44.3424L98.2212 43.1057C108.675 56.3884 117.837 70.5965 125.59 85.5454C125.828 85.9999 126.201 86.3837 126.669 86.6438C127.137 86.9048 127.678 87.0281 128.223 86.9946C128.768 86.9612 129.286 86.773 129.716 86.4586C130.144 86.1448 130.463 85.7209 130.641 85.2434C132.713 79.6008 134.461 74.2238 135.937 69.1654C137.411 64.1175 138.643 59.1003 139.702 54.3613L139.703 54.3593C140.171 52.2743 140.085 50.1072 139.452 48.0634C138.819 46.0206 137.659 44.1653 136.079 42.6769Z" fill="white"/>
<path opacity="0.2" fill-rule="evenodd" clip-rule="evenodd" d="M98.6495 119.343C109.026 132.528 118.121 146.632 125.816 161.47C126.238 162.276 126.891 162.944 127.696 163.391C128.501 163.839 129.421 164.048 130.346 163.991C131.27 163.934 132.157 163.615 132.898 163.072C133.639 162.529 134.201 161.787 134.517 160.936C136.607 155.248 138.368 149.826 139.857 144.726C141.346 139.625 142.589 134.564 143.654 129.798C144.199 127.371 144.099 124.849 143.362 122.472C142.626 120.094 141.278 117.941 139.447 116.218C122.841 100.715 101.377 91.1328 78.5169 89.0187C77.8555 88.9473 77.1877 89.0813 76.6085 89.4016C76.0293 89.7219 75.5681 90.2122 75.29 90.8032C75.0119 91.3942 74.9312 92.0559 75.0593 92.6943C75.1874 93.3327 75.5177 93.9153 76.0036 94.3598C84.1144 102.184 91.6801 110.53 98.6495 119.343ZM138.079 117.677C121.801 102.481 100.755 93.0838 78.3327 91.0102L78.3174 91.0088L78.3021 91.0072C78.048 90.9797 77.7935 91.0318 77.5764 91.1518C77.3601 91.2714 77.1962 91.4497 77.0997 91.6547C77.0035 91.8591 76.9768 92.0844 77.0202 92.3008C77.0637 92.5176 77.1772 92.7228 77.3535 92.8841L77.3731 92.9019L77.3921 92.9203C85.5672 100.806 93.1931 109.219 100.218 118.102L98.6498 119.342L100.221 118.106C110.675 131.388 119.837 145.596 127.59 160.545C127.828 161 128.201 161.384 128.669 161.644C129.137 161.905 129.678 162.028 130.223 161.995C130.768 161.961 131.286 161.773 131.716 161.459C132.144 161.145 132.463 160.721 132.641 160.243C134.713 154.601 136.461 149.224 137.937 144.165C139.411 139.117 140.643 134.1 141.702 129.361L141.703 129.359C142.171 127.274 142.085 125.107 141.452 123.063C140.819 121.021 139.659 119.165 138.079 117.677Z" fill="white"/>
</g>
<defs>
<clipPath id="clip0_630_2214">
<rect width="155" height="150" fill="white"/>
</clipPath>
</defs>
</svg>
