<svg width="155" height="150" viewBox="0 0 155 150" fill="none" xmlns="http://www.w3.org/2000/svg">
<g clip-path="url(#clip0_630_2204)">
<path opacity="0.4" d="M42.6739 94.7389C58.7654 115.484 72.8691 137.674 84.8019 161.019C85.4559 162.287 86.469 163.338 87.7168 164.042C88.9646 164.747 90.3927 165.075 91.8257 164.986C93.2587 164.896 94.634 164.394 95.7831 163.54C96.9322 162.686 97.8052 161.518 98.2942 160.179C101.535 151.23 104.267 142.7 106.576 134.675C108.884 126.65 110.812 118.688 112.464 111.188C113.309 107.371 113.153 103.402 112.011 99.6619C110.869 95.9215 108.778 92.5338 105.94 89.8229C80.1888 65.4309 46.9033 50.3556 11.4538 47.0295C10.4281 46.917 9.39256 47.128 8.49437 47.6319C7.59619 48.1358 6.88099 48.9072 6.44974 49.8371C6.0185 50.7669 5.89324 51.808 6.09191 52.8123C6.29058 53.8167 6.80285 54.7334 7.55635 55.4327C20.134 67.7422 31.8662 80.8738 42.6739 94.7389Z" fill="white"/>
<path fill-rule="evenodd" clip-rule="evenodd" d="M97.6495 17.3425C108.026 30.528 117.121 44.6315 124.816 59.4698C125.238 60.2756 125.891 60.9435 126.696 61.3914C127.501 61.8392 128.421 62.0476 129.346 61.9909C130.27 61.9341 131.157 61.6148 131.898 61.0721C132.639 60.5293 133.201 59.7869 133.517 58.9358C135.607 53.2477 137.368 47.8265 138.857 42.7258C140.346 37.6251 141.589 32.5644 142.654 27.7976C143.199 25.3713 143.099 22.849 142.362 20.4716C141.626 18.0942 140.278 15.941 138.447 14.2179C121.841 -1.28547 100.377 -10.8672 77.5169 -12.9813C76.8555 -13.0527 76.1877 -12.9187 75.6085 -12.5984C75.0293 -12.2781 74.5681 -11.7878 74.29 -11.1968C74.0119 -10.6058 73.9312 -9.94409 74.0593 -9.30571C74.1874 -8.66734 74.5177 -8.08471 75.0036 -7.64023C83.1144 0.183606 90.6801 8.52996 97.6495 17.3425ZM137.079 15.6769C120.801 0.481142 99.7549 -8.91621 77.3327 -10.9898L77.3174 -10.9912L77.3021 -10.9928C77.048 -11.0203 76.7935 -10.9682 76.5764 -10.8482C76.3601 -10.7286 76.1962 -10.5503 76.0997 -10.3453C76.0035 -10.1409 75.9768 -9.91557 76.0202 -9.69924C76.0637 -9.48235 76.1772 -9.27721 76.3535 -9.11595L76.3731 -9.09807L76.3921 -9.07968C84.5672 -1.19386 92.1931 7.21889 99.2183 16.1019L97.6498 17.3424L99.2212 16.1057C109.675 29.3884 118.837 43.5965 126.59 58.5454C126.828 58.9999 127.201 59.3837 127.669 59.6438C128.137 59.9048 128.678 60.0281 129.223 59.9946C129.768 59.9612 130.286 59.773 130.716 59.4586C131.144 59.1448 131.463 58.7209 131.641 58.2434C133.713 52.6008 135.461 47.2238 136.937 42.1654C138.411 37.1175 139.643 32.1003 140.702 27.3613L140.703 27.3593C141.171 25.2743 141.085 23.1072 140.452 21.0634C139.819 19.0206 138.659 17.1653 137.079 15.6769Z" fill="white"/>
<path opacity="0.2" fill-rule="evenodd" clip-rule="evenodd" d="M105.65 115.343C116.026 128.528 125.121 142.632 132.816 157.47C133.238 158.276 133.891 158.944 134.696 159.391C135.501 159.839 136.421 160.048 137.346 159.991C138.27 159.934 139.157 159.615 139.898 159.072C140.639 158.529 141.201 157.787 141.517 156.936C143.607 151.248 145.368 145.826 146.857 140.726C148.346 135.625 149.589 130.564 150.654 125.798C151.199 123.371 151.099 120.849 150.362 118.472C149.626 116.094 148.278 113.941 146.447 112.218C129.841 96.7145 108.377 87.1328 85.5169 85.0187C84.8555 84.9473 84.1877 85.0813 83.6085 85.4016C83.0293 85.7219 82.5681 86.2122 82.29 86.8032C82.0119 87.3942 81.9312 88.0559 82.0593 88.6943C82.1874 89.3327 82.5177 89.9153 83.0036 90.3598C91.1144 98.1836 98.6801 106.53 105.65 115.343ZM145.079 113.677C128.801 98.4811 107.755 89.0838 85.3327 87.0102L85.3174 87.0088L85.3021 87.0072C85.048 86.9797 84.7935 87.0318 84.5764 87.1518C84.3601 87.2714 84.1962 87.4497 84.0997 87.6547C84.0035 87.8591 83.9768 88.0844 84.0202 88.3008C84.0637 88.5176 84.1772 88.7228 84.3535 88.8841L84.3731 88.9019L84.3921 88.9203C92.5672 96.8061 100.193 105.219 107.218 114.102L105.65 115.342L107.221 114.106C117.675 127.388 126.837 141.596 134.59 156.545C134.828 157 135.201 157.384 135.669 157.644C136.137 157.905 136.678 158.028 137.223 157.995C137.768 157.961 138.286 157.773 138.716 157.459C139.144 157.145 139.463 156.721 139.641 156.243C141.713 150.601 143.461 145.224 144.937 140.165C146.411 135.117 147.643 130.1 148.702 125.361L148.703 125.359C149.171 123.274 149.085 121.107 148.452 119.063C147.819 117.021 146.659 115.165 145.079 113.677Z" fill="white"/>
</g>
<defs>
<clipPath id="clip0_630_2204">
<rect width="155" height="150" fill="white"/>
</clipPath>
</defs>
</svg>
