<svg width="155" height="150" viewBox="0 0 155 150" fill="none" xmlns="http://www.w3.org/2000/svg">
<g clip-path="url(#clip0_630_2209)">
<path opacity="0.4" d="M108.674 56.7389C124.765 77.4841 138.869 99.6736 150.802 123.019C151.456 124.287 152.469 125.338 153.717 126.042C154.965 126.747 156.393 127.075 157.826 126.986C159.259 126.896 160.634 126.394 161.783 125.54C162.932 124.686 163.805 123.518 164.294 122.179C167.535 113.23 170.267 104.7 172.576 96.6753C174.884 88.6502 176.812 80.688 178.464 73.1881C179.309 69.3708 179.153 65.4024 178.011 61.6619C176.869 57.9215 174.778 54.5338 171.94 51.8229C146.189 27.4309 112.903 12.3556 77.4538 9.02949C76.4281 8.91704 75.3926 9.12795 74.4944 9.63188C73.5962 10.1358 72.881 10.9072 72.4497 11.8371C72.0185 12.7669 71.8932 13.808 72.0919 14.8123C72.2906 15.8167 72.8028 16.7334 73.5563 17.4327C86.134 29.7422 97.8662 42.8738 108.674 56.7389Z" fill="white"/>
<path fill-rule="evenodd" clip-rule="evenodd" d="M48.6495 29.3425C59.0263 42.528 68.1212 56.6315 75.8162 71.4698C76.2379 72.2756 76.8913 72.9435 77.6959 73.3914C78.5005 73.8392 79.4215 74.0476 80.3456 73.9909C81.2696 73.9341 82.1565 73.6148 82.8975 73.0721C83.6385 72.5293 84.2015 71.7869 84.5168 70.9358C86.6066 65.2477 88.3684 59.8265 89.8572 54.7258C91.3459 49.6251 92.5889 44.5644 93.6543 39.7976C94.1991 37.3713 94.0987 34.849 93.3622 32.4716C92.6257 30.0942 91.2776 27.941 89.4473 26.2179C72.8414 10.7145 51.3769 1.13277 28.5169 -0.981258C27.8555 -1.05273 27.1877 -0.918676 26.6085 -0.598382C26.0293 -0.278088 25.5681 0.212204 25.29 0.803215C25.0119 1.39422 24.9312 2.05591 25.0593 2.69429C25.1874 3.33266 25.5177 3.91529 26.0036 4.35977C34.1144 12.1836 41.6801 20.53 48.6495 29.3425ZM88.0793 27.6769C71.8015 12.4811 50.7549 3.08379 28.3327 1.01024L28.3174 1.00882L28.3021 1.00717C28.048 0.979715 27.7935 1.03177 27.5764 1.15183C27.3601 1.27144 27.1962 1.44973 27.0997 1.65474C27.0035 1.85911 26.9768 2.08443 27.0202 2.30076C27.0637 2.51765 27.1772 2.72279 27.3535 2.88405L27.3731 2.90193L27.3921 2.92032C35.5672 10.8061 43.1931 19.2189 50.2183 28.1019L48.6498 29.3424L50.2212 28.1057C60.6745 41.3884 69.8371 55.5965 77.5897 70.5454C77.8283 70.9999 78.2011 71.3837 78.6686 71.6438C79.1375 71.9048 79.6781 72.0281 80.223 71.9946C80.7678 71.9612 81.2864 71.773 81.7157 71.4586C82.1441 71.1448 82.463 70.7209 82.6405 70.2434C84.7134 64.6008 86.4609 59.2238 87.9373 54.1654C89.4107 49.1175 90.6433 44.1003 91.7024 39.3613L91.7029 39.3593C92.1711 37.2743 92.0849 35.1072 91.4517 33.0634C90.8189 31.0206 89.6594 29.1653 88.0793 27.6769Z" fill="white"/>
<path opacity="0.2" fill-rule="evenodd" clip-rule="evenodd" d="M85.6495 122.343C96.0263 135.528 105.121 149.632 112.816 164.47C113.238 165.276 113.891 165.944 114.696 166.391C115.501 166.839 116.421 167.048 117.346 166.991C118.27 166.934 119.157 166.615 119.898 166.072C120.639 165.529 121.201 164.787 121.517 163.936C123.607 158.248 125.368 152.826 126.857 147.726C128.346 142.625 129.589 137.564 130.654 132.798C131.199 130.371 131.099 127.849 130.362 125.472C129.626 123.094 128.278 120.941 126.447 119.218C109.841 103.715 88.3769 94.1328 65.5169 92.0187C64.8555 91.9473 64.1877 92.0813 63.6085 92.4016C63.0293 92.7219 62.5681 93.2122 62.29 93.8032C62.0119 94.3942 61.9312 95.0559 62.0593 95.6943C62.1874 96.3327 62.5177 96.9153 63.0036 97.3598C71.1144 105.184 78.6801 113.53 85.6495 122.343ZM125.079 120.677C108.801 105.481 87.7549 96.0838 65.3327 94.0102L65.3174 94.0088L65.3021 94.0072C65.048 93.9797 64.7935 94.0318 64.5764 94.1518C64.3601 94.2714 64.1962 94.4497 64.0997 94.6547C64.0035 94.8591 63.9768 95.0844 64.0202 95.3008C64.0637 95.5176 64.1772 95.7228 64.3535 95.8841L64.3731 95.9019L64.3921 95.9203C72.5672 103.806 80.1931 112.219 87.2183 121.102L85.6498 122.342L87.2212 121.106C97.6745 134.388 106.837 148.596 114.59 163.545C114.828 164 115.201 164.384 115.669 164.644C116.137 164.905 116.678 165.028 117.223 164.995C117.768 164.961 118.286 164.773 118.716 164.459C119.144 164.145 119.463 163.721 119.641 163.243C121.713 157.601 123.461 152.224 124.937 147.165C126.411 142.117 127.643 137.1 128.702 132.361L128.703 132.359C129.171 130.274 129.085 128.107 128.452 126.063C127.819 124.021 126.659 122.165 125.079 120.677Z" fill="white"/>
</g>
<defs>
<clipPath id="clip0_630_2209">
<rect width="155" height="150" fill="white"/>
</clipPath>
</defs>
</svg>
