<svg width="57" height="93" viewBox="0 0 57 93" fill="none" xmlns="http://www.w3.org/2000/svg">
<g clip-path="url(#clip0)">
<path d="M51.9976 93.4202H5.00275C2.4014 93.4202 0.294434 91.3447 0.294434 88.7821V5.63811C0.294434 3.07556 2.4014 1 5.00275 1H51.9976C54.5989 1 56.7059 3.07556 56.7059 5.63811V88.7821C56.7059 91.3447 54.5989 93.4202 51.9976 93.4202Z" fill="#22A186"/>
<path d="M48.2267 9H8.77331C7.79513 9 7 9.80512 7 10.7956V26.759H50V10.7956C50 9.80512 49.2049 9 48.2267 9Z" fill="#F8F8F8"/>
<path d="M49.428 22.8204V38.2046C49.428 38.8765 48.8903 39.421 48.2267 39.421H8.77331C8.10975 39.421 7.57204 38.8765 7.57204 38.2046V22.8204H49.428ZM50 22.2412H7V38.2046C7 39.1951 7.79513 40.0002 8.77331 40.0002H48.221C49.1992 40.0002 49.9943 39.1951 49.9943 38.2046V22.2412H50Z" fill="#F8F8F8"/>
<path d="M48.2267 43H8.77331C7.79513 43 7 43.8051 7 44.7956V60.759H50V44.7956C50 43.8051 49.2049 43 48.2267 43Z" fill="#F8F8F8"/>
<path d="M49.428 56.8204V72.2046C49.428 72.8765 48.8903 73.421 48.2267 73.421H8.77331C8.10975 73.421 7.57204 72.8765 7.57204 72.2046V56.8204H49.428ZM50 56.2412H7V72.2046C7 73.1951 7.79513 74.0002 8.77331 74.0002H48.221C49.1992 74.0002 49.9943 73.1951 49.9943 72.2046V56.2412H50Z" fill="#F8F8F8"/>
<path d="M48.2267 77H8.77331C7.79513 77 7 77.7254 7 78.6177V93H50V78.6177C50 77.7254 49.2049 77 48.2267 77Z" fill="#F8F8F8"/>
</g>
<defs>
<clipPath id="clip0">
<rect width="57" height="93" fill="white"/>
</clipPath>
</defs>
</svg>
