<svg width="57" height="93" viewBox="0 0 57 93" fill="none" xmlns="http://www.w3.org/2000/svg">
<path d="M50.3024 55.9154H7.88636C7.38021 55.9154 6.97412 55.5153 6.97412 55.0167V50.9758C6.97412 50.4772 7.38021 50.0771 7.88636 50.0771H50.3024C50.8085 50.0771 51.2146 50.4772 51.2146 50.9758V55.0167C51.2146 55.5153 50.8026 55.9154 50.3024 55.9154Z" fill="#F8F8F8"/>
<path d="M28.3147 41.5253C28.2441 41.5253 28.2088 41.5021 28.1735 41.4441C27.8086 40.8469 27.4378 40.4063 27.067 39.815C27.0494 39.786 27.0317 39.757 27.0023 39.7164C26.9493 39.8034 26.9023 39.8729 26.8611 39.9425C26.5197 40.4933 26.1784 40.8817 25.8429 41.4383C25.8076 41.4963 25.7487 41.5253 25.684 41.5253H24.9365C24.86 41.5253 24.8129 41.4383 24.8541 41.3745L26.4373 38.9685C26.4726 38.9163 26.4726 38.8468 26.4373 38.7888L24.9601 36.5393C24.9189 36.4755 24.966 36.3828 25.0425 36.3828H25.7958C25.8605 36.3828 25.8959 36.4059 25.9312 36.4581C26.2666 37.0031 26.6021 37.3915 26.9435 37.9365C26.9611 37.9655 26.9788 37.9945 27.0082 38.0351C27.0317 38.0003 27.0494 37.9713 27.067 37.9423C27.4084 37.3915 27.7498 37.0031 28.0852 36.4523C28.1146 36.4059 28.1617 36.377 28.2206 36.377C28.4619 36.377 28.7091 36.377 28.9621 36.377C29.0504 36.377 29.1034 36.4755 29.0563 36.5451L27.585 38.7772C27.5438 38.841 27.5438 38.8873 27.585 38.9511L29.1564 41.3397C29.2034 41.4093 29.1505 41.4963 29.0681 41.4963L28.3147 41.5253Z" fill="#F8F8F8"/>
<path d="M33.4996 41.5195H32.8699C32.7993 41.5195 32.7463 41.4673 32.7463 41.3977V40.9861C32.7169 41.0151 32.7051 41.0209 32.6933 41.0325C32.246 41.5543 31.6634 41.7108 31.0101 41.5891C30.1391 41.4325 29.4858 40.6904 29.4034 39.8208C29.3386 39.1135 29.5505 38.5105 30.0802 38.0235C30.7158 37.4437 31.734 37.3626 32.399 37.8438C32.5226 37.9307 32.6286 38.0467 32.7463 38.1569V37.7162C32.7463 37.6757 32.7816 37.6351 32.8228 37.6351L33.4996 37.6293C33.5702 37.6293 33.5997 37.6467 33.5997 37.722L33.5938 41.4267C33.5879 41.4789 33.5526 41.5195 33.4996 41.5195ZM30.245 39.5831C30.245 40.2962 30.7747 40.8238 31.4927 40.8238C32.2107 40.8238 32.7463 40.2904 32.7463 39.5773C32.7463 38.8642 32.2107 38.3366 31.4986 38.3366C30.7747 38.3308 30.2391 38.8642 30.245 39.5831Z" fill="#F8F8F8"/>
<path d="M36.6307 41.7109C36.4836 42.1052 36.2658 42.453 35.9303 42.7255C35.6478 42.9516 35.3536 43.085 34.9004 43.085C34.7945 43.085 34.7591 42.9922 34.7886 42.8937L34.8533 42.6675C34.9063 42.482 35.0534 42.3603 35.2182 42.2559C35.4183 42.1342 35.5713 41.9892 35.7067 41.7109C35.8774 41.3631 35.8126 41.4906 35.5537 40.7949L34.2059 37.7511C34.1824 37.6932 34.2236 37.6294 34.2883 37.6294H34.9592C35.0358 37.6294 35.1005 37.67 35.1299 37.7396C35.483 38.5976 35.842 39.4615 36.2011 40.3195C36.2187 40.3543 36.2305 40.3891 36.2599 40.4528C36.307 40.3253 36.3482 40.2209 36.3835 40.1166C36.666 39.3223 36.9544 38.5222 37.2369 37.728C37.2663 37.6468 37.3075 37.6236 37.4135 37.6352L38.0314 37.641C38.102 37.641 38.1491 37.7106 38.1256 37.7743L36.6307 41.7109Z" fill="#F8F8F8"/>
<path d="M41.5452 41.5192H42.1808C42.2514 41.5192 42.3044 41.4612 42.3044 41.3975C42.3044 41.2235 42.3044 41.0554 42.3044 40.8873C42.3044 40.2495 42.3044 39.6176 42.2926 38.9799C42.2867 38.632 42.1749 38.3073 41.9454 38.0348C41.6511 37.6812 41.2568 37.5362 40.8036 37.5304C40.3151 37.5246 39.8972 37.6696 39.5971 38.0696C39.5912 38.0754 39.5794 38.0812 39.5618 38.0928C39.5618 37.9595 39.5559 37.8377 39.5618 37.716C39.5618 37.6696 39.5265 37.629 39.4794 37.629C39.2616 37.6348 39.0439 37.629 38.832 37.629C38.6495 37.629 38.7025 37.629 38.6966 38.0522L38.6907 40.9279C38.6907 41.3743 38.6201 41.5192 38.9085 41.5192H39.4029C39.497 41.5192 39.5677 41.4438 39.5677 41.3569V39.4958C39.5677 39.3451 39.5794 39.1944 39.6089 39.0494C39.6913 38.6668 39.9267 38.4117 40.3269 38.3421C40.4858 38.3131 40.6565 38.3189 40.8154 38.3421C40.9331 38.3653 41.0449 38.4059 41.1391 38.4813C41.4039 38.6842 41.4451 38.9914 41.4451 39.2871V41.4265C41.4569 41.4786 41.4981 41.5192 41.5452 41.5192Z" fill="#F8F8F8"/>
<path d="M18.2269 36H15.4902C15.402 36 15.3431 36.0986 15.3902 36.1739L16.685 38.2437C16.7262 38.3133 16.8321 38.3191 16.8792 38.2495L18.3152 36.1797C18.3741 36.0986 18.3152 36 18.2269 36Z" fill="#F8F8F8"/>
<path d="M16.1142 39.2291L14.8194 37.1652C14.7841 37.1072 14.6899 37.1304 14.6899 37.2V41.1714C14.6899 41.2409 14.7782 41.2699 14.8194 41.2119L16.1142 39.3509C16.1377 39.3161 16.1377 39.2697 16.1142 39.2291Z" fill="#F8F8F8"/>
<path d="M22.2997 36H19.7631C19.7101 36 19.6571 36.029 19.6277 36.0696L17.4266 39.2351C17.3913 39.2873 17.3854 39.3568 17.4207 39.4148L19.922 43.4094C19.9691 43.4848 20.0691 43.5079 20.1456 43.4674L22.5998 42.0701C22.7882 41.9658 22.9059 41.7687 22.9059 41.5541V36.603C22.9059 36.2667 22.6352 36 22.2997 36Z" fill="#F8F8F8"/>
<path d="M15.3959 42.2902L18.6741 44.157C18.7506 44.1976 18.8448 44.1976 18.9154 44.157L19.0625 44.0758C19.0978 44.0584 19.1096 44.0121 19.0861 43.9773L16.7908 40.319C16.7613 40.2726 16.6966 40.2726 16.6672 40.319L15.3665 42.1916C15.3489 42.2264 15.3606 42.2728 15.3959 42.2902Z" fill="#F8F8F8"/>
</svg>
