<svg fill="none" height="93" viewBox="0 0 149 93" width="149" xmlns="http://www.w3.org/2000/svg">
<rect fill="#F8F8F8" height="28" rx="3" width="58" x="13" y="11" />
<rect fill="#C4C4C4" height="10" rx="3" width="12" x="17" y="23" />
<rect fill="#C4C4C4" height="3" rx="1.5" width="27" x="18" y="16" />
<rect fill="#C4C4C4" height="3" rx="1.5" width="31" x="33" y="23" />
<rect fill="#C4C4C4" height="3" rx="1.5" width="31" x="33" y="30" />
<rect fill="#F8F8F8" height="28" rx="3" width="58" x="13" y="47" />
<rect fill="#C4C4C4" height="10" rx="3" width="12" x="17" y="59" />
<rect fill="#C4C4C4" height="3" rx="1.5" width="27" x="18" y="52" />
<rect fill="#C4C4C4" height="3" rx="1.5" width="31" x="33" y="59" />
<rect fill="#C4C4C4" height="3" rx="1.5" width="31" x="33" y="66" />
<rect fill="#F8F8F8" height="28" rx="3" width="58" x="13" y="83" />
<rect fill="#C4C4C4" height="3" rx="1.5" width="27" x="18" y="88" />
<rect fill="#F8F8F8" height="28" rx="3" width="58" x="79" y="11" />
<rect fill="#C4C4C4" height="10" rx="3" width="12" x="83" y="23" />
<rect fill="#C4C4C4" height="3" rx="1.5" width="27" x="84" y="16" />
<rect fill="#C4C4C4" height="3" rx="1.5" width="31" x="99" y="23" />
<rect fill="#C4C4C4" height="3" rx="1.5" width="31" x="99" y="30" />
<rect fill="#F8F8F8" height="28" rx="3" width="58" x="79" y="47" />
<rect fill="#C4C4C4" height="10" rx="3" width="12" x="83" y="59" />
<rect fill="#C4C4C4" height="3" rx="1.5" width="27" x="84" y="52" />
<rect fill="#C4C4C4" height="3" rx="1.5" width="31" x="99" y="59" />
<rect fill="#C4C4C4" height="3" rx="1.5" width="31" x="99" y="66" />
<rect fill="#F8F8F8" height="28" rx="3" width="58" x="79" y="83" />
<rect fill="#C4C4C4" height="3" rx="1.5" width="27" x="84" y="88" />
</svg>
