<svg width="32" height="39" viewBox="0 0 32 39" fill="none" xmlns="http://www.w3.org/2000/svg">
<path d="M17.9067 33.4258V13.5006C17.9067 11.7192 19.3498 10.2749 21.1296 10.2749C22.9095 10.2749 24.3525 11.7192 24.3525 13.5006C24.3525 13.6768 24.3333 13.8492 24.3065 14.0178L24.3525 14.0216C26.4653 14.0216 28.1763 15.7341 28.1763 17.8488C28.1763 18.661 27.9237 19.4119 27.4911 20.0287L27.7667 20.2164C29.2021 20.7681 30.2164 22.1587 30.2164 23.7907C30.2164 25.1124 29.5466 26.2771 28.5323 26.9628L28.337 27.0854C28.6356 27.6294 28.804 28.2539 28.804 28.9205C28.804 31.0352 27.0931 32.7477 24.9802 32.7477H24.2759C24.3219 32.966 24.3486 33.1921 24.3486 33.4258C24.3486 35.2072 22.9056 36.6515 21.1258 36.6515C19.3536 36.6553 17.9067 35.211 17.9067 33.4258Z" fill="#C4C4C4"/>
<path d="M12.9881 36.6554C11.2082 36.6554 9.76522 35.2111 9.76522 33.4297C9.76522 33.196 9.79202 32.9699 9.83795 32.7516H9.13366C7.02081 32.7516 5.30986 31.0391 5.30986 28.9244C5.30986 28.2578 5.47827 27.6333 5.77683 27.0893L5.58162 26.9667C4.56347 26.2772 3.89746 25.1125 3.89746 23.7947C3.89746 22.1665 4.91561 20.772 6.34715 20.2203L6.62274 20.0326C6.19404 19.412 5.93759 18.6611 5.93759 17.8527C5.93759 15.738 7.64854 14.0255 9.76139 14.0255L9.80733 14.0217C9.78053 13.8532 9.76139 13.6808 9.76139 13.5045C9.76139 11.7231 11.2044 10.2788 12.9843 10.2788C14.7641 10.2788 16.2071 11.7231 16.2071 13.5045V33.4335C16.2148 35.2111 14.7718 36.6554 12.9881 36.6554Z" fill="#787878"/>
<path d="M24.7847 12.091L24.7349 12.0834C24.7656 11.8918 24.7847 11.7003 24.7847 11.5011C24.7847 9.48211 23.1503 7.8501 21.137 7.8501" stroke="#131313" stroke-miterlimit="10"/>
<path d="M28.3408 18.8948C28.8269 18.1937 29.114 17.3432 29.114 16.4276C29.114 14.0332 27.1772 12.0947 24.7849 12.0947" stroke="#131313" stroke-miterlimit="10"/>
<path d="M27.9121 27.771C27.9121 27.771 28.8001 27.204 29.5197 26.7481C30.6718 25.9704 31.4297 24.6526 31.4297 23.1546C31.4297 21.3119 30.2776 19.7335 28.6547 19.1091L28.3408 18.8945" stroke="#131313" stroke-miterlimit="10"/>
<path d="M17.4893 4.08789V34.0618C17.4893 36.0808 19.1237 37.7128 21.137 37.7128C23.1542 37.7128 24.7847 36.0769 24.7847 34.0618C24.7847 33.7975 24.7579 33.5446 24.7043 33.2956" stroke="#131313" stroke-miterlimit="10"/>
<path d="M22.6836 21.5801C21.076 21.5801 19.7708 22.8865 19.7708 24.4955C19.7708 26.1045 21.076 27.4109 22.6836 27.4109H26.515C28.1227 27.4109 29.4279 28.7173 29.4279 30.3263C29.4279 31.9353 28.1227 33.2417 26.515 33.2417H21.6769" stroke="#131313" stroke-miterlimit="10"/>
<path d="M24.7849 12.0908C23.1773 12.0908 21.8721 13.3972 21.8721 15.0062C21.8721 16.6153 23.1773 17.9216 24.7849 17.9216" stroke="#131313" stroke-miterlimit="10"/>
<path d="M21.0758 33.7743C21.414 33.7743 21.6882 33.4998 21.6882 33.1613C21.6882 32.8228 21.414 32.5483 21.0758 32.5483C20.7376 32.5483 20.4634 32.8228 20.4634 33.1613C20.4634 33.4998 20.7376 33.7743 21.0758 33.7743Z" fill="#F0F0F0" stroke="#131313" stroke-miterlimit="10"/>
<path d="M17.4894 4.37876C17.8276 4.37876 18.1018 4.10433 18.1018 3.7658C18.1018 3.42726 17.8276 3.15283 17.4894 3.15283C17.1511 3.15283 16.877 3.42726 16.877 3.7658C16.877 4.10433 17.1511 4.37876 17.4894 4.37876Z" fill="#F0F0F0" stroke="#131313" stroke-miterlimit="10"/>
<path d="M22.963 22.1932C23.3012 22.1932 23.5754 21.9188 23.5754 21.5803C23.5754 21.2417 23.3012 20.9673 22.963 20.9673C22.6248 20.9673 22.3506 21.2417 22.3506 21.5803C22.3506 21.9188 22.6248 22.1932 22.963 22.1932Z" fill="#F0F0F0" stroke="#131313" stroke-miterlimit="10"/>
<path d="M28.2718 19.5077C28.6101 19.5077 28.8843 19.2332 28.8843 18.8947C28.8843 18.5562 28.6101 18.2817 28.2718 18.2817C27.9336 18.2817 27.6594 18.5562 27.6594 18.8947C27.6594 19.2332 27.9336 19.5077 28.2718 19.5077Z" fill="#F0F0F0" stroke="#131313" stroke-miterlimit="10"/>
<path d="M24.7848 18.5345C25.123 18.5345 25.3972 18.2601 25.3972 17.9216C25.3972 17.583 25.123 17.3086 24.7848 17.3086C24.4466 17.3086 24.1724 17.583 24.1724 17.9216C24.1724 18.2601 24.4466 18.5345 24.7848 18.5345Z" fill="#131313" stroke="#131313" stroke-miterlimit="10"/>
<path d="M20.5248 8.29429C20.863 8.29429 21.1372 8.01985 21.1372 7.68132C21.1372 7.34279 20.863 7.06836 20.5248 7.06836C20.1865 7.06836 19.9124 7.34279 19.9124 7.68132C19.9124 8.01985 20.1865 8.29429 20.5248 8.29429Z" fill="#131313" stroke="#131313" stroke-miterlimit="10"/>
<path d="M11.2886 7.8501C9.27144 7.8501 7.64087 9.48594 7.64087 11.5011C7.64087 11.7003 7.66001 11.8957 7.69063 12.0834L7.64087 12.091" stroke="#131313" stroke-miterlimit="10"/>
<path d="M7.64082 12.0908C5.24855 12.0908 3.31177 14.0293 3.31177 16.4237C3.31177 17.3431 3.59884 18.1898 4.08495 18.8909" stroke="#131313" stroke-miterlimit="10"/>
<path d="M4.08507 18.8945L3.77503 19.1091C2.15212 19.7335 1 21.3081 1 23.1546C1 24.6487 1.75787 25.9666 2.90999 26.7481C3.62958 27.204 4.5176 27.771 4.5176 27.771" stroke="#131313" stroke-miterlimit="10"/>
<path d="M7.72125 33.2956C7.66766 33.5408 7.64087 33.7975 7.64087 34.0618C7.64087 36.0808 9.27527 37.7128 11.2886 37.7128C13.3058 37.7128 14.9363 36.0769 14.9363 34.0618V1.90039" stroke="#131313" stroke-miterlimit="10"/>
<path d="M10.7527 33.2417H5.91454C4.30693 33.2417 3.00171 31.9353 3.00171 30.3263C3.00171 28.7173 4.30693 27.4109 5.91454 27.4109H9.746C11.3536 27.4109 12.6588 26.1045 12.6588 24.4955C12.6588 22.8865 11.3536 21.5801 9.746 21.5801" stroke="#131313" stroke-miterlimit="10"/>
<path d="M7.64087 17.9216C9.24848 17.9216 10.5537 16.6153 10.5537 15.0062C10.5537 13.3972 9.24848 12.0908 7.64087 12.0908" stroke="#131313" stroke-miterlimit="10"/>
<path d="M11.3536 33.7743C11.6919 33.7743 11.9661 33.4998 11.9661 33.1613C11.9661 32.8228 11.6919 32.5483 11.3536 32.5483C11.0154 32.5483 10.7412 32.8228 10.7412 33.1613C10.7412 33.4998 11.0154 33.7743 11.3536 33.7743Z" fill="#C4C4C4" stroke="#131313" stroke-miterlimit="10"/>
<path d="M9.46667 22.1932C9.8049 22.1932 10.0791 21.9188 10.0791 21.5803C10.0791 21.2417 9.8049 20.9673 9.46667 20.9673C9.12844 20.9673 8.85425 21.2417 8.85425 21.5803C8.85425 21.9188 9.12844 22.1932 9.46667 22.1932Z" fill="#C4C4C4" stroke="#131313" stroke-miterlimit="10"/>
<path d="M14.9401 2.51304C15.2783 2.51304 15.5525 2.2386 15.5525 1.90007C15.5525 1.56154 15.2783 1.28711 14.9401 1.28711C14.6018 1.28711 14.3276 1.56154 14.3276 1.90007C14.3276 2.2386 14.6018 2.51304 14.9401 2.51304Z" fill="#C4C4C4" stroke="#131313" stroke-miterlimit="10"/>
<path d="M4.15393 19.5077C4.49216 19.5077 4.76635 19.2332 4.76635 18.8947C4.76635 18.5562 4.49216 18.2817 4.15393 18.2817C3.81569 18.2817 3.5415 18.5562 3.5415 18.8947C3.5415 19.2332 3.81569 19.5077 4.15393 19.5077Z" fill="#C4C4C4" stroke="#131313" stroke-miterlimit="10"/>
<path d="M7.64099 18.5345C7.97922 18.5345 8.25341 18.2601 8.25341 17.9216C8.25341 17.583 7.97922 17.3086 7.64099 17.3086C7.30275 17.3086 7.02856 17.583 7.02856 17.9216C7.02856 18.2601 7.30275 18.5345 7.64099 18.5345Z" fill="#131313" stroke="#131313" stroke-miterlimit="10"/>
<path d="M11.9049 8.29429C12.2431 8.29429 12.5173 8.01985 12.5173 7.68132C12.5173 7.34279 12.2431 7.06836 11.9049 7.06836C11.5667 7.06836 11.2925 7.34279 11.2925 7.68132C11.2925 8.01985 11.5667 8.29429 11.9049 8.29429Z" fill="#131313" stroke="#131313" stroke-miterlimit="10"/>
</svg>
