<svg width="24" height="24" viewBox="0 0 24 24" fill="none" xmlns="http://www.w3.org/2000/svg">
    <g clip-path="url(#clip0_912_2335)">
        <path d="M35 0H-11V24H35V0Z" fill="#53AEDF" />
        <path d="M35 7.2121H-11V17.3488H35V7.2121Z" fill="white" />
        <path
            d="M11.9165 8.17486C11.849 8.25966 11.8071 10.4274 11.8071 10.6624H12.0614C12.0614 10.6624 12.0808 8.34812 11.9969 8.16572C11.9578 8.0864 11.9165 8.17486 11.9165 8.17486Z"
            fill="#FFB30E" />
        <path
            d="M12.0761 10.6772H11.792V10.6624C11.792 10.536 11.8294 8.25963 11.9046 8.16546C11.9046 8.16341 11.9277 8.11792 11.9607 8.11792C11.9794 8.11792 11.9959 8.13163 12.0095 8.15883C12.0939 8.34169 12.0761 10.568 12.0754 10.6626L12.0761 10.6772ZM11.8218 10.6477H12.0476C12.049 10.4503 12.0627 8.34169 11.9845 8.17186C11.9769 8.15655 11.9684 8.14741 11.9614 8.14741C11.9503 8.14741 11.9358 8.16752 11.9293 8.18123C11.8671 8.26421 11.8232 10.3149 11.8218 10.6477Z"
            fill="#983107" />
        <path d="M11.9182 10.6565L11.9309 9.16388L11.9564 10.6523L11.9182 10.6565Z"
            fill="#983107" />
        <path
            d="M10.3459 8.5223C10.3175 8.62767 11.1342 10.6288 11.2266 10.8437L11.4596 10.7388C11.4596 10.7388 10.5651 8.61304 10.4164 8.48047C10.3489 8.42424 10.3459 8.5223 10.3459 8.5223Z"
            fill="#FFB30E" />
        <path
            d="M11.2191 10.8631L11.2133 10.8496C11.1636 10.7342 10.3002 8.6352 10.3319 8.51817C10.3319 8.49531 10.3435 8.448 10.38 8.448C10.3974 8.4492 10.4138 8.45659 10.4262 8.4688C10.576 8.60206 11.4371 10.6457 11.4738 10.7328L11.4794 10.7461L11.2191 10.8631ZM10.38 8.47771C10.3663 8.47771 10.3606 8.5088 10.3601 8.52343C10.337 8.62514 11.104 10.52 11.2341 10.8249L11.4405 10.7319C11.364 10.5506 10.545 8.61554 10.4068 8.49188C10.3997 8.48431 10.3903 8.47931 10.38 8.47771Z"
            fill="#983107" />
        <path d="M11.3258 10.7925L10.749 9.42126L11.3588 10.773L11.3258 10.7925Z" fill="#983107" />
        <path
            d="M13.5059 8.52158C13.4104 8.57118 12.5163 10.5374 12.4236 10.7522L12.6566 10.8574C12.6566 10.8574 13.5881 8.74809 13.5835 8.54672C13.5787 8.45712 13.5059 8.52158 13.5059 8.52158Z"
            fill="#FFB30E" />
        <path
            d="M12.6637 10.8768L12.4045 10.7598L12.4103 10.7463C12.4602 10.632 13.3934 8.56366 13.4991 8.50857C13.5141 8.49558 13.5328 8.48758 13.5527 8.48572C13.5682 8.48572 13.595 8.49372 13.5989 8.54675C13.6033 8.74972 12.7085 10.7781 12.6704 10.8645L12.6637 10.8768ZM12.4427 10.7447L12.6491 10.8379C12.7284 10.6581 13.5737 8.73509 13.5691 8.54697C13.5679 8.52549 13.5624 8.51429 13.5527 8.51429C13.5386 8.51689 13.5256 8.5233 13.515 8.5328C13.4251 8.58309 12.5751 10.4409 12.4427 10.7447V10.7447Z"
            fill="#983107" />
        <path d="M12.5273 10.7927L13.1284 9.43243L12.5639 10.8043L12.5273 10.7927Z"
            fill="#983107" />
        <path
            d="M14.7575 9.37145C14.6512 9.3822 13.1203 10.8821 12.9575 11.0478L13.1371 11.2323C13.1371 11.2323 14.7552 9.61305 14.8211 9.42357C14.8481 9.33831 14.7575 9.37145 14.7575 9.37145Z"
            fill="#FFB30E" />
        <path
            d="M13.1367 11.2523L12.9368 11.0466L12.9472 11.0363C13.0345 10.9472 14.636 9.36959 14.7557 9.35541C14.7673 9.3515 14.7794 9.34942 14.7916 9.34924C14.7993 9.34855 14.8072 9.34982 14.8143 9.35294C14.8215 9.35606 14.8277 9.36092 14.8325 9.36707C14.8375 9.37619 14.8404 9.38635 14.8408 9.39675C14.8412 9.40714 14.8391 9.41748 14.8348 9.42696C14.7671 9.61782 13.2132 11.1755 13.1473 11.2416L13.1367 11.2523ZM12.9777 11.0466L13.1369 11.2103C13.2756 11.072 14.7449 9.59359 14.8075 9.41713C14.8124 9.40679 14.813 9.39497 14.8091 9.38422C14.8068 9.38212 14.804 9.38053 14.8009 9.37954C14.7979 9.37856 14.7947 9.37821 14.7916 9.3785C14.7816 9.37882 14.7717 9.38059 14.7622 9.38376C14.6607 9.39793 13.2091 10.8135 12.9777 11.0473V11.0466Z"
            fill="#983107" />
        <path d="M13.0398 11.1232L14.0828 10.0791L13.0696 11.1479L13.0398 11.1232Z"
            fill="#983107" />
        <path
            d="M12.8208 8.27952C12.7536 8.277 12.5361 8.40477 12.5289 8.67746C12.5217 8.95014 12.4785 9.24889 12.4498 9.34443C12.4212 9.43997 12.2478 9.86283 12.1956 10.1047C12.1449 10.3389 12.1436 10.6669 12.1436 10.6669L12.3849 10.7296C12.3849 10.7296 12.4357 10.3501 12.4311 10.2322C12.4265 10.1143 12.5929 9.5922 12.6324 9.48797C12.6902 9.33689 12.6865 9.09003 12.6722 8.92797C12.6579 8.76592 12.5821 8.61117 12.6828 8.50443C12.7804 8.40203 12.9182 8.28317 12.8208 8.27952Z"
            fill="#FFB30E" />
        <path
            d="M12.3968 10.7479L12.1289 10.6793V10.6679C12.1289 10.6644 12.1308 10.3355 12.1809 10.1026C12.2181 9.93164 12.3148 9.67152 12.3786 9.49941C12.4058 9.42649 12.4271 9.36889 12.4357 9.34101C12.4636 9.24798 12.5071 8.95084 12.5142 8.67815C12.5214 8.4105 12.7332 8.26672 12.8184 8.26672C12.8453 8.26672 12.8603 8.27564 12.8661 8.28958C12.8792 8.32455 12.8312 8.37552 12.7449 8.46307C12.7276 8.48067 12.7103 8.49849 12.6939 8.51564C12.6259 8.58787 12.6446 8.68432 12.6663 8.79609C12.6744 8.83884 12.683 8.88295 12.6871 8.92775C12.6948 9.01529 12.7149 9.31518 12.6465 9.49461C12.6035 9.60752 12.4426 10.1195 12.4463 10.2329C12.4498 10.3506 12.4001 10.7172 12.3989 10.7328L12.3968 10.7479ZM12.1578 10.6564L12.3728 10.7122C12.3823 10.6382 12.4206 10.3351 12.4176 10.2336C12.4139 10.1113 12.5794 9.58924 12.6199 9.48364C12.686 9.31015 12.6661 9.01621 12.6585 8.93027C12.6541 8.88704 12.6473 8.84408 12.6381 8.80158C12.615 8.68729 12.5949 8.57827 12.6735 8.49507C12.6899 8.47769 12.7075 8.45964 12.7248 8.44204C12.7711 8.39632 12.8464 8.31861 12.8404 8.30009C12.8404 8.30009 12.8358 8.29575 12.821 8.2953C12.7579 8.2953 12.5512 8.41484 12.5436 8.67884C12.5364 8.95312 12.4923 9.25507 12.4639 9.34969C12.4551 9.37872 12.4336 9.43655 12.4063 9.50969C12.3427 9.68089 12.2466 9.93987 12.21 10.1088C12.165 10.3136 12.1587 10.5956 12.1578 10.6555V10.6564Z"
            fill="#983107" />
        <path
            d="M12.2588 10.6816C12.2588 10.6816 12.248 10.4606 12.2623 10.3429C12.2789 10.0832 12.3497 9.82984 12.4703 9.59863C12.5175 9.50699 12.5503 9.4088 12.5676 9.30743C12.5539 9.41374 12.5261 9.5178 12.4849 9.61692C12.4199 9.76435 12.3046 9.94126 12.2831 10.4855L12.2903 10.7029L12.2588 10.6816Z"
            fill="#983107" />
        <path
            d="M14.2515 8.94677C14.1905 8.91774 13.9415 8.94882 13.831 9.19705C13.7206 9.44528 13.5671 9.70288 13.5042 9.77968C13.4413 9.85648 13.1207 10.1767 12.9804 10.3788C12.8445 10.5742 12.7183 10.8757 12.7183 10.8757L12.9166 11.0295C12.9166 11.0295 13.1082 10.7004 13.1498 10.5902C13.1914 10.48 13.5428 10.0659 13.6186 9.98517C13.7291 9.86905 13.82 9.64025 13.8685 9.48505C13.917 9.32985 13.9062 9.15751 14.0398 9.09922C14.1676 9.04345 14.3396 8.98905 14.2515 8.94677Z"
            fill="#FFB30E" />
        <path
            d="M12.921 11.0512L12.7007 10.8805L12.7051 10.8699C12.7051 10.867 12.8334 10.5648 12.9686 10.3701C13.0678 10.2274 13.2559 10.0272 13.3805 9.89325C13.433 9.83702 13.4746 9.79245 13.4931 9.77005C13.5543 9.69554 13.7076 9.43931 13.8179 9.19085C13.9119 8.97942 14.1008 8.92297 14.1974 8.92297C14.218 8.92215 14.2385 8.92573 14.2575 8.93348C14.2795 8.94399 14.2903 8.95634 14.2899 8.97302C14.2899 9.01051 14.2252 9.03839 14.1124 9.08479C14.0892 9.09394 14.0661 9.10331 14.0453 9.11291C13.9552 9.15222 13.9355 9.24845 13.9131 9.35999C13.905 9.40369 13.8947 9.44695 13.8821 9.48959C13.856 9.57325 13.7603 9.85737 13.6278 9.99542C13.5451 10.0823 13.2021 10.4896 13.1621 10.5957C13.1205 10.7054 12.9358 11.0235 12.9279 11.037L12.921 11.0512ZM12.736 10.8711L12.9124 11.0082C12.9496 10.944 13.1004 10.68 13.1362 10.5854C13.1796 10.4711 13.5308 10.0565 13.6082 9.97531C13.7353 9.84205 13.829 9.56388 13.8546 9.48114C13.8676 9.43954 13.8763 9.39634 13.8849 9.35451C13.908 9.24022 13.9311 9.13142 14.034 9.08617C14.0557 9.07657 14.0788 9.06719 14.1017 9.05782C14.1611 9.03359 14.2605 8.99268 14.2612 8.97257C14.2612 8.97257 14.2584 8.96685 14.2453 8.96068C14.19 8.93439 13.9522 8.96068 13.8442 9.20365C13.7326 9.45508 13.5775 9.71382 13.515 9.78948C13.4961 9.81234 13.4543 9.85805 13.4013 9.91405C13.2772 10.0464 13.0899 10.2466 12.9922 10.3877C12.8729 10.56 12.7596 10.816 12.736 10.8711Z"
            fill="#983107" />
        <path
            d="M12.8188 10.9353C12.8188 10.9353 12.893 10.7273 12.9513 10.6245C13.0652 10.3928 13.2274 10.1876 13.4272 10.0224C13.5056 9.95689 13.5732 9.87978 13.6277 9.79382C13.5746 9.88584 13.5093 9.9704 13.4335 10.0453C13.3179 10.1552 13.1441 10.272 12.9166 10.7657L12.8403 10.9687L12.8188 10.9353Z"
            fill="#983107" />
        <path
            d="M15.6492 10.7621C15.548 10.7273 13.5485 11.4478 13.3335 11.5305L13.4227 11.7742C13.4227 11.7742 15.5494 10.9808 15.6862 10.8371C15.7447 10.7708 15.6492 10.7621 15.6492 10.7621Z"
            fill="#FFB30E" />
        <path
            d="M13.4141 11.7943L13.3147 11.523L13.3281 11.5177C13.5114 11.4476 15.4501 10.7474 15.6397 10.7474C15.6447 10.7474 15.6496 10.748 15.6545 10.7493C15.6575 10.7493 15.7055 10.7545 15.7176 10.7861C15.7245 10.8041 15.7176 10.8249 15.6974 10.8476C15.5588 10.9929 13.5153 11.7568 13.4284 11.7893L13.4141 11.7943ZM13.3519 11.5404L13.4312 11.7566C13.6124 11.688 15.5477 10.9616 15.6757 10.8274C15.6873 10.8146 15.6926 10.8032 15.6901 10.7968C15.6861 10.7863 15.6625 10.7794 15.648 10.7781C15.645 10.7773 15.642 10.7769 15.639 10.7769C15.4672 10.7758 13.6489 11.4268 13.3519 11.5392V11.5404Z"
            fill="#983107" />
        <path d="M13.3779 11.6345L14.7489 11.123L13.395 11.6695L13.3779 11.6345Z" fill="#983107" />
        <path
            d="M15.9432 12.2668C15.8605 12.1982 13.741 12.1525 13.5112 12.1525V12.4128C13.5112 12.4128 15.774 12.4357 15.9525 12.3493C16.0297 12.3093 15.9432 12.2668 15.9432 12.2668Z"
            fill="#FFB30E" />
        <path
            d="M14.1214 12.4306C13.7747 12.4306 13.5137 12.4281 13.5109 12.4281H13.4966V12.1385H13.5109C13.6344 12.1385 15.8602 12.1789 15.9522 12.2557C15.9542 12.2557 15.9984 12.2786 15.9984 12.3127C15.9984 12.3321 15.9852 12.349 15.9582 12.3632C15.8421 12.4187 14.8953 12.4306 14.1214 12.4306ZM13.5255 12.3986C13.5847 12.3986 13.8209 12.4011 14.1214 12.4011C15.2111 12.4011 15.8592 12.3783 15.9461 12.3364C15.9614 12.3284 15.9693 12.3197 15.9693 12.3136C15.9693 12.3024 15.9494 12.2873 15.936 12.2809C15.8548 12.2169 13.8498 12.17 13.5246 12.1684L13.5255 12.3986Z"
            fill="#983107" />
        <path d="M13.5171 12.2665L14.9764 12.2807L13.521 12.3052L13.5171 12.2665Z" fill="#983107" />
        <path
            d="M15.3323 10.1029C15.2861 10.0519 15.0459 9.98241 14.8503 10.1678C14.6548 10.3532 14.4158 10.5303 14.3286 10.576C14.2415 10.6217 13.8252 10.7909 13.6194 10.9218C13.4202 11.0487 13.1902 11.277 13.1902 11.277L13.315 11.4972C13.315 11.4972 13.6155 11.2686 13.6957 11.184C13.7759 11.0994 14.2551 10.8551 14.3568 10.811C14.5025 10.7474 14.6726 10.5721 14.7759 10.4482C14.8792 10.3244 14.9345 10.1609 15.0797 10.16C15.2186 10.1593 15.398 10.1769 15.3323 10.1029Z"
            fill="#FFB30E" />
        <path
            d="M13.3106 11.52L13.1719 11.2754L13.18 11.2674C13.1823 11.2651 13.4134 11.0366 13.6118 10.9104C13.7569 10.819 14.0063 10.7067 14.1714 10.6334C14.2407 10.602 14.2964 10.5776 14.3221 10.5648C14.4067 10.5202 14.6457 10.3442 14.8404 10.1588C14.9213 10.0791 15.0308 10.0342 15.145 10.0338C15.2396 10.0338 15.3161 10.0644 15.3431 10.0948C15.3593 10.1131 15.3644 10.1296 15.3581 10.144C15.3461 10.1723 15.2953 10.1778 15.2121 10.1778H15.1522H15.0907H15.0796C14.9816 10.1778 14.9273 10.2596 14.8644 10.3538C14.8404 10.3909 14.8145 10.4267 14.7867 10.461C14.731 10.528 14.5355 10.7524 14.3623 10.8267C14.253 10.8743 13.7828 11.1145 13.7061 11.1963C13.6293 11.2782 13.3362 11.5019 13.3235 11.5113L13.3106 11.52ZM13.2082 11.2807L13.3194 11.4766C13.3778 11.432 13.6166 11.248 13.6853 11.1748C13.768 11.0866 14.2488 10.843 14.351 10.7984C14.5184 10.7257 14.7102 10.5056 14.7648 10.4398C14.7919 10.4063 14.8171 10.3713 14.8404 10.3351C14.9053 10.2384 14.9663 10.1472 15.0794 10.1465H15.0907H15.1524H15.2121C15.3138 10.1465 15.3297 10.1351 15.3318 10.1303C15.3318 10.1303 15.3318 10.1239 15.3219 10.1129C15.3027 10.0916 15.2354 10.0615 15.145 10.0615C15.0381 10.0619 14.9357 10.1039 14.86 10.1785C14.6626 10.3657 14.4208 10.5442 14.3353 10.5899C14.3089 10.6036 14.2532 10.6286 14.183 10.6599C14.0186 10.733 13.7706 10.8427 13.6268 10.9342C13.4523 11.0459 13.2507 11.2384 13.2082 11.2798V11.2807Z"
            fill="#983107" />
        <path
            d="M13.2603 11.3717C13.2603 11.3717 13.4073 11.2094 13.4997 11.1374C13.6923 10.9686 13.9197 10.8432 14.1662 10.7699C14.2632 10.7403 14.3548 10.6956 14.4375 10.6375C14.3539 10.7017 14.2616 10.7541 14.1634 10.7932C14.015 10.8489 13.8106 10.8883 13.4144 11.2537L13.2676 11.411L13.2603 11.3717Z"
            fill="#983107" />
        <path
            d="M15.8664 11.6158C15.8433 11.5509 15.6484 11.3906 15.3976 11.4834C15.1468 11.5762 14.8595 11.6434 14.7617 11.6514C14.6639 11.6594 14.2159 11.6487 13.9758 11.6873C13.7446 11.7248 13.4441 11.8434 13.4441 11.8434L13.4753 12.096C13.4753 12.096 13.8394 12.0046 13.9452 11.9589C14.0511 11.9131 14.586 11.8789 14.6963 11.8786C14.8548 11.8786 15.0781 11.7847 15.2205 11.7118C15.3629 11.6389 15.4748 11.5104 15.61 11.5673C15.7402 11.6222 15.8985 11.7097 15.8664 11.6158Z"
            fill="#FFB30E" />
        <path
            d="M13.4648 12.1143L13.4302 11.8338L13.4408 11.8297C13.4438 11.8283 13.7439 11.7101 13.9743 11.6729C14.1435 11.6455 14.4156 11.6425 14.5954 11.6404C14.6717 11.6404 14.7318 11.6391 14.7607 11.6368C14.8555 11.6295 15.1419 11.5623 15.3927 11.4695C15.4431 11.4504 15.4966 11.4406 15.5506 11.4404C15.7286 11.4404 15.8596 11.5513 15.88 11.6107C15.8835 11.6178 15.8854 11.6256 15.8854 11.6336C15.8854 11.6415 15.8835 11.6493 15.88 11.6564C15.8762 11.6614 15.8713 11.6653 15.8656 11.6678C15.8599 11.6703 15.8536 11.6714 15.8474 11.6708C15.8099 11.6708 15.744 11.6409 15.674 11.6093C15.6509 11.5993 15.6292 11.5892 15.6074 11.5801C15.5877 11.5714 15.5664 11.5669 15.5448 11.5668C15.478 11.5668 15.4121 11.6103 15.3421 11.656C15.3059 11.6807 15.2685 11.7036 15.23 11.7245C15.153 11.7639 14.8874 11.8925 14.6983 11.893C14.5797 11.893 14.055 11.9273 13.953 11.9721C13.8472 12.0178 13.4956 12.1058 13.4808 12.1092L13.4648 12.1143ZM13.4616 11.853L13.4894 12.0777C13.5601 12.0599 13.8502 11.9863 13.9415 11.9456C14.0513 11.8973 14.5871 11.8644 14.6981 11.8642C14.8798 11.8642 15.1403 11.7376 15.2159 11.6987C15.2536 11.6786 15.2901 11.6565 15.3254 11.6324C15.3989 11.5842 15.4685 11.5385 15.5436 11.5385C15.569 11.5386 15.5941 11.5438 15.6174 11.5538C15.6391 11.5632 15.662 11.5735 15.6844 11.5835C15.7484 11.6125 15.815 11.6425 15.8462 11.6425C15.8494 11.6429 15.8527 11.6422 15.8555 11.6404C15.8555 11.6404 15.8571 11.6336 15.8527 11.6205C15.8384 11.5792 15.7242 11.4699 15.5506 11.4699C15.4999 11.4702 15.4497 11.4794 15.4024 11.4971C15.1481 11.5908 14.8592 11.6587 14.7628 11.6663C14.7332 11.6685 14.6726 11.6692 14.5959 11.6701C14.4167 11.672 14.1458 11.6749 13.9789 11.7019C13.7755 11.7348 13.5166 11.8317 13.4616 11.853V11.853Z"
            fill="#983107" />
        <path
            d="M13.4749 11.9584C13.4749 11.9584 13.6721 11.867 13.7846 11.8382C14.0273 11.7593 14.2846 11.7343 14.5382 11.7651C14.6385 11.7765 14.7399 11.7719 14.8387 11.7513C14.7369 11.7771 14.6319 11.7886 14.5269 11.7854C14.369 11.7776 14.1658 11.7326 13.6616 11.9111L13.4666 11.9975L13.4749 11.9584Z"
            fill="#983107" />
        <path
            d="M15.6385 13.8914C15.5892 13.7943 13.6607 12.8939 13.4499 12.8007L13.3486 13.0395C13.3486 13.0395 15.4177 13.9767 15.614 13.9709C15.7013 13.9657 15.6385 13.8914 15.6385 13.8914Z"
            fill="#FFB30E" />
        <path
            d="M15.6125 13.9858C15.4045 13.9858 13.4269 13.091 13.3428 13.053L13.3298 13.0471L13.4422 12.7812L13.4556 12.787C13.5688 12.8373 15.5965 13.7769 15.6516 13.8841C15.6532 13.8855 15.6848 13.9241 15.6721 13.9552C15.6647 13.9732 15.6458 13.9833 15.6157 13.9854L15.6125 13.9858ZM13.3675 13.032C13.5434 13.1113 15.4181 13.9563 15.6125 13.9563V13.9712L15.6141 13.9563C15.6312 13.9552 15.6425 13.9509 15.6453 13.9445C15.6495 13.9342 15.6372 13.9124 15.6275 13.901C15.5778 13.8096 13.7552 12.9534 13.4572 12.8199L13.3675 13.032Z"
            fill="#983107" />
        <path d="M13.4112 12.907L14.7455 13.512L13.3999 12.9445L13.4112 12.907Z" fill="#983107" />
        <path
            d="M15.8562 13.1795C15.8581 13.1109 15.7316 12.8894 15.4649 12.8839C15.1981 12.8784 14.9062 12.8364 14.8123 12.8078C14.7185 12.7792 14.3038 12.6048 14.0671 12.5532C13.8378 12.5031 13.5169 12.504 13.5169 12.504L13.4575 12.7513C13.4575 12.7513 13.829 12.8005 13.9443 12.7971C14.0597 12.7936 14.5703 12.9571 14.6732 12.9975C14.8213 13.0553 15.0627 13.0499 15.221 13.0341C15.3793 13.0183 15.5301 12.9397 15.6352 13.0421C15.736 13.1392 15.8532 13.28 15.8562 13.1795Z"
            fill="#FFB30E" />
        <path
            d="M15.8356 13.2283C15.8017 13.2283 15.7533 13.181 15.6773 13.1038C15.66 13.0862 15.6426 13.0683 15.6255 13.0519C15.6087 13.0356 15.5886 13.023 15.5666 13.0148C15.5446 13.0066 15.5212 13.0029 15.4977 13.0041C15.4482 13.0064 15.3991 13.0136 15.3511 13.0256C15.3087 13.0355 15.2657 13.0431 15.2224 13.0484C15.1734 13.0532 15.0971 13.0592 15.0111 13.0592C14.9108 13.0592 14.77 13.051 14.6681 13.011C14.5613 12.9694 14.0687 12.8114 13.9492 12.8114H13.9448C13.8292 12.8155 13.4702 12.7684 13.4556 12.7657L13.4397 12.7634L13.5056 12.4891H13.5169C13.5518 12.4891 13.85 12.4905 14.0701 12.5385C14.2374 12.5751 14.4924 12.672 14.6611 12.7362C14.7326 12.7634 14.789 12.7849 14.8167 12.7934C14.9075 12.8213 15.1983 12.8635 15.4653 12.869C15.525 12.8698 15.5839 12.8826 15.6385 12.9067C15.693 12.9307 15.742 12.9655 15.7825 13.0089C15.8416 13.0725 15.8717 13.1428 15.8705 13.1796C15.8691 13.2222 15.8481 13.2283 15.8356 13.2283ZM15.4977 12.9746C15.5249 12.9734 15.552 12.9777 15.5774 12.9873C15.6028 12.9969 15.626 13.0116 15.6454 13.0304C15.6625 13.0471 15.6801 13.0649 15.6976 13.0827C15.7485 13.1346 15.8118 13.1989 15.8363 13.1989C15.8416 13.1989 15.8423 13.1824 15.8423 13.1792C15.8423 13.1552 15.822 13.0935 15.7624 13.0295C15.7247 12.9885 15.6788 12.9558 15.6277 12.9333C15.5766 12.9108 15.5213 12.899 15.4653 12.8987C15.1963 12.8932 14.9015 12.8503 14.8088 12.8217C14.7806 12.813 14.7235 12.7915 14.6516 12.7641C14.4838 12.7001 14.23 12.6041 14.0647 12.5675C13.8629 12.5234 13.5856 12.5193 13.5289 12.5188L13.476 12.7387C13.5483 12.7481 13.8442 12.7844 13.9443 12.7812H13.9499C14.0781 12.7812 14.5793 12.9438 14.6789 12.9828C14.7566 13.013 14.8715 13.0286 15.0118 13.0286C15.0966 13.0286 15.172 13.0228 15.2198 13.018C15.2621 13.0127 15.304 13.0051 15.3453 12.9952C15.3953 12.9833 15.4463 12.9764 15.4977 12.9746V12.9746Z"
            fill="#983107" />
        <path
            d="M13.5025 12.622C13.5025 12.622 13.7184 12.6094 13.8337 12.6233C14.0893 12.6389 14.3383 12.71 14.563 12.8316C14.6521 12.8791 14.7485 12.912 14.8482 12.9289C14.7437 12.9156 14.6417 12.8878 14.545 12.8464C14.4005 12.7813 14.2267 12.6647 13.6936 12.6464L13.481 12.6553L13.5025 12.622Z"
            fill="#983107" />
        <path
            d="M14.7771 15.1582C14.7649 15.0496 13.2765 13.5058 13.1128 13.3417L12.9351 13.5282C12.9351 13.5282 14.5418 15.1582 14.7279 15.224C14.8102 15.2503 14.7771 15.1582 14.7771 15.1582Z"
            fill="#FFB30E" />
        <path
            d="M14.7529 15.2434C14.7427 15.2433 14.7325 15.2415 14.7228 15.2382C14.5351 15.1717 12.9892 13.6053 12.924 13.5385L12.9138 13.5282L13.1117 13.3209L13.1221 13.3312C13.2104 13.4194 14.7779 15.0363 14.7915 15.1566C14.7915 15.1579 14.807 15.2007 14.7894 15.2251C14.7855 15.2311 14.78 15.2359 14.7736 15.2391C14.7672 15.2423 14.7601 15.2438 14.7529 15.2434V15.2434ZM12.9545 13.5292C13.0916 13.6679 14.5585 15.1497 14.7316 15.2112C14.7385 15.2135 14.7457 15.2148 14.7529 15.2151C14.7624 15.2151 14.7649 15.2117 14.7658 15.2103C14.7705 15.1953 14.7697 15.1791 14.7635 15.1646C14.7492 15.061 13.344 13.5973 13.1121 13.3639L12.9545 13.5292Z"
            fill="#983107" />
        <path d="M13.0385 13.427L14.0745 14.4784L13.0149 13.4579L13.0385 13.427Z" fill="#983107" />
        <path
            d="M13.4507 16.1049C13.4817 16.0002 12.7135 13.9792 12.6262 13.7618L12.3906 13.861C12.3906 13.861 13.2339 16.0096 13.3793 16.1449C13.4452 16.2028 13.4507 16.1049 13.4507 16.1049Z"
            fill="#FFB30E" />
        <path
            d="M13.4157 16.1778C13.3981 16.1764 13.3817 16.1687 13.3695 16.1561C13.2229 16.019 12.4116 13.9543 12.3769 13.8665L12.3716 13.853L12.6335 13.7426L12.6393 13.7563C12.6855 13.8731 13.4985 15.9931 13.4643 16.109C13.4638 16.1326 13.4518 16.1778 13.4157 16.1778ZM12.4095 13.8692C12.4816 14.0521 13.2537 16.0075 13.3891 16.1342C13.3961 16.1419 13.4054 16.147 13.4157 16.1488C13.4296 16.1488 13.4358 16.1161 13.4363 16.1031C13.4633 16.002 12.741 14.0884 12.6185 13.7803L12.4095 13.8692Z"
            fill="#983107" />
        <path d="M12.5259 13.8105L13.0694 15.1959L12.4922 13.8292L12.5259 13.8105Z"
            fill="#983107" />
        <path
            d="M14.092 15.7499C14.1405 15.7021 14.2006 15.4528 14.0134 15.2592C13.8261 15.0656 13.6454 14.8265 13.5973 14.7389C13.5492 14.6514 13.3712 14.2311 13.2367 14.0249C13.1065 13.8253 12.8761 13.5972 12.8761 13.5972L12.6648 13.7321C12.6648 13.7321 12.8973 14.0324 12.9831 14.1113C13.0689 14.1901 13.3224 14.6727 13.3687 14.7741C13.4355 14.9213 13.6121 15.0896 13.7364 15.1911C13.8608 15.2925 14.0221 15.344 14.0277 15.4923C14.0342 15.6354 14.0221 15.8192 14.092 15.7499Z"
            fill="#FFB30E" />
        <path
            d="M14.0659 15.7796C14.0197 15.7796 14.0176 15.691 14.0157 15.568C14.0157 15.5431 14.0157 15.5179 14.0139 15.4939C14.0102 15.3936 13.929 15.3406 13.8352 15.2793C13.7981 15.256 13.7623 15.2308 13.7279 15.2036C13.6607 15.1486 13.4355 14.9561 13.3562 14.7812C13.3063 14.6713 13.0557 14.1984 12.9739 14.1223C12.8921 14.0462 12.6635 13.7536 12.654 13.7412L12.644 13.7282L12.8784 13.5787L12.8865 13.5867C12.8888 13.589 13.1198 13.818 13.2492 14.0167C13.3442 14.1623 13.461 14.4139 13.5379 14.5803C13.5707 14.6505 13.5964 14.7061 13.6103 14.7319C13.6565 14.8169 13.8363 15.0546 14.0236 15.2489C14.1092 15.3363 14.1566 15.4536 14.1556 15.5753C14.1556 15.6631 14.1281 15.7353 14.1022 15.7605C14.0977 15.7659 14.0922 15.7703 14.086 15.7736C14.0797 15.7769 14.0729 15.779 14.0659 15.7796V15.7796ZM12.6866 13.7358C12.7328 13.794 12.9193 14.0329 12.9931 14.1003C13.0823 14.1824 13.3357 14.6661 13.3821 14.7689C13.4589 14.9378 13.6801 15.1266 13.746 15.1803C13.7795 15.2069 13.8146 15.2315 13.8509 15.2542C13.9471 15.3172 14.0384 15.3769 14.0428 15.4926C14.0428 15.5168 14.0439 15.5422 14.0444 15.5671C14.0444 15.6219 14.0476 15.7499 14.0659 15.7499C14.0659 15.7499 14.0714 15.7499 14.0821 15.7392C14.0989 15.7225 14.126 15.6633 14.1269 15.5749C14.1276 15.5184 14.1171 15.4623 14.0958 15.4098C14.0745 15.3574 14.043 15.3096 14.003 15.2693C13.8139 15.0734 13.6332 14.8324 13.5851 14.7458C13.5707 14.7193 13.5449 14.6635 13.512 14.5927C13.4353 14.427 13.319 14.1767 13.2252 14.0329C13.111 13.8576 12.9163 13.6578 12.8745 13.6158L12.6866 13.7358Z"
            fill="#983107" />
        <path
            d="M12.7859 13.6722C12.7859 13.6722 12.9494 13.8174 13.0224 13.9095C13.1954 14.1037 13.325 14.3319 13.4029 14.579C13.4347 14.6765 13.4815 14.7686 13.5416 14.8521C13.4755 14.7683 13.4211 14.676 13.3798 14.5778C13.3206 14.4279 13.2757 14.2204 12.9059 13.827L12.7476 13.6818L12.7859 13.6722Z"
            fill="#983107" />
        <path
            d="M15.222 14.6491C15.25 14.5867 15.2178 14.3323 14.9744 14.2213C14.731 14.1102 14.4779 13.9547 14.4023 13.891C14.3267 13.8272 14.0114 13.5024 13.8129 13.3595C13.6208 13.2224 13.3249 13.0951 13.3249 13.0951L13.176 13.2992C13.176 13.2992 13.4996 13.4926 13.6071 13.5342C13.7146 13.5758 14.1226 13.9314 14.2021 14.0094C14.3177 14.1218 14.541 14.2128 14.6929 14.2608C14.8447 14.3088 15.0135 14.2972 15.0715 14.4334C15.1267 14.5641 15.1813 14.7397 15.222 14.6491Z"
            fill="#FFB30E" />
        <path
            d="M15.1973 14.6889C15.1603 14.6889 15.1323 14.6236 15.0861 14.5079C15.0768 14.4851 15.0676 14.4622 15.0581 14.4393C15.0191 14.3479 14.9247 14.328 14.8154 14.3059C14.7727 14.2978 14.7304 14.2875 14.6887 14.275C14.6064 14.2489 14.3281 14.1529 14.1924 14.0197C14.1067 13.9356 13.707 13.5879 13.6021 13.5477C13.4944 13.5059 13.1821 13.3191 13.1687 13.3116L13.1548 13.3031L13.3203 13.0766L13.3305 13.0812C13.3335 13.0812 13.631 13.2101 13.8212 13.347C13.9613 13.4473 14.1592 13.6382 14.29 13.7644C14.3455 13.8181 14.3894 13.8604 14.4116 13.8787C14.4849 13.9406 14.7366 14.0956 14.9802 14.2069C15.0352 14.2316 15.0846 14.2669 15.1257 14.3107C15.1667 14.3545 15.1985 14.4059 15.2192 14.462C15.2495 14.544 15.25 14.622 15.2352 14.6544C15.225 14.6775 15.213 14.6889 15.1973 14.6889ZM13.1973 13.2947C13.2602 13.3319 13.5196 13.4844 13.6134 13.5203C13.7253 13.5637 14.1333 13.92 14.213 13.9987C14.3443 14.1276 14.6175 14.2213 14.6984 14.2471C14.7391 14.2594 14.7805 14.2694 14.8223 14.2771C14.9345 14.2999 15.0408 14.3228 15.0856 14.4277C15.0951 14.4505 15.1046 14.4734 15.1138 14.4963C15.1383 14.5571 15.179 14.6588 15.1984 14.6588C15.1984 14.6588 15.204 14.656 15.21 14.6423C15.2197 14.6195 15.2239 14.5555 15.1933 14.4727C15.1743 14.42 15.1446 14.3717 15.1062 14.3307C15.0677 14.2896 15.0212 14.2567 14.9696 14.2339C14.7239 14.1216 14.4689 13.9646 14.3942 13.9015C14.3711 13.8823 14.3272 13.8396 14.2713 13.7856C14.1409 13.6599 13.9442 13.47 13.8057 13.371C13.6372 13.2503 13.3848 13.1363 13.3309 13.1125L13.1973 13.2947Z"
            fill="#983107" />
        <path
            d="M13.2677 13.1984C13.2677 13.1984 13.4716 13.2729 13.5724 13.3317C13.8026 13.4484 14.0046 13.6129 14.1646 13.814C14.2286 13.893 14.3047 13.9617 14.3902 14.0174C14.2989 13.9633 14.2155 13.8971 14.1424 13.8206C14.0342 13.7029 13.9187 13.5262 13.4344 13.2969L13.2354 13.2206L13.2677 13.1984Z"
            fill="#983107" />
        <path
            d="M11.9879 16.3861C12.0551 16.301 12.0854 14.1328 12.0843 13.8978L11.83 13.8994C11.83 13.8994 11.8228 16.2139 11.9074 16.3957C11.9472 16.4747 11.9879 16.3861 11.9879 16.3861Z"
            fill="#FFB30E" />
        <path
            d="M11.9432 16.4432C11.9245 16.4432 11.908 16.4295 11.8944 16.4025C11.8091 16.2196 11.8151 13.9938 11.8154 13.8992V13.8846L12.0988 13.8832V13.8971C12.0988 14.0235 12.074 16.3001 11.9996 16.3947C11.9987 16.3975 11.9769 16.4432 11.9432 16.4432ZM11.8438 13.914C11.8438 14.1113 11.841 16.2201 11.9198 16.3895C11.9277 16.4048 11.9363 16.4137 11.943 16.4137C11.9536 16.4137 11.9684 16.3936 11.9746 16.3796C12.037 16.2971 12.0694 14.2455 12.0694 13.9127L11.8438 13.914Z"
            fill="#983107" />
        <path d="M11.9732 13.9045L11.9684 15.3973L11.9353 13.9091L11.9732 13.9045Z"
            fill="#983107" />
        <path
            d="M11.0801 16.3145C11.1474 16.3161 11.363 16.1854 11.3665 15.9127C11.37 15.64 11.4095 15.3413 11.4359 15.2448C11.4622 15.1484 11.6309 14.7237 11.6802 14.4809C11.7278 14.246 11.7248 13.9182 11.7248 13.9182L11.4825 13.8588C11.4825 13.8588 11.4363 14.2391 11.4419 14.3568C11.4474 14.4745 11.2891 14.9982 11.2502 15.1038C11.1948 15.2556 11.2015 15.5024 11.2181 15.6642C11.2347 15.8261 11.3124 15.9799 11.2128 16.088C11.1187 16.1916 10.983 16.3123 11.0801 16.3145Z"
            fill="#FFB30E" />
        <path
            d="M11.0812 16.3294H11.0796C11.0565 16.3294 11.0401 16.3209 11.0334 16.3065C11.0195 16.272 11.0671 16.2201 11.1522 16.1315C11.1693 16.1136 11.1864 16.0956 11.2026 16.0782C11.2696 16.0051 11.2488 15.9088 11.2257 15.7973C11.2158 15.754 11.2081 15.7102 11.2026 15.6661C11.1936 15.5785 11.1695 15.2791 11.2356 15.0988C11.2773 14.9845 11.4312 14.4713 11.4261 14.3577C11.421 14.24 11.4652 13.8729 11.467 13.8572L11.4691 13.8409L11.7379 13.9068V13.9182C11.7379 13.9216 11.7403 14.2505 11.6931 14.4841C11.6584 14.6558 11.565 14.9184 11.5033 15.0903C11.4772 15.1635 11.4571 15.2211 11.4485 15.2492C11.4217 15.3427 11.3822 15.6405 11.3792 15.9132C11.3771 16.1996 11.1499 16.3294 11.0812 16.3294ZM11.4973 13.8771C11.4885 13.9511 11.4541 14.2549 11.4585 14.3571C11.4638 14.4796 11.305 15.0037 11.2662 15.1097C11.2021 15.2841 11.2259 15.5776 11.2347 15.6636C11.2391 15.707 11.2481 15.7502 11.2567 15.792C11.2798 15.9063 11.3029 16.0147 11.2257 16.099C11.2095 16.1166 11.192 16.1349 11.1746 16.1527C11.13 16.1996 11.0549 16.2777 11.0623 16.2963C11.0623 16.2963 11.0669 16.3004 11.0815 16.3008V16.3157V16.3008C11.136 16.3008 11.3487 16.1808 11.3524 15.9123C11.3561 15.638 11.3963 15.3356 11.4233 15.2405C11.4319 15.2115 11.4525 15.1534 11.4788 15.0805C11.5403 14.9081 11.633 14.6478 11.6674 14.4784C11.7091 14.2727 11.7116 13.9902 11.7116 13.9299L11.4973 13.8771Z"
            fill="#983107" />
        <path
            d="M11.6103 13.9049C11.6103 13.9049 11.624 14.1259 11.6103 14.2439C11.5969 14.5038 11.5291 14.7582 11.4111 14.9908C11.3655 15.0832 11.3343 15.1818 11.3186 15.2834C11.331 15.1769 11.3575 15.0725 11.3974 14.9728C11.4603 14.8244 11.5733 14.6462 11.5877 14.1006L11.5777 13.8834L11.6103 13.9049Z"
            fill="#983107" />
        <path
            d="M12.6104 16.3557C12.6735 16.3328 12.8281 16.1303 12.7345 15.8757C12.6409 15.6211 12.5727 15.3271 12.563 15.2272C12.5533 15.1273 12.5598 14.6693 12.5193 14.4249C12.4802 14.1884 12.361 13.8839 12.361 13.8839L12.1155 13.9177C12.1155 13.9177 12.2079 14.2889 12.2542 14.3977C12.3004 14.5065 12.3395 15.0519 12.3409 15.1648C12.3429 15.3269 12.437 15.5534 12.5101 15.699C12.5831 15.8446 12.7098 15.958 12.6555 16.0958C12.6028 16.2268 12.5188 16.3897 12.6104 16.3557Z"
            fill="#FFB30E" />
        <path
            d="M12.5898 16.3751C12.5842 16.3754 12.5787 16.3743 12.5738 16.3717C12.5689 16.3692 12.5647 16.3654 12.5618 16.3607C12.5426 16.331 12.569 16.264 12.6136 16.1575C12.6231 16.1347 12.6328 16.1118 12.6416 16.0889C12.6781 15.9959 12.6252 15.9136 12.5641 15.8183C12.5395 15.7814 12.5169 15.7433 12.4964 15.704C12.4571 15.6259 12.3284 15.3559 12.3258 15.1635C12.3244 15.0421 12.2854 14.5063 12.2403 14.4021C12.194 14.2944 12.1044 13.9358 12.1016 13.9207L12.0977 13.9047L12.3716 13.8661L12.3757 13.8768C12.3757 13.8798 12.4959 14.1854 12.5348 14.4208C12.5634 14.5934 12.5694 14.8713 12.5734 15.0556C12.575 15.1335 12.5764 15.1952 12.5787 15.2245C12.587 15.3214 12.6559 15.6131 12.7495 15.8691C12.7927 15.9836 12.789 16.1103 12.7393 16.2222C12.7035 16.302 12.6506 16.3564 12.6166 16.3689C12.6081 16.3726 12.599 16.3747 12.5898 16.3751V16.3751ZM12.1326 13.9294C12.1506 14.0016 12.2264 14.2974 12.2666 14.3902C12.3152 14.5024 12.3531 15.0496 12.3547 15.163C12.357 15.3491 12.4835 15.614 12.5221 15.6905C12.5422 15.7287 12.5642 15.7659 12.5882 15.8019C12.651 15.8999 12.7105 15.9923 12.6682 16.099C12.6594 16.1219 12.6497 16.1447 12.6402 16.1676C12.6138 16.2304 12.5741 16.3251 12.5859 16.3431C12.5859 16.3431 12.5877 16.3431 12.5898 16.3431C12.5953 16.3428 12.6007 16.3415 12.6057 16.3395C12.6275 16.3312 12.6751 16.2883 12.7121 16.208C12.7591 16.1034 12.7624 15.9846 12.7213 15.8775C12.6268 15.6195 12.5572 15.3237 12.5489 15.2252C12.5463 15.195 12.5449 15.1337 12.5433 15.0544C12.5394 14.8716 12.5336 14.5943 12.5054 14.424C12.471 14.2163 12.3732 13.9527 12.3519 13.8967L12.1326 13.9294Z"
            fill="#983107" />
        <path
            d="M12.2491 13.9136C12.2491 13.9136 12.3401 14.1143 12.3702 14.229C12.4501 14.4775 12.4772 14.7397 12.4499 14.9991C12.4398 15.1017 12.4454 15.2053 12.4666 15.3063C12.4403 15.2021 12.4279 15.095 12.4298 14.9876C12.4356 14.826 12.4777 14.6178 12.2971 14.1042L12.2107 13.9056L12.2491 13.9136Z"
            fill="#983107" />
        <path
            d="M10.3756 16.096C10.4704 16.0453 11.3432 14.0692 11.4336 13.8532L11.1997 13.7506C11.1997 13.7506 10.2907 15.8704 10.2981 16.0718C10.3035 16.16 10.3756 16.096 10.3756 16.096Z"
            fill="#FFB30E" />
        <path
            d="M10.3285 16.1335C10.313 16.1335 10.2869 16.1255 10.2823 16.0727C10.2756 15.87 11.1484 13.8327 11.1856 13.7447L11.1912 13.7314L11.4517 13.8457L11.4461 13.8592C11.3974 13.9753 10.4866 16.0535 10.3814 16.1093C10.3668 16.1227 10.3483 16.1312 10.3285 16.1335V16.1335ZM11.2069 13.7701C11.1294 13.9509 10.3054 15.8837 10.3116 16.0713C10.3132 16.0928 10.3188 16.104 10.3283 16.104C10.3424 16.1013 10.3555 16.0947 10.3659 16.0848C10.4554 16.0336 11.285 14.1664 11.4145 13.861L11.2069 13.7701Z"
            fill="#983107" />
        <path d="M11.3294 13.8142L10.7432 15.181L11.2929 13.8027L11.3294 13.8142Z" fill="#983107" />
        <path
            d="M9.15501 15.2249C9.26157 15.2142 10.7962 13.7182 10.9592 13.5527L10.78 13.3678C10.78 13.3678 9.15917 14.9833 9.0926 15.1735C9.0644 15.2569 9.15501 15.2249 9.15501 15.2249Z"
            fill="#FFB30E" />
        <path
            d="M9.12101 15.2457C9.11322 15.2464 9.10538 15.2452 9.09822 15.242C9.09107 15.2389 9.08483 15.2341 9.08009 15.2279C9.07501 15.2188 9.07218 15.2086 9.07182 15.1982C9.07146 15.1878 9.07358 15.1775 9.07801 15.168C9.1462 14.9774 10.7037 13.4236 10.7698 13.3575L10.78 13.3472L10.9795 13.5529L10.9693 13.5635C10.8817 13.6524 9.27657 15.2261 9.1566 15.2398C9.14513 15.2436 9.13312 15.2456 9.12101 15.2457ZM10.7798 13.3888C10.6411 13.526 9.16816 15.0016 9.10506 15.1779C9.10017 15.1882 9.09958 15.2 9.10344 15.2108C9.10667 15.2153 9.115 15.2163 9.12101 15.2163C9.13091 15.2159 9.14071 15.2142 9.15013 15.2112C9.25207 15.1982 10.7065 13.7861 10.9386 13.5529L10.7798 13.3888Z"
            fill="#983107" />
        <path d="M10.8768 13.4763L9.83154 14.5179L10.8472 13.4517L10.8768 13.4763Z"
            fill="#983107" />
        <path
            d="M9.61208 15.6572C9.67287 15.6869 9.92183 15.6583 10.0349 15.4112C10.1479 15.1641 10.3035 14.9084 10.3673 14.8318C10.4311 14.7552 10.7545 14.4386 10.8968 14.2375C11.0355 14.0434 11.1636 13.7431 11.1636 13.7431L10.9664 13.5872C10.9664 13.5872 10.772 13.9148 10.7293 14.0242C10.6865 14.1337 10.3326 14.5447 10.2547 14.6247C10.143 14.739 10.0501 14.9676 10.0004 15.1223C9.95072 15.277 9.95951 15.4496 9.82544 15.5063C9.69691 15.5623 9.52424 15.6151 9.61208 15.6572Z"
            fill="#FFB30E" />
        <path
            d="M9.66852 15.6823C9.64707 15.6833 9.62568 15.6795 9.60588 15.6713C9.58415 15.6606 9.57328 15.6471 9.57374 15.6315C9.57513 15.5941 9.63916 15.5666 9.75243 15.5216C9.77554 15.5125 9.79866 15.5033 9.81969 15.4942C9.91031 15.4558 9.93065 15.3595 9.95446 15.2482C9.96293 15.2046 9.97365 15.1614 9.98659 15.1189C10.0136 15.0354 10.1119 14.7531 10.2446 14.616C10.3282 14.5298 10.675 14.126 10.7159 14.0206C10.7587 13.9111 10.947 13.5947 10.9542 13.5813L10.9625 13.5673L11.1812 13.7401L11.1766 13.7506C11.1766 13.7536 11.0455 14.0546 10.9084 14.2478C10.8079 14.3895 10.6179 14.5888 10.4924 14.7207C10.4392 14.7762 10.3971 14.8203 10.3784 14.8425C10.3167 14.9163 10.1609 15.1712 10.0481 15.4185C9.95261 15.6267 9.76468 15.6823 9.66852 15.6823ZM10.9706 13.6105C10.9329 13.6743 10.7795 13.9367 10.7427 14.0311C10.6985 14.1454 10.3433 14.5568 10.2649 14.6366C10.1368 14.7687 10.0404 15.0462 10.0139 15.1282C10.0007 15.1696 9.99075 15.2128 9.98243 15.2544C9.95816 15.3687 9.9362 15.477 9.83079 15.5214C9.80883 15.5307 9.78571 15.5399 9.76283 15.549C9.70319 15.5719 9.60333 15.6126 9.60264 15.6325C9.60264 15.6336 9.60518 15.6384 9.61836 15.6448C9.63433 15.6509 9.65142 15.6536 9.66852 15.6528C9.75775 15.6528 9.93273 15.6009 10.0217 15.4057C10.1357 15.1563 10.2933 14.8983 10.3564 14.8231C10.3756 14.8002 10.4179 14.7559 10.472 14.6999C10.5973 14.5687 10.7866 14.3703 10.8858 14.2302C11.0067 14.0599 11.1223 13.8037 11.1465 13.749L10.9706 13.6105Z"
            fill="#983107" />
        <path
            d="M11.0636 13.6839C11.0636 13.6839 10.9873 13.8912 10.9281 13.9934C10.8121 14.2239 10.648 14.4275 10.4466 14.5909C10.3675 14.6557 10.2992 14.7324 10.2439 14.8181C10.2978 14.7264 10.364 14.6423 10.4406 14.568C10.5573 14.4592 10.7321 14.344 10.9644 13.8528L11.0425 13.6505L11.0636 13.6839Z"
            fill="#983107" />
        <path
            d="M8.53454 14.5287C8.58077 14.579 8.82302 14.643 9.01557 14.4553C9.20812 14.2677 9.4439 14.0855 9.53012 14.038C9.61635 13.9904 10.0301 13.8144 10.2335 13.6798C10.4305 13.5495 10.6568 13.3171 10.6568 13.3171L10.5283 13.099C10.5283 13.099 10.2312 13.3326 10.1529 13.419C10.0745 13.5054 9.59808 13.7577 9.49823 13.8037C9.35329 13.8697 9.18639 14.048 9.08538 14.1735C8.98436 14.299 8.93166 14.4638 8.7865 14.4672C8.64826 14.4707 8.46796 14.4563 8.53454 14.5287Z"
            fill="#FFB30E" />
        <path
            d="M8.71561 14.5964C8.62476 14.5964 8.55056 14.5676 8.52421 14.539C8.50757 14.5207 8.5011 14.5042 8.50826 14.4898C8.52282 14.4553 8.5924 14.4535 8.71376 14.4533C8.73687 14.4533 8.76276 14.4533 8.78611 14.4533C8.88435 14.451 8.93729 14.3687 8.99854 14.2736C9.02178 14.2361 9.04701 14.1999 9.07413 14.165C9.12891 14.0965 9.32054 13.8693 9.49252 13.7909C9.6007 13.7415 10.0667 13.4937 10.1423 13.4096C10.2179 13.3255 10.5073 13.0972 10.5207 13.0873L10.5334 13.0773L10.6763 13.3193L10.6682 13.3276C10.6661 13.3298 10.4386 13.5625 10.2426 13.6921C10.0988 13.7872 9.85128 13.9026 9.68785 13.9792C9.6185 14.0114 9.56395 14.037 9.53875 14.051C9.45484 14.0967 9.21999 14.277 9.02721 14.4661C8.98678 14.5074 8.93835 14.5402 8.88482 14.5626C8.83128 14.585 8.77373 14.5964 8.71561 14.5964V14.5964ZM10.5242 13.12C10.4666 13.1657 10.2308 13.3538 10.1633 13.4281C10.0822 13.5177 9.60556 13.771 9.50408 13.8167C9.33811 13.8926 9.15018 14.1159 9.09655 14.1824C9.07002 14.2164 9.04533 14.2519 9.02258 14.2885C8.95948 14.3863 8.90007 14.4786 8.7868 14.4814C8.76369 14.4814 8.73849 14.4814 8.71376 14.4814C8.64996 14.4814 8.54247 14.4814 8.53484 14.5001C8.53484 14.5001 8.53484 14.5063 8.54525 14.5173C8.56374 14.5374 8.62869 14.5655 8.71561 14.5655C8.7696 14.5657 8.82309 14.5552 8.87291 14.5346C8.92274 14.5141 8.96789 14.4838 9.00571 14.4457C9.20011 14.2551 9.4382 14.0727 9.5235 14.0258C9.54962 14.0117 9.60463 13.9858 9.67444 13.9534C9.83741 13.8773 10.0838 13.7621 10.2257 13.6684C10.3987 13.5541 10.597 13.3577 10.6388 13.3157L10.5242 13.12Z"
            fill="#983107" />
        <path
            d="M10.5849 13.2237C10.5849 13.2237 10.4407 13.3888 10.3496 13.4624C10.1596 13.6346 9.93402 13.764 9.6885 13.8416C9.59203 13.8729 9.5012 13.9192 9.41943 13.9787C9.5021 13.9133 9.5935 13.8595 9.69104 13.8187C9.83829 13.7607 10.0419 13.7177 10.4319 13.3451L10.5761 13.1851L10.5849 13.2237Z"
            fill="#983107" />
        <path
            d="M8.27191 13.95C8.37501 13.9788 10.3292 13.1365 10.5386 13.0412L10.4351 12.8032C10.4351 12.8032 8.35952 13.7255 8.23077 13.8775C8.17598 13.9472 8.27191 13.95 8.27191 13.95Z"
            fill="#FFB30E" />
        <path
            d="M8.27849 13.9657C8.27497 13.9658 8.27146 13.9653 8.26809 13.9643C8.26624 13.9643 8.21654 13.9623 8.20267 13.9317C8.19481 13.9141 8.20036 13.893 8.21932 13.869C8.34923 13.7154 10.3443 12.8277 10.4292 12.7899L10.4423 12.784L10.5579 13.0487L10.5447 13.0549C10.3621 13.1376 8.44516 13.9657 8.27849 13.9657ZM10.4282 12.8229C10.2514 12.9017 8.36217 13.7463 8.2422 13.888C8.23157 13.9017 8.22695 13.9134 8.22972 13.9195C8.23411 13.9298 8.25815 13.9353 8.27295 13.9358H8.27919C8.4299 13.9358 10.2257 13.1659 10.5214 13.0334L10.4282 12.8229Z"
            fill="#983107" />
        <path d="M10.4883 12.9399L9.14941 13.5346L10.4691 12.9061L10.4883 12.9399Z"
            fill="#983107" />
        <path
            d="M7.88283 12.3657C7.96651 12.4343 10.0864 12.4478 10.3162 12.4448L10.3125 12.1847C10.3125 12.1847 8.04949 12.1952 7.87243 12.2832C7.79568 12.3248 7.88283 12.3657 7.88283 12.3657Z"
            fill="#FFB30E" />
        <path
            d="M10.2236 12.4601C10.2005 12.4601 7.96818 12.4539 7.87387 12.3773C7.87179 12.3773 7.82764 12.3545 7.82764 12.3211C7.82764 12.3017 7.84058 12.2845 7.86716 12.2701C8.04562 12.1815 10.2215 12.1703 10.3139 12.1698H10.3283L10.332 12.4594H10.3176L10.2236 12.4601ZM10.2987 12.1995C10.1057 12.1995 8.044 12.2144 7.87895 12.2964C7.86393 12.3044 7.85584 12.3133 7.85584 12.3193C7.85584 12.3303 7.87595 12.3451 7.88935 12.3515C7.96263 12.4075 9.56685 12.4295 10.224 12.4295H10.3022L10.2987 12.1995Z"
            fill="#983107" />
        <path d="M10.3089 12.3316L8.84961 12.3383L10.3043 12.2928L10.3089 12.3316Z"
            fill="#983107" />
        <path
            d="M7.99375 11.3356C7.98982 11.4041 8.10932 11.6295 8.37608 11.6432C8.64283 11.6569 8.93293 11.7079 9.02586 11.7397C9.11878 11.7714 9.52793 11.9582 9.76324 12.0174C9.99116 12.0745 10.3118 12.0834 10.3118 12.0834L10.3786 11.8382C10.3786 11.8382 10.0087 11.7774 9.89315 11.7783C9.77758 11.7792 9.27204 11.5986 9.17056 11.5552C9.02424 11.4928 8.78268 11.4908 8.62388 11.5017C8.46507 11.5127 8.31205 11.5863 8.21011 11.4807C8.11256 11.3797 7.99952 11.2361 7.99375 11.3356Z"
            fill="#FFB30E" />
        <path
            d="M10.3224 12.0985H10.3125C10.3092 12.0985 9.98771 12.0887 9.76094 12.0318C9.59474 11.9902 9.34278 11.8853 9.17589 11.8158C9.10654 11.7863 9.04967 11.7632 9.0224 11.7538C8.93225 11.723 8.64284 11.6718 8.37632 11.6581C8.31659 11.6555 8.25802 11.6409 8.2042 11.6151C8.15039 11.5894 8.10245 11.553 8.06333 11.5083C8.00624 11.443 7.9785 11.3712 7.98058 11.3349C7.98312 11.2937 8.00369 11.2875 8.01571 11.2875C8.04969 11.2875 8.09708 11.3367 8.17151 11.4171C8.18839 11.4352 8.20526 11.4535 8.22167 11.4706C8.23932 11.4883 8.2606 11.5021 8.28409 11.511C8.30757 11.5199 8.33272 11.5238 8.35782 11.5223C8.404 11.5205 8.44994 11.5149 8.49513 11.5054C8.53782 11.4969 8.58096 11.4908 8.62435 11.4871C8.67381 11.4837 8.72398 11.4821 8.77367 11.4821C8.89387 11.4821 9.06169 11.4923 9.17727 11.5417C9.28615 11.5874 9.78105 11.7639 9.89386 11.7639H9.8964C10.0145 11.7639 10.3661 11.8215 10.3818 11.8238L10.3978 11.8265L10.3224 12.0985ZM8.01456 11.3168C8.0104 11.3168 8.00855 11.3291 8.00832 11.3365C8.00693 11.3593 8.02612 11.4226 8.08367 11.4885C8.12013 11.5305 8.16498 11.5646 8.21543 11.5887C8.26587 11.6128 8.32081 11.6263 8.37678 11.6283C8.64561 11.6423 8.93872 11.6944 9.03049 11.7257C9.05846 11.7353 9.11463 11.7586 9.18559 11.7881C9.35156 11.8567 9.60167 11.9618 9.76672 12.003C9.96667 12.0533 10.2422 12.0661 10.3007 12.0683L10.3603 11.8501C10.2894 11.8386 9.99788 11.7943 9.8964 11.7943L9.8927 11.7794V11.7943C9.77157 11.7943 9.26696 11.6133 9.16525 11.5698C9.05383 11.5223 8.89041 11.5125 8.77229 11.5125C8.72328 11.5125 8.67358 11.5141 8.62481 11.5175C8.58252 11.5212 8.54047 11.5271 8.49883 11.5353C8.45196 11.5452 8.40432 11.551 8.35644 11.5527C8.32745 11.5543 8.29845 11.5497 8.2714 11.5393C8.24436 11.5288 8.21991 11.5127 8.19971 11.4921C8.18307 11.475 8.1662 11.4567 8.14932 11.4384C8.09985 11.3829 8.03791 11.3168 8.01456 11.3168V11.3168Z"
            fill="#983107" />
        <path
            d="M10.329 11.9659C10.329 11.9659 10.1126 11.9719 9.99774 11.9545C9.74258 11.9308 9.49582 11.8519 9.27492 11.7234C9.18717 11.6733 9.09189 11.6374 8.99268 11.6171C9.09664 11.6337 9.19778 11.6645 9.29318 11.7086C9.4358 11.7783 9.60593 11.9001 10.1383 11.9351L10.3509 11.9328L10.329 11.9659Z"
            fill="#983107" />
        <path
            d="M8.1921 10.741C8.24226 10.8375 10.18 11.7191 10.3909 11.8105L10.4898 11.5705C10.4898 11.5705 8.41216 10.653 8.21545 10.661C8.12854 10.6676 8.1921 10.741 8.1921 10.741Z"
            fill="#FFB30E" />
        <path
            d="M10.3986 11.8297L10.3854 11.824C10.2715 11.7749 8.23569 10.8551 8.17952 10.7479C8.1779 10.7465 8.14577 10.7081 8.15849 10.6768C8.16542 10.659 8.18438 10.6485 8.21443 10.6462H8.21813C8.43102 10.6462 10.4113 11.5198 10.4957 11.557L10.5086 11.5628L10.3986 11.8297ZM8.21813 10.6757C8.19894 10.677 8.18761 10.6814 8.18507 10.688C8.18091 10.6983 8.19339 10.7198 8.2031 10.7312C8.25349 10.8226 10.084 11.6606 10.3834 11.7911L10.471 11.5783C10.2946 11.5006 8.41715 10.6757 8.21813 10.6757V10.6757Z"
            fill="#983107" />
        <path d="M10.4286 11.7036L9.08887 11.1116L10.4395 11.6663L10.4286 11.7036Z"
            fill="#983107" />
        <path
            d="M7.9586 12.9975C7.98172 13.0624 8.17705 13.2222 8.42785 13.1289C8.67865 13.0357 8.96552 12.9671 9.06422 12.96C9.16293 12.9529 9.60975 12.9616 9.849 12.9225C10.0802 12.8846 10.3807 12.7655 10.3807 12.7655L10.349 12.5129C10.349 12.5129 9.98515 12.6044 9.87928 12.6501C9.77341 12.6958 9.23667 12.7315 9.1264 12.7315C8.96783 12.7315 8.74477 12.8261 8.60261 12.8995C8.46045 12.9728 8.34833 13.1015 8.21334 13.0448C8.08482 12.9909 7.92624 12.9038 7.9586 12.9975Z"
            fill="#FFB30E" />
        <path
            d="M8.27411 13.1721C8.09658 13.1721 7.96575 13.0617 7.94541 13.0025C7.94166 12.9952 7.9397 12.9872 7.9397 12.9791C7.9397 12.9709 7.94166 12.9629 7.94541 12.9556C7.94924 12.9507 7.95428 12.9468 7.96006 12.9442C7.96584 12.9417 7.97217 12.9407 7.97846 12.9412C8.01568 12.9412 8.08179 12.971 8.15183 13.0023C8.17495 13.0123 8.19667 13.0224 8.2184 13.0315C8.23802 13.04 8.25919 13.0443 8.28058 13.0443C8.34762 13.0443 8.4135 13.0009 8.48354 12.9547C8.51964 12.9299 8.55707 12.907 8.59565 12.8862C8.67239 12.8466 8.93776 12.7175 9.12592 12.7166C9.2445 12.7166 9.76899 12.6809 9.87093 12.6361C9.9768 12.5892 10.3279 12.501 10.343 12.4974L10.3584 12.4935L10.3938 12.7739L10.3834 12.778C10.3802 12.7792 10.0806 12.8983 9.8499 12.936C9.68115 12.9636 9.40909 12.9671 9.22901 12.9696C9.15273 12.9696 9.09263 12.9712 9.06374 12.9737C8.96896 12.981 8.68279 13.0489 8.43222 13.1424C8.38174 13.1615 8.32819 13.1716 8.27411 13.1721V13.1721ZM7.97916 12.9707C7.97245 12.9707 7.96991 12.9721 7.96968 12.9728C7.96945 12.9735 7.96806 12.9794 7.97245 12.9927C7.98678 13.034 8.10098 13.1426 8.27296 13.1426C8.32387 13.1424 8.37432 13.1331 8.42182 13.115C8.67609 13.0208 8.9648 12.9522 9.0612 12.9447C9.09078 12.9424 9.15158 12.9415 9.22832 12.9406C9.40747 12.938 9.67815 12.9346 9.84505 12.9072C10.0482 12.874 10.3074 12.7764 10.3619 12.7552L10.3358 12.5305C10.2651 12.5483 9.97495 12.6233 9.88388 12.6635C9.77408 12.712 9.23872 12.746 9.12777 12.7465C8.94562 12.7465 8.68557 12.874 8.61021 12.9129C8.5726 12.9332 8.53611 12.9555 8.50087 12.9796C8.42714 13.0281 8.35779 13.0738 8.2822 13.0738C8.25698 13.0739 8.23202 13.0687 8.20892 13.0587C8.18581 13.0496 8.16431 13.0393 8.14189 13.0292C8.0767 13.0004 8.01036 12.9707 7.97916 12.9707Z"
            fill="#983107" />
        <path
            d="M10.3497 12.6496C10.3497 12.6496 10.1525 12.741 10.0399 12.7707C9.79734 12.8502 9.54003 12.8757 9.28634 12.8455C9.18605 12.8341 9.08455 12.8389 8.98584 12.8599C9.08761 12.8338 9.19258 12.822 9.29767 12.8249C9.45555 12.8324 9.65874 12.877 10.1627 12.6973L10.3575 12.6107L10.3497 12.6496Z"
            fill="#983107" />
        <path
            d="M11.2907 8.23956C11.2271 8.26242 11.0711 8.46334 11.1626 8.71956C11.2542 8.97579 11.3216 9.26813 11.3293 9.36916C11.3369 9.47019 11.3293 9.92733 11.367 10.1719C11.4042 10.4087 11.5211 10.7141 11.5211 10.7141L11.7689 10.6814C11.7689 10.6814 11.6795 10.3095 11.6337 10.2014C11.5879 10.0933 11.5533 9.54654 11.5528 9.43385C11.5528 9.27156 11.4603 9.04345 11.3878 8.89831C11.3152 8.75316 11.1899 8.63774 11.2451 8.50036C11.2971 8.36871 11.3824 8.20574 11.2907 8.23956Z"
            fill="#FFB30E" />
        <path
            d="M11.5117 10.7303L11.5075 10.7195C11.5064 10.7166 11.3894 10.4101 11.3524 10.1742C11.3251 10.0016 11.3214 9.7232 11.3189 9.53897C11.3189 9.46126 11.3171 9.39954 11.3147 9.37029C11.3071 9.27337 11.2405 8.98057 11.149 8.72457C11.1066 8.60965 11.111 8.48291 11.1615 8.3712C11.1982 8.29189 11.2516 8.23794 11.2856 8.2256C11.3161 8.21463 11.3318 8.2256 11.339 8.23474C11.3582 8.26469 11.3314 8.3312 11.2858 8.43749C11.2761 8.46034 11.2664 8.4832 11.2574 8.50606C11.22 8.59886 11.2722 8.6816 11.3328 8.77737C11.3571 8.81423 11.3794 8.85239 11.3996 8.89166C11.4384 8.97006 11.5651 9.24137 11.566 9.4336C11.566 9.55497 11.6016 10.0914 11.6458 10.1957C11.692 10.3038 11.7782 10.6629 11.7819 10.6782L11.7856 10.6942L11.5117 10.7303ZM11.3108 8.24983C11.3054 8.25018 11.3001 8.25141 11.2951 8.25349C11.272 8.26149 11.2257 8.304 11.1878 8.38377C11.164 8.4354 11.1507 8.49116 11.1487 8.54787C11.1467 8.60458 11.156 8.66113 11.176 8.71429C11.2685 8.9728 11.3358 9.26926 11.3434 9.368C11.3457 9.39817 11.3466 9.45943 11.3478 9.53851C11.3501 9.72137 11.354 9.99886 11.3809 10.1696C11.4137 10.3774 11.5094 10.6418 11.5304 10.6981L11.7498 10.669C11.7322 10.5966 11.6587 10.3001 11.6194 10.2071C11.5718 10.0949 11.5378 9.5472 11.5371 9.4336C11.5371 9.24777 11.4118 8.98171 11.3739 8.90469C11.3541 8.86634 11.3322 8.82903 11.3085 8.79291C11.2463 8.6944 11.1876 8.60137 11.2308 8.4944C11.2396 8.47154 11.2498 8.44869 11.2595 8.42583C11.2861 8.36343 11.3265 8.26926 11.315 8.2512C11.3145 8.25006 11.3124 8.24983 11.3108 8.24983V8.24983Z"
            fill="#983107" />
        <path
            d="M11.6334 10.6843C11.6334 10.6843 11.5437 10.483 11.5148 10.368C11.4366 10.1189 11.4114 9.85645 11.4408 9.59724C11.4518 9.4947 11.4469 9.39111 11.4263 9.29004C11.452 9.39472 11.4636 9.50233 11.4607 9.61004C11.4535 9.77141 11.4101 9.97918 11.5867 10.4944L11.6715 10.6937L11.6334 10.6843Z"
            fill="#983107" />
        <path
            d="M9.10041 9.37142C9.10966 9.48022 10.5548 11.0665 10.7148 11.2354L10.8976 11.0542C10.8976 11.0542 9.33642 9.37828 9.15242 9.30697C9.07013 9.27839 9.10041 9.37142 9.10041 9.37142Z"
            fill="#FFB30E" />
        <path
            d="M10.7142 11.2563L10.7054 11.2457C10.6194 11.1543 9.09703 9.49351 9.08732 9.37283C9.08331 9.36173 9.08155 9.34997 9.08214 9.3382C9.08274 9.32643 9.08568 9.3149 9.09078 9.30426C9.09887 9.29283 9.12083 9.2814 9.15805 9.29351C9.34297 9.36551 10.8455 10.9758 10.9091 11.0444L10.919 11.0549L10.7142 11.2563ZM9.125 9.31637C9.11598 9.31637 9.11367 9.31957 9.11274 9.32094C9.10755 9.33575 9.10755 9.35185 9.11274 9.36666C9.1243 9.47066 10.4884 10.9744 10.7137 11.2144L10.8755 11.0544C10.7424 10.9116 9.31732 9.38791 9.14557 9.32163C9.13903 9.31882 9.13209 9.31704 9.125 9.31637V9.31637Z"
            fill="#983107" />
        <path d="M10.7904 11.152L9.78369 10.0711L10.8149 11.1221L10.7904 11.152Z" fill="#983107" />
        <path
            d="M9.80402 8.80363C9.75409 8.84934 9.68498 9.0962 9.86528 9.29688C10.0456 9.49757 10.2178 9.74306 10.2622 9.8322C10.3066 9.92134 10.4702 10.3483 10.5971 10.5593C10.7201 10.7636 10.9425 11 10.9425 11L11.1584 10.8731C11.1584 10.8731 10.9367 10.5643 10.8537 10.4823C10.7707 10.4002 10.5347 9.90854 10.4919 9.80454C10.4305 9.65506 10.2608 9.48043 10.1392 9.37437C10.0176 9.26831 9.85904 9.21094 9.85858 9.06237C9.85765 8.9202 9.87545 8.73711 9.80402 8.80363Z"
            fill="#FFB30E" />
        <path
            d="M10.9391 11.0185L10.9312 11.0101C10.9289 11.0078 10.7066 10.7703 10.5845 10.5671C10.4946 10.4178 10.3871 10.1623 10.3159 9.99292C10.2859 9.9216 10.262 9.86515 10.2491 9.83886C10.2059 9.75223 10.0348 9.50789 9.85429 9.30697C9.77189 9.21641 9.72872 9.09748 9.73409 8.97577C9.73802 8.88823 9.76738 8.81738 9.79419 8.79292C9.81731 8.77189 9.83788 8.77006 9.85198 8.78492C9.87509 8.8096 9.87509 8.8784 9.87371 8.98835C9.87371 9.01349 9.87371 9.03863 9.87371 9.06263C9.87371 9.16297 9.95323 9.21897 10.0445 9.28366C10.0809 9.30828 10.1159 9.33491 10.1492 9.36343C10.2147 9.4208 10.4329 9.62195 10.5057 9.79932C10.5519 9.91109 10.7847 10.3936 10.8644 10.472C10.9442 10.5504 11.1615 10.8521 11.1705 10.8647L11.1802 10.8779L10.9391 11.0185ZM9.82956 8.8048C9.82678 8.8048 9.82193 8.80686 9.81338 8.81463C9.79604 8.83063 9.76715 8.88892 9.76275 8.97738C9.76003 9.0338 9.7686 9.0902 9.78796 9.14334C9.80731 9.19649 9.83708 9.24534 9.87556 9.28709C10.0577 9.48983 10.2308 9.73737 10.2748 9.8256C10.2882 9.85257 10.312 9.90949 10.3423 9.98126C10.4132 10.1497 10.5205 10.4043 10.609 10.5515C10.717 10.7307 10.9044 10.9376 10.9449 10.9815L11.1367 10.8686C11.0935 10.8087 10.9148 10.5637 10.8434 10.4928C10.7576 10.4078 10.5214 9.91497 10.4784 9.81029C10.4091 9.63909 10.1936 9.44183 10.1296 9.3856C10.0969 9.35791 10.0628 9.33189 10.0274 9.30766C9.93311 9.24115 9.84412 9.17829 9.84389 9.0624C9.84389 9.03818 9.84389 9.0128 9.84389 8.98766C9.84527 8.91406 9.84713 8.8224 9.83048 8.8048C9.83002 8.80471 9.82955 8.80471 9.82909 8.8048H9.82956Z"
            fill="#983107" />
        <path
            d="M11.0342 10.9284C11.0342 10.9284 10.8761 10.7774 10.8063 10.6825C10.6403 10.482 10.5189 10.2492 10.4498 9.9993C10.4216 9.90066 10.3784 9.80686 10.3215 9.72113C10.3843 9.80782 10.4351 9.90236 10.4727 10.0023C10.5263 10.1545 10.5652 10.3634 10.9195 10.7703L11.0726 10.9214L11.0342 10.9284Z"
            fill="#983107" />
        <path
            d="M8.67124 9.89899C8.64142 9.9607 8.66592 10.2158 8.90609 10.3346C9.14626 10.4535 9.39429 10.6162 9.4678 10.6825C9.54131 10.7488 9.84689 11.0839 10.0411 11.2322C10.2292 11.3758 10.5207 11.5118 10.5207 11.5118L10.6758 11.3125C10.6758 11.3125 10.3587 11.1086 10.251 11.064C10.1432 11.0194 9.74773 10.6514 9.67052 10.5705C9.55957 10.4546 9.33812 10.3564 9.18764 10.3033C9.03716 10.2503 8.86818 10.2576 8.81455 10.1191C8.7637 9.98699 8.71354 9.80985 8.67124 9.89899Z"
            fill="#FFB30E" />
        <path
            d="M10.5242 11.5298L10.5141 11.5253C10.5111 11.5239 10.2187 11.387 10.0316 11.2441C9.89457 11.1392 9.70225 10.9422 9.57512 10.8117C9.52149 10.7566 9.47896 10.7131 9.45746 10.6937C9.38603 10.6293 9.13892 10.4665 8.89899 10.3479C8.8448 10.3214 8.79647 10.2846 8.75679 10.2395C8.71711 10.1944 8.68687 10.142 8.66783 10.0853C8.64009 10.0023 8.64171 9.92525 8.65789 9.89234C8.66182 9.88434 8.67338 9.86011 8.6958 9.86011C8.73302 9.86011 8.75937 9.92662 8.80213 10.0441C8.81091 10.067 8.81947 10.0912 8.82802 10.1127C8.86454 10.2057 8.95816 10.227 9.0668 10.2537C9.10941 10.263 9.15146 10.2746 9.19278 10.2885C9.27369 10.3179 9.54969 10.4229 9.68099 10.56C9.76397 10.6469 10.1539 11.0069 10.2566 11.0503C10.3629 11.096 10.6696 11.2917 10.6826 11.3001L10.6965 11.3088L10.5242 11.5298ZM8.69557 9.88959C8.69557 9.88959 8.68979 9.89234 8.68332 9.90559C8.67292 9.92685 8.66691 9.99199 8.69488 10.0757C8.71247 10.1289 8.74072 10.1781 8.77793 10.2203C8.81514 10.2625 8.86055 10.2969 8.91147 10.3214C9.15372 10.4411 9.40383 10.6062 9.47641 10.6715C9.49953 10.6917 9.5416 10.7353 9.59546 10.7909C9.72213 10.9207 9.9133 11.117 10.0488 11.2203C10.2138 11.3463 10.4625 11.4681 10.5159 11.4935L10.6546 11.3163C10.5927 11.2768 10.3382 11.1163 10.2464 11.0775C10.1361 11.0318 9.73785 10.6617 9.66111 10.5806C9.53397 10.4478 9.26375 10.3454 9.184 10.3173C9.14368 10.3037 9.10263 10.2924 9.06103 10.2834C8.94938 10.2569 8.84397 10.232 8.80213 10.1246C8.79335 10.1017 8.78456 10.0789 8.77601 10.0546C8.75243 9.99291 8.71452 9.88959 8.69557 9.88959Z"
            fill="#983107" />
        <path
            d="M10.5807 11.4103C10.5807 11.4103 10.3791 11.3296 10.2802 11.2677C10.0534 11.1437 9.85626 10.9729 9.70226 10.7669C9.64061 10.6859 9.56652 10.6149 9.48267 10.5566C9.57244 10.6135 9.65387 10.6823 9.72469 10.7612C9.82917 10.8821 9.93943 11.0624 10.4165 11.3065L10.6132 11.3893L10.5807 11.4103Z"
            fill="#983107" />
        <path
            d="M13.5171 12.2916C13.5171 13.1947 12.8006 13.9271 11.9182 13.9271C11.0359 13.9271 10.3193 13.1956 10.3193 12.2916C10.3193 11.3876 11.0359 10.6564 11.9182 10.6564C12.8006 10.6564 13.5171 11.3885 13.5171 12.2916Z"
            fill="#FFB30E" />
        <path
            d="M11.9182 13.9429C11.0287 13.9429 10.3049 13.2028 10.3049 12.2928C10.3049 11.3829 11.0287 10.6428 11.9182 10.6428C12.8077 10.6428 13.5314 11.3831 13.5314 12.2928C13.5314 13.2025 12.809 13.9429 11.9182 13.9429ZM11.9182 10.6722C11.0446 10.6722 10.3338 11.3993 10.3338 12.2928C10.3338 13.1863 11.0446 13.9134 11.9182 13.9134C12.7917 13.9134 13.5027 13.1865 13.5027 12.2928C13.5027 11.3991 12.7919 10.6711 11.9182 10.6711V10.6722Z"
            fill="#983107" />
        <path
            d="M12.4478 11.6404C12.2397 11.6404 12.0796 11.8183 12.0317 11.997C11.9839 12.1758 12.083 12.3838 12.1084 12.4208C12.1339 12.4578 12.2506 12.5598 12.2883 12.5938C12.326 12.6279 12.255 12.6969 12.2236 12.7136C12.1921 12.7303 12.0983 12.7191 12.0777 12.7108C12.0571 12.7026 11.9621 12.7321 11.9552 12.7337C11.948 12.7314 11.8528 12.7022 11.8329 12.7108C11.813 12.7195 11.7185 12.73 11.6871 12.7136C11.6556 12.6971 11.5842 12.6279 11.6221 12.5938C11.66 12.5598 11.777 12.4567 11.8022 12.4208C11.8274 12.3849 11.9256 12.1758 11.8787 11.997C11.8318 11.8183 11.6706 11.6404 11.4626 11.6404C11.2546 11.6404 11.0639 11.8068 11.0098 11.907C11.0098 11.907 11.2051 11.6884 11.4675 11.7134C11.7298 11.7383 11.8519 11.8882 11.8704 12.013C11.8889 12.1378 11.8581 12.3689 11.7666 12.4436C11.675 12.5184 11.5585 12.5998 11.6018 12.656C11.6186 12.6793 11.6404 12.6987 11.6657 12.7127C11.691 12.7267 11.7192 12.7349 11.7481 12.7369C11.7908 12.7369 11.8091 12.7184 11.8405 12.7307C11.8757 12.7487 11.9143 12.7592 11.9538 12.7618H11.9566C11.9961 12.7593 12.0347 12.7487 12.0698 12.7307C12.1004 12.7184 12.1186 12.7369 12.1623 12.7369C12.1913 12.735 12.2194 12.7267 12.2448 12.7127C12.2701 12.6987 12.292 12.6793 12.3089 12.656C12.3514 12.5998 12.2356 12.5188 12.144 12.4436C12.0525 12.3684 12.0232 12.1371 12.0403 12.013C12.0574 11.8889 12.1806 11.7387 12.4429 11.7134C12.7053 11.688 12.9006 11.907 12.9006 11.907C12.8465 11.8068 12.6558 11.6404 12.4478 11.6404Z"
            fill="#983107" />
        <path
            d="M11.0269 12.0375C11.0269 12.0375 11.2035 11.8275 11.4159 11.8275C11.6283 11.8275 11.7545 11.9676 11.776 12.0302C11.776 12.0302 11.6142 11.8569 11.4062 11.8569C11.1981 11.8569 11.0269 12.0375 11.0269 12.0375Z"
            fill="#983107" />
        <path
            d="M11.1421 12.0117C11.1421 12.0117 11.1421 12.2807 11.4444 12.2807C11.7468 12.2807 11.7507 12.0706 11.7507 12.0706C11.7507 12.0706 11.6895 12.2512 11.4338 12.2512C11.1781 12.2512 11.1493 12.0375 11.1421 12.0117Z"
            fill="#983107" />
        <path
            d="M11.4966 12.0734C11.4958 12.0904 11.4899 12.1069 11.4797 12.1207C11.4695 12.1345 11.4555 12.1451 11.4393 12.151C11.4231 12.157 11.4055 12.1582 11.3886 12.1544C11.3718 12.1505 11.3564 12.1419 11.3445 12.1296C11.3326 12.1172 11.3246 12.1016 11.3215 12.0848C11.3184 12.068 11.3204 12.0507 11.3272 12.035C11.334 12.0192 11.3453 12.0058 11.3597 11.9964C11.3741 11.987 11.391 11.982 11.4083 11.9819C11.4202 11.9821 11.4319 11.9846 11.4428 11.9893C11.4537 11.994 11.4636 12.0008 11.4718 12.0094C11.48 12.0179 11.4864 12.0279 11.4907 12.0389C11.4949 12.0499 11.4969 12.0616 11.4966 12.0734V12.0734Z"
            fill="#983107" />
        <path
            d="M11.113 12.0206C11.113 12.0206 11.4956 11.7879 11.7552 12.0384C11.7552 12.0384 11.4452 11.8427 11.113 12.0206Z"
            fill="#983107" />
        <path
            d="M12.8857 12.0375C12.8857 12.0375 12.7093 11.8275 12.4966 11.8275C12.284 11.8275 12.158 11.9676 12.1365 12.0302C12.1365 12.0302 12.2983 11.8569 12.5075 11.8569C12.7167 11.8569 12.8857 12.0375 12.8857 12.0375Z"
            fill="#983107" />
        <path
            d="M12.7705 12.0117C12.7705 12.0117 12.7705 12.2807 12.4677 12.2807C12.1649 12.2807 12.1616 12.0706 12.1616 12.0706C12.1616 12.0706 12.2226 12.2512 12.4785 12.2512C12.7344 12.2512 12.7629 12.0375 12.7705 12.0117Z"
            fill="#983107" />
        <path
            d="M12.4161 12.0734C12.4169 12.0904 12.4227 12.1069 12.4329 12.1207C12.4431 12.1345 12.4572 12.1451 12.4734 12.1511C12.4896 12.157 12.5072 12.1582 12.5241 12.1543C12.5409 12.1505 12.5563 12.1418 12.5682 12.1295C12.5801 12.1171 12.5881 12.1015 12.5912 12.0847C12.5942 12.0679 12.5922 12.0505 12.5854 12.0348C12.5786 12.0191 12.5672 12.0057 12.5528 11.9963C12.5383 11.9869 12.5214 11.9819 12.5041 11.9819C12.4923 11.9821 12.4805 11.9847 12.4697 11.9894C12.4588 11.9941 12.449 12.0009 12.4408 12.0094C12.4326 12.0179 12.4262 12.028 12.4219 12.0389C12.4177 12.0499 12.4157 12.0616 12.4161 12.0734V12.0734Z"
            fill="#983107" />
        <path
            d="M12.7994 12.0206C12.7994 12.0206 12.4166 11.7879 12.1572 12.0384C12.1572 12.0384 12.4674 11.8427 12.7994 12.0206Z"
            fill="#983107" />
        <path
            d="M12.0837 12.9993C12.0463 12.9872 11.945 13.0094 11.945 13.0094C11.945 13.0094 11.8447 12.9865 11.8064 12.9993C11.7385 13.0122 11.6701 13.0217 11.6013 13.0277C11.6244 13.0478 11.7809 13.0277 11.8064 13.0194C11.8318 13.0112 11.945 13.0517 11.945 13.0517C11.945 13.0517 12.0576 13.0114 12.0837 13.0194C12.1099 13.0274 12.2652 13.0478 12.289 13.0277C12.2201 13.0217 12.1516 13.0122 12.0837 12.9993Z"
            fill="#983107" />
        <path
            d="M12.1588 12.8713C12.1373 12.8443 12.0432 12.7952 12.005 12.8395C11.9669 12.8839 11.9644 12.8852 11.9403 12.8852C11.9163 12.8852 11.914 12.8825 11.8756 12.8395C11.8372 12.7966 11.7436 12.8443 11.7221 12.8713C11.7006 12.8983 11.5515 13.0114 11.5515 13.0114C11.6042 13.0114 11.7725 12.8665 11.8132 12.8494C11.8539 12.8322 11.9385 12.9353 11.9403 12.9374C11.9419 12.9353 12.0268 12.8322 12.0672 12.8494C12.1077 12.8665 12.2753 13.0114 12.3291 13.0114C12.3294 13.0114 12.1805 12.8983 12.1588 12.8713Z"
            fill="#983107" />
        <path
            d="M12.2263 13.0556C12.2048 13.0556 12.1424 13.1097 12.1107 13.1367C12.0772 13.1619 12.042 13.1849 12.0053 13.2053C11.9939 13.2025 11.9822 13.2011 11.9704 13.2009H11.911C11.898 13.201 11.885 13.2028 11.8724 13.2062C11.8351 13.1851 11.7992 13.1616 11.7649 13.1358C11.7337 13.1088 11.6713 13.0547 11.6494 13.0547C11.6274 13.0547 11.5569 13.0448 11.5483 13.0318C11.5681 13.0537 11.5957 13.0669 11.6253 13.0686C11.6715 13.0686 11.6997 13.1102 11.7166 13.1324C11.757 13.1712 11.808 13.1974 11.8634 13.2076C11.7515 13.2437 11.7159 13.4025 11.7159 13.4025C11.8065 13.2016 11.924 13.2329 11.9395 13.238C11.9549 13.2329 12.0721 13.2016 12.1628 13.4025C12.1628 13.4025 12.1272 13.2425 12.0141 13.2071C12.0679 13.1962 12.1174 13.1703 12.1567 13.1324C12.1736 13.1095 12.203 13.0686 12.2492 13.0686C12.2638 13.0678 12.2781 13.0641 12.2913 13.0578C12.3045 13.0515 12.3162 13.0426 12.3259 13.0318C12.3176 13.0457 12.248 13.0556 12.2263 13.0556Z"
            fill="#983107" />
    </g>
    <defs>
        <clipPath id="clip0_912_2335">
            <rect width="24" height="24" fill="white" />
        </clipPath>
    </defs>
</svg>
