<svg width="24" height="24" viewBox="0 0 24 24" fill="none" xmlns="http://www.w3.org/2000/svg">
    <path fill-rule="evenodd" clip-rule="evenodd" d="M24 24H0V0H24V24Z" fill="#BA0000" />
    <path fill-rule="evenodd" clip-rule="evenodd"
        d="M12.5783 11.5623C12.5783 11.5623 10.1699 10.5254 10.5154 7.83945C10.8499 6.54587 11.4411 5.66479 12.5113 5.18528C13.0132 5.02941 13.5264 4.9624 14.0501 4.91772C13.9121 5.04778 13.797 5.17783 13.7379 5.34164C13.6222 5.635 13.7081 5.91745 13.8605 6.19989C14.0617 6.53535 14.1808 6.91362 14.208 7.30385C14.2429 7.60262 14.1984 7.90531 14.079 8.1814C13.9596 8.4575 13.7695 8.69722 13.5279 8.8764C13.2192 9.11417 12.8548 9.19607 12.5575 9.4676C12.3159 9.68757 12.1649 9.98966 12.1341 10.3149C12.1266 11.0655 12.3326 11.1697 12.5808 11.5638L12.5783 11.5623Z"
        fill="white" />
    <path fill-rule="evenodd" clip-rule="evenodd" d="M12.1211 7.67562V7.66321Z" fill="#BA0000" />
    <path d="M12.1211 7.67562V7.66321" stroke="black" stroke-width="0.100413"
        stroke-miterlimit="3.76" />
    <path d="M12.2736 11.2833C11.3364 10.4544 11.4183 8.36956 12.1321 7.67462" stroke="#BA0000"
        stroke-width="0.100413" stroke-miterlimit="3.76" />
    <path fill-rule="evenodd" clip-rule="evenodd"
        d="M12.7074 7.20803L12.8613 7.46566L12.5759 7.34901L12.3625 7.57834L12.3997 7.27753L12.1138 7.16187L12.4225 7.09237L12.4593 6.79156L12.6126 7.04919L12.9209 6.9792"
        fill="#BA0000" />
    <path fill-rule="evenodd" clip-rule="evenodd"
        d="M12.7847 11.3846C12.7847 11.3846 13.0706 8.77811 15.7411 8.32094C17.0759 8.26187 18.0915 8.56913 18.8634 9.45171C19.1612 9.88605 19.3742 10.3566 19.5703 10.8446C19.4055 10.7512 19.2476 10.6793 19.0739 10.6703C18.7592 10.646 18.5144 10.8108 18.2886 11.0391C18.0267 11.3293 17.6997 11.5534 17.3345 11.6929C17.0592 11.814 16.7568 11.8603 16.4578 11.8271C16.1589 11.7939 15.874 11.6824 15.6319 11.5038C15.3142 11.2784 15.1291 10.9543 14.7826 10.7493C14.5014 10.583 14.1685 10.5271 13.8484 10.5924C13.1282 10.8054 13.0885 11.0312 12.7847 11.3866V11.3846Z"
        fill="white" />
    <path fill-rule="evenodd" clip-rule="evenodd" d="M16.3667 9.8088L16.3778 9.80511Z"
        fill="#BA0000" />
    <path d="M16.3667 9.8088L16.3778 9.80511" stroke="black" stroke-width="0.100413"
        stroke-miterlimit="3.76" />
    <path d="M12.9604 11.0113C13.4787 9.8726 15.496 9.33998 16.3696 9.81998" stroke="#BA0000"
        stroke-width="0.100413" stroke-miterlimit="3.76" />
    <path fill-rule="evenodd" clip-rule="evenodd"
        d="M16.9842 10.232L16.7832 10.4543L16.8105 10.1476L16.5291 10.0106L16.8269 9.95796L16.8542 9.6507L17.011 9.92569L17.3089 9.87258L17.1073 10.095L17.2647 10.369"
        fill="#BA0000" />
    <path fill-rule="evenodd" clip-rule="evenodd"
        d="M12.9629 11.5733C12.9629 11.5733 15.5257 11.0163 16.8054 13.4024C17.2854 14.6494 17.3167 15.7096 16.725 16.7223C16.4073 17.1407 16.0301 17.4936 15.6285 17.8347C15.6647 17.649 15.6831 17.4758 15.6359 17.3085C15.559 17.0022 15.3252 16.8225 15.0373 16.6811C14.6792 16.5253 14.3628 16.2872 14.114 15.9861C13.9118 15.7634 13.7719 15.4913 13.7086 15.1972C13.6452 14.9031 13.6606 14.5975 13.7532 14.3113C13.8658 13.9385 14.1145 13.6601 14.1999 13.2664C14.2681 12.9469 14.215 12.6134 14.051 12.3307C13.6206 11.7152 13.3938 11.7495 12.9619 11.5738L12.9629 11.5733Z"
        fill="white" />
    <path fill-rule="evenodd" clip-rule="evenodd" d="M15.5957 14.4702L15.6024 14.4794Z"
        fill="#BA0000" />
    <path d="M15.5957 14.4702L15.6024 14.4794" stroke="black" stroke-width="0.100413"
        stroke-miterlimit="3.76" />
    <path d="M13.3735 11.6223C14.6175 11.7524 15.7636 13.4962 15.5869 14.4765" stroke="#BA0000"
        stroke-width="0.100413" stroke-miterlimit="3.76" />
    <path fill-rule="evenodd" clip-rule="evenodd"
        d="M15.3902 15.1894L15.1177 15.0703L15.418 14.9993L15.4582 14.6885L15.6026 14.9546L15.9005 14.8831L15.69 15.1189L15.835 15.385L15.5605 15.2643L15.35 15.5006"
        fill="#BA0000" />
    <path fill-rule="evenodd" clip-rule="evenodd"
        d="M12.9055 11.8373C12.9055 11.8373 14.1594 14.1406 12.2284 16.0407C11.1666 16.8513 10.1575 17.1794 9.01928 16.8955C8.52836 16.7084 8.0836 16.4443 7.6438 16.1559C7.83243 16.1385 8.00318 16.1063 8.15111 16.0154C8.42312 15.8556 8.53034 15.5806 8.58495 15.2644C8.6343 14.8765 8.77461 14.5057 8.99446 14.1823C9.15163 13.9256 9.37372 13.715 9.63832 13.5716C9.90292 13.4282 10.2007 13.3572 10.5015 13.3657C10.8912 13.3692 11.2282 13.53 11.6298 13.5002C11.9559 13.4762 12.2614 13.3318 12.487 13.0952C12.9566 12.509 12.8603 12.301 12.9075 11.8373H12.9055Z"
        fill="white" />
    <path fill-rule="evenodd" clip-rule="evenodd" d="M10.8647 15.178L10.8572 15.1872Z"
        fill="#BA0000" />
    <path d="M10.8647 15.178L10.8572 15.1872" stroke="black" stroke-width="0.100413"
        stroke-miterlimit="3.76" />
    <path d="M12.9731 12.2448C13.1979 13.4754 11.8463 15.0648 10.8555 15.171" stroke="#BA0000"
        stroke-width="0.100413" stroke-miterlimit="3.76" />
    <path fill-rule="evenodd" clip-rule="evenodd"
        d="M10.1151 15.183L10.1529 14.8851L10.3058 15.1532L10.615 15.1035L10.4001 15.317L10.5535 15.585L10.2675 15.449L10.0546 15.664L10.0928 15.3661L9.8064 15.2311"
        fill="#BA0000" />
    <path fill-rule="evenodd" clip-rule="evenodd"
        d="M12.6209 11.7871C12.6209 11.7871 10.8657 13.7355 8.43195 12.5451C7.31408 11.8139 6.66978 10.9701 6.55908 9.80309C6.57248 9.27742 6.67375 8.77011 6.79983 8.25983C6.87875 8.43158 6.96513 8.58248 7.10114 8.69119C7.34188 8.8947 7.63723 8.90463 7.95343 8.85102C8.33568 8.76873 8.73198 8.77791 9.11001 8.87783C9.40416 8.94073 9.67652 9.08008 9.89962 9.28183C10.1227 9.48358 10.2887 9.7406 10.3808 10.027C10.5068 10.3958 10.4671 10.7666 10.6289 11.1354C10.7598 11.4349 10.9974 11.675 11.2956 11.809C12.0044 12.0572 12.1687 11.8968 12.6219 11.7871H12.6209Z"
        fill="white" />
    <path fill-rule="evenodd" clip-rule="evenodd" d="M8.79304 10.9704L8.78198 10.9667Z"
        fill="#BA0000" />
    <path d="M8.79304 10.9704L8.78198 10.9667" stroke="black" stroke-width="0.100413"
        stroke-miterlimit="3.76" />
    <path d="M12.2592 11.9867C11.1731 12.6077 9.22478 11.8606 8.7959 10.9617" stroke="#BA0000"
        stroke-width="0.100413" stroke-miterlimit="3.76" />
    <path fill-rule="evenodd" clip-rule="evenodd"
        d="M8.53874 10.2673L8.8321 10.2042L8.63007 10.4375L8.77899 10.713L8.50647 10.581L8.30444 10.8143L8.3382 10.5001L8.06519 10.3685L8.35855 10.306L8.39131 9.99127"
        fill="#BA0000" />
</svg>
