<svg width="24" height="24" viewBox="0 0 24 24" fill="none" xmlns="http://www.w3.org/2000/svg">
    <path d="M24 0H0V24H24V0Z" fill="white" />
    <path d="M24 0H0V1.72747H24V0Z" fill="#ED0000" />
    <path d="M24 3.37872H0V5.10618H24V3.37872Z" fill="#ED0000" />
    <path d="M24 6.75759H0V8.48506H24V6.75759Z" fill="#ED0000" />
    <path d="M24 10.1362H0V11.8637H24V10.1362Z" fill="#ED0000" />
    <path d="M24 13.515H0V15.2425H24V13.515Z" fill="#ED0000" />
    <path d="M24 16.8938H0V18.6213H24V16.8938Z" fill="#ED0000" />
    <path d="M24 20.2725H0V22H24V20.2725Z" fill="#ED0000" />
    <path d="M12 0H0V13.5H12V0Z" fill="#000068" />
    <path
        d="M3.13335 6.92339C3.13335 5.49264 4.35595 4.33231 5.86433 4.33231C6.17218 4.33219 6.47783 4.38153 6.76827 4.47824C6.2674 4.16587 5.68084 3.9996 5.08123 4C3.37977 4 2 5.30845 2 6.92243C2 8.53641 3.37847 9.84596 5.07993 9.84596C5.67978 9.84649 6.26662 9.68021 6.76769 9.36772C6.47725 9.46443 6.17161 9.51377 5.86376 9.51365C4.35595 9.51406 3.13335 8.35413 3.13335 6.92339Z"
        fill="#FFCC00" />
    <path
        d="M9.36616 6.93051L10.6457 6.40923C10.6431 6.39748 10.6398 6.386 10.6372 6.37439L9.23336 6.42289L10.1772 5.43349L10.1684 5.42297L8.89956 6.04919L9.28729 4.74483L8.40267 5.82974L8.16562 4.46622H8.14111L7.88344 5.81786L6.99103 4.71436L6.98541 4.71709L7.38237 6.0455L6.10498 5.39223C6.09892 5.39933 6.09286 5.40671 6.08695 5.41395L7.04381 6.41511C7.04381 6.41511 6.19711 6.39611 5.61011 6.3748L5.60896 6.37985C6.15314 6.6064 6.90668 6.92299 6.90668 6.92299L5.61948 7.44769C6.18053 7.43689 7.03588 7.42213 7.03588 7.42213L6.09214 8.40908C6.09878 8.41714 6.10526 8.42506 6.11204 8.43299L7.37862 7.79994L6.97935 9.09705C6.98959 9.10184 6.99969 9.10703 7.00992 9.11167L7.87118 8.01119C7.87118 8.01119 8.04421 8.93199 8.11991 9.35148H8.12409C8.13577 9.35148 8.14717 9.35148 8.1587 9.35066L8.41161 8.01064L9.27172 9.09555L9.27777 9.09268L8.89494 7.79174L10.1494 8.41755L10.1638 8.40047C9.843 8.0545 9.25124 7.422 9.25124 7.422L10.633 7.46436C10.6356 7.45343 10.6385 7.44249 10.641 7.43143L9.36616 6.93051Z"
        fill="#FFCC00" />
</svg>
