<svg width="24" height="24" viewBox="0 0 24 24" fill="none" xmlns="http://www.w3.org/2000/svg">
    <g clip-path="url(#clip0_913_2830)">
        <path d="M0 0H24V12H0V0Z" fill="#0038A8" />
        <path d="M0 12H24V24H0V12Z" fill="#CE1126" />
        <path d="M20.7844 12L0 24V0" fill="white" />
        <path
            d="M1.18125 2.08124L1.90313 2.70468L2.74219 2.2453L2.36719 3.12186L3.07031 3.77811L2.10938 3.69843L1.70625 4.56093L1.48594 3.6328L0.539062 3.51093L1.35938 3.01874L1.18125 2.08124ZM17.4422 10.7344L17.4609 11.6859L18.3656 12L17.4609 12.3141L17.4422 13.2656L16.8656 12.5062L15.9516 12.7875L16.5 12L15.9516 11.2172L16.8656 11.4937L17.4422 10.7344ZM1.71094 19.439L2.11406 20.3015L3.06563 20.2219L2.37188 20.8781L2.74219 21.7547L1.90313 21.2953L1.18125 21.9187L1.36406 20.9812L0.54375 20.489L1.49063 20.3672L1.71094 19.439Z"
            fill="#FCD116" />
        <path
            d="M7.44853 6.9375L7.13916 7.24688L7.28916 9.60469L7.13447 9.61875L6.85322 7.46719L6.59541 7.72031L6.97978 9.64219C6.67133 9.70456 6.37823 9.82722 6.11728 10.0031L5.0251 8.37188H4.66416L5.98603 10.0969L5.86885 10.1953L4.30791 8.41406H3.86729V8.85937L5.64853 10.4203L5.54541 10.5375L3.82041 9.21563V9.57656L5.45166 10.6687C5.2773 10.93 5.15623 11.2231 5.09541 11.5312L3.17353 11.1469L2.91572 11.4047L5.07197 11.6859L5.05322 11.8453L2.69541 11.6906L2.38135 12L2.69541 12.3094L5.05322 12.1594L5.06728 12.3141L2.91572 12.5953L3.16885 12.8531L5.09072 12.4687C5.15309 12.7772 5.27575 13.0703 5.45166 13.3312L3.82041 14.4234V14.7844L5.54541 13.4625L5.64385 13.5797L3.8626 15.1406V15.5812H4.3126L5.87353 13.8L5.99072 13.9031L4.66885 15.6281H5.02979L6.12197 13.9969C6.38316 14.1713 6.67629 14.2924 6.98447 14.3531L6.6001 16.275L6.85791 16.5328L7.13916 14.3766L7.29385 14.3953L7.14385 16.7531L7.45322 17.0672L7.7626 16.7531L7.6126 14.3953L7.76728 14.3812L8.04853 16.5328L8.30635 16.2797L7.92197 14.3578C8.23043 14.2954 8.52353 14.1728 8.78447 13.9969L9.87666 15.6281H10.2376L8.90635 13.9031L9.02353 13.8047L10.5845 15.5859H11.0251V15.1406L9.24385 13.5797L9.34697 13.4625L11.072 14.7844V14.4234L9.44072 13.3312C9.61509 13.07 9.73615 12.7769 9.79697 12.4687L11.7188 12.8531L11.9767 12.5953L9.82041 12.3141L9.83916 12.1594L12.197 12.3094L12.511 12L12.197 11.6906L9.83916 11.8453C9.83916 11.7891 9.82978 11.7375 9.8251 11.6859L11.9767 11.4047L11.7235 11.1469L9.80166 11.5312C9.73929 11.2228 9.61663 10.9297 9.44072 10.6687L11.072 9.57656V9.21563L9.34697 10.5375L9.24853 10.4203L11.0298 8.85937V8.41875H10.5845L9.02353 10.2L8.90635 10.0969L10.2282 8.37188H9.86728L8.7751 10.0031C8.51385 9.82876 8.22074 9.7077 7.9126 9.64687L8.29697 7.725L8.03916 7.46719L7.75791 9.62344L7.60322 9.60469L7.75322 7.24688L7.44853 6.9375Z"
            fill="#FCD116" />
        <path d="M0 0H24V12H0V0Z" fill="#0038A8" />
        <path d="M0 12H24V24H0V12Z" fill="#CE1126" />
        <path d="M20.7845 12L0 24V0" fill="white" />
        <path fill-rule="evenodd" clip-rule="evenodd"
            d="M7.15194 7.24997L7.46594 6.93347L7.78044 7.24997L7.62449 9.60514C7.67653 9.60852 7.72811 9.61356 7.7792 9.6202L8.06102 7.46497L8.31802 7.72147L7.9357 9.64585C8.25009 9.70814 8.54238 9.83183 8.79956 10.0039L9.88956 8.37252H10.2521L8.92814 10.0962C8.96908 10.1277 9.00898 10.1604 9.04777 10.1944L10.6046 8.41744H11.0496V8.86144L9.27181 10.4184C9.30575 10.4571 9.33846 10.4969 9.36989 10.5378L11.0936 9.21399V9.57699L9.46237 10.6665C9.63489 10.9242 9.75883 11.2171 9.82109 11.5322L11.745 11.15L12 11.405L9.84651 11.6877C9.85312 11.7386 9.85815 11.79 9.86152 11.8419L12.219 11.686L12.5335 12L12.219 12.314L9.86152 12.1582C9.85815 12.2101 9.85313 12.2615 9.84651 12.3124L11.9999 12.5951L11.7449 12.8501L9.82108 12.4678C9.75885 12.7829 9.63496 13.0757 9.46252 13.3333L11.0939 14.4231V14.7861L9.37007 13.4621C9.33865 13.5029 9.30595 13.5427 9.27203 13.5814L11.0499 15.1386V15.5826H10.6049L9.04804 13.8054C9.00926 13.8394 8.96937 13.8722 8.92844 13.9037L10.2524 15.6276H9.88989L8.79988 13.996C8.5428 14.168 8.25062 14.2917 7.93636 14.3541L8.31842 16.2785L8.06142 16.535L7.77987 14.3798C7.72875 14.3864 7.67713 14.3915 7.62505 14.3949L7.78117 16.7525L7.46667 17.0665L7.15267 16.7525L7.30834 14.3949C7.25635 14.3915 7.20482 14.3865 7.15379 14.3798L6.87173 16.535L6.61523 16.2785L6.99754 14.3542C6.68299 14.2919 6.39055 14.1681 6.13328 13.9959L5.04334 15.6275H4.68034L6.00456 13.9034C5.96363 13.8719 5.92375 13.8392 5.88498 13.8052L4.32779 15.5825H3.88379V15.1385L5.66127 13.5814C5.62729 13.5426 5.59453 13.5028 5.56306 13.4619L3.83887 14.786V14.423L5.47063 13.3331C5.29822 13.0755 5.17437 12.7826 5.11217 12.4676L3.18749 12.85L2.93099 12.595L5.08676 12.3121C5.08015 12.2613 5.07514 12.2099 5.07177 12.1581L2.71341 12.3139L2.39941 11.9999L2.71341 11.6859L5.07179 11.8418C5.07516 11.79 5.08017 11.7386 5.08678 11.6878L2.93099 11.405L3.18749 11.15L5.1122 11.5323C5.1744 11.2174 5.29821 10.9246 5.47055 10.6671L3.83846 9.57689V9.21389L5.56294 10.5384C5.59441 10.4974 5.62716 10.4576 5.66114 10.4188L3.88338 8.86134V8.41734H4.32738L5.88478 10.1951C5.92354 10.1611 5.96341 10.1283 6.00431 10.0968L4.67993 8.37242H5.04293L6.133 10.0044C6.39024 9.83214 6.68264 9.70831 6.99716 9.64594L6.61483 7.72147L6.87133 7.46497L7.1534 9.62029C7.20432 9.61366 7.25575 9.60862 7.30762 9.60522L7.15194 7.24997Z"
            fill="#FCD116" />
        <path
            d="M18.3845 12L17.4845 12.3135L17.465 13.2685L16.8885 12.507L15.9745 12.7835L16.518 12H18.3845Z"
            fill="#FCD116" />
        <path
            d="M18.3845 12L17.4845 11.6865L17.465 10.7315L16.8885 11.493L15.9745 11.2165L16.518 12H18.3845Z"
            fill="#FCD116" />
        <path
            d="M1.19992 21.9215L1.37942 20.984L0.562419 20.4895L1.51242 20.3705L1.72992 19.441L2.13592 20.305L1.19992 21.9215Z"
            fill="#FCD116" />
        <path
            d="M1.19992 21.9215L1.92211 21.3L2.75861 21.7605L2.38811 20.8805L3.08461 20.227L2.13461 20.3075L1.19992 21.9215Z"
            fill="#FCD116" />
        <path
            d="M1.19987 2.07849L1.92187 2.70249L2.75837 2.24199L2.38787 3.12199L3.08437 3.77549L2.13437 3.69499L1.19987 2.07849Z"
            fill="#FCD116" />
        <path
            d="M1.19987 2.07849L1.37927 3.01601L0.561768 3.51051L1.51177 3.62951L1.72927 4.55901L2.13277 3.69501L1.19987 2.07849Z"
            fill="#FCD116" />
    </g>
    <defs>
        <clipPath id="clip0_913_2830">
            <rect width="24" height="24" fill="white" />
        </clipPath>
    </defs>
</svg>
