<svg width="24" height="24" viewBox="0 0 24 24" fill="none" xmlns="http://www.w3.org/2000/svg">
    <g clip-path="url(#clip0_912_2388)">
        <path d="M0 0H24V24H0V0Z" fill="#000066" />
        <path
            d="M0 0V1.209L9.96 10.813H11.214V9.6045L1.2535 0H0ZM11.214 0V1.209L1.2535 10.813H0V9.6045L9.96 0H11.214Z"
            fill="white" />
        <path d="M4.6725 0V10.813H6.5415V0H4.6725ZM0 3.6045V7.209H11.214V3.6045H0Z" fill="white" />
        <path
            d="M0 4.3255V6.488H11.214V4.3255H0ZM5.046 0V10.813H6.1675V0H5.046ZM0 10.813L3.738 7.209H4.574L0.836 10.813H0ZM0 0L3.738 3.6045H2.9L0 0.8045V0ZM6.64 3.6045L10.378 0H11.214L7.476 3.6045H6.64ZM11.214 10.813L7.476 7.209H8.312L11.212 10.009V10.815L11.214 10.813Z"
            fill="#CC0000" />
        <path fill-rule="evenodd" clip-rule="evenodd"
            d="M7.32841 18.805L5.14591 18.995L5.44591 21.165L3.93691 19.577L2.42791 21.165L2.72791 18.995L0.54541 18.805L2.42991 17.687L1.21741 15.862L3.26741 16.638L3.93691 14.55L4.60791 16.6355L6.65791 15.86L5.44591 17.6845L7.32841 18.805ZM16.6669 20.805L16.1399 20.0125L17.0304 20.35L17.3214 19.444L17.6129 20.35L18.5029 20.013L17.9764 20.806L18.7949 21.2915L17.8449 21.374L17.9759 22.3165L17.3199 21.627L16.6644 22.3165L16.7949 21.374L15.8449 21.2915L16.6669 20.805ZM16.6669 6.7L16.1399 5.9075L17.0304 6.245L17.3214 5.3385L17.6129 6.2445L18.5029 5.9075L17.9764 6.7L18.7949 7.186L17.8449 7.2685L17.9759 8.211L17.3199 7.521L16.6644 8.211L16.7949 7.2685L15.8449 7.186L16.6669 6.7ZM11.3774 12.4305L10.8499 11.638L11.7404 11.975L12.0319 11.0685L12.3229 11.975L13.2134 11.638L12.6864 12.4305L13.5049 12.9165L12.5549 12.999L12.6854 13.9415L12.0324 13.25L11.3764 13.94L11.5074 13L10.5574 12.9175L11.3774 12.4305ZM21.3694 11.02L20.8419 10.2275L21.7329 10.5645L22.0219 9.658L22.3144 10.5645L23.2034 10.2275L22.6779 11.02L23.4959 11.506L22.5459 11.5885L22.6764 12.531L22.0204 11.8415L21.3644 12.531L21.4949 11.5885L20.5499 11.506L21.3694 11.02ZM19.4374 15.1755L18.9189 15.497L19.0644 14.905L18.5999 14.5115L19.2079 14.467L19.4384 13.9025L19.6684 14.467L20.2769 14.512L19.8109 14.905L19.9564 15.497"
            fill="white" />
    </g>
    <defs>
        <clipPath id="clip0_912_2388">
            <rect width="24" height="24" fill="white" />
        </clipPath>
    </defs>
</svg>
