<svg width="24" height="24" viewBox="0 0 24 24" fill="none" xmlns="http://www.w3.org/2000/svg">
    <g clip-path="url(#clip0_912_2450)">
        <path d="M0 0H33V24H0V0Z" fill="#DE2910" />
        <path
            d="M7.53578 6.42553L9.72151 4.88403H7.01964L6.18742 2.40002L5.3552 4.88403H2.65332L4.83854 6.42553L4.00426 8.91603L6.18742 7.37653L8.37006 8.91603L7.53578 6.42553Z"
            fill="#FFDE00" />
        <path
            d="M12.7469 2.70098L13.6239 2.50548L12.7958 2.16398L12.8758 1.29498L12.2843 1.95298L11.4557 1.61098L11.9182 2.35998L11.3284 3.01648L12.2034 2.82198L12.6664 3.57098L12.7469 2.70098Z"
            fill="#FFDE00" />
        <path
            d="M15.0558 5.20149L15.9426 5.35099L15.3161 4.72499L15.7369 3.95399L14.9289 4.33849L14.3014 3.71149L14.4288 4.57599L13.6223 4.95899L14.5066 5.10849L14.634 5.97349L15.0558 5.20149Z"
            fill="#FFDE00" />
        <path
            d="M15.3028 8.52651L16.0118 7.98951L15.112 8.02051L14.8032 7.20001L14.5557 8.03951L13.658 8.07051L14.403 8.55701L14.155 9.39651L14.865 8.85851L15.6117 9.34651L15.3028 8.52651Z"
            fill="#FFDE00" />
        <path
            d="M12.741 11.0895L13.6088 10.8595L12.7668 10.551L12.808 9.67853L12.2455 10.3605L11.4055 10.053L11.8985 10.78L11.3359 11.462L12.2048 11.2315L12.6992 11.961L12.741 11.0895Z"
            fill="#FFDE00" />
    </g>
    <defs>
        <clipPath id="clip0_912_2450">
            <rect width="24" height="24" fill="white" />
        </clipPath>
    </defs>
</svg>
