<svg width="24" height="24" viewBox="0 0 24 24" fill="none" xmlns="http://www.w3.org/2000/svg">
    <path fill-rule="evenodd" clip-rule="evenodd" d="M0 0H24V24H0V0Z" fill="#DE2110" />
    <path fill-rule="evenodd" clip-rule="evenodd" d="M0 0H17V12H0V0Z" fill="#08399C" />
    <path fill-rule="evenodd" clip-rule="evenodd"
        d="M11.8562 8.37002L9.69884 7.91352L10.1587 10.129L8.51175 8.62452L7.8312 10.7795L7.13654 8.62952L5.50078 10.1465L5.9446 7.92802L3.7921 8.40002L5.25481 6.70702L3.15967 6.00702L5.24995 5.29252L3.7746 3.61151L5.93196 4.06751L5.47258 1.85001L7.11807 3.35651L7.79863 1.20001L8.49328 3.35001L10.129 1.83301L9.68474 4.05301L11.8387 3.58051L10.375 5.27452L12.4697 5.97452L10.3794 6.68902L11.8562 8.37002Z"
        fill="white" />
    <path fill-rule="evenodd" clip-rule="evenodd"
        d="M9.86795 8.19999L9.18739 8.57199L8.52288 8.97499L7.74996 8.94999L6.97899 8.95949L6.32469 8.53999L5.65385 8.14999L5.2917 7.44999L4.89844 6.76949L4.9242 5.97849L4.91594 5.18699L5.32427 4.51599L5.70246 3.82599L6.38302 3.45399L7.04705 3.04999L7.81802 3.07749L8.58948 3.06849L9.24427 3.48749L9.91607 3.87549L10.2787 4.57549L10.672 5.25599L10.6457 6.04699L10.6545 6.83849L10.2457 7.50949L9.86795 8.19999Z"
        fill="#08399C" />
    <path fill-rule="evenodd" clip-rule="evenodd"
        d="M10.1491 6.01297C10.1492 6.4939 10.0106 6.96405 9.7509 7.36398C9.4912 7.7639 9.12203 8.07563 8.69009 8.25974C8.25814 8.44385 7.78281 8.49207 7.32421 8.39831C6.86562 8.30455 6.44436 8.07301 6.1137 7.73298C5.78305 7.39295 5.55786 6.95969 5.4666 6.48802C5.37535 6.01634 5.42213 5.52742 5.60104 5.08309C5.77995 4.63876 6.08295 4.25899 6.47171 3.99179C6.86047 3.72459 7.31753 3.58197 7.7851 3.58197C8.41198 3.58197 9.01319 3.83808 9.4565 4.29396C9.89981 4.74985 10.1489 5.36818 10.1491 6.01297V6.01297Z"
        fill="white" />
</svg>
