<svg width="24" height="24" viewBox="0 0 24 24" fill="none" xmlns="http://www.w3.org/2000/svg">
    <g clip-path="url(#clip0_913_3478)">
        <path fill-rule="evenodd" clip-rule="evenodd"
            d="M0 0H45.6004V1.84617H0V0ZM0 3.69234H45.6004V5.53852H0V3.69234ZM0 7.38469H45.6004V9.23086H0V7.38469ZM0 11.077H45.6004V12.9232H0V11.077ZM0 14.7694H45.6004V16.6155H0V14.7694ZM0 18.4617H45.6004V20.3079H0V18.4617ZM0 22.1541H45.6004V24.0002H0V22.1541Z"
            fill="#BD3D44" />
        <path fill-rule="evenodd" clip-rule="evenodd"
            d="M0 1.84619H45.6004V3.69236H0V1.84619ZM0 5.53853H45.6004V7.38471H0V5.53853ZM0 9.23088H45.6004V11.0771H0V9.23088ZM0 12.9232H45.6004V14.7694H0V12.9232ZM0 16.6156H45.6004V18.4617H0V16.6156ZM0 20.3079H45.6004V22.1541H0V20.3079Z"
            fill="white" />
        <path fill-rule="evenodd" clip-rule="evenodd" d="M0 0H18.2402V12.9232H0V0Z"
            fill="#192F5D" />
        <path fill-rule="evenodd" clip-rule="evenodd"
            d="M1.51389 0.553833L1.69851 1.07076H2.21544L1.79082 1.38461L1.95698 1.88308L1.51389 1.56923L1.10774 1.88308L1.27389 1.38461L0.830811 1.07076H1.38466L1.51389 0.553833ZM4.56008 0.553833L4.72623 1.07076H5.26162L4.81854 1.38461L5.00316 1.88308L4.56008 1.56923L4.117 1.88308L4.30161 1.38461L3.85853 1.07076H4.39392L4.56008 0.553833ZM7.60626 0.553833L7.77242 1.07076H8.30781L7.86473 1.38461L8.04934 1.88308L7.60626 1.56923L7.16318 1.88308L7.3478 1.38461L6.90472 1.07076H7.44011L7.60626 0.553833ZM10.634 0.553833L10.8186 1.07076H11.3355L10.9109 1.38461L11.0771 1.88308L10.634 1.56923L10.2094 1.88308L10.3755 1.38461L9.93244 1.07076H10.4863L10.634 0.553833ZM13.6802 0.553833L13.8463 1.07076H14.3817L13.9386 1.38461L14.1232 1.88308L13.6617 1.56923L13.2371 1.88308L13.4032 1.38461L12.9602 1.07076H13.4955L13.6802 0.553833ZM16.7264 0.553833L16.8925 1.07076H17.4279L16.9848 1.38461L17.1694 1.88308L16.7264 1.56923L16.2833 1.88308L16.4679 1.38461L16.0248 1.07076H16.5602L16.7264 0.553833ZM3.04622 1.84615L3.21237 2.36308H3.74776L3.30468 2.67693L3.4893 3.1754L3.04622 2.86155L2.60314 3.1754L2.78775 2.67693L2.34467 2.36308H2.88006L3.04622 1.84615ZM6.07394 1.84615L6.25856 2.36308H6.77548L6.35086 2.67693L6.51702 3.1754L6.07394 2.86155L5.64932 3.1754L5.81547 2.67693L5.37239 2.36308H5.92624L6.07394 1.84615ZM9.12012 1.84615L9.28628 2.36308H9.82167L9.37859 2.67693L9.5632 3.1754L9.12012 2.86155L8.67704 3.1754L8.86166 2.67693L8.41858 2.36308H8.95397L9.12012 1.84615ZM12.1663 1.84615L12.3325 2.36308H12.8679L12.4248 2.67693L12.6094 3.1754L12.1663 2.86155L11.7232 3.1754L11.9078 2.67693L11.4648 2.36308H12.0002L12.1663 1.84615ZM15.194 1.84615L15.3786 2.36308H15.8771L15.4525 2.67693L15.6186 3.1754L15.1756 2.86155L14.7509 3.1754L14.9171 2.67693L14.474 2.36308H15.0279L15.194 1.84615ZM1.53236 3.13847L1.68005 3.6554H2.2339L1.79082 3.96925L1.95698 4.46772L1.51389 4.15387L1.10774 4.46772L1.27389 3.96925L0.830811 3.6554H1.38466L1.53236 3.13847ZM4.56008 3.13847L4.72623 3.6554H5.26162L4.837 3.96925L5.00316 4.46772L4.56008 4.15387L4.13546 4.46772L4.30161 3.96925L3.85853 3.6554H4.39392L4.56008 3.13847ZM7.60626 3.13847L7.77242 3.6554H8.30781L7.86473 3.96925L8.04934 4.46772L7.60626 4.15387L7.16318 4.46772L7.3478 3.96925L6.90472 3.6554H7.44011L7.60626 3.13847ZM10.634 3.13847L10.8186 3.6554H11.3355L10.9109 3.96925L11.0771 4.46772L10.634 4.15387L10.2094 4.46772L10.3755 3.96925L9.93244 3.6554H10.4863L10.634 3.13847ZM13.6802 3.13847L13.8463 3.6554H14.3817L13.9571 3.96925L14.1232 4.46772L13.6802 4.15387L13.2555 4.46772L13.4217 3.96925L12.9786 3.6554H13.514L13.6802 3.13847ZM16.7264 3.13847L16.8925 3.6554H17.4279L16.9848 3.96925L17.1694 4.46772L16.7264 4.15387L16.2833 4.46772L16.4679 3.96925L16.0248 3.6554H16.5602L16.7264 3.13847ZM3.04622 4.43079L3.21237 4.94772H3.74776L3.30468 5.26157L3.4893 5.76004L3.04622 5.44619L2.60314 5.76004L2.78775 5.26157L2.34467 4.94772H2.88006L3.04622 4.43079ZM6.07394 4.43079L6.25856 4.94772H6.77548L6.35086 5.26157L6.51702 5.76004L6.07394 5.44619L5.64932 5.76004L5.81547 5.26157L5.37239 4.94772H5.92624L6.07394 4.43079ZM9.12012 4.43079L9.28628 4.94772H9.82167L9.39705 5.26157L9.5632 5.76004L9.12012 5.44619L8.6955 5.76004L8.86166 5.26157L8.41858 4.94772H8.95397L9.12012 4.43079ZM12.1663 4.43079L12.3325 4.94772H12.8679L12.4248 5.26157L12.6094 5.76004L12.1663 5.44619L11.7232 5.76004L11.9078 5.26157L11.4648 4.94772H12.0002L12.1663 4.43079ZM15.194 4.43079L15.3786 4.94772H15.8771L15.4525 5.26157L15.6186 5.76004L15.1756 5.44619L14.7509 5.76004L14.9171 5.26157L14.474 4.94772H15.0279L15.194 4.43079ZM1.53236 5.72311L1.68005 6.24004H2.2339L1.79082 6.55389L1.95698 7.05236L1.51389 6.73851L1.10774 7.05236L1.27389 6.55389L0.830811 6.24004H1.38466L1.53236 5.72311ZM4.56008 5.72311L4.72623 6.24004H5.26162L4.837 6.55389L5.00316 7.05236L4.56008 6.73851L4.13546 7.05236L4.30161 6.55389L3.85853 6.24004H4.39392L4.56008 5.72311ZM7.60626 5.72311L7.77242 6.24004H8.30781L7.86473 6.55389L8.04934 7.05236L7.60626 6.73851L7.16318 7.05236L7.3478 6.55389L6.90472 6.24004H7.44011L7.60626 5.72311ZM10.634 5.72311L10.8186 6.24004H11.3355L10.9109 6.55389L11.0771 7.05236L10.634 6.73851L10.2094 7.05236L10.3755 6.55389L9.93244 6.24004H10.4863L10.634 5.72311ZM13.6802 5.72311L13.8463 6.24004H14.3817L13.9571 6.55389L14.1232 7.05236L13.6802 6.73851L13.2555 7.05236L13.4217 6.55389L12.9786 6.24004H13.514L13.6802 5.72311ZM16.7264 5.72311L16.8925 6.24004H17.4279L16.9848 6.55389L17.1694 7.05236L16.7264 6.73851L16.2833 7.05236L16.4679 6.55389L16.0248 6.24004H16.5602L16.7264 5.72311ZM3.04622 7.01543L3.21237 7.53236H3.74776L3.30468 7.84621L3.4893 8.34468L3.04622 8.03083L2.60314 8.34468L2.78775 7.84621L2.34467 7.53236H2.88006L3.04622 7.01543ZM6.07394 7.01543L6.25856 7.53236H6.77548L6.35086 7.84621L6.51702 8.34468L6.07394 8.03083L5.64932 8.34468L5.81547 7.84621L5.37239 7.53236H5.92624L6.07394 7.01543ZM9.12012 7.01543L9.28628 7.53236H9.82167L9.39705 7.84621L9.5632 8.34468L9.12012 8.03083L8.6955 8.34468L8.86166 7.84621L8.41858 7.53236H8.95397L9.12012 7.01543ZM12.1663 7.01543L12.3325 7.53236H12.8679L12.4248 7.84621L12.6094 8.34468L12.1663 8.03083L11.7232 8.34468L11.9078 7.84621L11.4648 7.53236H12.0002L12.1663 7.01543ZM15.194 7.01543L15.3786 7.53236H15.8771L15.4525 7.84621L15.6186 8.34468L15.1756 8.03083L14.7509 8.34468L14.9171 7.84621L14.474 7.53236H15.0279L15.194 7.01543ZM1.53236 8.30776L1.68005 8.82468H2.2339L1.79082 9.13853L1.95698 9.637L1.51389 9.32315L1.10774 9.637L1.27389 9.13853L0.830811 8.82468H1.38466L1.53236 8.30776ZM4.56008 8.30776L4.72623 8.82468H5.26162L4.837 9.13853L5.00316 9.637L4.56008 9.32315L4.13546 9.637L4.30161 9.13853L3.85853 8.82468H4.39392L4.56008 8.30776ZM7.60626 8.30776L7.77242 8.82468H8.30781L7.86473 9.13853L8.04934 9.637L7.60626 9.32315L7.16318 9.637L7.3478 9.13853L6.90472 8.82468H7.44011L7.60626 8.30776ZM10.634 8.30776L10.8186 8.82468H11.3355L10.9109 9.13853L11.0771 9.637L10.634 9.32315L10.2094 9.637L10.3755 9.13853L9.93244 8.82468H10.4863L10.634 8.30776ZM13.6802 8.30776L13.8463 8.82468H14.3817L13.9571 9.13853L14.1232 9.637L13.6802 9.32315L13.2555 9.637L13.4217 9.13853L12.9786 8.82468H13.514L13.6802 8.30776ZM16.7264 8.30776L16.8925 8.82468H17.4279L16.9848 9.13853L17.1694 9.637L16.7264 9.32315L16.2833 9.637L16.4679 9.13853L16.0248 8.82468H16.5602L16.7264 8.30776ZM3.04622 9.60008L3.21237 10.117H3.74776L3.30468 10.4309L3.4893 10.9293L3.04622 10.6155L2.60314 10.9293L2.78775 10.4309L2.34467 10.117H2.88006L3.04622 9.60008ZM6.07394 9.60008L6.25856 10.117H6.77548L6.35086 10.4309L6.51702 10.9293L6.07394 10.6155L5.64932 10.9293L5.81547 10.4309L5.37239 10.117H5.92624L6.07394 9.60008ZM9.12012 9.60008L9.28628 10.117H9.82167L9.39705 10.4309L9.5632 10.9293L9.12012 10.6155L8.6955 10.9293L8.86166 10.4309L8.41858 10.117H8.95397L9.12012 9.60008ZM12.1663 9.60008L12.3325 10.117H12.8679L12.4248 10.4309L12.6094 10.9293L12.1663 10.6155L11.7232 10.9293L11.9078 10.4309L11.4648 10.117H12.0002L12.1663 9.60008ZM15.194 9.60008L15.3786 10.117H15.8771L15.4525 10.4309L15.6186 10.9293L15.1756 10.6155L14.7509 10.9293L14.9171 10.4309L14.474 10.117H15.0279L15.194 9.60008ZM1.53236 10.8924L1.68005 11.4093H2.2339L1.79082 11.7232L1.95698 12.2216L1.51389 11.9078L1.10774 12.2216L1.27389 11.7232L0.830811 11.4093H1.38466L1.53236 10.8924ZM4.56008 10.8924L4.72623 11.4093H5.26162L4.837 11.7232L5.00316 12.2216L4.56008 11.9078L4.13546 12.2216L4.30161 11.7232L3.85853 11.4093H4.39392L4.56008 10.8924ZM7.60626 10.8924L7.77242 11.4093H8.30781L7.86473 11.7232L8.04934 12.2216L7.60626 11.9078L7.16318 12.2216L7.3478 11.7232L6.90472 11.4093H7.44011L7.60626 10.8924ZM10.634 10.8924L10.8186 11.4093H11.3355L10.9109 11.7232L11.0771 12.2216L10.634 11.9078L10.2094 12.2216L10.3755 11.7232L9.93244 11.4093H10.4863L10.634 10.8924ZM13.6802 10.8924L13.8463 11.4093H14.3817L13.9571 11.7232L14.1232 12.2216L13.6802 11.9078L13.2555 12.2216L13.4217 11.7232L12.9786 11.4093H13.514L13.6802 10.8924ZM16.7264 10.8924L16.8925 11.4093H17.4279L16.9848 11.7232L17.1694 12.2216L16.7264 11.9078L16.2833 12.2216L16.4679 11.7232L16.0248 11.4093H16.5602L16.7264 10.8924Z"
            fill="white" />
        <path fill-rule="evenodd" clip-rule="evenodd"
            d="M0 0H24V1.846H0V0ZM0 3.6925H24V5.5385H0V3.6925ZM0 7.3845H24V9.231H0V7.3845ZM0 11.077H24V12.923H0V11.077ZM0 14.7695H24V16.6155H0V14.7695ZM0 18.4615H24V20.308H0V18.4615ZM0 22.154H24V24H0V22.154Z"
            fill="#BD3D44" />
        <path fill-rule="evenodd" clip-rule="evenodd"
            d="M0 2H24V3.8185H0V2ZM0 5.6365H24V7.4545H0V5.6365ZM0 9.273H24V11.091H0V9.273ZM0 12.909H24V14.7275H0V12.909ZM0 16.5455H24V18.3635H0V16.5455ZM0 20.182H24V22H0V20.182Z"
            fill="white" />
        <path fill-rule="evenodd" clip-rule="evenodd" d="M0 0H18.24V12.923H0V0Z" fill="#192F5D" />
        <path fill-rule="evenodd" clip-rule="evenodd"
            d="M1.51993 0.552917L1.68593 1.06392H2.22293L1.78843 1.37942L1.95443 1.89042L1.51993 1.57442L1.08543 1.89042L1.24993 1.37942L0.81543 1.06392H1.35393L1.51993 0.552917ZM4.55993 0.552917L4.72593 1.06392H5.26293L4.82843 1.37942L4.99443 1.89042L4.55993 1.57442L4.12543 1.89042L4.29143 1.37942L3.85693 1.06392H4.39393L4.55993 0.552917ZM7.59993 0.552917L7.76593 1.06392H8.30293L7.86843 1.37942L8.03443 1.89042L7.59993 1.57442L7.16543 1.89042L7.33143 1.37942L6.89693 1.06392H7.43393L7.59993 0.552917ZM10.6399 0.552917L10.8059 1.06392H11.3429L10.9084 1.37942L11.0744 1.89042L10.6399 1.57442L10.2054 1.89042L10.3714 1.37942L9.93693 1.06392H10.4739L10.6399 0.552917ZM13.6799 0.552917L13.8459 1.06392H14.3829L13.9499 1.37942L14.1159 1.89042L13.6814 1.57442L13.2469 1.89042L13.4129 1.37942L12.9784 1.06392H13.5154L13.6799 0.552917ZM16.7199 0.552917L16.8859 1.06392H17.4234L16.9884 1.37942L17.1544 1.89042L16.7199 1.57442L16.2854 1.89042L16.4499 1.37942L16.0154 1.06392H16.5529L16.7199 0.552917Z"
            fill="white" />
        <path fill-rule="evenodd" clip-rule="evenodd"
            d="M3.03991 1.84552L3.20591 2.35602H3.74291L3.30841 2.67202L3.47441 3.18252L3.03991 2.86702L2.60541 3.18252L2.77141 2.67202L2.33691 2.35602H2.87391L3.03991 1.84552ZM6.07991 1.84552L6.24591 2.35602H6.78291L6.34991 2.67202L6.51591 3.18252L6.08141 2.86702L5.64691 3.18252L5.81291 2.67202L5.37841 2.35602H5.91541L6.07991 1.84552ZM9.11991 1.84552L9.28591 2.35602H9.82291L9.38841 2.67202L9.55441 3.18252L9.11991 2.86702L8.68541 3.18252L8.84991 2.67202L8.41541 2.35602H8.95241L9.11991 1.84552ZM12.1599 1.84552L12.3259 2.35602H12.8629L12.4284 2.67202L12.5944 3.18252L12.1599 2.86702L11.7254 3.18252L11.8914 2.67202L11.4569 2.35602H11.9944L12.1599 1.84552ZM15.1999 1.84552L15.3659 2.35602H15.9029L15.4684 2.67202L15.6344 3.18252L15.1999 2.86702L14.7654 3.18252L14.9314 2.67202L14.4969 2.35602H15.0339L15.1999 1.84552Z"
            fill="white" />
        <path fill-rule="evenodd" clip-rule="evenodd"
            d="M1.51989 3.138L1.68589 3.65H2.22289L1.78839 3.9655L1.95439 4.475L1.51989 4.1595L1.08539 4.475L1.24989 3.964L0.816895 3.65H1.35389L1.51989 3.138ZM4.55989 3.138L4.72589 3.65H5.26289L4.82839 3.9655L4.99439 4.475L4.55989 4.1595L4.12539 4.475L4.29139 3.964L3.85689 3.65H4.39389L4.55989 3.138ZM7.59989 3.138L7.76589 3.65H8.30289L7.86839 3.9655L8.03439 4.4765L7.59989 4.1595L7.16539 4.475L7.33139 3.964L6.89689 3.65H7.43389L7.59989 3.138ZM10.6399 3.138L10.8059 3.65H11.3429L10.9084 3.9655L11.0744 4.4765L10.6399 4.161L10.2054 4.4765L10.3714 3.9655L9.93689 3.65H10.4739L10.6399 3.138ZM13.6799 3.138L13.8459 3.65H14.3829L13.9499 3.964L14.1159 4.475L13.6814 4.1595L13.2469 4.475L13.4129 3.964L12.9769 3.65H13.5139L13.6799 3.138ZM16.7199 3.138L16.8859 3.65H17.4234L16.9884 3.9655L17.1544 4.4765L16.7199 4.161L16.2854 4.4765L16.4499 3.964L16.0169 3.65H16.5544L16.7199 3.138Z"
            fill="white" />
        <path fill-rule="evenodd" clip-rule="evenodd"
            d="M3.03991 4.42999L3.20591 4.94099H3.74291L3.30841 5.25649L3.47441 5.76749L3.03991 5.44999L2.60541 5.76599L2.77141 5.25499L2.33691 4.93949H2.87391L3.03991 4.42999ZM6.07991 4.42999L6.24591 4.94099H6.78291L6.34991 5.25649L6.51591 5.76749L6.07991 5.44999L5.64541 5.76599L5.81141 5.25499L5.37691 4.93949H5.91391L6.07991 4.42999ZM9.11991 4.42999L9.28591 4.94099H9.82291L9.38841 5.25649L9.55441 5.76749L9.11991 5.44999L8.68541 5.76599L8.84991 5.25649L8.41541 4.94099H8.95241L9.11991 4.42999ZM12.1599 4.42999L12.3259 4.94099H12.8629L12.4284 5.25649L12.5944 5.76749L12.1599 5.44999L11.7254 5.76599L11.8914 5.25499L11.4569 4.93949H11.9939L12.1599 4.42999ZM15.1999 4.42999L15.3659 4.94099H15.9029L15.4684 5.25649L15.6344 5.76749L15.1999 5.44999L14.7654 5.76599L14.9314 5.25499L14.4969 4.93949H15.0339L15.1999 4.42999Z"
            fill="white" />
        <path fill-rule="evenodd" clip-rule="evenodd"
            d="M1.51993 5.72241L1.68593 6.23291H2.22293L1.78843 6.54991L1.95443 7.06041L1.51993 6.74491L1.08543 7.06041L1.24993 6.54991L0.81543 6.23391H1.35393L1.51993 5.72241ZM4.55993 5.72241L4.72593 6.23291H5.26293L4.82843 6.54991L4.99443 7.06041L4.55993 6.74491L4.12543 7.06041L4.29143 6.54991L3.85693 6.23391H4.39393L4.55993 5.72241ZM7.59993 5.72241L7.76593 6.23291H8.30293L7.86843 6.54991L8.03443 7.06041L7.59993 6.74391L7.16543 7.05941L7.33143 6.54991L6.89693 6.23391H7.43393L7.59993 5.72241ZM10.6399 5.72241L10.8059 6.23291H11.3429L10.9084 6.54991L11.0744 7.06041L10.6399 6.74491L10.2054 7.06041L10.3714 6.54991L9.93693 6.23391H10.4739L10.6399 5.72241ZM13.6799 5.72241L13.8459 6.23291H14.3829L13.9499 6.54991L14.1159 7.06041L13.6814 6.74491L13.2469 7.06041L13.4114 6.54991L12.9769 6.23391H13.5139L13.6799 5.72241ZM16.7199 5.72241L16.8859 6.23291H17.4234L16.9884 6.54891L17.1544 7.05941L16.7199 6.74391L16.2854 7.05941L16.4499 6.54991L16.0154 6.23391H16.5529L16.7199 5.72241Z"
            fill="white" />
        <path fill-rule="evenodd" clip-rule="evenodd"
            d="M3.03991 7.01447L3.20591 7.52547H3.74291L3.30841 7.84097L3.47441 8.34997L3.03991 8.03447L2.60541 8.34997L2.77141 7.83897L2.33691 7.52347H2.87391L3.03991 7.01447ZM6.07991 7.01447L6.24591 7.52547H6.78291L6.34991 7.84097L6.51441 8.34997L6.07991 8.03447L5.64541 8.34997L5.81141 7.83897L5.37691 7.52347H5.91391L6.07991 7.01447ZM9.11991 7.01447L9.28591 7.52547H9.82291L9.38841 7.84097L9.55441 8.34997L9.11991 8.03447L8.68541 8.34997L8.84991 7.84097L8.41541 7.52547H8.95241L9.11991 7.01447ZM12.1599 7.01447L12.3259 7.52547H12.8629L12.4284 7.84097L12.5944 8.34997L12.1599 8.03447L11.7254 8.34997L11.8914 7.83897L11.4569 7.52347H11.9939L12.1599 7.01447ZM15.1999 7.01447L15.3659 7.52547H15.9029L15.4684 7.84097L15.6344 8.34997L15.1999 8.03647L14.7654 8.34997L14.9314 7.83897L14.4969 7.52347H15.0339L15.1999 7.01447Z"
            fill="white" />
        <path fill-rule="evenodd" clip-rule="evenodd"
            d="M1.51993 8.30701L1.68593 8.81801H2.22293L1.78843 9.13351L1.95443 9.64401L1.51993 9.32851L1.08543 9.64401L1.24993 9.13351L0.81543 8.81801H1.35393L1.51993 8.30701ZM4.55993 8.30701L4.72593 8.81801H5.26293L4.82843 9.13351L4.99443 9.64401L4.55993 9.32851L4.12543 9.64401L4.29143 9.13351L3.85693 8.81801H4.39393L4.55993 8.30701ZM7.59993 8.30701L7.76593 8.81801H8.30293L7.86843 9.13351L8.03443 9.64401L7.59993 9.32851L7.16543 9.64401L7.33143 9.13351L6.89693 8.81801H7.43393L7.59993 8.30701ZM10.6399 8.30701L10.8059 8.81801H11.3429L10.9084 9.13351L11.0744 9.64401L10.6399 9.32851L10.2054 9.64401L10.3714 9.13351L9.93693 8.81801H10.4739L10.6399 8.30701ZM13.6799 8.30701L13.8459 8.81801H14.3829L13.9499 9.13351L14.1159 9.64401L13.6814 9.32851L13.2469 9.64401L13.4129 9.13351L12.9784 8.81801H13.5154L13.6799 8.30701ZM16.7199 8.30701L16.8859 8.81801H17.4234L16.9884 9.13351L17.1544 9.64401L16.7199 9.32851L16.2854 9.64401L16.4499 9.13351L16.0154 8.81801H16.5529L16.7199 8.30701Z"
            fill="white" />
        <path fill-rule="evenodd" clip-rule="evenodd"
            d="M3.03991 9.59998L3.20591 10.1105H3.74291L3.30841 10.4265L3.47441 10.937L3.03991 10.6215L2.60541 10.937L2.77141 10.4265L2.33691 10.1105H2.87391L3.03991 9.59998ZM6.07991 9.59998L6.24591 10.1105H6.78291L6.34991 10.426L6.51591 10.9365L6.08141 10.621L5.64691 10.9365L5.81291 10.426L5.37841 10.11H5.91541L6.07991 9.59998ZM9.11991 9.59998L9.28591 10.1105H9.82291L9.38841 10.4265L9.55441 10.937L9.11991 10.6215L8.68541 10.937L8.84991 10.426L8.41541 10.11H8.95241L9.11991 9.59998ZM12.1599 9.59998L12.3259 10.1105H12.8629L12.4284 10.4265L12.5944 10.937L12.1599 10.6215L11.7254 10.937L11.8914 10.4265L11.4569 10.1105H11.9939L12.1599 9.59998ZM15.1999 9.59998L15.3659 10.1105H15.9029L15.4684 10.4265L15.6344 10.937L15.1999 10.621L14.7654 10.9365L14.9314 10.426L14.4969 10.11H15.0339L15.1999 9.59998Z"
            fill="white" />
        <path fill-rule="evenodd" clip-rule="evenodd"
            d="M1.51993 10.8915L1.68593 11.4025H2.22293L1.78843 11.718L1.95443 12.229L1.51993 11.913L1.08543 12.229L1.24993 11.718L0.81543 11.4025H1.35393L1.51993 10.8915ZM4.55993 10.8915L4.72593 11.4025H5.26293L4.82843 11.718L4.99443 12.229L4.55993 11.913L4.12543 12.229L4.29143 11.718L3.85693 11.4025H4.39393L4.55993 10.8915ZM7.59993 10.8915L7.76593 11.4025H8.30293L7.86843 11.718L8.03443 12.229L7.59993 11.913L7.16543 12.229L7.33143 11.718L6.89693 11.4025H7.43393L7.59993 10.8915ZM10.6399 10.8915L10.8059 11.4025H11.3429L10.9084 11.718L11.0744 12.229L10.6399 11.913L10.2054 12.229L10.3714 11.718L9.93693 11.4025H10.4739L10.6399 10.8915ZM13.6799 10.8915L13.8459 11.4025H14.3829L13.9499 11.718L14.1159 12.229L13.6814 11.913L13.2469 12.229L13.4129 11.718L12.9784 11.4025H13.5154L13.6799 10.8915ZM16.7199 10.8915L16.8859 11.4025H17.4234L16.9884 11.718L17.1544 12.229L16.7199 11.913L16.2854 12.229L16.4499 11.718L16.0154 11.4025H16.5529L16.7199 10.8915Z"
            fill="white" />
    </g>
    <defs>
        <clipPath id="clip0_913_3478">
            <rect width="24" height="24" fill="white" />
        </clipPath>
    </defs>
</svg>
