<svg width="24" height="24" viewBox="0 0 24 24" fill="none" xmlns="http://www.w3.org/2000/svg">
    <g clip-path="url(#clip0_955_4736)">
        <path d="M0 0H24V24H0V0Z" fill="#000066" />
        <path
            d="M0 0V1.209L9.96 10.813H11.214V9.6045L1.2535 0H0ZM11.214 0V1.209L1.2535 10.813H0V9.6045L9.96 0H11.214Z"
            fill="white" />
        <path d="M4.6725 0V10.813H6.5415V0H4.6725ZM0 3.6045V7.209H11.214V3.6045H0Z" fill="white" />
        <path
            d="M0 4.3255V6.488H11.214V4.3255H0ZM5.046 0V10.813H6.1675V0H5.046ZM0 10.813L3.738 7.209H4.574L0.836 10.813H0ZM0 0L3.738 3.6045H2.9L0 0.8045V0ZM6.64 3.6045L10.378 0H11.214L7.476 3.6045H6.64ZM11.214 10.813L7.476 7.209H8.312L11.212 10.009V10.815L11.214 10.813Z"
            fill="#CC0000" />
        <g clip-path="url(#clip1_955_4736)">
            <path
                d="M14.5117 9.82397L14.8095 10.6939H15.7732L14.9936 11.2317L15.2913 12.1016L14.5117 11.564L13.7319 12.1016L14.0298 11.2317L13.25 10.6939H14.2138L14.5117 9.82397Z"
                fill="#FF161F" />
            <path
                d="M15.4458 12.3035L14.5116 11.6595L13.5773 12.3035L13.9342 11.2612L13 10.6171H14.1547L14.5121 9.57458L14.869 10.617H16.0236L15.0895 11.261L15.4458 12.3035ZM14.5116 11.4692L15.1369 11.9004L14.8979 11.2028L15.5232 10.7715H14.7504L14.5121 10.0734L14.2732 10.7711H13.5005L14.1257 11.2023L13.8869 11.9L14.5116 11.4692Z"
                fill="white" />
            <path
                d="M18.2775 6.24945L18.5754 7.11953H19.5392L18.7594 7.65718L19.0573 8.52711L18.2775 7.98946L17.4978 8.52711L17.7956 7.65718L17.0159 7.11953H17.9797L18.2775 6.24945Z"
                fill="#FF161F" />
            <path
                d="M19.2119 8.72909L18.2776 8.08502L17.3434 8.72909L17.7003 7.68658L16.7661 7.04251H17.9208L18.2776 6L18.6344 7.04251H19.7888L18.8544 7.68658L19.2119 8.72909ZM18.2776 7.89473L18.9028 8.32582L18.6641 7.62817L19.2893 7.19694H18.5165L18.2776 6.49945L18.0389 7.19694H17.2659L17.8911 7.62817L17.6524 8.32582L18.2776 7.89473Z"
                fill="white" />
            <path
                d="M21.4885 8.86157L21.7862 9.73165H22.75L21.9704 10.2693L22.2681 11.1394L21.4885 10.6016L20.7087 11.1394L21.0066 10.2693L20.2268 9.73165H21.1906L21.4885 8.86157Z"
                fill="#FF161F" />
            <path
                d="M22.4226 11.3412L21.4883 10.6971L20.5541 11.3412L20.911 10.2988L19.9768 9.65477H21.1315L21.4883 8.61255L21.8453 9.65477H22.9999L22.0658 10.2988L22.4226 11.3412ZM21.4883 10.5068L22.1137 10.9379L21.8748 10.2403L22.5001 9.8092H21.7267L21.4883 9.11082L21.2495 9.80847H20.4766L21.102 10.2396L20.8636 10.9375L21.4883 10.5068Z"
                fill="white" />
            <path
                d="M18.2759 15.4138L18.5877 16.3245H19.5967L18.7805 16.8874L19.0922 17.7981L18.2759 17.2352L17.4597 17.7981L17.7714 16.8874L16.9553 16.3245H17.9641L18.2759 15.4138Z"
                fill="#FF161F" />
            <path
                d="M19.2467 18L18.2759 17.3306L17.3051 18L17.676 16.9168L16.7053 16.2474H17.9051L18.2759 15.1642L18.6468 16.2474H19.8465L18.8767 16.9168L19.2467 18ZM18.2759 17.14L18.9376 17.5963L18.6849 16.8579L19.3467 16.4015H18.5287L18.2759 15.6632L18.0232 16.4015H17.2051L17.867 16.8579L17.6141 17.5963L18.2759 17.14Z"
                fill="white" />
        </g>
    </g>
    <defs>
        <clipPath id="clip0_955_4736">
            <rect width="24" height="24" fill="white" />
        </clipPath>
        <clipPath id="clip1_955_4736">
            <rect width="10" height="12" fill="white" transform="translate(13 6)" />
        </clipPath>
    </defs>
</svg>
