<svg width="24" height="24" viewBox="0 0 24 24" fill="none" xmlns="http://www.w3.org/2000/svg">
    <path d="M6 0H18V24H6V0Z" fill="white" />
    <path
        d="M0 0H5.99974V24H0V0ZM17.9999 0H23.9996V24H17.9999V0ZM7.79531 11.7333L7.32928 11.8833L9.49761 13.6787C9.66155 14.14 9.44072 14.276 9.29975 14.518L11.6525 14.2333L11.5914 16.4683L12.0786 16.455L11.9726 14.239L14.3289 14.5023C14.183 14.2117 14.0533 14.0577 14.1876 13.593L16.3541 11.893L15.975 11.7633C15.6652 11.5377 16.1089 10.6763 16.1761 10.1327C16.1761 10.1327 14.9108 10.5433 14.8278 10.3287L14.5056 9.74467L13.3548 10.9373C13.229 10.966 13.1753 10.9187 13.146 10.8183L13.6777 8.32567L12.8358 8.77267C12.7651 8.801 12.6945 8.77633 12.6482 8.699L11.8387 7.16667L11.0038 8.759C10.9409 8.816 10.8777 8.82267 10.8254 8.784L10.0237 8.35967L10.5049 10.8333C10.4668 10.9317 10.3749 10.9593 10.2671 10.906L9.1669 9.72667C9.0231 9.94433 8.92558 10.2997 8.73514 10.3793C8.54506 10.454 7.90767 10.2287 7.48086 10.1407C7.62678 10.6373 8.0815 11.4627 7.79425 11.7333H7.79531Z"
        fill="#BF0A30" />
</svg>
