<svg width="24" height="24" viewBox="0 0 24 24" fill="none" xmlns="http://www.w3.org/2000/svg">
    <path fill-rule="evenodd" clip-rule="evenodd" d="M24 24H0V0H24V24Z" fill="white" />
    <path fill-rule="evenodd" clip-rule="evenodd"
        d="M12.2106 12.0143C12.2109 12.7097 11.9944 13.3896 11.5883 13.968C11.1822 14.5464 10.6049 14.9973 9.92925 15.2637C9.25363 15.5301 8.51008 15.6001 7.79264 15.4648C7.07519 15.3294 6.41607 14.9949 5.89862 14.5034C5.38118 14.0119 5.02865 13.3855 4.88561 12.7036C4.74258 12.0216 4.81546 11.3146 5.09505 10.672C5.37463 10.0294 5.84837 9.4801 6.45634 9.09348C7.06431 8.70686 7.77921 8.50033 8.51064 8.5C8.99631 8.49974 9.47727 8.59044 9.92607 8.76691C10.3749 8.94339 10.7827 9.20219 11.1263 9.52854C11.4699 9.85488 11.7425 10.2424 11.9285 10.6689C12.1145 11.0954 12.2104 11.5526 12.2106 12.0143V12.0143Z"
        fill="white" />
    <path fill-rule="evenodd" clip-rule="evenodd"
        d="M16.848 12.2183C16.848 14.7517 14.7093 16.806 12.0735 16.806C9.43763 16.806 7.29858 14.7523 7.29858 12.2183C7.29858 9.68434 9.43728 7.63068 12.0735 7.63068C14.7097 7.63068 16.848 9.68468 16.848 12.2183V12.2183Z"
        fill="#C70000" />
    <path fill-rule="evenodd" clip-rule="evenodd"
        d="M2.30566 7.96669L5.05546 4.94269L5.70723 5.47802L2.95709 8.50002L2.30566 7.96669ZM3.20637 8.70702L5.95616 5.68269L6.60759 6.21669L3.85779 9.24069L3.20637 8.70702Z"
        fill="black" />
    <path fill-rule="evenodd" clip-rule="evenodd"
        d="M2.30566 7.96669L5.05546 4.94269L5.70724 5.47802L2.95709 8.50002L2.30566 7.96669Z"
        fill="black" />
    <path fill-rule="evenodd" clip-rule="evenodd"
        d="M2.30566 7.96669L5.05546 4.94269L5.70723 5.47802L2.95709 8.50003L2.30566 7.96669ZM4.12601 9.46303L6.87615 6.43902L7.52757 6.97436L4.77778 9.99669L4.12601 9.46303Z"
        fill="black" />
    <path fill-rule="evenodd" clip-rule="evenodd"
        d="M2.30566 7.96669L5.05546 4.94269L5.70724 5.47802L2.95709 8.50002L2.30566 7.96669Z"
        fill="black" />
    <path fill-rule="evenodd" clip-rule="evenodd"
        d="M2.30566 7.96665L5.05546 4.94265L5.70724 5.47798L2.95709 8.49998L2.30566 7.96665ZM19.0296 4.94165L21.7576 7.98332L21.1023 8.51465L18.3753 5.47132L19.0296 4.94165ZM17.1997 6.42432L19.9278 9.46665L19.2725 9.99798L16.5445 6.95565L17.1997 6.42432Z"
        fill="black" />
    <path fill-rule="evenodd" clip-rule="evenodd"
        d="M17.6543 8.17598L20.2393 6.05664L20.7207 6.58664L17.9597 8.94631L17.6557 8.17598H17.6543Z"
        fill="white" />
    <path fill-rule="evenodd" clip-rule="evenodd"
        d="M20.8322 15.639L18.189 18.6333L17.5397 18.1213L20.1829 15.1267L20.8322 15.639ZM18.1245 5.67432L20.8529 8.71598L20.1976 9.24732L17.4695 6.20565L18.1245 5.67432ZM21.7276 16.3473L19.0844 19.342L18.4365 18.8297L21.0808 15.835L21.7276 16.3473ZM19.9171 14.9157L17.2739 17.9103L16.626 17.3977L19.2692 14.403L19.9171 14.9157Z"
        fill="black" />
    <path fill-rule="evenodd" clip-rule="evenodd"
        d="M7.36803 11.41C7.51914 12.5653 7.73932 13.853 9.60981 13.9867C10.311 14.0267 11.6745 13.828 12.1426 12.012C12.7568 10.2673 14.607 9.76566 15.866 10.712C16.5799 11.1547 16.7776 11.8577 16.8288 12.3857C16.7716 14.0807 15.7482 15.548 14.4349 16.2023C12.9255 17.0557 10.8338 17.0733 9.00045 15.781C8.17477 15.0443 7.02093 13.6867 7.36663 11.4103L7.36803 11.41Z"
        fill="#3D5897" />
    <path fill-rule="evenodd" clip-rule="evenodd"
        d="M18.2581 15.5947L20.8459 17.709L20.3663 18.2403L17.5015 15.995L18.2581 15.595V15.5947Z"
        fill="white" />
    <path fill-rule="evenodd" clip-rule="evenodd"
        d="M3.86793 15.176L6.59633 18.218L5.9407 18.749L3.21265 15.7074L3.86793 15.176Z"
        fill="black" />
    <path fill-rule="evenodd" clip-rule="evenodd"
        d="M3.39771 17.6777L5.98132 15.5587L6.4627 16.0883L3.70168 18.4483L3.39771 17.6777V17.6777Z"
        fill="white" />
    <path fill-rule="evenodd" clip-rule="evenodd"
        d="M4.77377 14.4417L7.50183 17.4833L6.8462 18.0147L4.11849 14.973L4.77377 14.4417ZM2.94256 15.9263L5.67097 18.9667L5.01569 19.5L2.28833 16.4573L2.94256 15.9263Z"
        fill="black" />
</svg>
