<svg width="24" height="24" viewBox="0 0 24 24" fill="none" xmlns="http://www.w3.org/2000/svg">
    <path fill-rule="evenodd" clip-rule="evenodd" d="M0 0H24V24H0V0Z" fill="#229E45" />
    <path fill-rule="evenodd" clip-rule="evenodd"
        d="M12.0529 19.3474L23.3584 12.0098L11.9842 4.65265L0.641602 12.0274L12.0529 19.3474V19.3474Z"
        fill="#F8E509" />
    <path fill-rule="evenodd" clip-rule="evenodd"
        d="M16.979 12C16.979 14.637 14.8377 16.7752 12.1962 16.7752C9.55471 16.7752 7.41309 14.6374 7.41309 12C7.41309 9.36261 9.55471 7.22473 12.1962 7.22473C14.8377 7.22473 16.979 9.36223 16.979 12V12Z"
        fill="#2B49A3" />
    <path fill-rule="evenodd" clip-rule="evenodd"
        d="M10.6238 14.8601L10.4761 14.775L10.3223 14.85L10.3568 14.6798L10.2376 14.5553L10.4071 14.5354L10.4866 14.3824L10.5578 14.5406L10.7251 14.571L10.5995 14.6884L10.6238 14.8601ZM13.8282 15.672L13.6805 15.5865L13.5271 15.6615L13.5612 15.4909L13.4427 15.366L13.6122 15.3461L13.6921 15.1931L13.7626 15.3525L13.9298 15.3829L13.8042 15.5003L13.8282 15.672ZM12.4463 14.3753L12.3188 14.3003L12.1876 14.3674L12.2172 14.22L12.1148 14.112L12.2615 14.0947L12.3301 13.9628L12.3916 14.0993L12.536 14.1255L12.4276 14.2271L12.4463 14.3753ZM15.6848 13.9091L15.5592 13.8375L15.4291 13.902L15.4583 13.7573L15.3578 13.65L15.5015 13.6331L15.569 13.5034L15.6293 13.6373L15.7711 13.6631L15.6646 13.7625L15.6848 13.9091ZM12.389 12.9375L12.2412 12.8524L12.0878 12.9274L12.122 12.7568L12.0035 12.6319L12.173 12.612L12.2528 12.459L12.3237 12.6173L12.491 12.6476L12.3653 12.765L12.389 12.9375ZM8.44246 11.457L8.29471 11.3719L8.14134 11.4469L8.17546 11.2763L8.05696 11.1514L8.22646 11.1315L8.30596 10.9785L8.37721 11.1368L8.54446 11.1671L8.41884 11.2845L8.44246 11.457ZM8.91721 13.4273L8.76946 13.3421L8.61571 13.4171L8.65021 13.2465L8.53171 13.125L8.70121 13.1051L8.78071 12.9521L8.85196 13.1104L9.01921 13.1408L8.89359 13.2581L8.91721 13.4273ZM13.8436 10.7333L13.7131 10.6583L13.5751 10.725L13.6055 10.575L13.5001 10.4625L13.6501 10.4449L13.7202 10.3099L13.7832 10.4494L13.931 10.4764L13.8185 10.5803L13.8436 10.7333ZM13.5687 12.0143L13.466 11.9546L13.3591 12.0075L13.3876 11.8875L13.3051 11.8005L13.4228 11.7866L13.4783 11.6801L13.5278 11.7904L13.6441 11.8114L13.5567 11.8931L13.5687 12.0143ZM8.22234 13.785L8.12371 13.728L8.02134 13.779L8.04421 13.6665L7.96509 13.5829L8.07759 13.5698L8.13046 13.4678L8.17809 13.5735L8.29059 13.5938L8.20659 13.6721L8.22234 13.785ZM15.7126 14.2391L15.6323 14.1964L15.5487 14.2339L15.5675 14.1491L15.503 14.0865L15.5952 14.0764L15.6387 14.0014L15.6762 14.0801L15.767 14.0955L15.6987 14.154"
        fill="#FFFFEF" />
    <path fill-rule="evenodd" clip-rule="evenodd"
        d="M8.22234 13.785L8.12371 13.728L8.02134 13.779L8.04421 13.6665L7.96509 13.5829L8.07759 13.5698L8.13084 13.4678L8.17809 13.5735L8.29059 13.5938L8.20659 13.6721"
        fill="#FFFFEF" />
    <path fill-rule="evenodd" clip-rule="evenodd"
        d="M8.22234 13.785L8.12371 13.728L8.02134 13.779L8.04421 13.6665L7.96509 13.5829L8.07759 13.5698L8.13084 13.4678L8.17809 13.5735L8.29059 13.5938L8.20659 13.6721L8.22234 13.785ZM9.79284 13.7846L9.69421 13.7276L9.59184 13.7786L9.61471 13.6661L9.53559 13.5829L9.64809 13.5694L9.70134 13.4674L9.74859 13.5731L9.86109 13.5934L9.77746 13.6718L9.79284 13.7846ZM9.59784 14.3093L9.49921 14.25L9.39684 14.3006L9.41971 14.1881L9.34059 14.1049L9.45309 14.0914L9.50634 13.9894L9.55396 14.0948L9.66646 14.1154L9.58284 14.1934L9.59784 14.3093ZM12.8596 13.3571L12.761 13.3001L12.6578 13.35L12.6807 13.2375L12.6001 13.1528L12.7126 13.1393L12.7655 13.0373L12.8131 13.143L12.9256 13.1633L12.8416 13.2416L12.8596 13.3571ZM11.9003 13.3541L11.8017 13.2975L11.7001 13.35L11.723 13.2375L11.6438 13.1543L11.7563 13.1408L11.8096 13.0388L11.8568 13.1445L11.9693 13.1648L11.8876 13.2413L11.9003 13.3541ZM9.30759 13.0223L9.24571 12.9866L9.18121 13.0181L9.19584 12.9469L9.14634 12.8948L9.21721 12.8861L9.25059 12.8224L9.28021 12.8884L9.34996 12.9011L9.29746 12.9503L9.30759 13.0223ZM15.5915 14.6524L15.4928 14.5954L15.3905 14.646L15.4133 14.5335L15.3342 14.4503L15.4467 14.4368L15.4996 14.3348L15.5472 14.4405L15.6597 14.4608L15.5761 14.5391L15.5915 14.6524ZM14.795 14.7581L14.7132 14.7109L14.6285 14.7529L14.6472 14.6584L14.5805 14.5875L14.6742 14.5766L14.7181 14.4919L14.7556 14.5796L14.8478 14.5965L14.7803 14.6625L14.795 14.7581ZM15.1696 14.7488L15.0946 14.7049L15.0155 14.7424L15.0331 14.6546L14.972 14.5901L15.0593 14.5796L15.1002 14.5009L15.1377 14.5826L15.2236 14.5984L15.1591 14.6588L15.1696 14.7488ZM16.2507 13.8053L16.1757 13.7625L16.1007 13.8L16.1176 13.7153L16.0587 13.653L16.1431 13.6433L16.1825 13.5683L16.2177 13.6466L16.3006 13.6616L16.2376 13.7205L16.2507 13.8053ZM14.7845 15.2884L14.6888 15.2363L14.5876 15.2828L14.6101 15.1781L14.5332 15.1031L14.6431 15.0908L14.6945 14.997L14.7406 15.0941L14.8501 15.1125L14.7687 15.1845L14.7845 15.2884ZM14.7893 15.7189L14.702 15.6668L14.6116 15.7125L14.6318 15.6079L14.5617 15.531L14.6618 15.519L14.7091 15.4253L14.7511 15.5224L14.8497 15.5408L14.7747 15.6128L14.7893 15.7189ZM14.0648 14.7484L13.9917 14.706L13.9167 14.7435L13.9336 14.6591L13.8751 14.5961L13.9595 14.5864L13.997 14.5114L14.0322 14.5901L14.1151 14.6051L14.054 14.6625L14.0648 14.7484ZM13.3876 14.7476L13.3126 14.7053L13.2376 14.7428L13.2545 14.6584L13.1956 14.5961L13.28 14.5864L13.3193 14.5114L13.3546 14.5901L13.4375 14.6051L13.3756 14.6625L13.3876 14.7476ZM12.2352 13.74L12.1621 13.6976L12.0871 13.7351L12.104 13.6504L12.0451 13.5885L12.1295 13.5784L12.1688 13.5034L12.2041 13.5818L12.287 13.5971L12.2251 13.6549L12.2352 13.74ZM12.3653 15.7924L12.3001 15.7575L12.2356 15.7894L12.2502 15.7178L12.2003 15.6653L12.2716 15.6566L12.305 15.5925L12.3346 15.6589L12.4051 15.6716L12.3522 15.7211L12.3653 15.7924ZM10.6238 12.4725L10.4761 12.387L10.3227 12.462L10.3568 12.2914L10.2376 12.1676L10.4071 12.1478L10.4866 11.9948L10.5578 12.153L10.7251 12.1834L10.6002 12.3"
        fill="#FFFFEF" />
    <path fill-rule="evenodd" clip-rule="evenodd"
        d="M16.6639 13.7183C16.7566 13.4769 16.8291 13.2283 16.8807 12.975C14.3404 10.7434 11.5084 9.60003 7.93017 9.83553C7.8009 10.0864 7.69459 10.3485 7.61255 10.6185C11.8523 10.2143 14.9603 12.0912 16.6639 13.7183Z"
        fill="white" />
    <path
        d="M15.5216 12.4635L15.6124 12.513C15.599 12.5389 15.5949 12.5687 15.6008 12.5974C15.6109 12.6227 15.6283 12.6446 15.6506 12.6604C15.673 12.6762 15.6994 12.6852 15.7268 12.6862C15.7366 12.6858 15.7462 12.683 15.7549 12.6783C15.7635 12.6736 15.7709 12.6669 15.7766 12.6589C15.7834 12.6494 15.7864 12.6378 15.7849 12.6262C15.7825 12.6114 15.7761 12.5976 15.7665 12.5861C15.7586 12.5756 15.7395 12.5535 15.7091 12.5194C15.6779 12.4885 15.654 12.4509 15.6394 12.4095C15.6305 12.3771 15.6336 12.3426 15.6482 12.3124C15.6628 12.2822 15.688 12.2583 15.7189 12.2452C15.7455 12.2342 15.7748 12.2316 15.8029 12.2377C15.8373 12.2454 15.8698 12.2599 15.8985 12.2805C15.9448 12.3071 15.9798 12.3496 15.9971 12.4001C16.0026 12.4213 16.0035 12.4434 15.9997 12.4649C15.9958 12.4865 15.9874 12.507 15.975 12.525L15.8846 12.4695C15.8954 12.4498 15.8983 12.4267 15.8929 12.405C15.8841 12.3829 15.8681 12.3644 15.8475 12.3525C15.8274 12.337 15.8028 12.3283 15.7774 12.3277C15.771 12.3276 15.7647 12.3291 15.759 12.3322C15.7534 12.3352 15.7486 12.3396 15.7451 12.345C15.7417 12.3502 15.7395 12.3561 15.7387 12.3622C15.7378 12.3684 15.7384 12.3747 15.7403 12.3806C15.7552 12.4121 15.776 12.4404 15.8014 12.4642C15.8301 12.493 15.8553 12.5251 15.8764 12.5599C15.8893 12.5834 15.8955 12.6099 15.8944 12.6367C15.892 12.6662 15.8817 12.6944 15.8646 12.7185C15.8475 12.7426 15.8242 12.7616 15.7973 12.7736C15.7684 12.7861 15.7364 12.7893 15.7058 12.7826C15.668 12.7733 15.6323 12.7569 15.6008 12.7342C15.5533 12.7066 15.5175 12.6626 15.5003 12.6105C15.4885 12.5604 15.4966 12.5077 15.5228 12.4635H15.5216ZM15.0915 12.1811L15.1841 12.2269C15.1716 12.2533 15.1687 12.2833 15.1759 12.3116C15.1855 12.3376 15.2041 12.3593 15.2284 12.3727C15.2501 12.3885 15.2765 12.3965 15.3034 12.3952C15.3133 12.3944 15.3229 12.3912 15.3314 12.3861C15.3399 12.381 15.3471 12.374 15.3525 12.3656C15.3586 12.3559 15.3611 12.3443 15.3596 12.333C15.3564 12.3182 15.3494 12.3045 15.3394 12.2932C15.3311 12.2831 15.3113 12.2617 15.2794 12.2291C15.2465 12.1996 15.2208 12.1629 15.2044 12.1219C15.1983 12.1027 15.1964 12.0824 15.199 12.0625C15.2015 12.0425 15.2083 12.0234 15.219 12.0064C15.233 11.9837 15.2533 11.9657 15.2775 11.9546C15.3037 11.9428 15.3328 11.939 15.3611 11.9437C15.3956 11.9498 15.4286 11.9625 15.4583 11.9812C15.5054 12.0062 15.542 12.0472 15.5618 12.0967C15.5682 12.1177 15.5701 12.1397 15.5673 12.1615C15.5645 12.1832 15.5571 12.2041 15.5456 12.2227L15.453 12.171C15.4631 12.1509 15.4651 12.1276 15.4586 12.1061C15.4491 12.0844 15.4324 12.0665 15.4114 12.0555C15.3905 12.0409 15.3656 12.0331 15.3401 12.0334C15.3337 12.0336 15.3274 12.0354 15.3219 12.0388C15.3163 12.0421 15.3118 12.0468 15.3086 12.0525C15.3055 12.0577 15.3035 12.0636 15.3029 12.0697C15.3023 12.0758 15.3031 12.082 15.3053 12.0877C15.3215 12.1185 15.3432 12.1461 15.3694 12.1691C15.398 12.1967 15.4232 12.2277 15.4444 12.2614C15.4581 12.284 15.4655 12.3099 15.4658 12.3364C15.4645 12.3659 15.4554 12.3946 15.4393 12.4194C15.4232 12.4442 15.4007 12.4642 15.3743 12.4774C15.3459 12.4908 15.3141 12.4953 15.2831 12.4901C15.245 12.4825 15.2086 12.4674 15.1763 12.4459C15.1277 12.4202 15.0902 12.3776 15.0709 12.3262C15.0572 12.2767 15.0629 12.2239 15.087 12.1785L15.0915 12.1811ZM14.5586 12.0375L14.8316 11.5875L15.1628 11.7907L15.1166 11.8657L14.8755 11.7176L14.8151 11.8174L15.0401 11.9546L14.9944 12.0296L14.7694 11.892L14.6944 12.0142L14.9438 12.1672L14.8976 12.2422L14.5586 12.0375ZM13.7828 11.4L13.8233 11.3212L14.0258 11.4259L13.9301 11.6134C13.8934 11.623 13.8552 11.6251 13.8176 11.6197C13.7741 11.6152 13.7319 11.6025 13.6931 11.5822C13.6478 11.5605 13.609 11.5273 13.5806 11.4859C13.5549 11.4474 13.5418 11.4019 13.5431 11.3557C13.5451 11.3071 13.5579 11.2596 13.5806 11.2166C13.6032 11.1716 13.6365 11.133 13.6778 11.1041C13.7171 11.0771 13.7639 11.0628 13.8116 11.0632C13.8549 11.0648 13.8972 11.0766 13.935 11.0977C13.9844 11.1197 14.0252 11.1572 14.0513 11.2046C14.0715 11.246 14.0756 11.2935 14.0625 11.3377L13.9601 11.307C13.966 11.2817 13.9627 11.2551 13.9508 11.232C13.9382 11.2079 13.9182 11.1886 13.8938 11.1769C13.876 11.1666 13.8562 11.1603 13.8357 11.1584C13.8153 11.1564 13.7947 11.1589 13.7753 11.1656C13.7321 11.1847 13.6979 11.2196 13.6796 11.2631C13.6531 11.3061 13.6434 11.3574 13.6523 11.4071C13.6573 11.4269 13.6666 11.4454 13.6796 11.4612C13.6925 11.477 13.7088 11.4898 13.7273 11.4986C13.7475 11.509 13.7695 11.5153 13.7921 11.5174C13.8139 11.5206 13.836 11.5206 13.8578 11.5174L13.8881 11.4581L13.7828 11.4ZM10.3988 10.5619L10.4738 10.0417L10.6301 10.065L10.6721 10.4336L10.8169 10.0924L10.974 10.1156L10.899 10.6357L10.8019 10.6215L10.8619 10.212L10.6991 10.6061L10.5983 10.5915L10.5559 10.167L10.4959 10.575L10.3988 10.5607V10.5619ZM9.86963 10.5L9.91838 9.97498L10.305 10.0125L10.2968 10.101L10.0155 10.0747L10.0046 10.1906L10.2671 10.2154L10.2589 10.3035L9.99638 10.2787L9.98288 10.4212L10.2743 10.4486L10.266 10.5371L9.86963 10.4996V10.5Z"
        fill="#309E3A" />
    <path
        d="M8.11881 10.173C8.1186 10.1268 8.12805 10.0811 8.14656 10.0387C8.15902 10.0125 8.17603 9.98861 8.19681 9.96825C8.21644 9.94836 8.24009 9.93289 8.26618 9.92288C8.30208 9.90931 8.34035 9.90319 8.37868 9.90488C8.41289 9.90428 8.44684 9.91084 8.47835 9.92414C8.50987 9.93745 8.53825 9.9572 8.56168 9.98213C8.60509 10.0402 8.62769 10.1112 8.62585 10.1838C8.62401 10.2563 8.59785 10.326 8.55156 10.3819C8.52673 10.4055 8.49719 10.4236 8.46489 10.4351C8.43258 10.4465 8.39822 10.451 8.36406 10.4482C8.3299 10.4492 8.29593 10.443 8.2643 10.4301C8.23266 10.4172 8.20406 10.3978 8.18031 10.3732C8.13365 10.3179 8.11085 10.2463 8.11693 10.1741L8.11881 10.173Z"
        fill="#309E3A" />
    <path
        d="M8.22781 10.1719C8.22311 10.2206 8.23646 10.2693 8.26531 10.3087C8.2779 10.3239 8.29366 10.3361 8.31147 10.3445C8.32929 10.353 8.34873 10.3574 8.36844 10.3575C8.38795 10.3586 8.40746 10.3553 8.42555 10.3479C8.44365 10.3405 8.45987 10.3292 8.47306 10.3147C8.50408 10.2762 8.51995 10.2277 8.51769 10.1782C8.52214 10.1299 8.5088 10.0817 8.48019 10.0425C8.46751 10.0274 8.45165 10.0154 8.43375 10.0072C8.41585 9.99905 8.39636 9.99496 8.37669 9.99525C8.35691 9.99404 8.33711 9.99721 8.3187 10.0045C8.30029 10.0119 8.28373 10.0232 8.27019 10.0376C8.23955 10.0755 8.22393 10.1232 8.22631 10.1719H8.22781Z"
        fill="#F7FFFF" />
    <path
        d="M8.73929 10.4441L8.74529 9.91913L8.96804 9.92175C9.00913 9.92037 9.05017 9.92569 9.08954 9.9375C9.11499 9.94713 9.13641 9.96511 9.15029 9.9885C9.16524 10.0137 9.17278 10.0425 9.17204 10.0718C9.17256 10.1079 9.15913 10.1428 9.13454 10.1693C9.10647 10.1966 9.06974 10.2133 9.03067 10.2165C9.05137 10.2286 9.07019 10.2436 9.08654 10.2611C9.10879 10.2879 9.12861 10.3167 9.14579 10.347L9.20842 10.4505H9.08204L9.00704 10.335C8.99055 10.3079 8.97226 10.282 8.95229 10.2574C8.9439 10.2474 8.93304 10.2398 8.92079 10.2353C8.9035 10.2303 8.88554 10.228 8.86754 10.2285H8.84617L8.84354 10.4479H8.73779L8.73929 10.4441Z"
        fill="#309E3A" />
    <path
        d="M8.8501 10.1423H8.9281C8.95994 10.1443 8.99192 10.1425 9.02335 10.137C9.03542 10.1332 9.04585 10.1254 9.05297 10.1149C9.0605 10.1038 9.06442 10.0907 9.06422 10.0774C9.06541 10.0617 9.06043 10.0463 9.05035 10.0343C9.0407 10.0231 9.02742 10.0156 9.01285 10.0133C9.00422 10.0133 8.97872 10.011 8.93597 10.0103H8.85347V10.1434L8.8501 10.1423Z"
        fill="white" />
    <path
        d="M9.33753 9.94464L9.53065 9.95439C9.56417 9.95497 9.59747 9.96001 9.62965 9.96939C9.65876 9.98013 9.6846 9.99822 9.70465 10.0219C9.72603 10.0475 9.74152 10.0774 9.75003 10.1096C9.76047 10.1503 9.76414 10.1923 9.7609 10.2341C9.76008 10.2726 9.75273 10.3106 9.73915 10.3466C9.72641 10.3809 9.70572 10.4116 9.67878 10.4363C9.65693 10.4543 9.63129 10.4671 9.60378 10.4738C9.57287 10.4804 9.54117 10.4825 9.50965 10.4801L9.31128 10.47L9.33753 9.94502V9.94464Z"
        fill="#309E3A" />
    <path
        d="M9.43901 10.038L9.42139 10.386L9.50014 10.3898C9.52144 10.3923 9.54296 10.3923 9.56426 10.3898C9.58017 10.3868 9.5951 10.38 9.60776 10.3699C9.62214 10.3566 9.63264 10.3396 9.63814 10.3208C9.64773 10.2898 9.65303 10.2576 9.65389 10.2252C9.65649 10.1937 9.65447 10.1619 9.64789 10.131C9.64312 10.1116 9.63373 10.0936 9.62051 10.0785C9.60742 10.0653 9.59094 10.056 9.57289 10.0515C9.54435 10.0458 9.51536 10.0427 9.48626 10.0421L9.43901 10.0395V10.038Z"
        fill="white" />
    <path
        d="M11.9112 10.8833L12.0334 10.3721L12.1984 10.4119C12.2397 10.4201 12.2801 10.4327 12.3188 10.4494C12.3463 10.4644 12.3679 10.4883 12.3799 10.5173C12.3936 10.5511 12.3957 10.5886 12.3859 10.6238C12.3798 10.6515 12.3669 10.6773 12.3484 10.6988C12.3334 10.7164 12.3144 10.7301 12.2929 10.7389C12.2742 10.7464 12.2542 10.7503 12.234 10.7501C12.1974 10.7473 12.1612 10.7412 12.1257 10.7318L12.0585 10.7156L12.0124 10.9084L11.9097 10.8836L11.9112 10.8833Z"
        fill="#309E3A" />
    <path
        d="M12.1159 10.4831L12.0811 10.6282L12.1373 10.6417C12.1643 10.65 12.1924 10.6539 12.2206 10.6533C12.2348 10.6515 12.2482 10.6453 12.2588 10.6356C12.2694 10.6258 12.2767 10.613 12.2798 10.599C12.2844 10.5823 12.2826 10.5644 12.2746 10.5491C12.2663 10.5342 12.253 10.5226 12.2371 10.5165C12.2132 10.5075 12.1888 10.5004 12.1639 10.4951L12.1144 10.4831H12.1159Z"
        fill="white" />
    <path
        d="M12.3979 11.0291L12.5719 10.5334L12.7816 10.6084C12.8211 10.6201 12.8583 10.6384 12.8918 10.6624C12.9127 10.6797 12.9272 10.7037 12.9327 10.7303C12.939 10.7587 12.9371 10.7884 12.9271 10.8158C12.9164 10.8501 12.8931 10.879 12.8618 10.8968C12.8268 10.9134 12.787 10.9174 12.7493 10.908C12.7648 10.9261 12.7774 10.9465 12.7868 10.9684C12.7994 11.0009 12.809 11.0346 12.8153 11.0689L12.842 11.187L12.7227 11.1446L12.6886 11.0115C12.6812 10.9805 12.6722 10.95 12.6616 10.92C12.6567 10.9079 12.6488 10.8972 12.6387 10.8889C12.6239 10.8785 12.6076 10.8706 12.5903 10.8653L12.5704 10.8581L12.4977 11.0651L12.3979 11.0299V11.0291Z"
        fill="#309E3A" />
    <path
        d="M12.5977 10.7786L12.6727 10.8045C12.7021 10.8167 12.733 10.8253 12.7645 10.83C12.7772 10.8306 12.7896 10.8267 12.7998 10.8191C12.8109 10.8106 12.819 10.7988 12.823 10.7854C12.8285 10.7709 12.8285 10.7549 12.823 10.7404C12.8171 10.7261 12.8062 10.7145 12.7923 10.7078C12.7848 10.7036 12.7608 10.6946 12.7203 10.6804L12.6423 10.6526L12.5984 10.7786H12.5977Z"
        fill="white" />
    <path
        d="M13.0125 11.01C13.0248 10.9656 13.0461 10.9243 13.0751 10.8885C13.0943 10.8665 13.1173 10.8481 13.143 10.8341C13.1672 10.8205 13.194 10.8121 13.2217 10.8094C13.2598 10.8063 13.298 10.811 13.3342 10.8232C13.3673 10.8318 13.3983 10.8472 13.425 10.8686C13.4518 10.8899 13.4737 10.9166 13.4895 10.947C13.5156 11.0147 13.5182 11.0892 13.4968 11.1585C13.4755 11.2278 13.4314 11.2879 13.3717 11.3291C13.3097 11.358 13.2391 11.3627 13.1737 11.3423C13.1084 11.322 13.053 11.2779 13.0185 11.2189C13.0035 11.1863 12.9951 11.151 12.9938 11.1152C12.9925 11.0793 12.9984 11.0436 13.011 11.01H13.0125Z"
        fill="#309E3A" />
    <path
        d="M13.1187 11.0392C13.1014 11.0849 13.1014 11.1353 13.1187 11.181C13.1266 11.1991 13.1384 11.2152 13.1532 11.2281C13.1681 11.2411 13.1856 11.2506 13.2046 11.256C13.2231 11.2624 13.2428 11.2647 13.2623 11.2625C13.2817 11.2604 13.3005 11.2539 13.3171 11.2436C13.3573 11.2149 13.3856 11.1725 13.3966 11.1244C13.4146 11.0794 13.4154 11.0293 13.3989 10.9837C13.39 10.9662 13.3777 10.9507 13.3626 10.9381C13.3476 10.9254 13.3302 10.9159 13.3115 10.9102C13.2927 10.9044 13.273 10.9024 13.2535 10.9045C13.234 10.9065 13.215 10.9124 13.1979 10.9219C13.1582 10.9502 13.1303 10.9921 13.1195 11.0396L13.1187 11.0392Z"
        fill="white" />
    <path
        d="M14.0364 11.742L14.2771 11.2751L14.4748 11.3779C14.5122 11.3951 14.5466 11.4184 14.5764 11.4469C14.5948 11.4668 14.6058 11.4925 14.6075 11.5196C14.6099 11.5488 14.6038 11.578 14.5899 11.6036C14.5747 11.6359 14.5479 11.6612 14.5149 11.6745C14.4774 11.6865 14.4369 11.6847 14.4005 11.6696C14.4137 11.6898 14.4238 11.7118 14.4305 11.7349C14.4384 11.769 14.4433 11.8038 14.4451 11.8388L14.4549 11.9591L14.3424 11.901L14.327 11.7641C14.3243 11.7325 14.3195 11.7011 14.3128 11.67C14.3096 11.6573 14.3033 11.6456 14.2944 11.6359C14.2813 11.6235 14.2662 11.6133 14.2498 11.6059L14.231 11.5958L14.1305 11.7908L14.0368 11.742H14.0364Z"
        fill="#309E3A" />
    <path
        d="M14.2688 11.5211L14.3385 11.5586C14.366 11.5746 14.3954 11.5872 14.4259 11.5961C14.4387 11.5986 14.452 11.5965 14.4634 11.5901C14.4753 11.5831 14.4849 11.5726 14.4908 11.5601C14.4986 11.5467 14.5012 11.5308 14.4979 11.5155C14.4941 11.5003 14.4849 11.487 14.472 11.478C14.4649 11.4731 14.4424 11.4608 14.4042 11.4405L14.331 11.403L14.2699 11.5215L14.2688 11.5211Z"
        fill="white" />
    <path
        d="M15.9791 12.7013C16.0037 12.6624 16.0359 12.6289 16.0739 12.603C16.0987 12.5876 16.126 12.5767 16.1546 12.5708C16.1818 12.5651 16.2098 12.5651 16.2371 12.5708C16.2748 12.5791 16.3105 12.5949 16.3421 12.6172C16.3712 12.6353 16.3962 12.6591 16.4156 12.6873C16.4349 12.7156 16.4482 12.7475 16.4546 12.7811C16.4601 12.8534 16.4411 12.9254 16.4007 12.9855C16.3603 13.0456 16.3008 13.0904 16.2318 13.1126C16.1984 13.119 16.164 13.1184 16.1308 13.1108C16.0976 13.1032 16.0664 13.0887 16.0391 13.0684C16.01 13.0503 15.9851 13.0264 15.9657 12.9982C15.9464 12.97 15.933 12.9381 15.9266 12.9045C15.9168 12.8328 15.9359 12.7601 15.9794 12.7024L15.9791 12.7013Z"
        fill="#309E3A" />
    <path
        d="M16.0716 12.7594C16.0415 12.7978 16.0266 12.846 16.03 12.8948C16.0324 12.9144 16.0391 12.9332 16.0496 12.9499C16.0601 12.9666 16.0742 12.9808 16.0908 12.9915C16.1068 13.0032 16.1252 13.0111 16.1447 13.0147C16.1641 13.0183 16.1842 13.0174 16.2033 13.0121C16.25 12.9965 16.2894 12.9642 16.3139 12.9214C16.3439 12.8833 16.3589 12.8356 16.3563 12.7871C16.3535 12.7677 16.3466 12.749 16.3359 12.7325C16.3252 12.716 16.3111 12.702 16.2944 12.6915C16.2784 12.6798 16.2601 12.6717 16.2406 12.668C16.2211 12.6642 16.2011 12.6648 16.1819 12.6698C16.1358 12.6852 16.0971 12.7171 16.0731 12.7594H16.0716Z"
        fill="white" />
    <path
        d="M11.3184 10.6695L11.4027 10.3005L11.6754 10.3635L11.6626 10.425L11.4646 10.3792L11.4455 10.461L11.6304 10.5037L11.6161 10.5656L11.4316 10.5232L11.4084 10.6237L11.6139 10.671L11.5996 10.7332L11.3199 10.6687L11.3184 10.6695Z"
        fill="#309E3A" />
</svg>
