<svg width="24" height="24" viewBox="0 0 24 24" fill="none" xmlns="http://www.w3.org/2000/svg">
    <g clip-path="url(#clip0_912_2511)">
        <path d="M0 3C0 1.34315 1.34315 0 3 0H21C22.6569 0 24 1.34315 24 3V8.00156H0V3Z"
            fill="#FF9933" />
        <path d="M0 8.00159H24V15.9985H0V8.00159Z" fill="white" />
        <path d="M0 15.9984H24V21C24 22.6568 22.6569 24 21 24H3C1.34315 24 0 22.6568 0 21V15.9984Z"
            fill="#128807" />
        <path
            d="M12 15.2002C13.7674 15.2002 15.2001 13.7674 15.2001 12C15.2001 10.2326 13.7674 8.79987 12 8.79987C10.2326 8.79987 8.7998 10.2326 8.7998 12C8.7998 13.7674 10.2326 15.2002 12 15.2002Z"
            fill="#000088" />
        <path
            d="M12 14.7998C13.5464 14.7998 14.7999 13.5463 14.7999 12C14.7999 10.4537 13.5464 9.20013 12 9.20013C10.4537 9.20013 9.2002 10.4537 9.2002 12C9.2002 13.5463 10.4537 14.7998 12 14.7998Z"
            fill="white" />
        <path
            d="M12.0001 12.5601C12.3095 12.5601 12.5603 12.3093 12.5603 12C12.5603 11.6906 12.3095 11.4398 12.0001 11.4398C11.6907 11.4398 11.4399 11.6906 11.4399 12C11.4399 12.3093 11.6907 12.5601 12.0001 12.5601Z"
            fill="#000088" />
        <path
            d="M14.776 12.5105C14.8555 12.5105 14.9199 12.446 14.9199 12.3666C14.9199 12.2871 14.8555 12.2227 14.776 12.2227C14.6965 12.2227 14.6321 12.2871 14.6321 12.3666C14.6321 12.446 14.6965 12.5105 14.776 12.5105Z"
            fill="#000088" />
        <path d="M12 14.7998L12.0961 13.1198L12 12.3201L11.9062 13.1198L12 14.7998Z"
            fill="#000088" />
        <path
            d="M14.5865 13.2164C14.666 13.2164 14.7304 13.152 14.7304 13.0725C14.7304 12.993 14.666 12.9286 14.5865 12.9286C14.5071 12.9286 14.4426 12.993 14.4426 13.0725C14.4426 13.152 14.5071 13.2164 14.5865 13.2164Z"
            fill="#000088" />
        <path d="M11.2754 14.7047L11.8027 13.1067L11.9171 12.3098L11.6176 13.0598L11.2754 14.7047Z"
            fill="#000088" />
        <path
            d="M14.2211 13.8492C14.3005 13.8492 14.365 13.7848 14.365 13.7053C14.365 13.6258 14.3005 13.5614 14.2211 13.5614C14.1416 13.5614 14.0771 13.6258 14.0771 13.7053C14.0771 13.7848 14.1416 13.8492 14.2211 13.8492Z"
            fill="#000088" />
        <path d="M10.5999 14.4249L11.5233 13.0186L11.8402 12.2775L11.3569 12.9225L10.5999 14.4249Z"
            fill="#000088" />
        <path
            d="M13.704 14.3658C13.7834 14.3658 13.8479 14.3013 13.8479 14.2218C13.8479 14.1424 13.7834 14.0779 13.704 14.0779C13.6245 14.0779 13.5601 14.1424 13.5601 14.2218C13.5601 14.3013 13.6245 14.3658 13.704 14.3658Z"
            fill="#000088" />
        <path d="M10.02 13.98L11.2758 12.8597L11.7736 12.2264L11.1403 12.7242L10.02 13.98Z"
            fill="#000088" />
        <path
            d="M13.0707 14.7314C13.1501 14.7314 13.2146 14.667 13.2146 14.5875C13.2146 14.508 13.1501 14.4436 13.0707 14.4436C12.9912 14.4436 12.9268 14.508 12.9268 14.5875C12.9268 14.667 12.9912 14.7314 13.0707 14.7314Z"
            fill="#000088" />
        <path d="M9.5752 13.4002L11.078 12.6431L11.723 12.1599L10.9819 12.4767L9.5752 13.4002Z"
            fill="#000088" />
        <path
            d="M12.3641 14.9203C12.4436 14.9203 12.508 14.8559 12.508 14.7764C12.508 14.6969 12.4436 14.6325 12.3641 14.6325C12.2846 14.6325 12.2202 14.6969 12.2202 14.7764C12.2202 14.8559 12.2846 14.9203 12.3641 14.9203Z"
            fill="#000088" />
        <path d="M9.29541 12.7247L10.9431 12.3825L11.6931 12.0829L10.8962 12.1973L9.29541 12.7247Z"
            fill="#000088" />
        <path
            d="M11.6334 14.9198C11.7129 14.9198 11.7773 14.8554 11.7773 14.7759C11.7773 14.6964 11.7129 14.632 11.6334 14.632C11.5539 14.632 11.4895 14.6964 11.4895 14.7759C11.4895 14.8554 11.5539 14.9198 11.6334 14.9198Z"
            fill="#000088" />
        <path d="M9.2002 12L10.8802 12.0961L11.6799 12L10.8802 11.9062L9.2002 12Z" fill="#000088" />
        <path
            d="M10.9276 14.7304C11.0071 14.7304 11.0715 14.666 11.0715 14.5865C11.0715 14.5071 11.0071 14.4426 10.9276 14.4426C10.8481 14.4426 10.7837 14.5071 10.7837 14.5865C10.7837 14.666 10.8481 14.7304 10.9276 14.7304Z"
            fill="#000088" />
        <path d="M9.29541 11.2753L10.8934 11.8027L11.6903 11.917L10.9403 11.6175L9.29541 11.2753Z"
            fill="#000088" />
        <path
            d="M10.2948 14.3648C10.3743 14.3648 10.4387 14.3004 10.4387 14.2209C10.4387 14.1415 10.3743 14.077 10.2948 14.077C10.2153 14.077 10.1509 14.1415 10.1509 14.2209C10.1509 14.3004 10.2153 14.3648 10.2948 14.3648Z"
            fill="#000088" />
        <path d="M9.5752 10.5999L10.9814 11.5233L11.7225 11.8402L11.0775 11.3569L9.5752 10.5999Z"
            fill="#000088" />
        <path
            d="M9.77818 13.8478C9.85766 13.8478 9.92209 13.7834 9.92209 13.7039C9.92209 13.6244 9.85766 13.56 9.77818 13.56C9.69871 13.56 9.63428 13.6244 9.63428 13.7039C9.63428 13.7834 9.69871 13.8478 9.77818 13.8478Z"
            fill="#000088" />
        <path d="M10.02 10.02L11.1403 11.2758L11.7736 11.7736L11.2758 11.1403L10.02 10.02Z"
            fill="#000088" />
        <path
            d="M9.41246 13.2145C9.49194 13.2145 9.55637 13.1501 9.55637 13.0706C9.55637 12.9911 9.49194 12.9267 9.41246 12.9267C9.33298 12.9267 9.26855 12.9911 9.26855 13.0706C9.26855 13.1501 9.33298 13.2145 9.41246 13.2145Z"
            fill="#000088" />
        <path d="M10.5999 9.57513L11.3569 11.0779L11.8402 11.7229L11.5233 10.9819L10.5999 9.57513Z"
            fill="#000088" />
        <path
            d="M9.2235 12.5081C9.30297 12.5081 9.3674 12.4437 9.3674 12.3642C9.3674 12.2848 9.30297 12.2203 9.2235 12.2203C9.14402 12.2203 9.07959 12.2848 9.07959 12.3642C9.07959 12.4437 9.14402 12.5081 9.2235 12.5081Z"
            fill="#000088" />
        <path d="M11.2754 9.29529L11.6176 10.9429L11.9171 11.6929L11.8027 10.8961L11.2754 9.29529Z"
            fill="#000088" />
        <path
            d="M9.22398 11.7773C9.30346 11.7773 9.36789 11.7129 9.36789 11.6334C9.36789 11.5539 9.30346 11.4895 9.22398 11.4895C9.14451 11.4895 9.08008 11.5539 9.08008 11.6334C9.08008 11.7129 9.14451 11.7773 9.22398 11.7773Z"
            fill="#000088" />
        <path d="M12 9.20013L11.9062 10.8801L12 11.6798L12.0961 10.8801L12 9.20013Z"
            fill="#000088" />
        <path
            d="M9.41344 11.0714C9.49292 11.0714 9.55734 11.007 9.55734 10.9275C9.55734 10.848 9.49292 10.7836 9.41344 10.7836C9.33396 10.7836 9.26953 10.848 9.26953 10.9275C9.26953 11.007 9.33396 11.0714 9.41344 11.0714Z"
            fill="#000088" />
        <path d="M12.7247 9.29529L12.1974 10.8933L12.083 11.6901L12.3825 10.9401L12.7247 9.29529Z"
            fill="#000088" />
        <path
            d="M9.77916 10.4386C9.85864 10.4386 9.92307 10.3741 9.92307 10.2947C9.92307 10.2152 9.85864 10.1508 9.77916 10.1508C9.69968 10.1508 9.63525 10.2152 9.63525 10.2947C9.63525 10.3741 9.69968 10.4386 9.77916 10.4386Z"
            fill="#000088" />
        <path d="M13.4002 9.57513L12.4768 10.9814L12.1599 11.7225L12.6432 11.0775L13.4002 9.57513Z"
            fill="#000088" />
        <path
            d="M10.296 9.92203C10.3755 9.92203 10.4399 9.8576 10.4399 9.77812C10.4399 9.69865 10.3755 9.63422 10.296 9.63422C10.2165 9.63422 10.1521 9.69865 10.1521 9.77812C10.1521 9.8576 10.2165 9.92203 10.296 9.92203Z"
            fill="#000088" />
        <path d="M13.9799 10.02L12.7241 11.1403L12.2263 11.7736L12.8596 11.2758L13.9799 10.02Z"
            fill="#000088" />
        <path
            d="M10.9293 9.55643C11.0088 9.55643 11.0732 9.492 11.0732 9.41252C11.0732 9.33305 11.0088 9.26862 10.9293 9.26862C10.8498 9.26862 10.7854 9.33305 10.7854 9.41252C10.7854 9.492 10.8498 9.55643 10.9293 9.55643Z"
            fill="#000088" />
        <path d="M14.4249 10.5999L12.9221 11.3569L12.2771 11.8402L13.0182 11.5233L14.4249 10.5999Z"
            fill="#000088" />
        <path
            d="M11.6358 9.36752C11.7153 9.36752 11.7798 9.3031 11.7798 9.22362C11.7798 9.14414 11.7153 9.07971 11.6358 9.07971C11.5564 9.07971 11.4919 9.14414 11.4919 9.22362C11.4919 9.3031 11.5564 9.36752 11.6358 9.36752Z"
            fill="#000088" />
        <path d="M14.7048 11.2753L13.0571 11.6175L12.3071 11.917L13.104 11.8027L14.7048 11.2753Z"
            fill="#000088" />
        <path
            d="M12.3666 9.36795C12.446 9.36795 12.5105 9.30352 12.5105 9.22405C12.5105 9.14457 12.446 9.08014 12.3666 9.08014C12.2871 9.08014 12.2227 9.14457 12.2227 9.22405C12.2227 9.30352 12.2871 9.36795 12.3666 9.36795Z"
            fill="#000088" />
        <path d="M14.7998 12L13.1198 11.9062L12.3201 12L13.1198 12.0961L14.7998 12Z"
            fill="#000088" />
        <path
            d="M13.0724 9.55734C13.1519 9.55734 13.2163 9.49292 13.2163 9.41344C13.2163 9.33396 13.1519 9.26953 13.0724 9.26953C12.9929 9.26953 12.9285 9.33396 12.9285 9.41344C12.9285 9.49292 12.9929 9.55734 13.0724 9.55734Z"
            fill="#000088" />
        <path d="M14.7047 12.7247L13.1067 12.1973L12.3098 12.0829L13.0598 12.3825L14.7047 12.7247Z"
            fill="#000088" />
        <path
            d="M13.7054 9.92301C13.7849 9.92301 13.8493 9.85858 13.8493 9.7791C13.8493 9.69962 13.7849 9.63519 13.7054 9.63519C13.626 9.63519 13.5615 9.69962 13.5615 9.7791C13.5615 9.85858 13.626 9.92301 13.7054 9.92301Z"
            fill="#000088" />
        <path d="M14.4249 13.4002L13.0187 12.4767L12.2776 12.1599L12.9226 12.6431L14.4249 13.4002Z"
            fill="#000088" />
        <path
            d="M14.2218 10.44C14.3013 10.44 14.3657 10.3756 14.3657 10.2961C14.3657 10.2167 14.3013 10.1522 14.2218 10.1522C14.1423 10.1522 14.0779 10.2167 14.0779 10.2961C14.0779 10.3756 14.1423 10.44 14.2218 10.44Z"
            fill="#000088" />
        <path d="M13.9799 13.98L12.8596 12.7243L12.2263 12.2264L12.7241 12.8597L13.9799 13.98Z"
            fill="#000088" />
        <path
            d="M14.5875 11.0733C14.667 11.0733 14.7314 11.0088 14.7314 10.9294C14.7314 10.8499 14.667 10.7855 14.5875 10.7855C14.508 10.7855 14.4436 10.8499 14.4436 10.9294C14.4436 11.0088 14.508 11.0733 14.5875 11.0733Z"
            fill="#000088" />
        <path d="M13.4002 14.4249L12.6432 12.922L12.1599 12.277L12.4768 13.0181L13.4002 14.4249Z"
            fill="#000088" />
        <path
            d="M14.7765 11.7797C14.856 11.7797 14.9204 11.7153 14.9204 11.6358C14.9204 11.5563 14.856 11.4919 14.7765 11.4919C14.697 11.4919 14.6326 11.5563 14.6326 11.6358C14.6326 11.7153 14.697 11.7797 14.7765 11.7797Z"
            fill="#000088" />
        <path d="M12.7247 14.7047L12.3825 13.057L12.083 12.307L12.1974 13.1039L12.7247 14.7047Z"
            fill="#000088" />
        <path d="M0 0H24V8H0V0Z" fill="#FF9933" />
        <path d="M0 8H24V16H0V8Z" fill="white" />
        <path d="M0 16H24V24H0V16Z" fill="#128807" />
        <path
            d="M12 15.2C13.7674 15.2 15.2 13.7673 15.2 12C15.2 10.2327 13.7674 8.79999 12 8.79999C10.2327 8.79999 8.80005 10.2327 8.80005 12C8.80005 13.7673 10.2327 15.2 12 15.2Z"
            fill="#000088" />
        <path
            d="M12 14.8C13.5463 14.8 14.8 13.5464 14.8 12C14.8 10.4536 13.5463 9.20001 12 9.20001C10.4536 9.20001 9.19995 10.4536 9.19995 12C9.19995 13.5464 10.4536 14.8 12 14.8Z"
            fill="white" />
        <path
            d="M11.9999 12.56C12.3092 12.56 12.5599 12.3093 12.5599 12C12.5599 11.6907 12.3092 11.44 11.9999 11.44C11.6907 11.44 11.4399 11.6907 11.4399 12C11.4399 12.3093 11.6907 12.56 11.9999 12.56Z"
            fill="#000088" />
        <path
            d="M14.776 12.5055C14.8533 12.5055 14.916 12.4428 14.916 12.3655C14.916 12.2881 14.8533 12.2255 14.776 12.2255C14.6987 12.2255 14.636 12.2881 14.636 12.3655C14.636 12.4428 14.6987 12.5055 14.776 12.5055Z"
            fill="#000088" />
        <path d="M12.0001 14.7999L12.0961 13.1199L12.0001 12.3199L11.9041 13.1199L12.0001 14.7999Z"
            fill="#000088" />
        <path
            d="M14.587 13.2115C14.6643 13.2115 14.727 13.1488 14.727 13.0715C14.727 12.9941 14.6643 12.9315 14.587 12.9315C14.5097 12.9315 14.447 12.9941 14.447 13.0715C14.447 13.1488 14.5097 13.2115 14.587 13.2115Z"
            fill="#000088" />
        <path d="M11.2756 14.7044L11.8031 13.1044L11.9171 12.3069L11.6171 13.0569L11.2756 14.7044Z"
            fill="#000088" />
        <path
            d="M14.2215 13.8445C14.2989 13.8445 14.3615 13.7818 14.3615 13.7045C14.3615 13.6272 14.2989 13.5645 14.2215 13.5645C14.1442 13.5645 14.0815 13.6272 14.0815 13.7045C14.0815 13.7818 14.1442 13.8445 14.2215 13.8445Z"
            fill="#000088" />
        <path d="M10.6001 14.425L11.5231 13.018L11.8401 12.277L11.3571 12.922L10.6001 14.425Z"
            fill="#000088" />
        <path
            d="M13.7045 14.3615C13.7818 14.3615 13.8445 14.2988 13.8445 14.2215C13.8445 14.1442 13.7818 14.0815 13.7045 14.0815C13.6271 14.0815 13.5645 14.1442 13.5645 14.2215C13.5645 14.2988 13.6271 14.3615 13.7045 14.3615Z"
            fill="#000088" />
        <path d="M10.02 13.98L11.276 12.86L11.776 12.2265L11.1425 12.724L10.02 13.98Z"
            fill="#000088" />
        <path
            d="M13.0714 14.727C13.1487 14.727 13.2114 14.6643 13.2114 14.587C13.2114 14.5097 13.1487 14.447 13.0714 14.447C12.9941 14.447 12.9314 14.5097 12.9314 14.587C12.9314 14.6643 12.9941 14.727 13.0714 14.727Z"
            fill="#000088" />
        <path d="M9.57495 13.4L11.078 12.643L11.723 12.16L10.982 12.477L9.57495 13.4Z"
            fill="#000088" />
        <path
            d="M12.3656 14.916C12.4429 14.916 12.5056 14.8533 12.5056 14.776C12.5056 14.6987 12.4429 14.636 12.3656 14.636C12.2883 14.636 12.2256 14.6987 12.2256 14.776C12.2256 14.8533 12.2883 14.916 12.3656 14.916Z"
            fill="#000088" />
        <path d="M9.29541 12.7245L10.9429 12.3825L11.6929 12.0825L10.8954 12.1965L9.29541 12.7245Z"
            fill="#000088" />
        <path
            d="M11.6344 14.916C11.7117 14.916 11.7744 14.8533 11.7744 14.776C11.7744 14.6987 11.7117 14.636 11.6344 14.636C11.5571 14.636 11.4944 14.6987 11.4944 14.776C11.4944 14.8533 11.5571 14.916 11.6344 14.916Z"
            fill="#000088" />
        <path d="M9.19995 12L10.88 12.096L11.68 12L10.88 11.904L9.19995 12Z" fill="#000088" />
        <path
            d="M10.9286 14.727C11.0059 14.727 11.0686 14.6643 11.0686 14.587C11.0686 14.5097 11.0059 14.447 10.9286 14.447C10.8513 14.447 10.7886 14.5097 10.7886 14.587C10.7886 14.6643 10.8513 14.727 10.9286 14.727Z"
            fill="#000088" />
        <path d="M9.29541 11.2755L10.8954 11.803L11.6929 11.917L10.9429 11.617L9.29541 11.2755Z"
            fill="#000088" />
        <path
            d="M10.2955 14.3615C10.3728 14.3615 10.4355 14.2988 10.4355 14.2215C10.4355 14.1442 10.3728 14.0815 10.2955 14.0815C10.2182 14.0815 10.1555 14.1442 10.1555 14.2215C10.1555 14.2988 10.2182 14.3615 10.2955 14.3615Z"
            fill="#000088" />
        <path d="M9.57495 10.6L10.982 11.523L11.723 11.84L11.078 11.357L9.57495 10.6Z"
            fill="#000088" />
        <path
            d="M9.77843 13.8445C9.85575 13.8445 9.91843 13.7818 9.91843 13.7045C9.91843 13.6272 9.85575 13.5645 9.77843 13.5645C9.70111 13.5645 9.63843 13.6272 9.63843 13.7045C9.63843 13.7818 9.70111 13.8445 9.77843 13.8445Z"
            fill="#000088" />
        <path d="M10.02 10.02L11.14 11.276L11.7735 11.7735L11.2735 11.14L10.02 10.02Z"
            fill="#000088" />
        <path
            d="M9.41295 13.2115C9.49027 13.2115 9.55295 13.1488 9.55295 13.0715C9.55295 12.9942 9.49027 12.9315 9.41295 12.9315C9.33563 12.9315 9.27295 12.9942 9.27295 13.0715C9.27295 13.1488 9.33563 13.2115 9.41295 13.2115Z"
            fill="#000088" />
        <path d="M10.6001 9.57501L11.3571 11.078L11.8401 11.723L11.5231 10.982L10.6001 9.57501Z"
            fill="#000088" />
        <path
            d="M9.22399 12.5055C9.30131 12.5055 9.36398 12.4428 9.36398 12.3655C9.36398 12.2882 9.30131 12.2255 9.22399 12.2255C9.14667 12.2255 9.08398 12.2882 9.08398 12.3655C9.08398 12.4428 9.14667 12.5055 9.22399 12.5055Z"
            fill="#000088" />
        <path d="M11.2754 9.29547L11.6174 10.9455L11.9174 11.6955L11.8034 10.898L11.2754 9.29547Z"
            fill="#000088" />
        <path
            d="M9.22399 11.7745C9.30131 11.7745 9.36398 11.7118 9.36398 11.6345C9.36398 11.5572 9.30131 11.4945 9.22399 11.4945C9.14667 11.4945 9.08398 11.5572 9.08398 11.6345C9.08398 11.7118 9.14667 11.7745 9.22399 11.7745Z"
            fill="#000088" />
        <path d="M12.0001 9.20001L11.9041 10.88L12.0001 11.68L12.0961 10.88L12.0001 9.20001Z"
            fill="#000088" />
        <path
            d="M9.41295 11.0685C9.49027 11.0685 9.55295 11.0058 9.55295 10.9285C9.55295 10.8512 9.49027 10.7885 9.41295 10.7885C9.33563 10.7885 9.27295 10.8512 9.27295 10.9285C9.27295 11.0058 9.33563 11.0685 9.41295 11.0685Z"
            fill="#000088" />
        <path d="M12.7245 9.29547L12.197 10.8955L12.083 11.693L12.383 10.943L12.7245 9.29547Z"
            fill="#000088" />
        <path
            d="M9.77843 10.4355C9.85575 10.4355 9.91843 10.3728 9.91843 10.2955C9.91843 10.2182 9.85575 10.1555 9.77843 10.1555C9.70111 10.1555 9.63843 10.2182 9.63843 10.2955C9.63843 10.3728 9.70111 10.4355 9.77843 10.4355Z"
            fill="#000088" />
        <path d="M13.3999 9.57501L12.4769 10.982L12.1599 11.723L12.6429 11.078L13.3999 9.57501Z"
            fill="#000088" />
        <path
            d="M10.2955 9.91849C10.3728 9.91849 10.4355 9.85581 10.4355 9.77849C10.4355 9.70117 10.3728 9.63849 10.2955 9.63849C10.2182 9.63849 10.1555 9.70117 10.1555 9.77849C10.1555 9.85581 10.2182 9.91849 10.2955 9.91849Z"
            fill="#000088" />
        <path d="M13.9801 10.02L12.7241 11.14L12.2241 11.7735L12.8576 11.276L13.9801 10.02Z"
            fill="#000088" />
        <path
            d="M10.9286 9.55301C11.0059 9.55301 11.0686 9.49033 11.0686 9.41301C11.0686 9.33569 11.0059 9.27301 10.9286 9.27301C10.8513 9.27301 10.7886 9.33569 10.7886 9.41301C10.7886 9.49033 10.8513 9.55301 10.9286 9.55301Z"
            fill="#000088" />
        <path d="M14.4251 10.6L12.9221 11.357L12.2771 11.84L13.0181 11.523L14.4251 10.6Z"
            fill="#000088" />
        <path
            d="M11.6344 9.36398C11.7117 9.36398 11.7744 9.3013 11.7744 9.22398C11.7744 9.14666 11.7117 9.08398 11.6344 9.08398C11.5571 9.08398 11.4944 9.14666 11.4944 9.22398C11.4944 9.3013 11.5571 9.36398 11.6344 9.36398Z"
            fill="#000088" />
        <path d="M14.7044 11.2755L13.0569 11.6175L12.3069 11.9175L13.1044 11.8035L14.7044 11.2755Z"
            fill="#000088" />
        <path
            d="M12.3656 9.36398C12.4429 9.36398 12.5056 9.3013 12.5056 9.22398C12.5056 9.14666 12.4429 9.08398 12.3656 9.08398C12.2883 9.08398 12.2256 9.14666 12.2256 9.22398C12.2256 9.3013 12.2883 9.36398 12.3656 9.36398Z"
            fill="#000088" />
        <path d="M14.8001 12L13.1201 11.904L12.3201 12L13.1201 12.096L14.8001 12Z" fill="#000088" />
        <path
            d="M13.0714 9.55301C13.1487 9.55301 13.2114 9.49033 13.2114 9.41301C13.2114 9.33569 13.1487 9.27301 13.0714 9.27301C12.9941 9.27301 12.9314 9.33569 12.9314 9.41301C12.9314 9.49033 12.9941 9.55301 13.0714 9.55301Z"
            fill="#000088" />
        <path d="M14.7044 12.7245L13.1044 12.197L12.3069 12.083L13.0569 12.383L14.7044 12.7245Z"
            fill="#000088" />
        <path
            d="M13.7045 9.91849C13.7818 9.91849 13.8445 9.85581 13.8445 9.77849C13.8445 9.70117 13.7818 9.63849 13.7045 9.63849C13.6271 9.63849 13.5645 9.70117 13.5645 9.77849C13.5645 9.85581 13.6271 9.91849 13.7045 9.91849Z"
            fill="#000088" />
        <path d="M14.4249 13.4L13.0179 12.477L12.2769 12.16L12.9219 12.643L14.4249 13.4Z"
            fill="#000088" />
        <path
            d="M14.2215 10.4355C14.2989 10.4355 14.3615 10.3728 14.3615 10.2955C14.3615 10.2182 14.2989 10.1555 14.2215 10.1555C14.1442 10.1555 14.0815 10.2182 14.0815 10.2955C14.0815 10.3728 14.1442 10.4355 14.2215 10.4355Z"
            fill="#000088" />
        <path d="M13.9801 13.98L12.8601 12.724L12.2266 12.2265L12.7266 12.86L13.9801 13.98Z"
            fill="#000088" />
        <path
            d="M14.587 11.0685C14.6643 11.0685 14.727 11.0058 14.727 10.9285C14.727 10.8512 14.6643 10.7885 14.587 10.7885C14.5097 10.7885 14.447 10.8512 14.447 10.9285C14.447 11.0058 14.5097 11.0685 14.587 11.0685Z"
            fill="#000088" />
        <path d="M13.3999 14.425L12.6429 12.922L12.1599 12.277L12.4769 13.018L13.3999 14.425Z"
            fill="#000088" />
        <path
            d="M14.776 11.7745C14.8533 11.7745 14.916 11.7118 14.916 11.6345C14.916 11.5572 14.8533 11.4945 14.776 11.4945C14.6987 11.4945 14.636 11.5572 14.636 11.6345C14.636 11.7118 14.6987 11.7745 14.776 11.7745Z"
            fill="#000088" />
        <path d="M12.7245 14.7045L12.3825 13.057L12.0825 12.307L12.1965 13.1045L12.7245 14.7045Z"
            fill="#000088" />
    </g>
    <defs>
        <clipPath id="clip0_912_2511">
            <rect width="24" height="24" fill="white" />
        </clipPath>
    </defs>
</svg>
