<svg width="24" height="24" viewBox="0 0 24 24" fill="none" xmlns="http://www.w3.org/2000/svg">
    <path fill-rule="evenodd" clip-rule="evenodd" d="M0 0H24V24H0V0Z" fill="#F31930" />
    <path fill-rule="evenodd" clip-rule="evenodd"
        d="M16.3499 12.3735C16.3499 15.6845 13.6194 18.368 10.2499 18.368C6.8804 18.368 4.1499 15.6845 4.1499 12.3735C4.1499 9.06253 6.8804 6.37903 10.2499 6.37903C13.6194 6.37903 16.3499 9.06303 16.3499 12.3735Z"
        fill="white" />
    <path fill-rule="evenodd" clip-rule="evenodd"
        d="M16.654 12.3735C16.654 15.0235 14.4695 17.169 11.775 17.169C9.08048 17.169 6.89648 15.022 6.89648 12.3735C6.89648 9.725 9.08048 7.578 11.775 7.578C14.4695 7.578 16.654 9.725 16.654 12.3735Z"
        fill="#F31830" />
    <path fill-rule="evenodd" clip-rule="evenodd"
        d="M17.5364 9.57297L17.4864 11.789L15.4199 12.35L17.4574 13.0755L17.4074 15.1075L18.7364 13.521L20.7444 14.2175L19.5839 12.515L20.9999 10.8215L18.8244 11.4215L17.5349 9.57147L17.5364 9.57297Z"
        fill="white" />
</svg>
