<svg width="51" height="61" viewBox="0 0 51 61" fill="none" xmlns="http://www.w3.org/2000/svg">
<path d="M28.0508 52.4217V20.5415C28.0508 17.6912 30.3596 15.3804 33.2074 15.3804C36.0551 15.3804 38.364 17.6912 38.364 20.5415C38.364 20.8235 38.3333 21.0993 38.2905 21.369L38.364 21.3752C41.7445 21.3752 44.482 24.1151 44.482 27.4987C44.482 28.7981 44.0779 29.9995 43.3858 30.9864L43.8268 31.2868C46.1233 32.1694 47.7463 34.3945 47.7463 37.0057C47.7463 39.1204 46.6745 40.9838 45.0516 42.0811L44.7393 42.2772C45.217 43.1476 45.4864 44.1467 45.4864 45.2133C45.4864 48.5969 42.7489 51.3368 39.3683 51.3368H38.2415C38.315 51.6862 38.3578 52.0478 38.3578 52.4217C38.3578 55.272 36.049 57.5829 33.2012 57.5829C30.3657 57.589 28.0508 55.2782 28.0508 52.4217Z" fill="#22A186"/>
<path d="M20.1809 57.5892C17.3332 57.5892 15.0243 55.2784 15.0243 52.4281C15.0243 52.0542 15.0672 51.6925 15.1407 51.3431H14.0138C10.6333 51.3431 7.89576 48.6032 7.89576 45.2196C7.89576 44.1531 8.16523 43.154 8.64291 42.2836L8.33058 42.0874C6.70154 40.9841 5.63593 39.1207 5.63593 37.0121C5.63593 34.407 7.26497 32.1758 9.55542 31.2931L9.99636 30.9928C9.31045 29.9998 8.90013 28.7984 8.90013 27.505C8.90013 24.1214 11.6377 21.3815 15.0182 21.3815L15.0917 21.3754C15.0488 21.1057 15.0182 20.8298 15.0182 20.5479C15.0182 17.6976 17.327 15.3867 20.1748 15.3867C23.0226 15.3867 25.3314 17.6976 25.3314 20.5479V52.4342C25.3436 55.2784 23.0348 57.5892 20.1809 57.5892Z" fill="#E51674"/>
<path d="M39.0555 18.2865L38.9759 18.2742C39.0249 17.9677 39.0555 17.6613 39.0555 17.3425C39.0555 14.1122 36.4405 11.501 33.2191 11.501" stroke="white" stroke-width="1.5" stroke-miterlimit="10"/>
<path d="M44.7452 29.1721C45.523 28.0504 45.9823 26.6896 45.9823 25.2246C45.9823 21.3936 42.8835 18.292 39.0558 18.292" stroke="white" stroke-width="1.5" stroke-miterlimit="10"/>
<path d="M44.0594 43.3742C44.0594 43.3742 45.4802 42.4671 46.6316 41.7376C48.4749 40.4933 49.6875 38.3847 49.6875 35.988C49.6875 33.0397 47.8442 30.5143 45.2475 29.5151L44.7453 29.1719" stroke="white" stroke-width="1.5" stroke-miterlimit="10"/>
<path d="M27.3828 5.48145V53.4397C27.3828 56.67 29.9978 59.2812 33.2192 59.2812C36.4466 59.2812 39.0556 56.6639 39.0556 53.4397C39.0556 53.0168 39.0127 52.6122 38.9269 52.2138" stroke="white" stroke-width="1.5" stroke-miterlimit="10"/>
<path d="M35.6937 33.4688C33.1216 33.4688 31.0332 35.559 31.0332 38.1334C31.0332 40.7078 33.1216 42.7981 35.6937 42.7981H41.8241C44.3962 42.7981 46.4846 44.8883 46.4846 47.4627C46.4846 50.0371 44.3962 52.1274 41.8241 52.1274H34.0831" stroke="white" stroke-width="1.5" stroke-miterlimit="10"/>
<path d="M39.0559 18.2861C36.4837 18.2861 34.3953 20.3763 34.3953 22.9508C34.3953 25.5252 36.4837 27.6154 39.0559 27.6154" stroke="white" stroke-width="1.5" stroke-miterlimit="10"/>
<path d="M33.1213 52.9796C33.6625 52.9796 34.1012 52.5405 34.1012 51.9988C34.1012 51.4572 33.6625 51.0181 33.1213 51.0181C32.5801 51.0181 32.1414 51.4572 32.1414 51.9988C32.1414 52.5405 32.5801 52.9796 33.1213 52.9796Z" fill="#E51674" stroke="white" stroke-width="1.5" stroke-miterlimit="10"/>
<path d="M27.383 5.94683C27.9242 5.94683 28.3629 5.50774 28.3629 4.96609C28.3629 4.42444 27.9242 3.98535 27.383 3.98535C26.8418 3.98535 26.4031 4.42444 26.4031 4.96609C26.4031 5.50774 26.8418 5.94683 27.383 5.94683Z" fill="#E51674" stroke="white" stroke-width="1.5" stroke-miterlimit="10"/>
<path d="M36.1408 34.4498C36.682 34.4498 37.1207 34.0107 37.1207 33.469C37.1207 32.9274 36.682 32.4883 36.1408 32.4883C35.5997 32.4883 35.1609 32.9274 35.1609 33.469C35.1609 34.0107 35.5997 34.4498 36.1408 34.4498Z" fill="#E51674" stroke="white" stroke-width="1.5" stroke-miterlimit="10"/>
<path d="M44.635 30.1529C45.1761 30.1529 45.6148 29.7138 45.6148 29.1722C45.6148 28.6305 45.1761 28.1914 44.635 28.1914C44.0938 28.1914 43.6551 28.6305 43.6551 29.1722C43.6551 29.7138 44.0938 30.1529 44.635 30.1529Z" fill="#E51674" stroke="white" stroke-width="1.5" stroke-miterlimit="10"/>
<path d="M39.0556 28.5958C39.5968 28.5958 40.0355 28.1567 40.0355 27.615C40.0355 27.0734 39.5968 26.6343 39.0556 26.6343C38.5145 26.6343 38.0758 27.0734 38.0758 27.615C38.0758 28.1567 38.5145 28.5958 39.0556 28.5958Z" fill="#524897" stroke="white" stroke-width="1.5" stroke-miterlimit="10"/>
<path d="M32.2396 12.2115C32.7808 12.2115 33.2195 11.7724 33.2195 11.2307C33.2195 10.6891 32.7808 10.25 32.2396 10.25C31.6985 10.25 31.2598 10.6891 31.2598 11.2307C31.2598 11.7724 31.6985 12.2115 32.2396 12.2115Z" fill="#524897" stroke="white" stroke-width="1.5" stroke-miterlimit="10"/>
<path d="M17.4618 11.501C14.2343 11.501 11.6254 14.1183 11.6254 17.3425C11.6254 17.6613 11.656 17.9739 11.705 18.2742L11.6254 18.2865" stroke="white" stroke-width="1.5" stroke-miterlimit="10"/>
<path d="M11.6253 18.2861C7.79767 18.2861 4.69882 21.3877 4.69882 25.2187C4.69882 26.6899 5.15814 28.0445 5.93591 29.1662" stroke="white" stroke-width="1.5" stroke-miterlimit="10"/>
<path d="M5.93612 29.1719L5.44006 29.5151C2.84339 30.5143 1 33.0335 1 35.988C1 38.3786 2.21259 40.4872 4.05598 41.7376C5.20733 42.4671 6.62815 43.3742 6.62815 43.3742" stroke="white" stroke-width="1.5" stroke-miterlimit="10"/>
<path d="M11.754 52.2138C11.6683 52.6061 11.6254 53.0168 11.6254 53.4397C11.6254 56.67 14.2404 59.2813 17.4618 59.2813C20.6892 59.2813 23.2981 56.6639 23.2981 53.4397V1.98145" stroke="white" stroke-width="1.5" stroke-miterlimit="10"/>
<path d="M16.6043 52.1274H8.86326C6.29109 52.1274 4.20273 50.0371 4.20273 47.4627C4.20273 44.8883 6.29109 42.7981 8.86326 42.7981H14.9936C17.5658 42.7981 19.6541 40.7078 19.6541 38.1334C19.6541 35.559 17.5658 33.4688 14.9936 33.4688" stroke="white" stroke-width="1.5" stroke-miterlimit="10"/>
<path d="M11.6254 27.6154C14.1976 27.6154 16.2859 25.5252 16.2859 22.9508C16.2859 20.3763 14.1976 18.2861 11.6254 18.2861" stroke="white" stroke-width="1.5" stroke-miterlimit="10"/>
<path d="M17.5658 52.9796C18.107 52.9796 18.5457 52.5405 18.5457 51.9988C18.5457 51.4572 18.107 51.0181 17.5658 51.0181C17.0246 51.0181 16.5859 51.4572 16.5859 51.9988C16.5859 52.5405 17.0246 52.9796 17.5658 52.9796Z" fill="#22A186" stroke="white" stroke-width="1.5" stroke-miterlimit="10"/>
<path d="M14.5467 34.4498C15.0878 34.4498 15.5266 34.0107 15.5266 33.469C15.5266 32.9274 15.0878 32.4883 14.5467 32.4883C14.0055 32.4883 13.5668 32.9274 13.5668 33.469C13.5668 34.0107 14.0055 34.4498 14.5467 34.4498Z" fill="#22A186" stroke="white" stroke-width="1.5" stroke-miterlimit="10"/>
<path d="M23.3041 2.96148C23.8453 2.96148 24.284 2.52239 24.284 1.98074C24.284 1.43909 23.8453 1 23.3041 1C22.7629 1 22.3242 1.43909 22.3242 1.98074C22.3242 2.52239 22.7629 2.96148 23.3041 2.96148Z" fill="#22A186" stroke="white" stroke-width="1.5" stroke-miterlimit="10"/>
<path d="M6.04628 30.1529C6.58745 30.1529 7.02616 29.7138 7.02616 29.1722C7.02616 28.6305 6.58745 28.1914 6.04628 28.1914C5.50511 28.1914 5.06641 28.6305 5.06641 29.1722C5.06641 29.7138 5.50511 30.1529 6.04628 30.1529Z" fill="#22A186" stroke="white" stroke-width="1.5" stroke-miterlimit="10"/>
<path d="M11.6256 28.5958C12.1667 28.5958 12.6054 28.1567 12.6054 27.615C12.6054 27.0734 12.1667 26.6343 11.6256 26.6343C11.0844 26.6343 10.6457 27.0734 10.6457 27.615C10.6457 28.1567 11.0844 28.5958 11.6256 28.5958Z" fill="#F29100" stroke="white" stroke-width="1.5" stroke-miterlimit="10"/>
<path d="M18.4478 12.2115C18.989 12.2115 19.4277 11.7724 19.4277 11.2307C19.4277 10.6891 18.989 10.25 18.4478 10.25C17.9067 10.25 17.468 10.6891 17.468 11.2307C17.468 11.7724 17.9067 12.2115 18.4478 12.2115Z" fill="#F29100" stroke="white" stroke-width="1.5" stroke-miterlimit="10"/>
</svg>
