<svg width="31" height="26" viewBox="0 0 31 26" fill="none" xmlns="http://www.w3.org/2000/svg">
<path d="M12.1597 0.993164C5.9997 0.993164 1 5.25912 1 10.5148C1 12.5198 1.73374 14.3797 2.97087 15.9155L2.34804 18.2106L4.69432 17.5792C6.67372 19.0979 9.28449 20.0364 12.1512 20.0364C18.3112 20.0364 23.3109 15.7704 23.3109 10.5148C23.3195 5.25912 18.3198 0.993164 12.1597 0.993164Z" stroke="#233564" stroke-width="1.5" stroke-miterlimit="10" stroke-linecap="round" stroke-linejoin="round"/>
<path d="M21.8693 5.82202C26.5618 6.94823 30.0002 10.6255 30.0002 14.9853C30.0002 16.9903 29.2664 18.8502 28.0293 20.386L28.6521 22.6811L26.3059 22.0497C24.3265 23.5684 21.7157 24.5069 18.849 24.5069C14.6854 24.5069 11.0508 22.5616 9.13965 19.6778" stroke="#233564" stroke-width="1.5" stroke-miterlimit="10" stroke-linecap="round" stroke-linejoin="round"/>
<path d="M7.68043 11.7862C8.38253 11.7862 8.95169 11.217 8.95169 10.5149C8.95169 9.81281 8.38253 9.24365 7.68043 9.24365C6.97834 9.24365 6.40918 9.81281 6.40918 10.5149C6.40918 11.217 6.97834 11.7862 7.68043 11.7862Z" stroke="#233564" stroke-width="1.5" stroke-miterlimit="10" stroke-linejoin="round"/>
<path d="M12.1594 11.7862C12.8615 11.7862 13.4307 11.217 13.4307 10.5149C13.4307 9.81281 12.8615 9.24365 12.1594 9.24365C11.4573 9.24365 10.8882 9.81281 10.8882 10.5149C10.8882 11.217 11.4573 11.7862 12.1594 11.7862Z" stroke="#233564" stroke-width="1.5" stroke-miterlimit="10" stroke-linejoin="round"/>
<path d="M16.6389 11.7862C17.341 11.7862 17.9102 11.217 17.9102 10.5149C17.9102 9.81281 17.341 9.24365 16.6389 9.24365C15.9368 9.24365 15.3677 9.81281 15.3677 10.5149C15.3677 11.217 15.9368 11.7862 16.6389 11.7862Z" stroke="#233564" stroke-width="1.5" stroke-miterlimit="10" stroke-linejoin="round"/>
</svg>
