<svg width="24" height="24" viewBox="0 0 24 24" fill="none" xmlns="http://www.w3.org/2000/svg">
<path fill-rule="evenodd" clip-rule="evenodd" d="M10.5 1.5H13.5V2.91176C13.5 3.60367 13.9427 4.20829 14.5851 4.42694C14.9059 4.53612 15.221 4.66621 15.5283 4.8172C16.1369 5.11624 16.877 5.00169 17.366 4.51264L18.364 3.51472L20.4853 5.63604L19.4874 6.63396C18.9983 7.123 18.8838 7.86309 19.1828 8.47172C19.3338 8.77903 19.4639 9.09412 19.5731 9.4149C19.7917 10.0573 20.3963 10.5 21.0882 10.5H22.5V13.5H21.0882C20.3963 13.5 19.7917 13.9427 19.5731 14.5851C19.4639 14.9059 19.3338 15.221 19.1828 15.5283C18.8838 16.1369 18.9983 16.877 19.4874 17.366L20.4853 18.364L18.364 20.4853L17.366 19.4874C16.877 18.9983 16.1369 18.8838 15.5283 19.1828C15.221 19.3338 14.9059 19.4639 14.5851 19.5731C13.9427 19.7917 13.5 20.3963 13.5 21.0882V22.5H10.5V21.0882C10.5 20.3963 10.0573 19.7917 9.4149 19.5731C9.09411 19.4639 8.77902 19.3338 8.47172 19.1828C7.8631 18.8838 7.12301 18.9983 6.63396 19.4874L5.63604 20.4853L3.51472 18.364L4.51264 17.366C5.00169 16.877 5.11624 16.1369 4.8172 15.5283C4.66621 15.221 4.53612 14.9059 4.42694 14.5851C4.20829 13.9427 3.60367 13.5 2.91176 13.5H1.5V10.5H2.91176C3.60367 10.5 4.20829 10.0573 4.42693 9.4149C4.53611 9.09412 4.66621 8.77902 4.8172 8.47172C5.11624 7.8631 5.00169 7.12301 4.51264 6.63396L3.51472 5.63604L5.63604 3.51472L6.63396 4.51264C7.123 5.00168 7.86309 5.11624 8.47172 4.8172C8.77902 4.66621 9.09412 4.53611 9.4149 4.42693C10.0573 4.20829 10.5 3.60367 10.5 2.91176V1.5ZM9 1.5C9 0.671573 9.67158 0 10.5 0H13.5C14.3284 0 15 0.671573 15 1.5V2.91176C15 2.95485 15.0276 2.99305 15.0684 3.00693C15.4496 3.13669 15.8243 3.29135 16.1898 3.47093C16.2284 3.48992 16.2749 3.48244 16.3054 3.45198L17.3033 2.45406C17.8891 1.86827 18.8388 1.86827 19.4246 2.45406L21.5459 4.57538C22.1317 5.16117 22.1317 6.11091 21.5459 6.6967L20.548 7.69462C20.5176 7.72508 20.5101 7.77159 20.5291 7.81024C20.7086 8.17573 20.8633 8.55036 20.9931 8.93159C21.007 8.97239 21.0451 9 21.0882 9H22.5C23.3284 9 24 9.67158 24 10.5V13.5C24 14.3284 23.3284 15 22.5 15H21.0882C21.0451 15 21.0069 15.0276 20.9931 15.0684C20.8633 15.4496 20.7086 15.8243 20.5291 16.1898C20.5101 16.2284 20.5176 16.2749 20.548 16.3054L21.5459 17.3033C22.1317 17.8891 22.1317 18.8388 21.5459 19.4246L19.4246 21.5459C18.8388 22.1317 17.8891 22.1317 17.3033 21.5459L16.3054 20.548C16.2749 20.5176 16.2284 20.5101 16.1898 20.5291C15.8243 20.7086 15.4496 20.8633 15.0684 20.9931C15.0276 21.0069 15 21.0451 15 21.0882V22.5C15 23.3284 14.3284 24 13.5 24H10.5C9.67158 24 9 23.3284 9 22.5V21.0882C9 21.0451 8.97239 21.0069 8.93159 20.9931C8.55036 20.8633 8.17573 20.7086 7.81024 20.5291C7.77159 20.5101 7.72508 20.5176 7.69462 20.548L6.6967 21.5459C6.11091 22.1317 5.16117 22.1317 4.57538 21.5459L2.45406 19.4246C1.86827 18.8388 1.86827 17.8891 2.45406 17.3033L3.45198 16.3054C3.48244 16.2749 3.48992 16.2284 3.47093 16.1898C3.29136 15.8243 3.13669 15.4496 3.00693 15.0684C2.99305 15.0276 2.95486 15 2.91176 15H1.5C0.671573 15 0 14.3284 0 13.5V10.5C0 9.67158 0.671573 9 1.5 9H2.91176C2.95485 9 2.99304 8.97239 3.00693 8.93159C3.13669 8.55036 3.29135 8.17573 3.47093 7.81024C3.48992 7.77159 3.48244 7.72508 3.45198 7.69462L2.45406 6.6967C1.86827 6.11091 1.86827 5.16117 2.45406 4.57538L4.57538 2.45406C5.16117 1.86827 6.11091 1.86827 6.6967 2.45406L7.69462 3.45198C7.72508 3.48244 7.77159 3.48992 7.81024 3.47093C8.17573 3.29135 8.55036 3.13669 8.93159 3.00693C8.97239 2.99304 9 2.95485 9 2.91176V1.5ZM12 16C9.79086 16 8 14.2091 8 12C8 9.79086 9.79086 8 12 8C14.2091 8 16 9.79086 16 12C16 14.2091 14.2091 16 12 16ZM6.5 12C6.5 8.96243 8.96243 6.5 12 6.5C15.0376 6.5 17.5 8.96243 17.5 12C17.5 15.0376 15.0376 17.5 12 17.5C8.96243 17.5 6.5 15.0376 6.5 12Z" fill="#233564"/>
</svg>
