<svg width="26" height="26" viewBox="0 0 26 26" fill="none" xmlns="http://www.w3.org/2000/svg">
<path d="M8.9142 16.8284C13.2851 16.8284 16.8284 13.2851 16.8284 8.9142C16.8284 4.54331 13.2851 1 8.9142 1C4.54331 1 1 4.54331 1 8.9142C1 13.2851 4.54331 16.8284 8.9142 16.8284Z" stroke="#233564" stroke-width="1.5" stroke-miterlimit="10"/>
<path d="M14.5084 14.5078L15.689 15.6884" stroke="#233564" stroke-width="1.5" stroke-miterlimit="10"/>
<path d="M24.5779 24.4674L24.4749 24.5704C23.9121 25.1333 22.9923 25.1333 22.4294 24.5704L15.6409 17.7819C15.0781 17.2191 15.0781 16.2993 15.6409 15.7364L15.7439 15.6335C16.3067 15.0706 17.2265 15.0706 17.7894 15.6335L24.5779 22.422C25.1407 22.9917 25.1407 23.9046 24.5779 24.4674Z" stroke="#233564" stroke-width="1.5" stroke-miterlimit="10"/>
</svg>
