<svg width="28" height="28" viewBox="0 0 28 28" fill="none" xmlns="http://www.w3.org/2000/svg">
    <path d="M8.47776 14.1415L11.7509 6.1406C11.7509 6.1406 11.0981 1.86039 12.8792 1.44075C14.6602 1.02113 16.9823 3.81865 16.749 10.8964H24.3117C25.8131 10.8964 26.9601 12.2205 26.7456 13.7126L25.1976 24.4923C25.0204 25.7046 23.9854 26.5999 22.7637 26.5999H9.82989C9.08389 26.5999 8.47776 25.9937 8.47776 25.2477V14.1415Z" stroke="#F8F8F8" stroke-width="1.5" stroke-miterlimit="10" stroke-linejoin="round"/>
    <path d="M6.23039 26.5993H3.63801C2.39778 26.5993 1.4 25.5923 1.4 24.3613V15.7636C1.4 14.5233 2.4071 13.5256 3.63801 13.5256H6.23039C7.47062 13.5256 8.4684 14.5327 8.4684 15.7636V24.3613C8.47773 25.5923 7.47062 26.5993 6.23039 26.5993Z" stroke="#F8F8F8" stroke-width="1.5" stroke-miterlimit="10" stroke-linejoin="round"/>
</svg>
