<svg width="32" height="29" viewBox="0 0 32 29" fill="none" xmlns="http://www.w3.org/2000/svg">
<path d="M25.8009 8.77298C21.5818 7.87561 17.4274 6.9956 13.1897 6.09327C14.0097 7.51344 14.7889 8.8632 15.5343 10.1543C14.639 10.8668 13.7382 11.4886 12.9598 12.2275C10.8113 14.2661 9.70822 16.8278 9.3581 19.7451C9.051 22.3168 9.34461 24.8311 10.0549 27.3083C10.0746 27.383 10.1153 27.4534 10.1374 27.5189C10.2419 26.6292 10.2967 25.7212 10.465 24.8337C10.8943 22.5279 12.0812 20.6533 13.831 19.1032C15.3187 17.7904 17.0138 16.7961 18.7414 15.7361C19.663 17.3323 20.5676 18.8992 21.5231 20.5541C22.9637 16.5847 24.3702 12.7054 25.8009 8.77298Z" stroke="white" stroke-width="1.5" stroke-miterlimit="10" stroke-linejoin="round"/>
</svg>
