<svg width="30" height="30" viewBox="0 0 30 30" fill="none" xmlns="http://www.w3.org/2000/svg">
<path d="M15.2 28.9C22.7663 28.9 28.9 22.7663 28.9 15.2C28.9 7.6337 22.7663 1.5 15.2 1.5C7.6337 1.5 1.5 7.6337 1.5 15.2C1.5 22.7663 7.6337 28.9 15.2 28.9Z" stroke="#233564" stroke-width="1.5" stroke-miterlimit="10" stroke-linejoin="round"/>
<path d="M15.2001 9.5901C15.8186 9.5901 16.3201 9.08866 16.3201 8.4701C16.3201 7.85154 15.8186 7.3501 15.2001 7.3501C14.5815 7.3501 14.0801 7.85154 14.0801 8.4701C14.0801 9.08866 14.5815 9.5901 15.2001 9.5901Z" stroke="#233564" stroke-width="1.5" stroke-miterlimit="10" stroke-linejoin="round"/>
<path d="M15.2002 12.3V21.04" stroke="#233564" stroke-width="1.5" stroke-miterlimit="10" stroke-linejoin="round"/>
<path d="M18.2501 21.0901H12.1401" stroke="#233564" stroke-width="1.5" stroke-miterlimit="10" stroke-linejoin="round"/>
</svg>
