<svg width="57" height="93" viewBox="0 0 57 93" fill="none" xmlns="http://www.w3.org/2000/svg">
<path d="M51.9976 92.7103H5.00275C2.4014 92.7103 0.294434 90.6347 0.294434 88.0722V4.92815C0.294434 2.3656 2.4014 0.290039 5.00275 0.290039H51.9976C54.5989 0.290039 56.7059 2.3656 56.7059 4.92815V88.0722C56.7059 90.6347 54.5989 92.7103 51.9976 92.7103Z" fill="#22A186"/>
<path d="M49.3901 74.9346H8.79859C7.79219 74.9346 6.97412 75.7404 6.97412 76.7318V92.7102H51.2146V76.7318C51.2146 75.7404 50.3965 74.9346 49.3901 74.9346Z" fill="#F8F8F8"/>
<path d="M50.3024 42.5492H7.88636C7.38021 42.5492 6.97412 42.1491 6.97412 41.6505V37.6096C6.97412 37.111 7.38021 36.7109 7.88636 36.7109H50.3024C50.8085 36.7109 51.2146 37.111 51.2146 37.6096V41.6505C51.2146 42.1491 50.8026 42.5492 50.3024 42.5492Z" fill="#F8F8F8"/>
<path d="M28.3147 28.1591C28.2441 28.1591 28.2088 28.1359 28.1735 28.0779C27.8086 27.4807 27.4378 27.0401 27.067 26.4487C27.0494 26.4198 27.0317 26.3908 27.0023 26.3502C26.9493 26.4372 26.9023 26.5067 26.8611 26.5763C26.5197 27.1271 26.1784 27.5155 25.8429 28.0721C25.8076 28.1301 25.7487 28.1591 25.684 28.1591H24.9365C24.86 28.1591 24.8129 28.0721 24.8541 28.0083L26.4373 25.6023C26.4726 25.5501 26.4726 25.4805 26.4373 25.4226L24.9601 23.1731C24.9189 23.1093 24.966 23.0165 25.0425 23.0165H25.7958C25.8605 23.0165 25.8959 23.0397 25.9312 23.0919C26.2666 23.6369 26.6021 24.0253 26.9435 24.5703C26.9611 24.5993 26.9788 24.6283 27.0082 24.6689C27.0317 24.6341 27.0494 24.6051 27.067 24.5761C27.4084 24.0253 27.7498 23.6369 28.0852 23.0861C28.1146 23.0397 28.1617 23.0107 28.2206 23.0107C28.4619 23.0107 28.7091 23.0107 28.9621 23.0107C29.0504 23.0107 29.1034 23.1093 29.0563 23.1789L27.585 25.411C27.5438 25.4747 27.5438 25.5211 27.585 25.5849L29.1564 27.9735C29.2034 28.0431 29.1505 28.1301 29.0681 28.1301L28.3147 28.1591Z" fill="#F8F8F8"/>
<path d="M33.4996 28.1533H32.8699C32.7993 28.1533 32.7463 28.1011 32.7463 28.0315V27.6199C32.7169 27.6489 32.7051 27.6547 32.6933 27.6663C32.246 28.1881 31.6634 28.3446 31.0101 28.2229C30.1391 28.0663 29.4858 27.3242 29.4034 26.4546C29.3386 25.7473 29.5505 25.1443 30.0802 24.6573C30.7158 24.0775 31.734 23.9964 32.399 24.4776C32.5226 24.5645 32.6286 24.6805 32.7463 24.7906V24.35C32.7463 24.3094 32.7816 24.2689 32.8228 24.2689L33.4996 24.2631C33.5702 24.2631 33.5997 24.2805 33.5997 24.3558L33.5938 28.0605C33.5879 28.1127 33.5526 28.1533 33.4996 28.1533ZM30.245 26.2169C30.245 26.93 30.7747 27.4576 31.4927 27.4576C32.2107 27.4576 32.7463 26.9242 32.7463 26.2111C32.7463 25.498 32.2107 24.9704 31.4986 24.9704C30.7747 24.9646 30.2391 25.498 30.245 26.2169Z" fill="#F8F8F8"/>
<path d="M36.6307 28.3447C36.4836 28.739 36.2658 29.0868 35.9303 29.3593C35.6478 29.5854 35.3536 29.7188 34.9004 29.7188C34.7945 29.7188 34.7591 29.626 34.7886 29.5274L34.8533 29.3013C34.9063 29.1158 35.0534 28.9941 35.2182 28.8897C35.4183 28.768 35.5713 28.623 35.7067 28.3447C35.8774 27.9969 35.8126 28.1244 35.5537 27.4287L34.2059 24.3849C34.1824 24.327 34.2236 24.2632 34.2883 24.2632H34.9592C35.0358 24.2632 35.1005 24.3038 35.1299 24.3733C35.483 25.2314 35.842 26.0952 36.2011 26.9533C36.2187 26.9881 36.2305 27.0229 36.2599 27.0866C36.307 26.9591 36.3482 26.8547 36.3835 26.7504C36.666 25.9561 36.9544 25.156 37.2369 24.3617C37.2663 24.2806 37.3075 24.2574 37.4135 24.269L38.0314 24.2748C38.102 24.2748 38.1491 24.3444 38.1256 24.4081L36.6307 28.3447Z" fill="#F8F8F8"/>
<path d="M41.5452 28.153H42.1808C42.2514 28.153 42.3044 28.095 42.3044 28.0313C42.3044 27.8573 42.3044 27.6892 42.3044 27.5211C42.3044 26.8833 42.3044 26.2514 42.2926 25.6136C42.2867 25.2658 42.1749 24.9411 41.9454 24.6686C41.6511 24.315 41.2568 24.17 40.8036 24.1642C40.3151 24.1584 39.8972 24.3034 39.5971 24.7034C39.5912 24.7092 39.5794 24.715 39.5618 24.7266C39.5618 24.5933 39.5559 24.4715 39.5618 24.3498C39.5618 24.3034 39.5265 24.2628 39.4794 24.2628C39.2616 24.2686 39.0439 24.2628 38.832 24.2628C38.6495 24.2628 38.7025 24.2628 38.6966 24.686L38.6907 27.5616C38.6907 28.0081 38.6201 28.153 38.9085 28.153H39.4029C39.497 28.153 39.5677 28.0776 39.5677 27.9907V26.1296C39.5677 25.9789 39.5794 25.8282 39.6089 25.6832C39.6913 25.3006 39.9267 25.0455 40.3269 24.9759C40.4858 24.9469 40.6565 24.9527 40.8154 24.9759C40.9331 24.9991 41.0449 25.0397 41.1391 25.115C41.4039 25.318 41.4451 25.6252 41.4451 25.9209V28.0602C41.4569 28.1124 41.4981 28.153 41.5452 28.153Z" fill="#F8F8F8"/>
<path d="M18.2269 22.6338H15.4902C15.402 22.6338 15.3431 22.7323 15.3902 22.8077L16.685 24.8775C16.7262 24.947 16.8321 24.9528 16.8792 24.8833L18.3152 22.8135C18.3741 22.7323 18.3152 22.6338 18.2269 22.6338Z" fill="#F8F8F8"/>
<path d="M16.1142 25.8629L14.8194 23.799C14.7841 23.741 14.6899 23.7642 14.6899 23.8338V27.8051C14.6899 27.8747 14.7782 27.9037 14.8194 27.8457L16.1142 25.9847C16.1377 25.9499 16.1377 25.9035 16.1142 25.8629Z" fill="#F8F8F8"/>
<path d="M22.2997 22.6338H19.7631C19.7101 22.6338 19.6571 22.6628 19.6277 22.7034L17.4266 25.8689C17.3913 25.9211 17.3854 25.9906 17.4207 26.0486L19.922 30.0432C19.9691 30.1185 20.0691 30.1417 20.1456 30.1011L22.5998 28.7039C22.7882 28.5996 22.9059 28.4024 22.9059 28.1879V23.2367C22.9059 22.9005 22.6352 22.6338 22.2997 22.6338Z" fill="#F8F8F8"/>
<path d="M15.3959 28.924L18.6741 30.7908C18.7506 30.8314 18.8448 30.8314 18.9154 30.7908L19.0625 30.7096C19.0978 30.6922 19.1096 30.6459 19.0861 30.6111L16.7908 26.9528C16.7613 26.9064 16.6966 26.9064 16.6672 26.9528L15.3665 28.8254C15.3489 28.8602 15.3606 28.9066 15.3959 28.924Z" fill="#F8F8F8"/>
</svg>
