<svg width="24" height="24" viewBox="0 0 24 24" fill="none" xmlns="http://www.w3.org/2000/svg">
    <path fill-rule="evenodd" clip-rule="evenodd"
        d="M10.4754 2.63025C11.153 1.45659 12.847 1.45658 13.5246 2.63025L23.7615 20.361C24.4391 21.5347 23.5921 23.0018 22.2369 23.0018H1.76313C0.407896 23.0018 -0.439129 21.5347 0.238489 20.361L10.4754 2.63025ZM12.2178 3.38475C12.121 3.21709 11.879 3.21708 11.7822 3.38475L1.54532 21.1155C1.44852 21.2832 1.56952 21.4928 1.76313 21.4928H22.2369C22.4305 21.4928 22.5515 21.2832 22.4547 21.1155L12.2178 3.38475ZM11.25 8.25C11.25 7.83579 11.5858 7.5 12 7.5C12.4142 7.5 12.75 7.83579 12.75 8.25V15.25C12.75 15.6642 12.4142 16 12 16C11.5858 16 11.25 15.6642 11.25 15.25V8.25ZM12 17.25C11.4477 17.25 11 17.6977 11 18.25C11 18.8023 11.4477 19.25 12 19.25C12.5523 19.25 13 18.8023 13 18.25C13 17.6977 12.5523 17.25 12 17.25Z"
        fill="#233564" />
</svg>
