<svg width="24" height="24" viewBox="0 0 24 24" fill="none" xmlns="http://www.w3.org/2000/svg">
<path fill-rule="evenodd" clip-rule="evenodd" d="M22.5 12C22.5 17.799 17.799 22.5 12 22.5C9.37296 22.5 6.97125 21.5352 5.12985 19.9407L19.9407 5.12985C21.5352 6.97125 22.5 9.37296 22.5 12ZM4.06849 18.8807L18.8807 4.06849C17.038 2.46846 14.6321 1.5 12 1.5C6.20101 1.5 1.5 6.20101 1.5 12C1.5 14.6321 2.46846 17.038 4.06849 18.8807ZM24 12C24 18.6274 18.6274 24 12 24C5.37258 24 0 18.6274 0 12C0 5.37258 5.37258 0 12 0C18.6274 0 24 5.37258 24 12Z" fill="#0F1A18"/>
</svg>
