<svg width="24" height="24" viewBox="0 0 24 24" fill="none" xmlns="http://www.w3.org/2000/svg">
    <path fill-rule="evenodd" clip-rule="evenodd"
        d="M19.9844 2.91635C19.8263 1.44857 18.4888 0.270884 16.9087 0.625342C16.201 0.784102 15.4037 1.01143 14.7804 1.33382C14.0096 1.73252 13.1845 2.32953 12.5706 2.80801C12.2668 3.04474 12.0067 3.25885 11.8196 3.41633C11.8101 3.41374 11.8004 3.41113 11.7905 3.40848C11.5139 3.3342 11.1158 3.23641 10.6189 3.13901C9.6266 2.94446 8.23348 2.75 6.625 2.75C4.94627 2.75 3.50197 2.96182 2.50287 3.16458C1.2672 3.41536 0.5 4.51904 0.5 5.69673V18.4851C0.5 20.3735 2.32673 21.6566 4.05204 21.4243C4.79916 21.3238 5.67225 21.25 6.625 21.25C8.10796 21.25 9.14545 21.4286 9.93465 21.6066C10.1346 21.6517 10.3198 21.6971 10.4973 21.7408L10.5516 21.7543C10.7079 21.7929 10.8618 21.8309 11.0075 21.8641C11.3286 21.9372 11.6629 22 12 22C12.3454 22 12.654 21.9344 12.9449 21.8585C13.0772 21.824 13.1926 21.7915 13.3093 21.7586C13.4811 21.7101 13.6559 21.6609 13.8905 21.6036C14.5994 21.4308 15.6334 21.25 17.375 21.25C18.2814 21.25 19.0653 21.299 19.7276 21.3708C20.6535 21.4713 21.5809 21.1605 22.2762 20.6141C22.9737 20.066 23.5 19.2277 23.5 18.2343V5.69672C23.5 4.51904 22.7328 3.41536 21.4971 3.16458C21.0691 3.07771 20.5593 2.98918 19.9844 2.91635ZM20 4.4314V15.7862C20 17.1523 19.0093 18.2607 17.7567 18.5771C16.9445 18.7822 16.0755 19.0621 15.5043 19.397C15.2525 19.5446 14.9869 19.7238 14.7211 19.9179C15.4088 19.8192 16.2665 19.75 17.375 19.75C18.3356 19.75 19.1735 19.8019 19.8893 19.8796C20.3863 19.9335 20.9297 19.7645 21.3494 19.4347C21.767 19.1065 22 18.6723 22 18.2343V5.69672C22 5.14765 21.6554 4.72728 21.1988 4.63462C20.8536 4.56455 20.4505 4.49326 20 4.4314ZM12.75 19.5655C13.334 19.0725 14.0615 18.5041 14.7457 18.103C15.5107 17.6545 16.5543 17.3336 17.3894 17.1227C18.0492 16.9561 18.5 16.3926 18.5 15.7862V3.20739C18.5 2.44115 17.8611 1.94897 17.2371 2.08896C16.565 2.23974 15.9187 2.43383 15.4696 2.66614C14.8247 2.99968 14.0873 3.52767 13.4927 3.99113C13.1996 4.2195 12.9493 4.42585 12.7726 4.57483C12.7649 4.5813 12.7574 4.58765 12.75 4.59389V4.81745V6V19.5655ZM6.625 4.25C5.06905 4.25 3.72704 4.44672 2.80121 4.63462C2.34462 4.72728 2 5.14765 2 5.69673V18.4851C2 19.3212 2.87714 20.0689 3.85195 19.9377C4.65515 19.8296 5.59573 19.75 6.625 19.75C8.24111 19.75 9.39112 19.9464 10.2647 20.1434C10.4804 20.192 10.678 20.2404 10.8567 20.2845L10.9102 20.2978L10.9113 20.298C11.0338 20.3283 11.1451 20.3558 11.25 20.3805V4.81745C11.0142 4.7571 10.7036 4.68417 10.3304 4.61099C9.40996 4.43054 8.11559 4.25 6.625 4.25Z"
        fill="#233564" />
</svg>
