<svg width="24" height="24" viewBox="0 0 24 24" fill="none" xmlns="http://www.w3.org/2000/svg">
<path d="M17.2709 7.68128L17.2411 7.67669C17.2594 7.56175 17.2709 7.44682 17.2709 7.3273C17.2709 6.11593 16.2903 5.13672 15.0823 5.13672" stroke="#0F1A18" stroke-miterlimit="10"/>
<path d="M19.4045 11.7636C19.6962 11.343 19.8684 10.8327 19.8684 10.2833C19.8684 8.84669 18.7064 7.68359 17.271 7.68359" stroke="#0F1A18" stroke-miterlimit="10"/>
<path d="M19.1472 17.0896C19.1472 17.0896 19.68 16.7494 20.1118 16.4758C20.8031 16.0092 21.2578 15.2185 21.2578 14.3197C21.2578 13.2141 20.5665 12.2671 19.5928 11.8924L19.4044 11.7637" stroke="#0F1A18" stroke-miterlimit="10"/>
<path d="M12.8936 2.87891V20.8633C12.8936 22.0746 13.8742 23.0538 15.0822 23.0538C16.2925 23.0538 17.2708 22.0723 17.2708 20.8633C17.2708 20.7046 17.2548 20.5529 17.2226 20.4035" stroke="#0F1A18" stroke-miterlimit="10"/>
<path d="M16.0101 13.375C15.0456 13.375 14.2625 14.1588 14.2625 15.1242C14.2625 16.0897 15.0456 16.8735 16.0101 16.8735H18.309C19.2736 16.8735 20.0567 17.6573 20.0567 18.6227C20.0567 19.5881 19.2736 20.372 18.309 20.372H15.4061" stroke="#0F1A18" stroke-miterlimit="10"/>
<path d="M17.2709 7.68164C16.3063 7.68164 15.5232 8.46547 15.5232 9.43088C15.5232 10.3963 16.3063 11.1801 17.2709 11.1801" stroke="#0F1A18" stroke-miterlimit="10"/>
<path d="M15.0454 20.6906C15.2484 20.6906 15.4129 20.526 15.4129 20.3229C15.4129 20.1197 15.2484 19.9551 15.0454 19.9551C14.8425 19.9551 14.678 20.1197 14.678 20.3229C14.678 20.526 14.8425 20.6906 15.0454 20.6906Z" stroke="#0F1A18" stroke-miterlimit="10"/>
<path d="M12.8936 3.05392C13.0965 3.05392 13.261 2.88926 13.261 2.68614C13.261 2.48302 13.0965 2.31836 12.8936 2.31836C12.6906 2.31836 12.5261 2.48302 12.5261 2.68614C12.5261 2.88926 12.6906 3.05392 12.8936 3.05392Z" stroke="#0F1A18" stroke-miterlimit="10"/>
<path d="M16.1778 13.7434C16.3807 13.7434 16.5452 13.5787 16.5452 13.3756C16.5452 13.1725 16.3807 13.0078 16.1778 13.0078C15.9748 13.0078 15.8103 13.1725 15.8103 13.3756C15.8103 13.5787 15.9748 13.7434 16.1778 13.7434Z" stroke="#0F1A18" stroke-miterlimit="10"/>
<path d="M19.3631 12.132C19.566 12.132 19.7305 11.9674 19.7305 11.7643C19.7305 11.5611 19.566 11.3965 19.3631 11.3965C19.1601 11.3965 18.9956 11.5611 18.9956 11.7643C18.9956 11.9674 19.1601 12.132 19.3631 12.132Z" stroke="#0F1A18" stroke-miterlimit="10"/>
<path d="M17.2708 11.5481C17.4737 11.5481 17.6382 11.3834 17.6382 11.1803C17.6382 10.9772 17.4737 10.8125 17.2708 10.8125C17.0678 10.8125 16.9033 10.9772 16.9033 11.1803C16.9033 11.3834 17.0678 11.5481 17.2708 11.5481Z" stroke="#0F1A18" stroke-miterlimit="10"/>
<path d="M14.7149 5.40352C14.9178 5.40352 15.0823 5.23886 15.0823 5.03575C15.0823 4.83263 14.9178 4.66797 14.7149 4.66797C14.5119 4.66797 14.3474 4.83263 14.3474 5.03575C14.3474 5.23886 14.5119 5.40352 14.7149 5.40352Z" stroke="#0F1A18" stroke-miterlimit="10"/>
<path d="M9.17326 5.13672C7.96296 5.13672 6.98462 6.11823 6.98462 7.3273C6.98462 7.44682 6.9961 7.56405 7.01447 7.67669L6.98462 7.68128" stroke="#0F1A18" stroke-miterlimit="10"/>
<path d="M6.9844 7.68164C5.54903 7.68164 4.38696 8.84474 4.38696 10.2814C4.38696 10.833 4.55921 11.341 4.85087 11.7617" stroke="#0F1A18" stroke-miterlimit="10"/>
<path d="M4.85104 11.7637L4.66502 11.8924C3.69127 12.2671 3 13.2118 3 14.3197C3 15.2162 3.45472 16.0069 4.14599 16.4758C4.57775 16.7494 5.11056 17.0896 5.11056 17.0896" stroke="#0F1A18" stroke-miterlimit="10"/>
<path d="M7.03285 20.4035C7.00069 20.5506 6.98462 20.7047 6.98462 20.8633C6.98462 22.0746 7.96526 23.0538 9.17326 23.0538C10.3836 23.0538 11.3619 22.0723 11.3619 20.8633V1.56641" stroke="#0F1A18" stroke-miterlimit="10"/>
<path d="M8.8515 20.372H5.94863C4.98406 20.372 4.20093 19.5881 4.20093 18.6227C4.20093 17.6573 4.98406 16.8735 5.94863 16.8735H8.2475C9.21207 16.8735 9.9952 16.0897 9.9952 15.1242C9.9952 14.1588 9.21207 13.375 8.2475 13.375" stroke="#0F1A18" stroke-miterlimit="10"/>
<path d="M6.98462 11.1801C7.94918 11.1801 8.73232 10.3963 8.73232 9.43088C8.73232 8.46547 7.94918 7.68164 6.98462 7.68164" stroke="#0F1A18" stroke-miterlimit="10"/>
<path d="M9.21218 20.6906C9.41512 20.6906 9.57963 20.526 9.57963 20.3229C9.57963 20.1197 9.41512 19.9551 9.21218 19.9551C9.00924 19.9551 8.84473 20.1197 8.84473 20.3229C8.84473 20.526 9.00924 20.6906 9.21218 20.6906Z" stroke="#0F1A18" stroke-miterlimit="10"/>
<path d="M8.0801 13.7434C8.28304 13.7434 8.44755 13.5787 8.44755 13.3756C8.44755 13.1725 8.28304 13.0078 8.0801 13.0078C7.87716 13.0078 7.71265 13.1725 7.71265 13.3756C7.71265 13.5787 7.87716 13.7434 8.0801 13.7434Z" stroke="#0F1A18" stroke-miterlimit="10"/>
<path d="M11.364 1.93477C11.567 1.93477 11.7315 1.77012 11.7315 1.567C11.7315 1.36388 11.567 1.19922 11.364 1.19922C11.1611 1.19922 10.9966 1.36388 10.9966 1.567C10.9966 1.77012 11.1611 1.93477 11.364 1.93477Z" stroke="#0F1A18" stroke-miterlimit="10"/>
<path d="M4.89236 12.132C5.09529 12.132 5.25981 11.9674 5.25981 11.7643C5.25981 11.5611 5.09529 11.3965 4.89236 11.3965C4.68942 11.3965 4.5249 11.5611 4.5249 11.7643C4.5249 11.9674 4.68942 12.132 4.89236 12.132Z" stroke="#0F1A18" stroke-miterlimit="10"/>
<path d="M6.98464 11.5481C7.18758 11.5481 7.35209 11.3834 7.35209 11.1803C7.35209 10.9772 7.18758 10.8125 6.98464 10.8125C6.7817 10.8125 6.61719 10.9772 6.61719 11.1803C6.61719 11.3834 6.7817 11.5481 6.98464 11.5481Z" stroke="#0F1A18" stroke-miterlimit="10"/>
<path d="M9.54299 5.40352C9.74593 5.40352 9.91044 5.23886 9.91044 5.03575C9.91044 4.83263 9.74593 4.66797 9.54299 4.66797C9.34005 4.66797 9.17554 4.83263 9.17554 5.03575C9.17554 5.23886 9.34005 5.40352 9.54299 5.40352Z" stroke="#0F1A18" stroke-miterlimit="10"/>
</svg>
