<svg width="24" height="24" viewBox="0 0 24 24" fill="none" xmlns="http://www.w3.org/2000/svg">
    <path fill-rule="evenodd" clip-rule="evenodd"
        d="M2.88906 11.8536C3.18195 11.5607 3.18195 11.0858 2.88906 10.7929C2.59617 10.5 2.1213 10.5 1.8284 10.7929C1.53551 11.0858 1.53551 11.5607 1.8284 11.8536C2.1213 12.1465 2.59617 12.1465 2.88906 11.8536ZM4.06387 9.8551C4.02763 9.8131 3.98958 9.77211 3.94972 9.73226C3.07104 8.85358 1.64642 8.85358 0.767745 9.73226C-0.110933 10.6109 -0.110933 12.0356 0.767745 12.9142C1.64642 13.7929 3.07104 13.7929 3.94972 12.9142C4.40691 12.457 4.62621 11.8521 4.60764 11.2531L5.64413 10.85C5.83531 11.4104 6.15439 11.9369 6.60137 12.3838C6.72112 12.5036 6.84656 12.6142 6.97684 12.7155L5.18723 14.5052L6.2478 15.5657L6.07105 15.7425C5.38764 16.4259 5.38764 17.5339 6.07105 18.2174L6.4246 18.5709C6.7175 18.8638 7.19237 18.8638 7.48526 18.5709C7.77815 18.278 7.77816 17.8031 7.48526 17.5102L7.13171 17.1567C7.03408 17.0591 7.03408 16.9008 7.13171 16.8031L7.30846 16.6264L9.07632 18.3943L8.72272 18.7479C8.03931 19.4313 8.03931 20.5393 8.72272 21.2227L9.07628 21.5763C9.36917 21.8692 9.84404 21.8692 10.1369 21.5763C10.4298 21.2834 10.4298 20.8085 10.1369 20.5156L9.78338 20.1621C9.68575 20.0644 9.68575 19.9061 9.78338 19.8085L10.137 19.4549L10.4905 19.8084C10.9864 20.3043 11.5425 20.7033 12.1352 21.0055C11.5776 21.6928 11.6187 22.7042 12.2582 23.3438L12.6118 23.6974C12.9047 23.9903 13.3796 23.9903 13.6725 23.6974C13.9654 23.4045 13.9653 22.9296 13.6725 22.6367L13.3189 22.2832C13.2213 22.1855 13.2213 22.0272 13.3189 21.9296L13.6878 21.5607C15.7803 22.0198 18.0556 21.4357 19.6829 19.8084C21.3101 18.1812 21.8942 15.9059 21.4352 13.8134L21.8041 13.4445C21.9018 13.3469 22.06 13.3469 22.1577 13.4445L22.5112 13.7981C22.8041 14.091 23.279 14.091 23.5719 13.7981C23.8648 13.5052 23.8648 13.0303 23.5719 12.7374L23.2183 12.3839C22.5787 11.7443 21.5672 11.7032 20.8799 12.2608C20.5778 11.6681 20.1788 11.112 19.6829 10.6161L19.3293 10.2625L19.6828 9.90887C19.7805 9.81124 19.9388 9.81124 20.0364 9.90887L20.3899 10.2624C20.6828 10.5553 21.1577 10.5553 21.4506 10.2624C21.7435 9.96953 21.7435 9.49466 21.4506 9.20176L21.0971 8.84821C20.4136 8.1648 19.3056 8.1648 18.6222 8.84821L18.2686 9.2018L16.5008 7.43402L16.6776 7.25726C16.7752 7.15963 16.9335 7.15963 17.0311 7.25726L17.3847 7.61081C17.6776 7.90371 18.1525 7.9037 18.4454 7.61081C18.7382 7.31792 18.7382 6.84305 18.4454 6.55015L18.0918 6.1966C17.4084 5.51319 16.3004 5.51319 15.6169 6.1966L15.4402 6.37337L14.3796 5.31279L12.5899 7.10247C12.4885 6.97219 12.378 6.84674 12.2582 6.727C11.8113 6.28005 11.2849 5.96099 10.7245 5.7698L11.1276 4.73329C11.7265 4.75182 12.3314 4.53251 12.7886 4.07536C13.6673 3.19668 13.6673 1.77207 12.7886 0.893388C11.9099 0.0147105 10.4853 0.0147102 9.60661 0.893388C8.72793 1.77207 8.72793 3.19668 9.60661 4.07536C9.64651 4.11526 9.68753 4.15334 9.72957 4.18961L9.19577 5.56224C8.25143 5.61724 7.32287 6.0055 6.60137 6.727C5.8799 7.44846 5.49165 8.37696 5.43662 9.32125L4.06387 9.8551ZM11.5158 8.17661C11.4247 8.03917 11.3186 7.90875 11.1976 7.78766C10.2212 6.81135 8.63834 6.81135 7.66203 7.78766C6.68572 8.76397 6.68572 10.3469 7.66203 11.3232C7.78312 11.4443 7.91354 11.5503 8.05098 11.6414L11.5158 8.17661ZM11.7279 3.0147C12.0208 2.72181 12.0208 2.24694 11.7279 1.95405C11.435 1.66115 10.9602 1.66115 10.6673 1.95405C10.3744 2.24694 10.3744 2.72181 10.6673 3.0147C10.9602 3.3076 11.435 3.3076 11.7279 3.0147ZM7.30854 14.5052L10.3136 11.5L15.4403 16.6267C15.7331 16.9195 16.208 16.9195 16.5009 16.6267C16.7938 16.3338 16.7938 15.8589 16.5009 15.566L11.3743 10.4394L14.3796 7.4341L18.6222 11.6767C20.5748 13.6294 20.5748 16.7952 18.6222 18.7478C16.6696 20.7004 13.5038 20.7004 11.5512 18.7478L7.30854 14.5052Z"
        fill="#233564" />
</svg>
