<svg width="24" height="24" viewBox="0 0 24 24" fill="none" xmlns="http://www.w3.org/2000/svg">
    <path fill-rule="evenodd" clip-rule="evenodd"
        d="M16.5 3H7.5C7.22386 3 7 3.22386 7 3.5V20.5C7 20.7761 7.22386 21 7.5 21H16.5C16.7761 21 17 20.7761 17 20.5V3.5C17 3.22386 16.7761 3 16.5 3ZM7.5 1.5C6.39543 1.5 5.5 2.39543 5.5 3.5V20.5C5.5 21.6046 6.39543 22.5 7.5 22.5H16.5C17.6046 22.5 18.5 21.6046 18.5 20.5V3.5C18.5 2.39543 17.6046 1.5 16.5 1.5H7.5ZM4 3.5H2.5C1.39543 3.5 0.5 4.39543 0.5 5.5V18.5C0.5 19.6046 1.39543 20.5 2.5 20.5H4V19H2.5C2.22386 19 2 18.7761 2 18.5V5.5C2 5.22386 2.22386 5 2.5 5H4V3.5ZM21.5 20.5H20V19H21.5C21.7761 19 22 18.7761 22 18.5V5.5C22 5.22386 21.7761 5 21.5 5H20V3.5H21.5C22.6046 3.5 23.5 4.39543 23.5 5.5V18.5C23.5 19.6046 22.6046 20.5 21.5 20.5Z"
        fill="#233564" />
</svg>
