<svg width="24" height="24" viewBox="0 0 24 24" fill="none" xmlns="http://www.w3.org/2000/svg">
    <path fill-rule="evenodd" clip-rule="evenodd"
        d="M1.5 12C1.5 17.799 6.20101 22.5 12 22.5C17.799 22.5 22.5 17.799 22.5 12C22.5 6.20101 17.799 1.5 12 1.5C6.20101 1.5 1.5 6.20101 1.5 12ZM12 0C5.37258 0 0 5.37258 0 12C0 18.6274 5.37258 24 12 24C18.6274 24 24 18.6274 24 12C24 5.37258 18.6274 0 12 0ZM11.25 5.75C11.25 5.33579 11.5858 5 12 5C12.4142 5 12.75 5.33579 12.75 5.75V11.5678L15.4056 13.101C15.7643 13.3081 15.8872 13.7668 15.6801 14.1255C15.473 14.4842 15.0143 14.6071 14.6556 14.4L11.6245 12.65C11.3744 12.5056 11.2389 12.2389 11.25 11.9691V5.75Z"
        fill="#233564" />
</svg>
