<svg width="24" height="24" viewBox="0 0 24 24" fill="none" xmlns="http://www.w3.org/2000/svg">
    <path fill-rule="evenodd" clip-rule="evenodd"
        d="M19 5H4.5C4.22386 5 4 5.22386 4 5.5V15.5C4 15.7761 4.22386 16 4.5 16H12V17.5H4.5C3.39543 17.5 2.5 16.6046 2.5 15.5V5.5C2.5 4.39543 3.39543 3.5 4.5 3.5H19C20.1046 3.5 21 4.39543 21 5.5V6.5H19.5V5.5C19.5 5.22386 19.2761 5 19 5ZM8.25 20.5H12V19H8.25C7.83579 19 7.5 19.3358 7.5 19.75C7.5 20.1642 7.83579 20.5 8.25 20.5ZM20.5 9.5H15.5C15.2239 9.5 15 9.72386 15 10V20C15 20.2761 15.2239 20.5 15.5 20.5H20.5C20.7761 20.5 21 20.2761 21 20V10C21 9.72386 20.7761 9.5 20.5 9.5ZM15.5 8C14.3954 8 13.5 8.89543 13.5 10V20C13.5 21.1046 14.3954 22 15.5 22H20.5C21.6046 22 22.5 21.1046 22.5 20V10C22.5 8.89543 21.6046 8 20.5 8H15.5ZM17.75 17.5C17.3358 17.5 17 17.8358 17 18.25C17 18.6642 17.3358 19 17.75 19H18.25C18.6642 19 19 18.6642 19 18.25C19 17.8358 18.6642 17.5 18.25 17.5H17.75Z"
        fill="#233564" />
</svg>
