<svg width="24" height="24" viewBox="0 0 24 24" fill="none" xmlns="http://www.w3.org/2000/svg">
<path fill-rule="evenodd" clip-rule="evenodd" d="M3.87646 4.83992L2.39382 8.25H5.73651L3.87646 4.83992ZM6.48481 9.75H2.78829L10.0642 19.0564L6.48481 9.75ZM11.9999 19.9108L8.09194 9.75H15.9079L11.9999 19.9108ZM8.64598 8.25L11.9999 4.39297L15.3539 8.25H8.64598ZM10.3538 4H5.12696L7.14179 7.69386L10.3538 4ZM16.8581 7.69386L13.646 4H18.8729L16.8581 7.69386ZM18.2633 8.25L20.1234 4.83995L21.606 8.25H18.2633ZM17.515 9.75L13.9357 19.0563L21.2115 9.75H17.515ZM4.73338 2.5C3.8376 2.5 3.02715 3.03137 2.66997 3.85287L0.918059 7.88227C0.589039 8.63902 0.700657 9.51515 1.2089 10.1652L10.2273 21.7004C11.1282 22.8527 12.8716 22.8527 13.7725 21.7005L22.7909 10.1652C23.2992 9.51515 23.4108 8.63902 23.0818 7.88227L21.3298 3.85287C20.9727 3.03137 20.1622 2.5 19.2664 2.5H4.73338Z" fill="#0F1A18"/>
</svg>
