<svg width="24" height="24" viewBox="0 0 24 24" fill="none" xmlns="http://www.w3.org/2000/svg">
    <path fill-rule="evenodd" clip-rule="evenodd"
        d="M11.25 2.25C11.25 1.83579 11.5858 1.5 12 1.5C12.4142 1.5 12.75 1.83579 12.75 2.25V17.02L19.0565 12.3952C19.3905 12.1503 19.8598 12.2225 20.1048 12.5565C20.3497 12.8906 20.2775 13.3599 19.9435 13.6049L13.0349 18.6712C12.4189 19.1229 11.5811 19.1229 10.9651 18.6712L4.05647 13.6049C3.72244 13.3599 3.65023 12.8906 3.89519 12.5565C4.14014 12.2225 4.60949 12.1503 4.94351 12.3952L11.25 17.02V2.25ZM6 21.75C6 21.3358 6.33579 21 6.75 21H17.25C17.6642 21 18 21.3358 18 21.75C18 22.1642 17.6642 22.5 17.25 22.5H6.75C6.33579 22.5 6 22.1642 6 21.75Z"
        fill="#233564" />
</svg>
