<svg width="24" height="24" viewBox="0 0 24 24" fill="none" xmlns="http://www.w3.org/2000/svg">
    <path fill-rule="evenodd" clip-rule="evenodd"
        d="M7 5C7 5.82843 6.32843 6.5 5.5 6.5C4.67157 6.5 4 5.82843 4 5C4 4.17157 4.67157 3.5 5.5 3.5C6.32843 3.5 7 4.17157 7 5ZM8.40549 5.75C8.07246 7.04392 6.89788 8 5.5 8C4.10212 8 2.92755 7.04392 2.59451 5.75H1.25C0.835786 5.75 0.5 5.41421 0.5 5C0.5 4.58579 0.835786 4.25 1.25 4.25H2.59451C2.92755 2.95608 4.10212 2 5.5 2C6.89788 2 8.07245 2.95608 8.40549 4.25H22.75C23.1642 4.25 23.5 4.58579 23.5 5C23.5 5.41421 23.1642 5.75 22.75 5.75H8.40549ZM12 19C12 19.8284 11.3284 20.5 10.5 20.5C9.67157 20.5 9 19.8284 9 19C9 18.1716 9.67157 17.5 10.5 17.5C11.3284 17.5 12 18.1716 12 19ZM13.4055 19.75C13.0725 21.0439 11.8979 22 10.5 22C9.10212 22 7.92755 21.0439 7.59451 19.75H1.25C0.835786 19.75 0.5 19.4142 0.5 19C0.5 18.5858 0.835786 18.25 1.25 18.25H7.59451C7.92755 16.9561 9.10212 16 10.5 16C11.8979 16 13.0725 16.9561 13.4055 18.25H22.75C23.1642 18.25 23.5 18.5858 23.5 19C23.5 19.4142 23.1642 19.75 22.75 19.75H13.4055ZM18.5 13.5C19.3284 13.5 20 12.8284 20 12C20 11.1716 19.3284 10.5 18.5 10.5C17.6716 10.5 17 11.1716 17 12C17 12.8284 17.6716 13.5 18.5 13.5ZM18.5 15C19.8979 15 21.0725 14.0439 21.4055 12.75H22.75C23.1642 12.75 23.5 12.4142 23.5 12C23.5 11.5858 23.1642 11.25 22.75 11.25H21.4055C21.0725 9.95608 19.8979 9 18.5 9C17.1021 9 15.9275 9.95608 15.5945 11.25H1.25C0.835786 11.25 0.5 11.5858 0.5 12C0.5 12.4142 0.835786 12.75 1.25 12.75H15.5945C15.9275 14.0439 17.1021 15 18.5 15Z"
        fill="#233564" />
</svg>
