<svg width="24" height="24" viewBox="0 0 24 24" fill="none" xmlns="http://www.w3.org/2000/svg">
    <path
        d="M1 18.5L5.104 7.59395H6.985L11.032 18.5H9.208L8.125 15.403H3.964L2.824 18.5H1ZM6.586 10.976C6.52267 10.7986 6.453 10.615 6.377 10.425C6.31367 10.2223 6.25033 10.0196 6.187 9.81695C6.13633 9.61429 6.08567 9.41162 6.035 9.20895C5.98433 9.41162 5.92733 9.61429 5.864 9.81695C5.81333 10.007 5.75633 10.2033 5.693 10.406C5.62967 10.596 5.56 10.7923 5.484 10.995L4.42 14.016H7.631L6.586 10.976Z"
        fill="#0F1A18" />
    <path
        d="M21.3931 18.5L19.7591 14.301H14.3821L12.7671 18.5H11.0381L16.3391 4.87695H17.8781L23.1601 18.5H21.3931ZM17.7261 8.67695C17.6881 8.57562 17.6248 8.39195 17.5361 8.12595C17.4474 7.85995 17.3588 7.58762 17.2701 7.30895C17.1941 7.01762 17.1308 6.79595 17.0801 6.64395C17.0168 6.89729 16.9471 7.15695 16.8711 7.42295C16.8078 7.67629 16.7381 7.91062 16.6621 8.12595C16.5988 8.34129 16.5418 8.52495 16.4911 8.67695L14.9521 12.781H19.2461L17.7261 8.67695Z"
        fill="#0F1A18" />
</svg>
