<svg width="24" height="24" viewBox="0 0 24 24" fill="none" xmlns="http://www.w3.org/2000/svg">
<path fill-rule="evenodd" clip-rule="evenodd" d="M1.90322 13.2139C2.30284 13.6135 2.91236 13.6898 3.39211 13.424L4.11578 20.4796C4.23349 21.6273 5.20027 22.5 6.35403 22.5H8.99999H10.5V18C10.5 17.1716 11.1716 16.5 12 16.5C12.8284 16.5 13.5 17.1716 13.5 18V22.5H15H17.646C18.7997 22.5 19.7665 21.6273 19.8842 20.4796L20.6079 13.424C21.0877 13.6898 21.6972 13.6135 22.0968 13.2139L23.1641 12.1466C23.6645 11.6462 23.6501 10.8306 23.1323 10.3482L14.2156 2.0394C12.9675 0.87637 11.0325 0.876373 9.78439 2.0394L0.867639 10.3482C0.34992 10.8306 0.335523 11.6462 0.835901 12.1466L1.90322 13.2139Z" fill="#0F1A18"/>
</svg>
