<svg width="24" height="24" viewBox="0 0 24 24" fill="none" xmlns="http://www.w3.org/2000/svg">
    <path fill-rule="evenodd" clip-rule="evenodd"
        d="M10.8464 1.5C12.5147 1.5 13.9313 2.72194 14.176 4.37215L14.6867 7.81474C14.7231 8.05987 14.9335 8.24138 15.1813 8.24138H19.5776C21.1127 8.24138 22.2851 9.61198 22.0474 11.1285L20.8974 18.4646C20.6686 19.9243 19.4111 21 17.9336 21H7.5C7.22386 21 7 20.7761 7 20.5V11.1895C7 11.0848 7.08484 11 7.18949 11C7.26718 11 7.33699 10.9526 7.36563 10.8804L9.42953 5.67764C9.47609 5.56027 9.5 5.43516 9.5 5.3089V2.84642C9.5 2.10281 10.1028 1.5 10.8464 1.5ZM3.5 11C2.39543 11 1.5 11.8954 1.5 13V19C1.5 20.1046 2.39543 21 3.5 21H5C5.27614 21 5.5 20.7761 5.5 20.5V11.5C5.5 11.2239 5.27614 11 5 11H3.5Z"
        fill="#233564" />
</svg>
