<svg width="25" height="25" viewBox="0 0 25 25" fill="none" xmlns="http://www.w3.org/2000/svg">
<path fill-rule="evenodd" clip-rule="evenodd" d="M9.57491 3.2842C9.78367 3.09609 10.0836 3.0485 10.3403 3.16275C10.5971 3.27701 10.7625 3.53168 10.7625 3.81269L10.7625 7.56112C10.8637 7.5744 10.9657 7.58755 11.0682 7.60077C11.7964 7.69471 12.5511 7.79206 13.2595 7.96224C16.1305 8.65127 18.3473 10.3158 20.0697 12.6146C21.5806 14.6335 22.55 16.8872 23.1493 19.2888C23.1726 19.3773 23.1815 19.4568 23.1857 19.4944L23.1885 19.5204L23.1906 19.5396L23.191 19.5422C23.2524 19.8661 23.0831 20.1902 22.7814 20.3246C22.4775 20.4599 22.1204 20.3666 21.9216 20.0998C21.7513 19.8712 21.5921 19.6495 21.437 19.4334C21.1078 18.975 20.7973 18.5424 20.4382 18.1255L20.4366 18.1237C19.1349 16.6022 17.4545 15.7124 15.4517 15.3034C13.9381 14.9976 12.4087 14.9482 10.7751 14.9068L10.7751 19.3591C10.7751 19.6357 10.6148 19.8872 10.3641 20.004C10.1134 20.1208 9.81767 20.0816 9.60596 19.9037L7.63812 18.2492L7.6377 18.2488C5.30537 16.2879 3.00049 14.3499 0.668612 12.3927C0.51089 12.2604 0.418268 12.0661 0.414674 11.8603C0.411081 11.6544 0.496871 11.4571 0.649876 11.3192C1.95678 10.1422 3.25477 8.97403 4.55266 7.80595L4.5527 7.80591L4.55604 7.8029C6.22295 6.30271 7.8897 4.80266 9.57491 3.2842ZM15.7353 13.9092C17.5668 14.2831 19.2127 15.0281 20.5892 16.2513C20.135 15.2745 19.5871 14.3443 18.9306 13.4671C17.3708 11.3855 15.4214 9.94428 12.9273 9.34569C12.2951 9.1938 11.6656 9.11287 10.9771 9.02436L10.9771 9.02436C10.6489 8.98218 10.3074 8.93827 9.94579 8.88414C9.59745 8.83199 9.33972 8.5328 9.33972 8.18059L9.33972 5.41099C8.06092 6.5627 6.78988 7.70662 5.51898 8.85041L5.50388 8.864L5.494 8.8729C4.40087 9.8567 3.3078 10.8404 2.20995 11.829C4.3282 13.6074 6.42818 15.3731 8.55042 17.1574L8.55066 17.1576L9.35234 17.8316L9.35234 14.177C9.35234 13.985 9.42993 13.8012 9.56748 13.6673C9.70502 13.5334 9.89086 13.4607 10.0828 13.4658C10.2595 13.4706 10.4367 13.475 10.6141 13.4794C12.3061 13.5213 14.0269 13.5639 15.734 13.9089L15.7353 13.9092Z" fill="#233564"/>
</svg>
