<svg width="24" height="24" viewBox="0 0 24 24" fill="none" xmlns="http://www.w3.org/2000/svg">
    <path fill-rule="evenodd" clip-rule="evenodd" d="M12.3524 2C11.4845 2 10.7603 2.11453 10.1608 2.32061C9.53807 2.53467 9.0557 2.80768 8.69293 3.1359L8.68804 3.14033C8.31162 3.47492 8.031 3.86308 7.8447 4.2939C7.65529 4.73191 7.55941 5.20123 7.55941 5.69454C7.55941 6.30849 7.66688 6.7794 7.84783 7.14222C8.05485 7.54961 8.31839 7.90085 8.64366 8.19656C8.8291 8.36514 8.91808 8.61519 8.88082 8.86302C8.84357 9.11084 8.68499 9.32368 8.45818 9.43028C7.84334 9.71926 7.42997 10.0854 7.16492 10.5127C6.88912 10.9574 6.75 11.4548 6.75 12.0253C6.75 12.5524 6.843 12.9655 6.99533 13.286C7.18686 13.6888 7.37786 13.9744 7.60768 14.1563C7.7858 14.2912 8.06275 14.4835 8.30621 14.6491C8.42694 14.7312 8.53582 14.8043 8.61451 14.8569C8.65244 14.8822 8.68327 14.9028 8.70495 14.9172C9.10637 15.1198 9.51297 15.3029 9.93103 15.467L9.93197 15.4673L9.99586 15.4882C10.0508 15.5062 10.1296 15.5323 10.2259 15.5648C10.4182 15.6296 10.6819 15.7204 10.9662 15.8236C11.5044 16.0191 12.2132 16.2931 12.6014 16.5324L12.6041 16.534C12.6236 16.5462 12.6435 16.5585 12.6638 16.5711C12.951 16.7491 13.3189 16.9771 13.5947 17.2815C13.934 17.6559 14.107 18.1191 14.107 18.6307C14.107 19.2864 13.8319 19.8541 13.2718 20.2151L13.2655 20.2191C12.7716 20.5305 12.1602 20.6526 11.4924 20.6526C10.9469 20.6526 10.4426 20.5994 10.0146 20.4535C9.67382 20.3373 9.34857 20.2058 9.05918 20.0479C8.97467 20.0018 8.89016 19.9561 8.80723 19.9112C8.66546 19.8345 8.52831 19.7602 8.40367 19.691C8.33591 19.6534 8.2481 19.6264 8.11025 19.6264C7.95478 19.6264 7.88716 19.6616 7.87694 19.6681C7.81677 19.7064 7.74851 19.77 7.6876 19.8649C7.68734 19.8653 7.68708 19.8657 7.68683 19.8661L7.07894 20.8252C7.1859 20.896 7.29968 20.9653 7.42043 21.0326C7.76985 21.2275 8.1463 21.4081 8.53876 21.541C8.95474 21.6819 9.38168 21.7951 9.81988 21.8748L9.83066 21.8768C10.2571 21.9608 10.6854 22 11.1166 22C12.0051 22 12.7721 21.8858 13.4246 21.6816C14.0823 21.4662 14.6093 21.1835 15.0159 20.8358C15.4292 20.4824 15.7345 20.07 15.9408 19.5942C16.1453 19.1054 16.2566 18.5625 16.2566 17.9658C16.2566 17.4507 16.1537 17.053 15.988 16.7518C15.7913 16.394 15.5373 16.0758 15.2194 15.805C15.0286 15.6424 14.9316 15.3954 14.9608 15.1464C14.9901 14.8975 15.1418 14.6797 15.3651 14.5659C15.9985 14.2429 16.4158 13.8464 16.6613 13.4034C16.9291 12.9203 17.066 12.3887 17.066 11.7868C17.066 11.3467 16.983 10.9906 16.8368 10.7032C16.8344 10.6985 16.8321 10.6939 16.8298 10.6892C16.6722 10.3628 16.4497 10.0685 16.1716 9.80759C15.8696 9.53116 15.5268 9.28308 15.1408 9.06437C14.7298 8.83146 14.3079 8.62067 13.8749 8.438L13.8618 8.43233C13.4483 8.24858 13.0338 8.08284 12.6221 7.91825C12.5982 7.9087 12.5744 7.89915 12.5505 7.8896C12.0883 7.71506 11.6747 7.53142 11.3103 7.34535C10.9319 7.15211 10.5983 6.93716 10.3269 6.69381C9.98397 6.38635 9.76681 5.97558 9.76681 5.49941C9.76681 4.87571 10.0395 4.35498 10.5018 3.98288C10.5064 3.97926 10.5109 3.97568 10.5155 3.97216C11.0172 3.58713 11.6981 3.4558 12.4175 3.4558C12.8437 3.4558 13.244 3.50582 13.6064 3.6055C13.9302 3.69455 14.2244 3.80054 14.4887 3.91616C14.5303 3.93439 14.5705 3.95201 14.6094 3.96909C14.7955 4.05078 14.9524 4.11968 15.1055 4.17984C15.1157 4.18385 15.1258 4.18808 15.1359 4.19254C15.2245 4.23191 15.3214 4.25076 15.4239 4.25076C15.4775 4.25076 15.5099 4.24565 15.5272 4.24148C15.5425 4.22702 15.5692 4.19725 15.6045 4.14074L15.6094 4.13298L16.206 3.20403C16.1011 3.1243 15.9894 3.0455 15.8709 2.96734C15.5865 2.77975 15.2533 2.61414 14.8739 2.46077C14.5102 2.32079 14.1138 2.20969 13.6746 2.12317L13.6724 2.12275C13.2575 2.03976 12.8159 2 12.3524 2ZM15.5128 4.25345C15.5128 4.25344 15.513 4.25333 15.5133 4.25313L15.5128 4.25345ZM15.5427 4.23675C15.5445 4.23601 15.5443 4.23589 15.5427 4.23675V4.23675ZM9.44859 16.8874C9.43411 16.8828 9.41977 16.8777 9.4056 16.8721C8.91902 16.6821 8.44865 16.4696 7.98727 16.2351C7.96195 16.2222 7.93739 16.2079 7.91369 16.1923L7.87761 16.1684C7.85478 16.1532 7.82188 16.1313 7.78124 16.1042C7.70004 16.0499 7.5876 15.9744 7.46262 15.8894C7.21697 15.7223 6.90789 15.5084 6.69554 15.3472L6.68622 15.34C6.1808 14.9436 5.86708 14.4063 5.64063 13.93C5.3738 13.3687 5.25 12.7267 5.25 12.0253C5.25 11.1938 5.45777 10.4193 5.89021 9.72207C6.16927 9.27216 6.5328 8.88967 6.97113 8.57063C6.79694 8.33433 6.64328 8.08325 6.50917 7.81898L6.50715 7.815C6.19726 7.19522 6.05941 6.4815 6.05941 5.69454C6.05941 5.00263 6.1948 4.33011 6.46791 3.69854C6.74371 3.06076 7.15604 2.49574 7.68902 2.02137C8.2364 1.52687 8.90946 1.1646 9.67317 0.90208C10.4612 0.63118 11.3558 0.5 12.3524 0.5C12.9004 0.5 13.4413 0.546899 13.9655 0.65166C14.4777 0.752601 14.9609 0.886494 15.4193 1.06342L15.4299 1.0676C15.8722 1.24606 16.3032 1.45558 16.6968 1.71518C17.0684 1.96025 17.4138 2.22982 17.7176 2.53362C17.9669 2.783 18.0089 3.17244 17.8183 3.46921L16.8738 4.94002C16.7185 5.18734 16.5234 5.39926 16.2739 5.54603C16.2642 5.55171 16.2544 5.55718 16.2445 5.56242C15.9911 5.69658 15.7131 5.75076 15.4239 5.75076C15.1413 5.75076 14.8394 5.69923 14.5429 5.57041C14.3641 5.4997 14.1795 5.41864 13.9979 5.33884C13.9609 5.3226 13.9241 5.30642 13.8875 5.2904C13.6892 5.20366 13.463 5.12175 13.2087 5.05181C12.993 4.9925 12.7284 4.9558 12.4175 4.9558C11.8459 4.9558 11.5584 5.06632 11.435 5.15741C11.3103 5.26015 11.2668 5.35978 11.2668 5.49941C11.2668 5.4996 11.2668 5.49978 11.2668 5.49996C11.2668 5.50228 11.2668 5.50301 11.2689 5.50743C11.2721 5.51405 11.2857 5.53881 11.3282 5.57695C11.476 5.7094 11.6916 5.85579 11.9925 6.00944C12.3056 6.16931 12.6701 6.33164 13.0868 6.48873L13.1007 6.49415C13.1285 6.50526 13.1564 6.51643 13.1845 6.52766C13.5892 6.68944 14.0263 6.86415 14.4645 7.05874C14.9542 7.26566 15.4262 7.50197 15.8803 7.75933C16.3604 8.03134 16.7971 8.34607 17.1881 8.70453L17.1939 8.70988C17.592 9.08259 17.9309 9.52223 18.1773 10.0301C18.4476 10.5647 18.566 11.1601 18.566 11.7868C18.566 12.6303 18.3704 13.414 17.9733 14.1305C17.7038 14.6167 17.3322 15.0326 16.878 15.3815C17.037 15.5868 17.1783 15.8032 17.3024 16.0289C17.6137 16.5949 17.7566 17.2523 17.7566 17.9658C17.7566 18.7551 17.6082 19.4974 17.3223 20.1784L17.3192 20.1856C17.0196 20.8791 16.5738 21.4773 15.9908 21.9758C15.401 22.4801 14.6864 22.8474 13.8862 23.1088L13.8778 23.1115C13.0569 23.369 12.1342 23.5 11.1166 23.5C10.5957 23.5 10.0718 23.4528 9.54616 23.3496C9.03233 23.2559 8.53603 23.1238 8.05755 22.9617C7.55386 22.7911 7.092 22.567 6.68982 22.3427C6.27006 22.1086 5.89884 21.8458 5.5794 21.56C5.30614 21.3155 5.24972 20.9093 5.44602 20.5996L6.42165 19.0603L6.42342 19.0575C6.59357 18.7916 6.81407 18.5665 7.07163 18.4026C7.3794 18.2068 7.74538 18.1264 8.11025 18.1264C8.46384 18.1264 8.80963 18.2006 9.13213 18.3798C9.25086 18.4457 9.37412 18.5124 9.50926 18.5855C9.59346 18.6311 9.68226 18.6792 9.77746 18.7311C9.96504 18.8334 10.2035 18.9331 10.4986 19.0337C10.7066 19.1046 11.0262 19.1526 11.4924 19.1526C11.9923 19.1526 12.2909 19.0591 12.4624 18.9522C12.5509 18.8944 12.607 18.8254 12.607 18.6307C12.607 18.4773 12.5631 18.3769 12.4833 18.2888C12.3597 18.1524 12.1683 18.0296 11.8132 17.8086C11.5791 17.6647 11.0241 17.4405 10.4541 17.2335C10.1837 17.1353 9.93154 17.0485 9.74671 16.9862C9.65444 16.9551 9.57931 16.9302 9.52751 16.9132L9.46817 16.8938L9.45313 16.8889L9.44859 16.8874Z" fill="#233564"/>
    <path fill-rule="evenodd" clip-rule="evenodd" d="M10.0214 9.45726C10.2368 9.31364 10.5111 9.29129 10.7469 9.39816C11.1969 9.60205 11.632 9.7845 12.0668 9.9528L12.0707 9.95429L12.0706 9.9543C12.5269 10.1338 12.9618 10.3269 13.3525 10.5418C13.762 10.7596 14.1127 11.0155 14.3956 11.3173C14.7449 11.6897 14.9237 12.1486 14.9237 12.6613C14.9237 13.0239 14.8352 13.3694 14.6783 13.6833C14.4956 14.0488 14.2047 14.3355 13.8513 14.5474C13.6444 14.6716 13.3904 14.6886 13.1687 14.5931C12.7083 14.3948 12.2545 14.2104 11.8144 14.0401L11.8085 14.0378L11.8085 14.0377C11.334 13.8495 10.9061 13.6558 10.5163 13.441C10.1044 13.2141 9.75696 12.9511 9.47831 12.6539C9.13073 12.2832 8.95026 11.825 8.95026 11.3171C8.95026 10.9446 9.03376 10.5768 9.22848 10.2482C9.421 9.92332 9.70594 9.66755 10.0214 9.45726ZM10.5594 10.9556C10.5419 10.9772 10.5287 10.9963 10.5189 11.0129C10.4824 11.0746 10.4503 11.1693 10.4503 11.3171C10.4503 11.4452 10.4866 11.5362 10.5726 11.628C10.7276 11.7933 10.9439 11.964 11.2402 12.1273C11.558 12.3024 11.9241 12.4697 12.3589 12.6424C12.675 12.7648 12.9984 12.8943 13.3267 13.0311C13.3303 13.0247 13.3336 13.0185 13.3367 13.0124C13.3965 12.8927 13.4237 12.7757 13.4237 12.6613C13.4237 12.5236 13.3857 12.4332 13.3013 12.3432C13.1519 12.1837 12.9407 12.0213 12.6442 11.864L12.6338 11.8583C12.3181 11.6844 11.946 11.5172 11.5233 11.3509C11.2035 11.227 10.8837 11.0961 10.5594 10.9556Z" fill="#233564"/>
</svg>
