<svg width="24" height="24" viewBox="0 0 24 24" fill="none" xmlns="http://www.w3.org/2000/svg">
    <path fill-rule="evenodd" clip-rule="evenodd" d="M2 1.25C2 0.835693 2.33578 0.5 2.75 0.5C3.16422 0.5 3.5 0.835693 3.5 1.25V2H4.25C4.66422 2 5 2.33569 5 2.75C5 3.16431 4.66422 3.5 4.25 3.5H3.5V4.25C3.5 4.66431 3.16422 5 2.75 5C2.33578 5 2 4.66431 2 4.25V3.5H1.25C0.835785 3.5 0.5 3.16431 0.5 2.75C0.5 2.33569 0.835785 2 1.25 2H2V1.25ZM14.4706 1.72437C14.5778 1.32446 14.989 1.08691 15.3891 1.19409C15.7892 1.30127 16.0266 1.71265 15.9194 2.11279L15.143 5.0105C15.0358 5.41064 14.6245 5.64795 14.2244 5.54077C13.8243 5.43359 13.5869 5.02222 13.6941 4.62231L14.4706 1.72437ZM7.5 2.25C7.08578 2.25 6.75 2.58569 6.75 3C6.75 3.41431 7.08578 3.75 7.5 3.75C8.58542 3.75 9.49008 4.33984 10.0292 5.16138C10.5781 5.9978 10.6808 6.96118 10.3292 7.66455C10.144 8.03516 10.2941 8.4856 10.6646 8.6709C11.0351 8.85596 11.4856 8.70581 11.6708 8.33545C12.3192 7.03882 12.0469 5.5022 11.2833 4.33862C10.5099 3.16016 9.16458 2.25 7.5 2.25ZM19.0303 4.96973C19.3232 5.26245 19.3232 5.73755 19.0303 6.03027L14.0303 11.0303C13.7374 11.3232 13.2626 11.3232 12.9697 11.0303C12.6768 10.7375 12.6768 10.2625 12.9697 9.96973L17.9697 4.96973C18.2626 4.67676 18.7374 4.67676 19.0303 4.96973ZM11.1689 12.8345C12.1271 13.7925 12.7645 14.7874 13.0573 15.5681C13.2006 15.9502 13.2334 16.1851 13.2359 16.3157C13.1053 16.313 12.8706 16.2803 12.4885 16.137C11.7077 15.8442 10.7129 15.2068 9.7547 14.2485C8.79654 13.2905 8.15912 12.2957 7.8663 11.5149C7.72302 11.1328 7.69022 10.8979 7.68771 10.7673C7.81836 10.7698 8.05301 10.8027 8.43512 10.946C9.21597 11.2388 10.2108 11.8762 11.1689 12.8345ZM12.2296 11.7737C14.3775 13.9216 15.3272 16.4543 14.3509 17.4307C14.319 17.4626 14.2854 17.4924 14.2502 17.5203C14.2243 17.5413 14.1981 17.561 14.1725 17.5796C14.1369 17.6055 14.1025 17.6289 14.0719 17.6492C13.9782 17.7112 13.8665 17.7791 13.7431 17.8506C13.4955 17.9939 13.1746 18.1672 12.8019 18.3608C12.0551 18.7493 11.0742 19.2341 10.0008 19.7532C7.85263 20.792 5.3136 21.9778 3.49115 22.822C2.01715 23.5046 0.498505 21.9861 1.18127 20.512C2.02548 18.6895 3.21121 16.1506 4.25003 14.0024C4.7691 12.929 5.25394 11.948 5.64227 11.2012C5.71558 11.0603 5.78595 10.9268 5.85291 10.8018L5.89487 10.7236L5.95865 10.606L6.03653 10.4646L6.08118 10.385C6.10574 10.3416 6.12958 10.2998 6.15265 10.26C6.22415 10.1367 6.29202 10.0249 6.35406 9.9314L6.39142 9.87622C6.40659 9.85425 6.42288 9.8313 6.44022 9.80811C6.4585 9.78345 6.47794 9.75854 6.49841 9.73413C6.52182 9.70581 6.54657 9.67847 6.57272 9.65234C7.54904 8.67603 10.0817 9.62573 12.2296 11.7737ZM6.65869 12.5071C7.08267 13.4111 7.77985 14.395 8.69406 15.3093C9.60822 16.2234 10.5921 16.9204 11.496 17.3445C11.1152 17.5369 10.693 17.7466 10.2416 17.9678C9.95438 18.1086 9.65536 18.2542 9.34781 18.4028C7.21106 19.436 4.68106 20.6177 2.86066 21.4609C2.65396 21.5566 2.44659 21.3491 2.54236 21.1426C3.38556 19.322 4.56714 16.7922 5.60043 14.6553C5.98288 13.8645 6.34369 13.1301 6.65869 12.5071ZM21.25 0.5C20.8358 0.5 20.5 0.835693 20.5 1.25V2H19.75C19.3358 2 19 2.33569 19 2.75C19 3.16431 19.3358 3.5 19.75 3.5H20.5V4.25C20.5 4.66431 20.8358 5 21.25 5C21.6642 5 22 4.66431 22 4.25V3.5H22.75C23.1642 3.5 23.5 3.16431 23.5 2.75C23.5 2.33569 23.1642 2 22.75 2H22V1.25C22 0.835693 21.6642 0.5 21.25 0.5ZM20.5 19.75C20.5 19.3357 20.8358 19 21.25 19C21.6642 19 22 19.3357 22 19.75V20.5H22.75C23.1642 20.5 23.5 20.8357 23.5 21.25C23.5 21.6643 23.1642 22 22.75 22H22V22.75C22 23.1643 21.6642 23.5 21.25 23.5C20.8358 23.5 20.5 23.1643 20.5 22.75V22H19.75C19.3358 22 19 21.6643 19 21.25C19 20.8357 19.3358 20.5 19.75 20.5H20.5V19.75ZM21 17.2517C21.4142 17.2517 21.75 16.916 21.75 16.5017C21.75 14.8372 20.8399 13.4917 19.6615 12.7185C18.4979 11.9548 16.9613 11.6826 15.6646 12.3308C15.2941 12.5161 15.144 12.9666 15.3292 13.3372C15.5144 13.7075 15.9649 13.8577 16.3354 13.6726C17.0387 13.3208 18.0021 13.4236 18.8385 13.9724C19.6601 14.5117 20.25 15.4163 20.25 16.5017C20.25 16.916 20.5858 17.2517 21 17.2517ZM22.8059 8.61255C22.9131 9.01245 22.6757 9.42383 22.2755 9.53101L19.3778 10.3074C18.9777 10.4148 18.5664 10.1772 18.4592 9.7771C18.352 9.37695 18.5894 8.96582 18.9896 8.85864L21.8873 8.08203C22.2874 7.97485 22.6987 8.2124 22.8059 8.61255Z" fill="#233564"/>
</svg>