<svg width="24" height="24" viewBox="0 0 24 24" fill="none" xmlns="http://www.w3.org/2000/svg">
    <path fill-rule="evenodd" clip-rule="evenodd"
        d="M18.1456 2.03476L18.1479 2.04485C18.2606 2.5345 18.3576 3.21892 18.3705 4.00455C18.3968 5.59775 18.0766 7.42147 17.0545 8.88117C16.47 9.71587 15.8271 10.4262 15.1751 11H13.2907L15.386 7.64751C15.6055 7.29625 15.4987 6.83354 15.1475 6.61401C14.7962 6.39448 14.3335 6.50126 14.114 6.85251L12.8148 8.93125C12.6675 8.00057 12.3231 6.98149 11.784 5.97534C11.8963 5.79656 12.0148 5.61785 12.1396 5.43971C13.1645 3.97602 14.7935 3.02277 16.3105 2.48893C17.0251 2.23747 17.6701 2.09535 18.1456 2.03476ZM18.2832 9.74153C17.9691 10.1902 17.6369 10.6105 17.2922 11H18.75C19.4404 11 20 11.5596 20 12.25V14.25C20 14.9404 19.4404 15.5 18.75 15.5H18.3563L17.1527 21.1167C16.9798 21.9235 16.2668 22.5 15.4416 22.5H8.55842C7.73323 22.5 7.02017 21.9235 6.84727 21.1167L5.64369 15.5H5.25C4.55964 15.5 4 14.9404 4 14.25V12.25C4 11.5596 4.55964 11 5.25 11H7.55795C6.98761 10.4251 6.44813 9.72212 5.9841 8.91839C4.33876 6.06859 5.139 2.51677 5.81951 2.13338C6.41002 1.8007 9.09924 2.56132 10.8753 4.6303L10.9108 4.57934C13.4449 0.960328 18.6899 0.174633 19.1853 0.607632C19.6808 1.04063 20.8173 6.12252 18.2832 9.74153ZM5.5 14H18.5V12.5H5.5V14ZM7.17775 15.5L8.31397 20.8024C8.33867 20.9176 8.44054 21 8.55842 21H15.4416C15.5595 21 15.6613 20.9176 15.686 20.8024L16.8223 15.5H7.17775ZM10.0431 11H11.1716C11.2842 10.8248 11.4116 10.4785 11.3959 9.82943C11.3733 8.89767 11.0361 7.6688 10.3142 6.41842C9.67503 5.31139 8.65318 4.51198 7.68688 4.03166C7.30776 3.84321 6.96276 3.7169 6.68638 3.64205C6.61435 3.91617 6.55253 4.27439 6.52678 4.69305C6.46044 5.77199 6.64366 7.06078 7.28314 8.16839C8.00504 9.41877 8.90069 10.3252 9.69631 10.8107C9.8215 10.887 9.93697 10.9494 10.0431 11Z"
        fill="#233564" />
</svg>
