<svg width="24" height="24" viewBox="0 0 24 24" fill="none" xmlns="http://www.w3.org/2000/svg">
<path fill-rule="evenodd" clip-rule="evenodd" d="M11.9991 0.500009C12.0093 0.500009 12.0194 0.500212 12.0295 0.500615C12.2314 0.49252 12.4359 0.565541 12.5901 0.719679L15.4185 3.54811C15.7114 3.841 15.7114 4.31587 15.4185 4.60877C15.1256 4.90166 14.6507 4.90166 14.3578 4.60877L12.7491 3.00001V14.75C12.7491 15.1642 12.4133 15.5 11.9991 15.5C11.5849 15.5 11.2491 15.1642 11.2491 14.75V2.99883L9.64099 4.60693C9.34809 4.89982 8.87322 4.89982 8.58033 4.60693C8.28743 4.31403 8.28743 3.83916 8.58033 3.54627L11.4088 0.717839C11.5687 0.557877 11.783 0.485278 11.9922 0.50004L11.9991 0.500009ZM5.5 7.5H9.75V9H5.5C5.22386 9 5 9.22386 5 9.5V21.5C5 21.7761 5.22386 22 5.5 22H18.5C18.7761 22 19 21.7761 19 21.5V9.5C19 9.22386 18.7761 9 18.5 9H14.25V7.5H18.5C19.6046 7.5 20.5 8.39543 20.5 9.5V21.5C20.5 22.6046 19.6046 23.5 18.5 23.5H5.5C4.39543 23.5 3.5 22.6046 3.5 21.5V9.5C3.5 8.39543 4.39543 7.5 5.5 7.5Z" fill="#233564"/>
</svg>
