<svg width="24" height="24" viewBox="0 0 24 24" fill="none" xmlns="http://www.w3.org/2000/svg">
    <path fill-rule="evenodd" clip-rule="evenodd"
        d="M18 3.5H6C5.72386 3.5 5.5 3.72386 5.5 4V20.5377L10.2901 16.0469C11.2518 15.1453 12.7482 15.1453 13.7099 16.0469L18.5 20.5377V4C18.5 3.72386 18.2761 3.5 18 3.5ZM6 2C4.89543 2 4 2.89543 4 4V21.6918C4 22.5672 5.04528 23.0201 5.68394 22.4213L11.3161 17.1412C11.7007 16.7806 12.2993 16.7806 12.6839 17.1412L18.3161 22.4213C18.9547 23.0201 20 22.5672 20 21.6918V4C20 2.89543 19.1046 2 18 2H6Z"
        fill="#233564" />
</svg>
