<svg width="24" height="24" viewBox="0 0 24 24" fill="none" xmlns="http://www.w3.org/2000/svg">
    <path fill-rule="evenodd" clip-rule="evenodd" d="M2.5 4H21.5C21.7761 4 22 4.22386 22 4.5V15.3281L18.7091 13.0764C18.2795 12.7825 17.7128 12.7855 17.2864 13.084L13.0204 16.0702L7.43758 8.97853C6.97432 8.39006 6.1011 8.33827 5.57153 8.86784L2 12.4394V4.5C2 4.22386 2.22386 4 2.5 4ZM18.0049 14.4121L22 17.1456V19.5C22 19.7761 21.7761 20 21.5 20H16.1141L13.9497 17.2507L18.0049 14.4121ZM2 14.5607V19.5C2 19.7761 2.22386 20 2.5 20H14.205L6.43312 10.1276L2 14.5607ZM0.5 4.5C0.5 3.39543 1.39543 2.5 2.5 2.5H21.5C22.6046 2.5 23.5 3.39543 23.5 4.5V19.5C23.5 20.6046 22.6046 21.5 21.5 21.5H2.5C1.39543 21.5 0.5 20.6046 0.5 19.5V4.5ZM14.5 9C14.5 9.55228 14.0523 10 13.5 10C12.9477 10 12.5 9.55228 12.5 9C12.5 8.44772 12.9477 8 13.5 8C14.0523 8 14.5 8.44772 14.5 9ZM16 9C16 10.3807 14.8807 11.5 13.5 11.5C12.1193 11.5 11 10.3807 11 9C11 7.61929 12.1193 6.5 13.5 6.5C14.8807 6.5 16 7.61929 16 9Z" fill="white"/>
</svg>
