<svg width="24" height="24" viewBox="0 0 24 24" fill="none" xmlns="http://www.w3.org/2000/svg">
    <path fill-rule="evenodd" clip-rule="evenodd"
        d="M3 4.25C3 3.55964 3.55964 3 4.25 3H7.5C7.91421 3 8.25 2.66421 8.25 2.25C8.25 1.83579 7.91421 1.5 7.5 1.5H4.25C2.73122 1.5 1.5 2.73122 1.5 4.25V7.5C1.5 7.91421 1.83579 8.25 2.25 8.25C2.66421 8.25 3 7.91421 3 7.5V4.25ZM16.5 1.5C16.0858 1.5 15.75 1.83579 15.75 2.25C15.75 2.66421 16.0858 3 16.5 3H19.75C20.4404 3 21 3.55964 21 4.25V7.5C21 7.91421 21.3358 8.25 21.75 8.25C22.1642 8.25 22.5 7.91421 22.5 7.5V4.25C22.5 2.73122 21.2688 1.5 19.75 1.5H16.5ZM3 16.5C3 16.0858 2.66421 15.75 2.25 15.75C1.83579 15.75 1.5 16.0858 1.5 16.5V19.75C1.5 21.2688 2.73122 22.5 4.25 22.5H7.5C7.91421 22.5 8.25 22.1642 8.25 21.75C8.25 21.3358 7.91421 21 7.5 21H4.25C3.55964 21 3 20.4404 3 19.75V16.5ZM22.5 16.5C22.5 16.0858 22.1642 15.75 21.75 15.75C21.3358 15.75 21 16.0858 21 16.5V19.75C21 20.4404 20.4404 21 19.75 21H16.5C16.0858 21 15.75 21.3358 15.75 21.75C15.75 22.1642 16.0858 22.5 16.5 22.5H19.75C21.2688 22.5 22.5 21.2688 22.5 19.75V16.5ZM6.75 11.5C6.33579 11.5 6 11.8358 6 12.25C6 12.6642 6.33579 13 6.75 13H17.25C17.6642 13 18 12.6642 18 12.25C18 11.8358 17.6642 11.5 17.25 11.5H6.75Z"
        fill="#233564" />
</svg>
