<svg width="24" height="24" viewBox="0 0 24 24" fill="none" xmlns="http://www.w3.org/2000/svg">
<path fill-rule="evenodd" clip-rule="evenodd" d="M21.5 4.5C21.5 5.60457 20.6046 6.5 19.5 6.5C18.3954 6.5 17.5 5.60457 17.5 4.5C17.5 3.39543 18.3954 2.5 19.5 2.5C20.6046 2.5 21.5 3.39543 21.5 4.5ZM23 4.5C23 6.433 21.433 8 19.5 8C18.4003 8 17.4191 7.49284 16.7774 6.69965L7.89392 11.1414C7.9632 11.4161 8 11.7038 8 12C8 12.2961 7.96322 12.5837 7.89399 12.8583L16.7776 17.3001C17.4193 16.5071 18.4004 16 19.5 16C21.433 16 23 17.567 23 19.5C23 21.433 21.433 23 19.5 23C17.567 23 16 21.433 16 19.5C16 19.2038 16.0368 18.9161 16.1061 18.6414L7.22258 14.1996C6.58094 14.9928 5.5997 15.5 4.5 15.5C2.567 15.5 1 13.933 1 12C1 10.067 2.567 8.5 4.5 8.5C5.59959 8.5 6.58074 9.00707 7.22239 9.80013L16.106 5.35831C16.0368 5.08368 16 4.79613 16 4.5C16 2.567 17.567 1 19.5 1C21.433 1 23 2.567 23 4.5ZM6.5 12C6.5 13.1046 5.60457 14 4.5 14C3.39543 14 2.5 13.1046 2.5 12C2.5 10.8954 3.39543 10 4.5 10C5.60457 10 6.5 10.8954 6.5 12ZM21.5 19.5C21.5 20.6046 20.6046 21.5 19.5 21.5C18.3954 21.5 17.5 20.6046 17.5 19.5C17.5 18.3954 18.3954 17.5 19.5 17.5C20.6046 17.5 21.5 18.3954 21.5 19.5Z" fill="#233564"/>
</svg>
