<svg width="24" height="24" viewBox="0 0 24 24" fill="none" xmlns="http://www.w3.org/2000/svg">
    <path fill-rule="evenodd" clip-rule="evenodd" d="M16 2.25C16 1.83579 16.3358 1.5 16.75 1.5C17.1642 1.5 17.5 1.83579 17.5 2.25V6.5H21.75C22.1642 6.5 22.5 6.83579 22.5 7.25C22.5 7.66421 22.1642 8 21.75 8H17.5V12.25C17.5 12.6642 17.1642 13 16.75 13C16.3358 13 16 12.6642 16 12.25V8H11.75C11.3358 8 11 7.66421 11 7.25C11 6.83579 11.3358 6.5 11.75 6.5H16V2.25ZM3 8.5C3 8.22386 3.22386 8 3.5 8H8.25C8.66421 8 9 7.66421 9 7.25C9 6.83579 8.66421 6.5 8.25 6.5H3.5C2.39543 6.5 1.5 7.39543 1.5 8.5V20.5C1.5 21.6046 2.39543 22.5 3.5 22.5H15.5C16.6046 22.5 17.5 21.6046 17.5 20.5V15.75C17.5 15.3358 17.1642 15 16.75 15C16.3358 15 16 15.3358 16 15.75V20.5C16 20.7761 15.7761 21 15.5 21H3.5C3.22386 21 3 20.7761 3 20.5V8.5Z" fill="#233564"/>
</svg>
