<svg width="28" height="28" viewBox="0 0 28 28" fill="none" xmlns="http://www.w3.org/2000/svg">
    <path d="M19.6937 13.8585L16.4206 21.8595C16.4206 21.8595 17.0733 26.1397 15.2922 26.5593C13.5111 26.9788 11.1892 24.1814 11.4223 17.1037H3.85967C2.35834 17.1037 1.21135 15.7794 1.42583 14.2874L2.9738 3.50764C3.15097 2.29538 4.18606 1.40018 5.40764 1.40018H18.3415C19.0875 1.40018 19.6937 2.00631 19.6937 2.75232V13.8585Z" stroke="#F8F8F8" stroke-width="1.5" stroke-miterlimit="10" stroke-linejoin="round"/>
    <path d="M21.9411 1.40066H24.5335C25.7736 1.40066 26.7714 2.40776 26.7714 3.63867V12.2364C26.7714 13.4766 25.7643 14.4745 24.5335 14.4745H21.9411C20.7008 14.4745 19.703 13.4673 19.703 12.2364V3.63867C19.6937 2.40776 20.7008 1.40066 21.9411 1.40066Z" stroke="#F8F8F8" stroke-width="1.5" stroke-miterlimit="10" stroke-linejoin="round"/>
</svg>
