<svg width="24" height="24" viewBox="0 0 24 24" fill="none" xmlns="http://www.w3.org/2000/svg">
    <path fill-rule="evenodd" clip-rule="evenodd" d="M21.5 4H2.5C2.22386 4 2 4.22386 2 4.5V19.5C2 19.7761 2.22386 20 2.5 20H21.5C21.7761 20 22 19.7761 22 19.5V4.5C22 4.22386 21.7761 4 21.5 4ZM2.5 2.5C1.39543 2.5 0.5 3.39543 0.5 4.5V19.5C0.5 20.6046 1.39543 21.5 2.5 21.5H21.5C22.6046 21.5 23.5 20.6046 23.5 19.5V4.5C23.5 3.39543 22.6046 2.5 21.5 2.5H2.5ZM9.25 7.79186C9.25 6.95539 10.1551 6.51311 10.8186 6.88453L15.2076 9.34442C15.9091 9.7292 15.9547 10.763 15.2005 11.1596L10.819 13.6152C10.1554 13.9867 9.25 13.5446 9.25 12.7081V7.79186ZM10.75 8.56561L13.7553 10.25L10.75 11.9344V8.56561ZM6.5 17.75C6.77614 17.75 7 17.5261 7 17.25C7 16.9739 6.77614 16.75 6.5 16.75C6.22386 16.75 6 16.9739 6 17.25C6 17.5261 6.22386 17.75 6.5 17.75ZM6.5 19.25C7.33934 19.25 8.05793 18.733 8.35462 18H19.75C20.1642 18 20.5 17.6642 20.5 17.25C20.5 16.8358 20.1642 16.5 19.75 16.5H8.35462C8.05793 15.767 7.33934 15.25 6.5 15.25C5.66066 15.25 4.94207 15.767 4.64538 16.5H4.25C3.83579 16.5 3.5 16.8358 3.5 17.25C3.5 17.6642 3.83579 18 4.25 18H4.64538C4.94207 18.733 5.66066 19.25 6.5 19.25Z" fill="white"/>
</svg>
