<svg width="31" height="32" viewBox="0 0 31 32" fill="none" xmlns="http://www.w3.org/2000/svg">
    <path d="M6.86201 16.5913L1 31.0001L15.4088 25.145" stroke="#233564" stroke-width="1.5"
        stroke-miterlimit="10" stroke-linecap="round" stroke-linejoin="round" />
    <path
        d="M15.4722 25.0764C16.052 24.4967 14.6091 22.1138 12.2494 19.7541C9.88971 17.3945 7.50683 15.9515 6.92707 16.5313C6.34731 17.1111 7.79021 19.4939 10.1499 21.8536C12.5096 24.2133 14.8924 25.6562 15.4722 25.0764Z"
        stroke="#233564" stroke-width="1.5" stroke-miterlimit="10" stroke-linecap="round"
        stroke-linejoin="round" />
    <path d="M14.2364 17.5625L21.8258 9.97314" stroke="#233564" stroke-width="1.5"
        stroke-miterlimit="10" stroke-linecap="round" stroke-linejoin="round" />
    <path d="M23.5323 6.67725H26.7165" stroke="#233564" stroke-width="1.5" stroke-miterlimit="10"
        stroke-linecap="round" stroke-linejoin="round" />
    <path d="M25.1209 5.08887V8.27308" stroke="#233564" stroke-width="1.5" stroke-miterlimit="10"
        stroke-linecap="round" stroke-linejoin="round" />
    <path d="M6.59149 3.28564H9.77571" stroke="#233564" stroke-width="1.5" stroke-miterlimit="10"
        stroke-linecap="round" stroke-linejoin="round" />
    <path d="M8.18011 1.68994V4.87416" stroke="#233564" stroke-width="1.5" stroke-miterlimit="10"
        stroke-linecap="round" stroke-linejoin="round" />
    <path d="M26.7027 23.397H29.8869" stroke="#233564" stroke-width="1.5" stroke-miterlimit="10"
        stroke-linecap="round" stroke-linejoin="round" />
    <path d="M28.2913 21.8013V24.9855" stroke="#233564" stroke-width="1.5" stroke-miterlimit="10"
        stroke-linecap="round" stroke-linejoin="round" />
    <path d="M16.8517 20.1779C16.8517 20.1779 21.7633 16.3208 25.8147 20.948" stroke="#233564"
        stroke-width="1.5" stroke-miterlimit="10" stroke-linecap="round" stroke-linejoin="round" />
    <path d="M11.4822 14.8019C11.4822 14.8019 15.3393 9.89025 10.7122 5.83887" stroke="#233564"
        stroke-width="1.5" stroke-miterlimit="10" stroke-linecap="round" stroke-linejoin="round" />
    <path d="M16.7615 10.5003L18.2669 6.10205" stroke="#233564" stroke-width="1.5"
        stroke-miterlimit="10" stroke-linecap="round" stroke-linejoin="round" />
    <path d="M21.3193 15.0645L25.7176 13.5591" stroke="#233564" stroke-width="1.5"
        stroke-miterlimit="10" stroke-linecap="round" stroke-linejoin="round" />
</svg>
