<svg width="59" height="59" viewBox="0 0 59 59" fill="none" xmlns="http://www.w3.org/2000/svg">
<path fill-rule="evenodd" clip-rule="evenodd" d="M34.1095 20.5885C34.1095 28.0559 28.0561 34.1094 20.5887 34.1094C13.1214 34.1094 7.06787 28.0559 7.06787 20.5885C7.06787 13.1212 13.1214 7.06769 20.5887 7.06769C28.0561 7.06769 34.1095 13.1212 34.1095 20.5885ZM31.3836 33.9906C28.4315 36.3715 24.6766 37.7969 20.5887 37.7969C11.0848 37.7969 3.38037 30.0924 3.38037 20.5885C3.38037 11.0846 11.0848 3.38019 20.5887 3.38019C30.0926 3.38019 37.797 11.0846 37.797 20.5885C37.797 24.6762 36.3718 28.4311 33.9911 31.3831L35.9559 33.3479C38.0119 32.3658 40.549 32.7262 42.2519 34.4291L54.4201 46.5973C56.5801 48.7573 56.5801 52.2595 54.4201 54.4196C52.26 56.5797 48.7578 56.5797 46.5977 54.4196L34.4296 42.2515C32.7266 40.5485 32.3662 38.0114 33.3484 35.9554L31.3836 33.9906ZM51.8126 49.2047L39.6445 37.0366C38.9244 36.3166 37.757 36.3166 37.037 37.0366C36.317 37.7566 36.317 38.924 37.037 39.644L49.2051 51.8122C49.9252 52.5322 51.0926 52.5322 51.8126 51.8122C52.5326 51.0921 52.5326 49.9247 51.8126 49.2047Z" fill="#C4C4C4"/>
</svg>
