<svg width="24" height="24" viewBox="0 0 24 24" fill="none" xmlns="http://www.w3.org/2000/svg">
    <path fill-rule="evenodd" clip-rule="evenodd"
        d="M17.9336 19.5H7.5C7.22386 19.5 7 19.2761 7 19V13V12.5543C7 12.5243 7.02431 12.5 7.0543 12.5C7.82851 12.5 8.5243 12.0275 8.80979 11.3078L10.8238 6.23075C10.9402 5.93734 11 5.62455 11 5.3089V3.00626C11.857 3.07641 12.5642 3.72851 12.6923 4.59225L13.2029 8.03484C13.3484 9.01534 14.1901 9.74138 15.1813 9.74138H19.5776C20.1916 9.74138 20.6606 10.2896 20.5655 10.8962L19.4155 18.2323C19.3011 18.9621 18.6724 19.5 17.9336 19.5ZM6.09858 11.3285C6.3622 11.1226 6.69392 11 7.0543 11C7.21359 11 7.35675 10.9028 7.41549 10.7547L9.42953 5.67764C9.47609 5.56027 9.5 5.43516 9.5 5.3089V2.84642C9.5 2.10281 10.1028 1.5 10.8464 1.5C12.5147 1.5 13.9313 2.72194 14.176 4.37215L14.6867 7.81474C14.7231 8.05987 14.9335 8.24138 15.1813 8.24138H19.5776C21.1127 8.24138 22.2851 9.61198 22.0474 11.1285L20.8974 18.4646C20.6686 19.9243 19.4111 21 17.9336 21H7.5C7.02703 21 6.5924 20.8358 6.25 20.5613C5.9076 20.8358 5.47297 21 5 21H3.5C2.39543 21 1.5 20.1046 1.5 19V13C1.5 11.8954 2.39543 11 3.5 11H5C5.40575 11 5.78328 11.1208 6.09858 11.3285ZM5.5 13C5.5 12.7239 5.27614 12.5 5 12.5H3.5C3.22386 12.5 3 12.7239 3 13V19C3 19.2761 3.22386 19.5 3.5 19.5H5C5.27614 19.5 5.5 19.2761 5.5 19V13Z"
        fill="#233564" />
</svg>
