<svg width="24" height="24" viewBox="0 0 24 24" fill="none" xmlns="http://www.w3.org/2000/svg">
    <path fill-rule="evenodd" clip-rule="evenodd" d="M1.52637 12.75C1.78586 16.4268 3.93841 19.5809 7.01527 21.2436C6.9608 21.1555 6.90624 21.0646 6.85174 20.9709C5.84665 19.2434 4.87392 16.594 4.76092 12.75H1.52637ZM9.41343 21.9193C9.56388 22.0744 9.68925 22.1883 9.77869 22.2646C10.2578 22.3678 10.749 22.4383 11.25 22.4736V12.75H6.2616C6.37356 16.3284 7.27696 18.719 8.14826 20.2166C8.61523 21.0192 9.07728 21.5726 9.41343 21.9193ZM11.25 11.25H6.2616C6.37356 7.6716 7.27696 5.28098 8.14826 3.78342C8.61523 2.98082 9.07728 2.42736 9.41343 2.0807C9.56388 1.92555 9.68924 1.81169 9.77868 1.73542C10.2578 1.63223 10.749 1.56173 11.25 1.52637V11.25ZM6.85174 3.02908C6.90624 2.9354 6.9608 2.84451 7.01527 2.75635C3.93841 4.41908 1.78586 7.57321 1.52637 11.25H4.76092C4.87392 7.40601 5.84665 4.75657 6.85174 3.02908ZM12.75 12.75V22.4736C13.251 22.4383 13.7422 22.3678 14.2213 22.2646C14.3107 22.1883 14.4361 22.0744 14.5866 21.9193C14.9227 21.5726 15.3848 21.0192 15.8517 20.2166C16.723 18.719 17.6264 16.3284 17.7384 12.75H12.75ZM19.2391 12.75C19.1261 16.594 18.1533 19.2434 17.1483 20.9709C17.0938 21.0646 17.0392 21.1555 16.9847 21.2436C20.0616 19.5809 22.2141 16.4268 22.4736 12.75H19.2391ZM19.2391 11.25C19.1261 7.40601 18.1533 4.75657 17.1483 3.02908C17.0938 2.9354 17.0392 2.84451 16.9847 2.75635C20.0616 4.41908 22.2141 7.57321 22.4736 11.25H19.2391ZM14.2213 1.73542C14.3108 1.81169 14.4361 1.92555 14.5866 2.0807C14.9227 2.42736 15.3848 2.98082 15.8517 3.78342C16.723 5.28098 17.6264 7.6716 17.7384 11.25H12.75V1.52637C13.251 1.56173 13.7422 1.63223 14.2213 1.73542ZM12 0C5.37258 0 0 5.37258 0 12C0 18.6274 5.37258 24 12 24C18.6274 24 24 18.6274 24 12C24 5.37258 18.6274 0 12 0Z" fill="white"/>
</svg>