<svg width="38" height="38" viewBox="0 0 38 38" fill="none" xmlns="http://www.w3.org/2000/svg">
    <circle cx="19" cy="19" r="19" fill="white"/>
    <path d="M13.8272 14.415C14.8577 14.415 15.693 13.5956 15.693 12.5849C15.693 11.5742 14.8577 10.7549 13.8272 10.7549C12.7968 10.7549 11.9614 11.5742 11.9614 12.5849C11.9614 13.5956 12.7968 14.415 13.8272 14.415Z" fill="#F8F8F8" stroke="#233564" stroke-width="1.5" stroke-miterlimit="10"/>
    <path d="M27.9621 12.585H15.6929" stroke="#233564" stroke-width="1.5" stroke-miterlimit="10"/>
    <path d="M11.9612 12.585H10.0376" stroke="#233564" stroke-width="1.5" stroke-miterlimit="10"/>
    <path d="M23.254 20.4716C24.2844 20.4716 25.1198 19.6523 25.1198 18.6416C25.1198 17.6309 24.2844 16.8115 23.254 16.8115C22.2235 16.8115 21.3882 17.6309 21.3882 18.6416C21.3882 19.6523 22.2235 20.4716 23.254 20.4716Z" fill="#F8F8F8" stroke="#233564" stroke-width="1.5" stroke-miterlimit="10"/>
    <path d="M27.9621 18.6416H25.1201" stroke="#233564" stroke-width="1.5" stroke-miterlimit="10"/>
    <path d="M21.3941 18.6416H10.0376" stroke="#233564" stroke-width="1.5" stroke-miterlimit="10"/>
    <path d="M18.419 26.5283C19.4495 26.5283 20.2848 25.7089 20.2848 24.6982C20.2848 23.6875 19.4495 22.8682 18.419 22.8682C17.3886 22.8682 16.5532 23.6875 16.5532 24.6982C16.5532 25.7089 17.3886 26.5283 18.419 26.5283Z" fill="#F8F8F8" stroke="#233564" stroke-width="1.5" stroke-miterlimit="10"/>
    <path d="M27.9621 24.6982H20.2852" stroke="#233564" stroke-width="1.5" stroke-miterlimit="10"/>
    <path d="M16.5535 24.6982H10.0376" stroke="#233564" stroke-width="1.5" stroke-miterlimit="10"/>
</svg>
