<svg width="24" height="24" viewBox="0 0 24 24" fill="none" xmlns="http://www.w3.org/2000/svg">
    <path fill-rule="evenodd" clip-rule="evenodd" d="M17.25 6.75C17.25 9.6495 14.8995 12 12 12C9.1005 12 6.75 9.6495 6.75 6.75C6.75 3.85051 9.1005 1.5 12 1.5C14.8995 1.5 17.25 3.85051 17.25 6.75ZM18.75 6.75C18.75 10.4779 15.7279 13.5 12 13.5C8.27208 13.5 5.25 10.4779 5.25 6.75C5.25 3.02208 8.27208 0 12 0C15.7279 0 18.75 3.02208 18.75 6.75ZM3 20C3 18.067 4.567 16.5 6.5 16.5H17.5C19.433 16.5 21 18.067 21 20V22H3V20ZM1.5 20C1.5 17.2386 3.73858 15 6.5 15H17.5C20.2614 15 22.5 17.2386 22.5 20V23.5H1.5V20Z" fill="#233564"/>
</svg>
