<svg width="24" height="24" viewBox="0 0 24 24" fill="none" xmlns="http://www.w3.org/2000/svg">
    <path fill-rule="evenodd" clip-rule="evenodd"
        d="M12.0006 0C11.5864 0 11.2507 0.335768 11.2507 0.74996V4.24977C11.2507 4.66396 11.5864 4.99973 12.0006 4.99973C12.4148 4.99973 12.7506 4.66396 12.7506 4.24977V0.74996C12.7506 0.335769 12.4148 0 12.0006 0ZM19.7502 11.2494C19.336 11.2494 19.0003 11.5852 19.0003 11.9994C19.0003 12.4136 19.336 12.7493 19.7502 12.7493H23.25C23.6642 12.7493 24 12.4136 24 11.9994C24 11.5852 23.6642 11.2494 23.25 11.2494H19.7502ZM20.4848 19.4236C20.7777 19.7165 20.7777 20.1913 20.4848 20.4842C20.1919 20.7771 19.7171 20.7771 19.4242 20.4842L16.9495 18.0094C16.6566 17.7166 16.6566 17.2417 16.9495 16.9488C17.2423 16.656 17.7172 16.656 18.0101 16.9488L20.4848 19.4236ZM20.4848 4.57514C20.7777 4.28227 20.7777 3.80742 20.4848 3.51454C20.1919 3.22166 19.7171 3.22166 19.4242 3.51454L16.9495 5.98928C16.6566 6.28216 16.6566 6.75701 16.9495 7.04989C17.2424 7.34276 17.7172 7.34276 18.0101 7.04989L20.4848 4.57514ZM11.2494 7.24961C11.2494 6.83542 11.5852 6.49965 11.9994 6.49965C15.0368 6.49965 17.4991 8.96196 17.4991 11.9994C17.4991 13.5179 16.8827 14.8938 15.8882 15.8882C15.5954 16.1811 15.1205 16.1811 14.8276 15.8882C14.5347 15.5954 14.5347 15.1205 14.8276 14.8276C15.5523 14.103 15.9991 13.1041 15.9991 11.9994C15.9991 9.79034 14.2084 7.99957 11.9994 7.99957C11.5852 7.99957 11.2494 7.6638 11.2494 7.24961ZM9.99946 5.34911C9.96556 5.39916 9.93217 5.44958 9.89929 5.50036C9.01371 6.8681 8.49954 8.4987 8.49954 10.2494C8.49954 14.2668 11.2071 17.6518 14.897 18.6792C15.1591 18.7521 15.4261 18.8132 15.6975 18.8618C16.1087 18.9354 16.3043 19.4347 15.9928 19.713C15.7579 19.9228 15.512 20.1204 15.2559 20.305C13.7771 21.3709 11.9616 21.9988 9.99946 21.9988C5.02916 21.9988 0.999939 17.9696 0.999939 12.9993C0.999939 8.33593 4.54691 4.50099 9.0902 4.04515C9.38921 4.01515 9.69254 3.99979 9.99946 3.99979L10.0335 3.99985C10.4512 4.0014 10.6364 4.5046 10.3775 4.83249C10.2454 4.99986 10.1193 5.17218 9.99946 5.34911ZM2.49986 12.9993C2.49986 9.53789 4.84487 6.62419 8.03287 5.7602C7.37131 7.11602 6.99962 8.63976 6.99962 10.2494C6.99962 14.5214 9.61271 18.1824 13.3282 19.7219C12.3252 20.2196 11.1952 20.4989 9.99946 20.4989C5.85754 20.4989 2.49986 17.1412 2.49986 12.9993Z"
        fill="#233564" />
</svg>
