<svg width="25" height="25" viewBox="0 0 25 25" fill="none" xmlns="http://www.w3.org/2000/svg">
<path fill-rule="evenodd" clip-rule="evenodd" d="M8.86407 2.53621C9.06007 2.33484 9.35625 2.26772 9.61991 2.36492C9.88357 2.46213 10.0653 2.70543 10.0837 2.98584L10.329 6.72622C10.4309 6.73285 10.5336 6.7393 10.6367 6.74578C11.3695 6.79186 12.1289 6.8396 12.847 6.96305C15.7568 7.46269 18.0779 8.97858 19.9471 11.1597C21.5868 13.0754 22.7017 15.2608 23.4569 17.618C23.486 17.7048 23.5 17.7836 23.5066 17.8208L23.5112 17.8466L23.5146 17.8656L23.5151 17.8681C23.5976 18.1873 23.4499 18.5218 23.1576 18.6757C22.8632 18.8306 22.5008 18.7608 22.2849 18.5077C22.1 18.2907 21.9266 18.0798 21.7577 17.8744C21.3993 17.4385 21.0611 17.0271 20.6754 16.6346L20.6737 16.6329C19.2753 15.1999 17.5402 14.422 15.5149 14.145C13.9846 13.9389 12.4552 13.9898 10.8224 14.0553L11.1138 18.4981C11.1319 18.7741 10.9884 19.0356 10.7459 19.1685C10.5034 19.3014 10.2057 19.2817 9.98283 19.118L7.91093 17.5959L7.91049 17.5956C5.4548 15.7914 3.02803 14.0085 0.573047 12.2082C0.406998 12.0864 0.301864 11.8986 0.284801 11.6934C0.267741 11.4882 0.34043 11.2857 0.484088 11.1382C1.71115 9.87814 2.9299 8.62751 4.14855 7.37698L4.14859 7.37694L4.15173 7.37372C5.71687 5.76764 7.28186 4.16171 8.86407 2.53621ZM15.7067 12.7352C17.5587 12.9884 19.2498 13.6241 20.7035 14.7546C20.1863 13.8096 19.5787 12.9173 18.8662 12.0849C17.1735 10.1099 15.1339 8.79934 12.606 8.36528C11.9652 8.2551 11.3318 8.21554 10.639 8.17229L10.639 8.17229C10.3088 8.15167 9.96506 8.13021 9.60068 8.09986C9.24968 8.07063 8.97292 7.78895 8.94987 7.43749L8.76859 4.67383C7.56791 5.90677 6.37447 7.13143 5.18116 8.35595L5.16698 8.37051L5.1577 8.38002C4.13131 9.43326 3.10497 10.4864 2.07418 11.5447C4.3043 13.1807 6.51534 14.8051 8.74981 16.4467L8.75007 16.4469L9.59415 17.067L9.35494 13.4202C9.34238 13.2286 9.40776 13.0401 9.53625 12.8975C9.66474 12.7549 9.84542 12.6702 10.0372 12.6628C10.2139 12.6559 10.391 12.6487 10.5683 12.6415C12.2594 12.5726 13.9794 12.5025 15.7053 12.735L15.7067 12.7352Z" fill="#233564"/>
</svg>
