<svg width="24" height="24" viewBox="0 0 24 24" fill="none" xmlns="http://www.w3.org/2000/svg">
    <path fill-rule="evenodd" clip-rule="evenodd"
        d="M2.50865 13.5242L2.23201 15.7373L4.05954 15.4763L4.56679 15.8835C6.19523 17.1909 8.35735 18 10.75 18C15.9998 18 20 14.1719 20 9.75C20 5.3281 15.9998 1.5 10.75 1.5C5.5002 1.5 1.5 5.3281 1.5 9.75C1.5 10.9483 1.78593 12.0866 2.30386 13.1168L2.50865 13.5242ZM0.963679 13.7906C0.344805 12.5595 0 11.1913 0 9.75C0 4.36522 4.81294 0 10.75 0C16.6871 0 21.5 4.36522 21.5 9.75C21.5 10.0222 21.4877 10.2917 21.4636 10.5583C23.0376 11.9859 24 13.8983 24 16C24 17.2797 23.6432 18.4892 23.0088 19.5618L23.4057 22.3401C23.4528 22.67 23.17 22.9529 22.84 22.9058L20.0318 22.5046C18.4738 23.4459 16.5638 24 14.5 24C10.1539 24 6.48945 21.5424 5.35947 18.1875C4.74039 17.8614 4.16048 17.4809 3.62772 17.0532L1.14805 17.4074C0.821672 17.454 0.540304 17.1776 0.581196 16.8504L0.963679 13.7906ZM10.75 19.5C15.6911 19.5 19.8536 16.4765 21.1111 12.358C21.9982 13.4253 22.5 14.6963 22.5 16C22.5 16.9941 22.2242 17.9418 21.7177 18.7982L21.4493 19.252L21.7322 21.2323L19.7142 20.944L19.2561 21.2207C17.9375 22.0174 16.2966 22.5 14.5 22.5C11.3061 22.5 8.73919 21.0308 7.43541 19.0277C8.47943 19.3343 9.59338 19.5 10.75 19.5ZM6.5 9.75C6.5 10.1642 6.16421 10.5 5.75 10.5C5.33579 10.5 5 10.1642 5 9.75C5 9.33579 5.33579 9 5.75 9C6.16421 9 6.5 9.33579 6.5 9.75ZM8 9.75C8 10.9926 6.99264 12 5.75 12C4.50736 12 3.5 10.9926 3.5 9.75C3.5 8.50736 4.50736 7.5 5.75 7.5C6.99264 7.5 8 8.50736 8 9.75ZM10.75 10.5C11.1642 10.5 11.5 10.1642 11.5 9.75C11.5 9.33579 11.1642 9 10.75 9C10.3358 9 10 9.33579 10 9.75C10 10.1642 10.3358 10.5 10.75 10.5ZM10.75 12C11.9926 12 13 10.9926 13 9.75C13 8.50736 11.9926 7.5 10.75 7.5C9.50736 7.5 8.5 8.50736 8.5 9.75C8.5 10.9926 9.50736 12 10.75 12ZM16.5 9.75C16.5 10.1642 16.1642 10.5 15.75 10.5C15.3358 10.5 15 10.1642 15 9.75C15 9.33579 15.3358 9 15.75 9C16.1642 9 16.5 9.33579 16.5 9.75ZM18 9.75C18 10.9926 16.9926 12 15.75 12C14.5074 12 13.5 10.9926 13.5 9.75C13.5 8.50736 14.5074 7.5 15.75 7.5C16.9926 7.5 18 8.50736 18 9.75Z"
        fill="#233564" />
</svg>
