<svg width="28" height="24" viewBox="0 0 28 24" fill="none" xmlns="http://www.w3.org/2000/svg">
<path d="M13.7404 23.0824C10.2148 21.7569 5.80526 22.1791 3.20477 22.6174C2.04842 22.8152 1 21.8852 1 20.6665V7.29896C1 6.17119 1.7195 5.17704 2.76793 4.88307C5.18341 4.20427 9.68545 3.43461 13.7404 5.4817V23.0824Z" stroke="#233564" stroke-width="1.5" stroke-miterlimit="10" stroke-linejoin="round"/>
<path d="M13.7404 23.0825C17.2659 21.757 21.6755 22.1792 24.276 22.6175C25.4323 22.8153 26.4807 21.8852 26.4807 20.6666V7.29903C26.4807 6.17125 25.7612 5.17711 24.7128 4.88314C23.8878 4.6518 22.5 4.5 22.5 4.5" stroke="#233564" stroke-width="1.5" stroke-miterlimit="10" stroke-linejoin="round"/>
<path d="M13.7404 23.0826C14.9995 21.554 17.7953 20.2605 20.7709 18.9831C21.6857 18.5876 22.6262 18.2509 22.6262 17.0322L22.5286 2.15739C22.5286 1.02962 21.9376 0.735652 21.0742 0.869274C18.9619 1.19531 15.3592 3.39206 13.7404 5.48192V23.0826V23.0826Z" stroke="#233564" stroke-width="1.5" stroke-miterlimit="10" stroke-linejoin="round"/>
</svg>
