<svg width="24" height="24" viewBox="0 0 24 24" fill="none" xmlns="http://www.w3.org/2000/svg">
<path d="M10.2042 0L2.30558 0.00428108C2.04444 0.00428108 1.88604 0.291113 2.02303 0.51373L5.76897 6.57574C5.89741 6.78123 6.1928 6.78979 6.3298 6.58858L10.4824 0.522292C10.6323 0.299676 10.4739 0 10.2042 0Z" fill="#524897"/>
<path d="M4.11412 9.47259L0.381016 3.42343C0.269708 3.24791 0 3.32497 0 3.53474V15.1707C0 15.3719 0.261146 15.4533 0.376735 15.2863L4.10984 9.83221C4.18261 9.72518 4.18261 9.5839 4.11412 9.47259Z" fill="#E51674"/>
<path d="M21.9676 0.00428108L14.6427 0C14.4843 0 14.3388 0.0770594 14.2489 0.209773L7.90002 9.48259C7.79299 9.63671 7.78871 9.8422 7.88718 10.0049L15.1136 21.6965C15.2506 21.9148 15.5332 21.9876 15.7601 21.8592L22.8453 17.7708C23.389 17.4582 23.7186 16.8803 23.7186 16.2553V1.75524C23.7143 0.787718 22.9309 0.00428108 21.9676 0.00428108Z" fill="#22A186"/>
<path d="M2.03878 18.4394L11.5043 23.9064C11.7226 24.0305 11.9923 24.0305 12.2063 23.9064L12.6259 23.6624C12.7286 23.6024 12.7629 23.4697 12.6987 23.3712L6.0844 12.6557C6.00306 12.5273 5.81898 12.523 5.73336 12.6471L1.97029 18.1398C1.90179 18.2382 1.93176 18.3752 2.03878 18.4394Z" fill="#F29100"/>
</svg>
