<svg width="56" height="56" viewBox="0 0 56 56" fill="none" xmlns="http://www.w3.org/2000/svg">
<path d="M28.0556 47C29.1602 47 30.0556 46.1046 30.0556 45C30.0556 43.8954 29.1602 43 28.0556 43C26.951 43 26.0556 43.8954 26.0556 45C26.0556 46.1046 26.951 47 28.0556 47Z" fill="white"/>
<path d="M22 47C23.1046 47 24 46.1046 24 45C24 43.8954 23.1046 43 22 43C20.8954 43 20 43.8954 20 45C20 46.1046 20.8954 47 22 47Z" fill="white"/>
<path d="M34 47C35.1046 47 36 46.1046 36 45C36 43.8954 35.1046 43 34 43C32.8954 43 32 43.8954 32 45C32 46.1046 32.8954 47 34 47Z" fill="white"/>
<path d="M41.88 13H15V34.36H41.88V13Z" stroke="white" stroke-width="1.5" stroke-miterlimit="10" stroke-linejoin="round"/>
<path d="M15 26.8899L21.44 18.9399L32.98 34.3599" stroke="white" stroke-width="1.5" stroke-miterlimit="10" stroke-linejoin="round"/>
<path d="M41.88 30.1199L36.35 24.6699L29.81 30.1199" stroke="white" stroke-width="1.5" stroke-miterlimit="10" stroke-linejoin="round"/>
<path d="M30.01 21.3001C31.1753 21.3001 32.12 20.3554 32.12 19.1901C32.12 18.0248 31.1753 17.0801 30.01 17.0801C28.8447 17.0801 27.9 18.0248 27.9 19.1901C27.9 20.3554 28.8447 21.3001 30.01 21.3001Z" stroke="white" stroke-width="1.5" stroke-miterlimit="10" stroke-linejoin="round"/>
</svg>
