<svg width="24" height="24" viewBox="0 0 24 24" fill="none" xmlns="http://www.w3.org/2000/svg">
<path fill-rule="evenodd" clip-rule="evenodd" d="M12 0.000488281C11.5858 0.000488281 11.25 0.336275 11.25 0.750488V4.25049C11.25 4.6647 11.5858 5.00049 12 5.00049C12.4142 5.00049 12.75 4.6647 12.75 4.25049V0.750488C12.75 0.336275 12.4142 0.000488281 12 0.000488281ZM5.98913 7.05026C6.28202 7.34315 6.7569 7.34315 7.04979 7.05026C7.34268 6.75736 7.34268 6.28249 7.04979 5.9896L4.57492 3.51472C4.28202 3.22183 3.80715 3.22183 3.51426 3.51472C3.22136 3.80762 3.22136 4.28249 3.51426 4.57538L5.98913 7.05026ZM18.0099 7.05028C17.717 7.34317 17.2422 7.34317 16.9493 7.05028C16.6564 6.75739 16.6564 6.28251 16.9493 5.98962L19.4241 3.51474C19.717 3.22185 20.1919 3.22185 20.4848 3.51474C20.7777 3.80764 20.7777 4.28251 20.4848 4.57541L18.0099 7.05028ZM4.57492 20.4853C4.28202 20.7782 3.80715 20.7782 3.51426 20.4853C3.22136 20.1924 3.22136 19.7175 3.51426 19.4246L5.98913 16.9498C6.28202 16.6569 6.7569 16.6569 7.04979 16.9498C7.34268 17.2426 7.34268 17.7175 7.04979 18.0104L4.57492 20.4853ZM20.4848 20.4853C20.1919 20.7782 19.7171 20.7782 19.4242 20.4853L16.9493 18.0104C16.6564 17.7175 16.6564 17.2426 16.9493 16.9498C17.2422 16.6569 17.7171 16.6569 18.0099 16.9498L20.4848 19.4246C20.7777 19.7175 20.7777 20.1924 20.4848 20.4853ZM11.9995 24C12.4138 24 12.7495 23.6642 12.7495 23.25V19.75C12.7495 19.3358 12.4138 19 11.9995 19C11.5853 19 11.2495 19.3358 11.2495 19.75V23.25C11.2495 23.6642 11.5853 24 11.9995 24ZM23.9995 12C23.9995 12.4142 23.6637 12.75 23.2495 12.75H19.7495C19.3353 12.75 18.9995 12.4142 18.9995 12C18.9995 11.5858 19.3353 11.25 19.7495 11.25H23.2495C23.6637 11.25 23.9995 11.5858 23.9995 12ZM0 12.0005C0 11.5863 0.335786 11.2505 0.75 11.2505H4.25C4.66421 11.2505 5 11.5863 5 12.0005C5 12.4147 4.66421 12.7505 4.25 12.7505H0.75C0.335786 12.7505 0 12.4147 0 12.0005ZM11.9706 16.0003C9.76144 16.0003 7.97058 14.2094 7.97058 12.0003C7.97058 9.79114 9.76144 8.00027 11.9706 8.00027C14.1797 8.00027 15.9706 9.79114 15.9706 12.0003C15.9706 14.2094 14.1797 16.0003 11.9706 16.0003ZM6.47058 12.0003C6.47058 8.96271 8.93301 6.50027 11.9706 6.50027C15.0081 6.50027 17.4706 8.96271 17.4706 12.0003C17.4706 15.0378 15.0081 17.5003 11.9706 17.5003C8.93301 17.5003 6.47058 15.0378 6.47058 12.0003Z" fill="#233564"/>
</svg>
