<svg width="27" height="26" viewBox="0 0 27 26" fill="none" xmlns="http://www.w3.org/2000/svg">
<path d="M23.214 11.819L21.9806 23.3051C21.8298 24.912 20.3497 24.5443 18.575 24.5443H8.53644C6.76171 24.5443 5.28162 24.9188 5.13087 23.3051L3.89746 11.9415" stroke="#233564" stroke-width="1.5" stroke-miterlimit="10"/>
<path d="M11.4146 24.5034V20.1459C11.4146 18.8318 12.4835 17.7697 13.806 17.7697C15.1285 17.7697 16.1974 18.8318 16.1974 20.1459V24.5034" stroke="#233564" stroke-width="1.5" stroke-miterlimit="10" stroke-linejoin="round"/>
<path d="M23.4336 12.7245C23.8242 13.0853 24.4409 13.0581 24.8041 12.67L25.3591 12.0708C25.7154 11.6827 25.6949 11.0768 25.3043 10.7159L19.521 5.39838L15.4439 1.65363C14.4914 0.782124 13.025 0.782124 12.0726 1.65363L1.84899 11.0632C1.45841 11.424 1.431 12.03 1.79417 12.4181L2.34921 13.0172C2.71238 13.4121 3.32908 13.4326 3.71966 13.0717" stroke="#233564" stroke-width="1.5" stroke-miterlimit="10" stroke-linecap="round"/>
</svg>
