<svg width="24" height="24" viewBox="0 0 24 24" fill="none" xmlns="http://www.w3.org/2000/svg">
    <path fill-rule="evenodd" clip-rule="evenodd" d="M12 0.5C11.5858 0.5 11.25 0.835786 11.25 1.25V2H3C1.89543 2 1 2.89543 1 4V5C1 6.10457 1.89543 7 3 7L3 21C3 22.1046 3.89543 23 5 23H19C20.1046 23 21 22.1046 21 21V7C22.1046 7 23 6.10457 23 5V4C23 2.89543 22.1046 2 21 2H12.75V1.25C12.75 0.835786 12.4142 0.5 12 0.5ZM4.5 21V7H19.5V21C19.5 21.2761 19.2761 21.5 19 21.5H15.5V11.25C15.5 10.8358 15.1642 10.5 14.75 10.5C14.3358 10.5 14 10.8358 14 11.25V21.5H10V11.25C10 10.8358 9.66421 10.5 9.25 10.5C8.83579 10.5 8.5 10.8358 8.5 11.25V21.5H5C4.72386 21.5 4.5 21.2761 4.5 21ZM2.5 4C2.5 3.72386 2.72386 3.5 3 3.5H21C21.2761 3.5 21.5 3.72386 21.5 4V5C21.5 5.27614 21.2761 5.5 21 5.5H3C2.72386 5.5 2.5 5.27614 2.5 5V4Z" fill="white"/>
</svg>
