<svg width="24" height="24" viewBox="0 0 24 24" fill="none" xmlns="http://www.w3.org/2000/svg">
<path fill-rule="evenodd" clip-rule="evenodd" d="M2.30042 13.4766L2.21567 13.7012C2.0759 14.1085 2.00002 14.5454 2.00002 15.0002C2.00002 17.2093 3.79091 19.0002 6.00009 19.0002C8.20926 19.0002 10.0002 17.2093 10.0002 15.0002C10.0002 12.791 8.20926 11.0001 6.00009 11.0001C4.33038 11.0001 2.89962 12.0231 2.30042 13.4766ZM0.5 15.0002C0.5 14.1662 0.685594 13.3757 1.01773 12.6675L2.72101 8.10331C3.30868 6.30176 5.00237 5 7.00011 5C8.56034 5 9.93512 5.79403 10.7424 7.00003H13.258C14.0653 5.79403 15.44 5 17.0003 5C19.0129 5 20.7169 6.32125 21.2923 8.14369L23.0157 12.7393C23.3271 13.429 23.5004 14.1943 23.5004 15.0002C23.5004 18.0378 21.0379 20.5003 18.0003 20.5003C15.3042 20.5003 13.0611 18.5603 12.5909 16.0002H11.4095C10.9392 18.5603 8.6962 20.5003 6.00009 20.5003C2.96247 20.5003 0.5 18.0378 0.5 15.0002ZM12.7295 8.50006H12.6117H11.3887H11.2709L10.7709 11.5001H13.2295L12.7295 8.50006ZM9.77419 8.35576C9.3244 7.26654 8.25177 6.50002 7.00011 6.50002C5.7894 6.50002 4.7462 7.2172 4.27215 8.2499L4.27256 8.25004L3.5919 10.0539C4.31921 9.69915 5.1364 9.50007 6.00009 9.50007C7.27843 9.50007 8.45491 9.93619 9.38886 10.6677L9.77419 8.35576ZM11.1252 13.0001C11.3095 13.4719 11.4305 13.9754 11.4778 14.5002H12.5226C12.5699 13.9754 12.6909 13.4719 12.8751 13.0001H11.1252ZM14.6115 10.6678L14.2262 8.35578C14.676 7.26655 15.7486 6.50002 17.0003 6.50002C18.262 6.50002 19.3417 7.27886 19.785 8.38199L20.4167 10.0579C19.6873 9.70065 18.8672 9.50007 18.0003 9.50007C16.7219 9.50007 15.5455 9.93619 14.6115 10.6678ZM18.0003 19.0002C20.2095 19.0002 22.0004 17.2093 22.0004 15.0002C22.0004 12.791 20.2095 11.0001 18.0003 11.0001C15.7911 11.0001 14.0002 12.791 14.0002 15.0002C14.0002 17.2093 15.7911 19.0002 18.0003 19.0002Z" fill="white"/>
</svg>
