<svg width="24" height="24" viewBox="0 0 24 24" fill="none" xmlns="http://www.w3.org/2000/svg">
    <path fill-rule="evenodd" clip-rule="evenodd" d="M1.5 12C1.5 17.799 6.20101 22.5 12 22.5C17.799 22.5 22.5 17.799 22.5 12C22.5 6.20101 17.799 1.5 12 1.5C6.20101 1.5 1.5 6.20101 1.5 12ZM12 0C5.37258 0 0 5.37258 0 12C0 18.6274 5.37258 24 12 24C18.6274 24 24 18.6274 24 12C24 5.37258 18.6274 0 12 0ZM10.5 12.5H11.25V17H10.25C9.83579 17 9.5 17.3358 9.5 17.75C9.5 18.1642 9.83579 18.5 10.25 18.5H12H13.75C14.1642 18.5 14.5 18.1642 14.5 17.75C14.5 17.3358 14.1642 17 13.75 17H12.75V11.75C12.75 11.3358 12.4142 11 12 11H10.5C10.0858 11 9.75 11.3358 9.75 11.75C9.75 12.1642 10.0858 12.5 10.5 12.5ZM12.5 7.5C12.5 7.77614 12.2761 8 12 8C11.7239 8 11.5 7.77614 11.5 7.5C11.5 7.22386 11.7239 7 12 7C12.2761 7 12.5 7.22386 12.5 7.5ZM14 7.5C14 8.60457 13.1046 9.5 12 9.5C10.8954 9.5 10 8.60457 10 7.5C10 6.39543 10.8954 5.5 12 5.5C13.1046 5.5 14 6.39543 14 7.5Z" fill="white"/>
</svg>
