<svg width="24" height="24" viewBox="0 0 24 24" fill="none" xmlns="http://www.w3.org/2000/svg">
    <path fill-rule="evenodd" clip-rule="evenodd"
        d="M13.193 3.13681L21.9203 11.269L21.1943 11.995L20.4774 11.4215C20.3671 11.3303 20.2296 11.2696 20.0765 11.2539C19.6645 11.2117 19.2962 11.5114 19.2539 11.9235L18.3921 20.3265C18.3528 20.7091 18.0306 21 17.646 21H15V18C15 16.3431 13.6568 15 12 15C10.3431 15 8.99999 16.3431 8.99999 18V21H6.35402C5.96944 21 5.64718 20.7091 5.60794 20.3265L4.74609 11.9235C4.70383 11.5114 4.33553 11.2117 3.92348 11.2539C3.77078 11.2696 3.6335 11.33 3.52333 11.4209L2.80565 11.995L2.07969 11.269L10.807 3.13682C11.479 2.51057 12.5209 2.51057 13.193 3.13681ZM3.39212 13.424C2.91236 13.6898 2.30283 13.6135 1.90322 13.2139L0.835907 12.1466C0.335529 11.6462 0.349913 10.8306 0.867631 10.3482L9.78438 2.0394C11.0325 0.876373 12.9675 0.87637 14.2156 2.0394L23.1323 10.3482C23.6501 10.8306 23.6645 11.6462 23.1641 12.1466L22.0968 13.2139C21.6972 13.6135 21.0876 13.6898 20.6079 13.424L19.8842 20.4796C19.7665 21.6273 18.7997 22.5 17.646 22.5H15H8.99999H6.35402C5.20027 22.5 4.23348 21.6273 4.11577 20.4796L3.39212 13.424ZM13.5 18V21H10.5V18C10.5 17.1716 11.1716 16.5 12 16.5C12.8284 16.5 13.5 17.1716 13.5 18Z"
        fill="#233564" />
</svg>
