<svg width="24" height="24" viewBox="0 0 24 24" fill="none" xmlns="http://www.w3.org/2000/svg">
    <path fill-rule="evenodd" clip-rule="evenodd"
        d="M17.0424 14.7062C16.6555 15.0929 16.1809 15.5675 15.8197 15.9288C15.012 16.7367 13.7278 16.9128 12.7268 16.2611C12.0031 15.79 10.727 14.9194 9.88874 14.0811C9.05042 13.2428 8.18013 11.967 7.70916 11.2435C7.05776 10.2427 7.23361 8.95878 8.04128 8.15111L9.26412 6.92827C9.24008 6.86579 9.208 6.79262 9.16615 6.70896C8.90796 6.19278 8.40459 5.52607 7.76729 4.88861C7.13025 4.25142 6.46381 3.74843 5.9479 3.49054C5.86457 3.44889 5.79164 3.41693 5.72933 3.39295C4.0173 5.11836 3.169 6.13574 3.16904 7.45208C3.16907 8.14658 3.41299 9.09012 4.23023 10.4255C5.04976 11.7646 6.39544 13.4156 8.47522 15.4953C10.555 17.5751 12.2059 18.9208 13.5451 19.7403C14.8804 20.5576 15.824 20.8015 16.5185 20.8015C17.8348 20.8016 18.8521 19.9533 20.5775 18.2414C20.5535 18.179 20.5214 18.106 20.4797 18.0226C20.2216 17.5064 19.7183 16.8397 19.0811 16.2025C18.4438 15.5651 17.7775 15.062 17.2617 14.8041C17.178 14.7622 17.1048 14.7302 17.0424 14.7062ZM8.82808 3.82808C10.2421 5.24247 11.3036 7.01015 10.5963 7.71739L9.10194 9.21177C8.77704 9.53667 8.71565 10.0401 8.9663 10.4252C9.43802 11.1499 10.2338 12.3049 10.9494 13.0205C11.665 13.7361 12.8203 14.5321 13.5452 15.0041C13.9304 15.2548 14.4339 15.1934 14.7589 14.8683C15.2105 14.4165 15.8397 13.7873 16.2533 13.3741C16.961 12.6671 18.7276 13.7276 20.1418 15.1418C21.556 16.556 22.617 18.3241 21.9099 19.0312C18.3744 22.5667 15.8998 25.0413 7.41456 16.556C-1.07072 8.07072 1.40361 5.59639 4.9391 2.0609C5.64615 1.35385 7.41404 2.4137 8.82808 3.82808Z"
        fill="#233564" />
</svg>
