<svg width="38" height="40" viewBox="0 0 38 40" fill="none" xmlns="http://www.w3.org/2000/svg">
<path d="M11.5022 17.6431L11.0044 16.7807C9.60537 14.3576 10.4367 11.255 12.8598 9.856L13.7222 9.35812C16.1453 7.95914 19.2479 8.79049 20.6469 11.2136L21.1448 12.0759" stroke="#233564" stroke-width="1.5" stroke-miterlimit="10"/>
<path d="M26.3578 32.5277C22.0817 34.9965 16.6184 33.5326 14.1496 29.2565L8.63184 19.6995L24.1184 10.7583L29.6361 20.3153C32.1049 24.5914 30.6339 30.0589 26.3578 32.5277Z" stroke="#233564" stroke-width="1.5" stroke-miterlimit="10"/>
<path d="M6.61272 12.9111C7.39993 12.4566 7.66964 11.45 7.21515 10.6628C6.76066 9.87559 5.75407 9.60588 4.96686 10.0604C4.17966 10.5149 3.90994 11.5215 4.36443 12.3087C4.81893 13.0959 5.82552 13.3656 6.61272 12.9111Z" stroke="#233564" stroke-width="1.5" stroke-miterlimit="10"/>
<path d="M10.485 12.7378L7.38232 11.9065" stroke="#233564" stroke-width="1.5" stroke-miterlimit="10"/>
<path d="M18.9638 5.78047C19.751 5.32598 20.0207 4.31939 19.5662 3.53218C19.1117 2.74498 18.1051 2.47526 17.3179 2.92975C16.5307 3.38425 16.261 4.39084 16.7155 5.17804C17.17 5.96525 18.1766 6.23496 18.9638 5.78047Z" stroke="#233564" stroke-width="1.5" stroke-miterlimit="10"/>
<path d="M16.8852 9.04268L17.7165 5.94004" stroke="#233564" stroke-width="1.5" stroke-miterlimit="10"/>
<path d="M10.3228 22.6284L6.78076 24.6733L8.45954 27.5811" stroke="#233564" stroke-width="1.5" stroke-miterlimit="10"/>
<path d="M13.3718 27.9095L10.5425 29.543L12.2254 32.4578" stroke="#233564" stroke-width="1.5" stroke-miterlimit="10"/>
<path d="M18.0417 32.9197L15.2124 34.5532L16.8912 37.461" stroke="#233564" stroke-width="1.5" stroke-miterlimit="10"/>
<path d="M25.6309 13.79L29.1729 11.7451L30.8517 14.6528" stroke="#233564" stroke-width="1.5" stroke-miterlimit="10"/>
<path d="M28.6797 19.071L31.509 17.4375L33.1919 20.3524" stroke="#233564" stroke-width="1.5" stroke-miterlimit="10"/>
<path d="M30.6836 25.6204L33.5129 23.9868L35.1917 26.8946" stroke="#233564" stroke-width="1.5" stroke-miterlimit="10"/>
<path d="M16.3711 15.231L23.8639 28.2088" stroke="#233564" stroke-width="1.5" stroke-miterlimit="10"/>
</svg>
