<svg width="24" height="24" viewBox="0 0 24 24" fill="none" xmlns="http://www.w3.org/2000/svg">
<path fill-rule="evenodd" clip-rule="evenodd" d="M12 1.75C6.33908 1.75 1.75 6.33908 1.75 12C1.75 17.6609 6.33908 22.25 12 22.25C16.5196 22.25 20.3578 19.3244 21.7204 15.2615C21.8521 14.8688 22.2772 14.6572 22.67 14.7889C23.0627 14.9206 23.2743 15.3458 23.1426 15.7385C21.5812 20.394 17.1835 23.75 12 23.75C5.51065 23.75 0.25 18.4893 0.25 12C0.25 5.51065 5.51065 0.25 12 0.25C16.5917 0.25 20.5669 2.88349 22.5 6.72102V4.75C22.5 4.33579 22.8358 4 23.25 4C23.6642 4 24 4.33579 24 4.75V8V9.5H22.5H19.25C18.8358 9.5 18.5 9.16421 18.5 8.75C18.5 8.33579 18.8358 8 19.25 8H21.4404C19.8817 4.32581 16.2408 1.75 12 1.75Z" fill="#233564"/>
</svg>
