<svg width="19" height="32" viewBox="0 0 19 32" fill="none" xmlns="http://www.w3.org/2000/svg">
<path d="M6.09 22.15C5.45 21.9 4.83 21.62 4.22 21.31C4.22 21.31 3.13 20.59 2.59 20.18C2.08 19.78 1.73 19.21 1.44 18.6C1.15 17.99 1 17.26 1 16.41C1 15.44 1.24 14.56 1.73 13.77C2.22 12.98 2.96 12.35 3.96 11.88C3.41 11.38 2.97 10.79 2.63 10.12C2.29 9.44 2.12 8.62 2.12 7.65C2.12 6.83 2.28 6.04 2.6 5.3C2.92 4.56 3.4 3.9 4.03 3.34C4.66 2.77 5.46 2.33 6.42 2C7.38 1.67 8.5 1.5 9.79 1.5C10.49 1.5 11.17 1.56 11.82 1.69C12.48 1.82 13.09 1.99 13.66 2.21C14.23 2.44 14.76 2.7 15.23 3.01C15.7 3.32 16.12 3.65 16.48 4.01L15.17 6.05C15.02 6.29 14.86 6.45 14.69 6.55C14.52 6.64 14.31 6.69 14.04 6.69C13.77 6.69 13.49 6.64 13.22 6.52C12.94 6.41 12.65 6.28 12.33 6.14C12.01 6 11.65 5.87 11.25 5.76C10.85 5.65 10.39 5.59 9.88 5.59C8.98 5.59 8.31 5.76 7.88 6.09C7.47 6.42 7.25 6.85 7.25 7.38C7.25 7.7 7.39 8 7.68 8.26C7.97 8.52 8.35 8.77 8.82 9.01C9.29 9.25 9.83 9.49 10.44 9.72C11.04 9.96 11.67 10.21 12.3 10.49C12.94 10.76 13.56 11.07 14.16 11.41C14.76 11.75 15.3 12.14 15.78 12.58C16.25 13.02 16.64 13.53 16.92 14.11C17.21 14.68 17.35 15.34 17.35 16.08C17.35 17.08 17.12 17.99 16.66 18.82C16.2 19.65 15.45 20.33 14.43 20.85C14.97 21.31 15.4 21.85 15.73 22.45C16.06 23.05 16.23 23.78 16.23 24.63C16.23 25.59 16.05 26.48 15.71 27.29C15.36 28.1 14.84 28.8 14.15 29.39C13.46 29.98 12.6 30.43 11.59 30.76C10.57 31.08 9.4 31.25 8.08 31.25C7.42 31.25 6.76 31.19 6.1 31.06C5.44 30.94 4.8 30.77 4.18 30.56C3.56 30.35 2.98 30.07 2.46 29.78C1.94 29.49 1.49 29.17 1.11 28.83L2.46 26.7C2.62 26.45 2.82 26.25 3.04 26.11C3.26 25.97 3.56 25.89 3.92 25.89C4.26 25.89 4.56 25.96 4.83 26.11C5.1 26.26 5.4 26.42 5.73 26.6C6.06 26.78 6.45 26.94 6.89 27.09C7.33 27.24 7.9 27.31 8.6 27.31C9.41 27.31 10.04 27.16 10.5 26.87C10.95 26.58 11.18 26.14 11.18 25.55C11.18 25.09 11.03 24.7 10.74 24.38C10.45 24.06 10.04 23.81 9.59 23.53C8.73 23 6.09 22.15 6.09 22.15Z" stroke="#233564" stroke-width="1.5" stroke-miterlimit="10" stroke-linejoin="round"/>
<path d="M6.12012 15.43C6.12012 15.87 6.27012 16.25 6.57012 16.57C6.87012 16.89 7.26012 17.19 7.75012 17.46C8.24012 17.73 8.79012 17.98 9.42012 18.23C10.0401 18.47 10.6801 18.73 11.3301 19.01C11.6801 18.8 11.9301 18.54 12.0801 18.24C12.2301 17.94 12.3101 17.62 12.3101 17.29C12.3101 16.84 12.1601 16.46 11.8601 16.14C11.5601 15.82 11.1701 15.53 10.6801 15.27C10.1901 15 9.63012 14.75 9.02012 14.51C8.40012 14.27 7.78012 14.01 7.14012 13.72C6.78012 13.96 6.52012 14.21 6.36012 14.48C6.20012 14.75 6.12012 15.07 6.12012 15.43Z" stroke="#233564" stroke-width="1.5" stroke-miterlimit="10" stroke-linejoin="round"/>
</svg>
