<svg width="24" height="24" viewBox="0 0 24 24" fill="none" xmlns="http://www.w3.org/2000/svg">
    <path fill-rule="evenodd" clip-rule="evenodd" d="M1.5 4V18.25C1.5 19.2165 2.2835 20 3.25 20H18.0109C17.6875 19.4949 17.5 18.8943 17.5 18.25V11V4H1.5ZM19 10H23C23.5523 10 24 10.4477 24 11V18.25C24 20.0449 22.5449 21.5 20.75 21.5H3.25C1.45507 21.5 0 20.0449 0 18.25V3.5C0 2.94771 0.447715 2.5 1 2.5H18C18.5523 2.5 19 2.94772 19 3.5V10ZM19 18.25V11.5H22.5V18.25C22.5 19.2165 21.7165 20 20.75 20C19.7835 20 19 19.2165 19 18.25ZM4.5 10V8H6.5V10H4.5ZM3 7.5C3 6.94772 3.44772 6.5 4 6.5H7C7.55228 6.5 8 6.94772 8 7.5V10.5C8 11.0523 7.55228 11.5 7 11.5H4C3.44772 11.5 3 11.0523 3 10.5V7.5ZM9 7.75C9 7.33579 9.36377 7 9.8125 7H14.6875C15.1362 7 15.5 7.33579 15.5 7.75C15.5 8.16421 15.1362 8.5 14.6875 8.5H9.8125C9.36377 8.5 9 8.16421 9 7.75ZM9.8125 10C9.36377 10 9 10.3358 9 10.75C9 11.1642 9.36377 11.5 9.8125 11.5H14.6875C15.1362 11.5 15.5 11.1642 15.5 10.75C15.5 10.3358 15.1362 10 14.6875 10H9.8125ZM3.5 13.75C3.5 13.3358 3.83579 13 4.25 13H14.75C15.1642 13 15.5 13.3358 15.5 13.75C15.5 14.1642 15.1642 14.5 14.75 14.5H4.25C3.83579 14.5 3.5 14.1642 3.5 13.75ZM4.25 16C3.83579 16 3.5 16.3358 3.5 16.75C3.5 17.1642 3.83579 17.5 4.25 17.5H14.75C15.1642 17.5 15.5 17.1642 15.5 16.75C15.5 16.3358 15.1642 16 14.75 16H4.25Z" fill="white"/>
</svg>
