<svg width="24" height="24" viewBox="0 0 24 24" fill="none" xmlns="http://www.w3.org/2000/svg">
<path fill-rule="evenodd" clip-rule="evenodd" d="M12.7688 6.26781C12.369 6.74856 11.631 6.74856 11.2312 6.26781L10.8467 5.80559C9.92716 4.69992 8.54594 4 7 4C4.23858 4 2 6.23858 2 9C2 10.9967 3.42777 13.1065 5.68812 15.335C6.78085 16.4123 7.98405 17.4388 9.15617 18.4279C9.24685 18.5044 9.33755 18.5808 9.42814 18.6572C10.0745 19.2021 10.7152 19.7423 11.3038 20.2655C11.6995 20.6172 12.3005 20.6172 12.6962 20.2655C13.2848 19.7423 13.9255 19.2021 14.5719 18.6572C14.6625 18.5808 14.7531 18.5044 14.8438 18.4279C16.016 17.4388 17.2191 16.4123 18.3119 15.335C20.5722 13.1065 22 10.9967 22 9C22 6.23858 19.7614 4 17 4C15.4541 4 14.0728 4.69992 13.1533 5.80559L12.7688 6.26781ZM10.9126 3.80908C9.82411 2.98734 8.46896 2.5 7 2.5C3.41016 2.5 0.5 5.41016 0.5 9C0.5 13.0911 4.88811 16.7912 8.44912 19.7938C9.52103 20.6976 10.518 21.5383 11.2978 22.3074C11.6872 22.6914 12.3128 22.6914 12.7022 22.3074C13.482 21.5383 14.479 20.6976 15.5509 19.7938C19.1119 16.7912 23.5 13.0911 23.5 9C23.5 5.41016 20.5898 2.5 17 2.5C15.531 2.5 14.1759 2.98734 13.0874 3.80908C12.6861 4.11198 12.3211 4.46032 12 4.84644C11.6789 4.46032 11.3139 4.11198 10.9126 3.80908Z" fill="#233564"/>
</svg>
