<svg width="24" height="24" viewBox="0 0 24 24" fill="none" xmlns="http://www.w3.org/2000/svg">
<path fill-rule="evenodd" clip-rule="evenodd" d="M11.2501 2.25C11.2501 1.83579 11.5858 1.5 12.0001 1.5C12.4143 1.5 12.7501 1.83579 12.7501 2.25V17.02L19.0565 12.3952C19.3906 12.1503 19.8599 12.2225 20.1049 12.5565C20.3498 12.8906 20.2776 13.3599 19.9436 13.6049L13.0349 18.6712C12.419 19.1229 11.5811 19.1229 10.9652 18.6712L4.05653 13.6049C3.7225 13.3599 3.6503 12.8906 3.89525 12.5565C4.1402 12.2225 4.60955 12.1503 4.94357 12.3952L11.2501 17.02V2.25ZM6.00006 21.75C6.00006 21.3358 6.33585 21 6.75006 21H17.2501C17.6643 21 18.0001 21.3358 18.0001 21.75C18.0001 22.1642 17.6643 22.5 17.2501 22.5H6.75006C6.33585 22.5 6.00006 22.1642 6.00006 21.75Z" fill="#233564"/>
</svg>
