<svg width="24" height="24" viewBox="0 0 24 24" fill="none" xmlns="http://www.w3.org/2000/svg">
<path fill-rule="evenodd" clip-rule="evenodd" d="M12.0006 0C11.5864 0 11.2507 0.335786 11.2507 0.75V4.25C11.2507 4.66421 11.5864 5 12.0006 5C12.4148 5 12.7506 4.66421 12.7506 4.25V0.75C12.7506 0.335787 12.4148 0 12.0006 0ZM19.7502 11.25C19.336 11.25 19.0003 11.5858 19.0003 12C19.0003 12.4142 19.336 12.75 19.7502 12.75H23.25C23.6642 12.75 24 12.4142 24 12C24 11.5858 23.6642 11.25 23.25 11.25H19.7502ZM20.4848 19.4246C20.7777 19.7175 20.7777 20.1924 20.4848 20.4853C20.1919 20.7782 19.7171 20.7782 19.4242 20.4853L16.9495 18.0104C16.6566 17.7175 16.6566 17.2426 16.9495 16.9497C17.2423 16.6569 17.7172 16.6569 18.0101 16.9497L20.4848 19.4246ZM20.4848 4.57539C20.7777 4.2825 20.7777 3.80762 20.4848 3.51473C20.1919 3.22184 19.7171 3.22184 19.4242 3.51473L16.9495 5.9896C16.6566 6.2825 16.6566 6.75737 16.9495 7.05026C17.2424 7.34316 17.7172 7.34316 18.0101 7.05026L20.4848 4.57539ZM11.2494 7.25C11.2494 6.83579 11.5852 6.5 11.9994 6.5C15.0368 6.5 17.4991 8.96243 17.4991 12C17.4991 13.5186 16.8827 14.8946 15.8882 15.8891C15.5954 16.182 15.1205 16.182 14.8276 15.8891C14.5347 15.5962 14.5347 15.1213 14.8276 14.8284C15.5523 14.1037 15.9991 13.1048 15.9991 12C15.9991 9.79086 14.2084 8 11.9994 8C11.5852 8 11.2494 7.66421 11.2494 7.25ZM9.99946 5.3494C9.96556 5.39945 9.93217 5.44987 9.89929 5.50066C9.01371 6.86846 8.49954 8.49915 8.49954 10.2499C8.49954 14.2676 11.2071 17.6528 14.897 18.6802C15.1591 18.7531 15.4261 18.8142 15.6975 18.8628C16.1087 18.9364 16.3043 19.4357 15.9928 19.714C15.7579 19.9238 15.512 20.1215 15.2559 20.3061C13.7771 21.372 11.9616 22 9.99946 22C5.02916 22 0.999939 17.9706 0.999939 13C0.999939 8.33637 4.54691 4.50123 9.0902 4.04537C9.38921 4.01537 9.69254 4 9.99946 4L10.0335 4.00006C10.4512 4.00161 10.6364 4.50484 10.3775 4.83275C10.2454 5.00013 10.1193 5.17245 9.99946 5.3494ZM2.49986 13C2.49986 9.5384 4.84487 6.62454 8.03287 5.76051C7.37131 7.1164 6.99962 8.64022 6.99962 10.2499C6.99962 14.5222 9.61271 18.1834 13.3282 19.723C12.3252 20.2207 11.1952 20.5 9.99946 20.5C5.85754 20.5 2.49986 17.1421 2.49986 13Z" fill="#233564"/>
</svg>
