<svg width="24" height="24" viewBox="0 0 24 24" fill="none" xmlns="http://www.w3.org/2000/svg">
    <path fill-rule="evenodd" clip-rule="evenodd"
        d="M19.5 2H4.5C4.22386 2 4 2.22386 4 2.5V5C4 5.27614 4.22386 5.5 4.5 5.5H19.5C19.7761 5.5 20 5.27614 20 5V2.5C20 2.22386 19.7761 2 19.5 2ZM4.5 0.5C3.39543 0.5 2.5 1.39543 2.5 2.5V5C2.5 6.10457 3.39543 7 4.5 7H19.5C20.6046 7 21.5 6.10457 21.5 5V2.5C21.5 1.39543 20.6046 0.5 19.5 0.5H4.5ZM19.5 10H4.5C4.22386 10 4 10.2239 4 10.5V13.5C4 13.7761 4.22386 14 4.5 14H19.5C19.7761 14 20 13.7761 20 13.5V10.5C20 10.2239 19.7761 10 19.5 10ZM4.5 8.5C3.39543 8.5 2.5 9.39543 2.5 10.5V13.5C2.5 14.6046 3.39543 15.5 4.5 15.5H19.5C20.6046 15.5 21.5 14.6046 21.5 13.5V10.5C21.5 9.39543 20.6046 8.5 19.5 8.5H4.5ZM4.5 18.5H19.5C19.7761 18.5 20 18.7239 20 19V21.5C20 21.7761 19.7761 22 19.5 22H4.5C4.22386 22 4 21.7761 4 21.5V19C4 18.7239 4.22386 18.5 4.5 18.5ZM2.5 19C2.5 17.8954 3.39543 17 4.5 17H19.5C20.6046 17 21.5 17.8954 21.5 19V21.5C21.5 22.6046 20.6046 23.5 19.5 23.5H4.5C3.39543 23.5 2.5 22.6046 2.5 21.5V19Z"
        fill="#233564" />
</svg>
