<svg width="25" height="24" viewBox="0 0 25 24" fill="none" xmlns="http://www.w3.org/2000/svg">
<path d="M5.28541 6.10488C6.72262 6.10488 7.88771 4.96212 7.88771 3.55244C7.88771 2.14277 6.72262 1 5.28541 1C3.8482 1 2.68311 2.14277 2.68311 3.55244C2.68311 4.96212 3.8482 6.10488 5.28541 6.10488Z" fill="none" stroke="#233564" stroke-width="1.5" stroke-miterlimit="10"/>
<path d="M25 3.55244H7.8877" stroke="#233564" stroke-width="1.5" stroke-miterlimit="10"/>
<path d="M2.68287 3.55244H0" stroke="#233564" stroke-width="1.5" stroke-miterlimit="10"/>
<path d="M18.4334 14.5524C19.8706 14.5524 21.0357 13.4097 21.0357 12C21.0357 10.5903 19.8706 9.44756 18.4334 9.44756C16.9961 9.44756 15.8311 10.5903 15.8311 12C15.8311 13.4097 16.9961 14.5524 18.4334 14.5524Z" fill="none" stroke="#233564" stroke-width="1.5" stroke-miterlimit="10"/>
<path d="M24.9995 12H21.0356" stroke="#233564" stroke-width="1.5" stroke-miterlimit="10"/>
<path d="M15.8394 12H0" stroke="#233564" stroke-width="1.5" stroke-miterlimit="10"/>
<path d="M11.6902 23C13.1274 23 14.2925 21.8572 14.2925 20.4476C14.2925 19.0379 13.1274 17.8951 11.6902 17.8951C10.253 17.8951 9.08789 19.0379 9.08789 20.4476C9.08789 21.8572 10.253 23 11.6902 23Z" fill="none" stroke="#233564" stroke-width="1.5" stroke-miterlimit="10"/>
<path d="M24.9998 20.4476H14.2925" stroke="#233564" stroke-width="1.5" stroke-miterlimit="10"/>
<path d="M9.08791 20.4476H0" stroke="#233564" stroke-width="1.5" stroke-miterlimit="10"/>
</svg>
