<svg width="24" height="24" viewBox="0 0 24 24" fill="none" xmlns="http://www.w3.org/2000/svg">
    <path fill-rule="evenodd" clip-rule="evenodd"
        d="M16.8719 4.00742L17.9327 2.94674C18.128 2.75148 18.4446 2.75148 18.6399 2.94674L20.0543 4.36095C20.2496 4.55622 20.2496 4.8728 20.0543 5.06806L18.9935 6.12874L16.8719 4.00742ZM15.811 5.06807L4.18025 16.6972C4.11616 16.7612 4.0707 16.8415 4.04871 16.9294L3.3751 19.6235L6.06956 18.95C6.15749 18.928 6.23779 18.8826 6.30188 18.8185L17.9327 7.1894L15.811 5.06807ZM2.59329 16.5656C2.68122 16.214 2.86308 15.8928 3.11944 15.6365L16.8719 1.88608C17.653 1.10503 18.9195 1.10503 19.7007 1.88608L21.1151 3.30029C21.8963 4.08134 21.8963 5.34767 21.1151 6.12872L7.3627 19.8791C7.10634 20.1355 6.78514 20.3173 6.43342 20.4052L2.12181 21.483C1.75557 21.5745 1.42383 21.2428 1.51539 20.8766L2.59329 16.5656ZM21.7499 19.9999H18.4994V21.4999H21.7499C22.1642 21.4999 22.5 21.1641 22.5 20.7499C22.5 20.3357 22.1642 19.9999 21.7499 19.9999ZM7.6918 21.4999H16.9992V19.9999H9.36356L8.42351 20.9398C8.20436 21.1589 7.95812 21.3469 7.6918 21.4999Z"
        fill="#233564" />
</svg>
