<svg width="24" height="23" viewBox="0 0 24 23" fill="none" xmlns="http://www.w3.org/2000/svg">
<path fill-rule="evenodd" clip-rule="evenodd" d="M10.4754 1.63025C11.153 0.456587 12.847 0.456579 13.5246 1.63025L23.7615 19.361C24.4391 20.5347 23.5921 22.0018 22.2369 22.0018H1.76313C0.407896 22.0018 -0.439129 20.5347 0.238489 19.361L10.4754 1.63025ZM12.2178 2.38475C12.121 2.21709 11.879 2.21708 11.7822 2.38475L1.54532 20.1155C1.44852 20.2832 1.56952 20.4928 1.76313 20.4928H22.2369C22.4305 20.4928 22.5515 20.2832 22.4547 20.1155L12.2178 2.38475ZM11.25 7.25C11.25 6.83579 11.5858 6.5 12 6.5C12.4142 6.5 12.75 6.83579 12.75 7.25V14.25C12.75 14.6642 12.4142 15 12 15C11.5858 15 11.25 14.6642 11.25 14.25V7.25ZM12 16.25C11.4477 16.25 11 16.6977 11 17.25C11 17.8023 11.4477 18.25 12 18.25C12.5523 18.25 13 17.8023 13 17.25C13 16.6977 12.5523 16.25 12 16.25Z" fill="#233564"/>
</svg>
