<svg width="24" height="24" viewBox="0 0 24 24" fill="none" xmlns="http://www.w3.org/2000/svg">
    <path fill-rule="evenodd" clip-rule="evenodd"
        d="M4 3.5H9C9.27614 3.5 9.5 3.72386 9.5 4V9C9.5 9.27614 9.27614 9.5 9 9.5H4C3.72386 9.5 3.5 9.27614 3.5 9V4C3.5 3.72386 3.72386 3.5 4 3.5ZM2 4C2 2.89543 2.89543 2 4 2H9C10.1046 2 11 2.89543 11 4V9C11 10.1046 10.1046 11 9 11H4C2.89543 11 2 10.1046 2 9V4ZM4 14.5H9C9.27614 14.5 9.5 14.7239 9.5 15V20C9.5 20.2761 9.27614 20.5 9 20.5H4C3.72386 20.5 3.5 20.2761 3.5 20V15C3.5 14.7239 3.72386 14.5 4 14.5ZM2 15C2 13.8954 2.89543 13 4 13H9C10.1046 13 11 13.8954 11 15V20C11 21.1046 10.1046 22 9 22H4C2.89543 22 2 21.1046 2 20V15ZM20 3.5H15C14.7239 3.5 14.5 3.72386 14.5 4V9C14.5 9.27614 14.7239 9.5 15 9.5H20C20.2761 9.5 20.5 9.27614 20.5 9V4C20.5 3.72386 20.2761 3.5 20 3.5ZM15 2C13.8954 2 13 2.89543 13 4V9C13 10.1046 13.8954 11 15 11H20C21.1046 11 22 10.1046 22 9V4C22 2.89543 21.1046 2 20 2H15ZM14 13C13.4477 13 13 13.4477 13 14V15C13 15.5523 13.4477 16 14 16H15C15.5523 16 16 15.5523 16 15V14C16 13.4477 15.5523 13 15 13H14ZM16 17C16 16.4477 16.4477 16 17 16H18C18.5523 16 19 16.4477 19 17V18C19 18.5523 18.5523 19 18 19H17C16.4477 19 16 18.5523 16 18V17ZM20 13C19.4477 13 19 13.4477 19 14V15C19 15.5523 19.4477 16 20 16H21C21.5523 16 22 15.5523 22 15V14C22 13.4477 21.5523 13 21 13H20ZM19 20C19 19.4477 19.4477 19 20 19H21C21.5523 19 22 19.4477 22 20V21C22 21.5523 21.5523 22 21 22H20C19.4477 22 19 21.5523 19 21V20ZM14 19C13.4477 19 13 19.4477 13 20V21C13 21.5523 13.4477 22 14 22H15C15.5523 22 16 21.5523 16 21V20C16 19.4477 15.5523 19 15 19H14Z"
        fill="#233564" />
</svg>
