<svg width="24" height="24" viewBox="0 0 24 24" fill="none" xmlns="http://www.w3.org/2000/svg">
<path fill-rule="evenodd" clip-rule="evenodd" d="M20.5 3H8.5C8.22386 3 8 3.22386 8 3.5V5H6.5V3.5C6.5 2.39543 7.39543 1.5 8.5 1.5H20.5C21.6046 1.5 22.5 2.39543 22.5 3.5V15.5C22.5 16.6046 21.6046 17.5 20.5 17.5H19V16H20.5C20.7761 16 21 15.7761 21 15.5V3.5C21 3.22386 20.7761 3 20.5 3ZM3.5 8H15.5C15.7761 8 16 8.22386 16 8.5V20.5C16 20.7761 15.7761 21 15.5 21H3.5C3.22386 21 3 20.7761 3 20.5V8.5C3 8.22386 3.22386 8 3.5 8ZM1.5 8.5C1.5 7.39543 2.39543 6.5 3.5 6.5H15.5C16.6046 6.5 17.5 7.39543 17.5 8.5V20.5C17.5 21.6046 16.6046 22.5 15.5 22.5H3.5C2.39543 22.5 1.5 21.6046 1.5 20.5V8.5Z" fill="#233564"/>
</svg>
