<svg width="168" height="168" viewBox="0 0 168 168" fill="none" xmlns="http://www.w3.org/2000/svg">
<path d="M100.292 155.672H24.6252" stroke="#233564" stroke-width="1.5" stroke-miterlimit="10"/>
<path d="M141.286 160.786H56.6499" stroke="#233564" stroke-width="1.5" stroke-miterlimit="10"/>
<path d="M127.359 118.096C127.359 118.096 123.783 108.747 129.126 97.8886C132.86 90.2919 138.11 90.4707 139.312 93.6968C140.514 96.9229 135.156 105.392 133.06 109.234C131.358 112.315 129.446 115.276 127.338 118.096" fill="#22A186"/>
<path d="M127.359 118.096C127.359 118.096 123.783 108.747 129.126 97.8886C132.86 90.2919 138.11 90.4707 139.312 93.6968C140.514 96.9229 135.156 105.392 133.06 109.234C131.358 112.315 129.446 115.276 127.338 118.096" stroke="white" stroke-width="1.5" stroke-linejoin="round"/>
<path d="M135.199 121.043C135.199 121.043 128.046 123.504 122.323 139.326" stroke="#22A186" stroke-width="1.5" stroke-linejoin="round"/>
<path d="M128.16 115.471C128.16 115.471 122.996 130.077 122.087 142.474" stroke="#22A186" stroke-width="1.5" stroke-linejoin="round"/>
<path d="M127.359 118.096C127.359 118.096 128.697 105.993 134.648 96.7722L127.359 118.096Z" fill="#22A186"/>
<path d="M127.359 118.096C127.359 118.096 128.697 105.993 134.648 96.7722" stroke="white" stroke-width="1.5" stroke-linejoin="round"/>
<path d="M132.066 122.753C132.066 122.753 137.266 114.169 149.119 111.758C157.41 110.056 160.486 114.312 158.676 117.238C156.866 120.163 146.88 121.122 142.56 121.823C136.944 122.724 131.973 123.254 131.973 123.254" fill="#22A186"/>
<path d="M132.066 122.753C132.066 122.753 137.266 114.169 149.119 111.758C157.41 110.056 160.486 114.312 158.676 117.238C156.866 120.163 146.88 121.122 142.56 121.823C136.944 122.724 131.973 123.254 131.973 123.254" stroke="white" stroke-width="1.5" stroke-linejoin="round"/>
<path d="M132.066 122.753C132.066 122.753 142.452 116.386 153.382 115.442L132.066 122.753Z" fill="#22A186"/>
<path d="M132.066 122.753C132.066 122.753 142.452 116.386 153.382 115.442" stroke="white" stroke-width="1.5" stroke-linejoin="round"/>
<path d="M131.795 133.743L117.542 129.807L116.809 132.461L131.061 136.398L131.795 133.743Z" fill="white" stroke="#233564" stroke-width="1.5" stroke-miterlimit="10"/>
<path d="M124.033 151.988L114.87 149.463L117.86 132.696L130.07 136.065L124.033 151.988Z" fill="white" stroke="#233564" stroke-width="1.5" stroke-miterlimit="10"/>
<path d="M105.935 22.7942H130.671C131.695 22.7942 132.678 22.3873 133.402 21.6629C134.127 20.9385 134.534 19.956 134.534 18.9315V10.8627C134.534 9.83826 134.127 8.85576 133.402 8.13136C132.678 7.40696 131.695 7 130.671 7H98.0668C97.0423 7 96.0599 7.40696 95.3355 8.13136C94.6111 8.85576 94.2041 9.83826 94.2041 10.8627V18.9315C94.2041 19.956 94.6111 20.9385 95.3355 21.6629C96.0599 22.3873 97.0423 22.7942 98.0668 22.7942H99.4259" fill="white"/>
<path d="M105.935 22.7942H130.671C131.695 22.7942 132.678 22.3873 133.402 21.6629C134.127 20.9385 134.534 19.956 134.534 18.9315V10.8627C134.534 9.83826 134.127 8.85576 133.402 8.13136C132.678 7.40696 131.695 7 130.671 7H98.0668C97.0423 7 96.0599 7.40696 95.3355 8.13136C94.6111 8.85576 94.2041 9.83826 94.2041 10.8627V18.9315C94.2041 19.956 94.6111 20.9385 95.3355 21.6629C96.0599 22.3873 97.0423 22.7942 98.0668 22.7942H99.4259" stroke="#233564" stroke-width="1.5" stroke-miterlimit="10"/>
<path d="M106.329 22.7942L97.2444 29.7399L98.0598 22.7942" fill="white"/>
<path d="M106.329 22.7942L97.2444 29.7399L98.0598 22.7942" stroke="#233564" stroke-width="1.5" stroke-linecap="round" stroke-linejoin="round"/>
<path d="M101.107 12.851H127.853" stroke="#E51674" stroke-width="1.5" stroke-linecap="round" stroke-linejoin="round"/>
<path d="M101.107 16.1704H120.764" stroke="#E51674" stroke-width="1.5" stroke-linecap="round" stroke-linejoin="round"/>
<path d="M152.052 36.5857H127.316C126.3 36.5782 125.329 36.1709 124.611 35.4519C123.893 34.733 123.488 33.7603 123.482 32.7445V24.6542C123.482 23.6298 123.889 22.6473 124.614 21.9229C125.338 21.1985 126.32 20.7915 127.345 20.7915H159.963C160.988 20.7915 161.97 21.1985 162.695 21.9229C163.419 22.6473 163.826 23.6298 163.826 24.6542V32.7445C163.826 33.2517 163.726 33.754 163.532 34.2227C163.338 34.6913 163.053 35.1171 162.695 35.4758C162.336 35.8345 161.91 36.119 161.442 36.3132C160.973 36.5073 160.471 36.6072 159.963 36.6072H158.533" fill="white"/>
<path d="M152.052 36.5857H127.316C126.3 36.5782 125.329 36.1709 124.611 35.4519C123.893 34.733 123.488 33.7603 123.482 32.7445V24.6542C123.482 23.6298 123.889 22.6473 124.614 21.9229C125.338 21.1985 126.32 20.7915 127.345 20.7915H159.963C160.988 20.7915 161.97 21.1985 162.695 21.9229C163.419 22.6473 163.826 23.6298 163.826 24.6542V32.7445C163.826 33.2517 163.726 33.754 163.532 34.2227C163.338 34.6913 163.053 35.1171 162.695 35.4758C162.336 35.8345 161.91 36.119 161.442 36.3132C160.973 36.5073 160.471 36.6072 159.963 36.6072H158.533" stroke="#233564" stroke-width="1.5" stroke-miterlimit="10"/>
<path d="M151.658 36.5857L160.736 43.5386L159.92 36.5857" fill="white"/>
<path d="M151.658 36.5857L160.736 43.5386L159.92 36.5857" stroke="#233564" stroke-width="1.5" stroke-linecap="round" stroke-linejoin="round"/>
<path d="M130.378 31.1347C130.378 31.1347 135.385 30.1333 135.771 27.7441C136.158 25.355 133.776 25.7412 133.075 26.7427C132.374 27.7441 132.975 30.9344 136.272 31.1347C139.57 31.335 140.063 27.8443 140.757 27.8443C141.451 27.8443 141.959 31.4209 143.354 31.1419C144.749 30.8629 145.049 28.2377 146.251 28.1375C147.453 28.0374 148.046 31.2849 150.443 31.1633C152.839 31.0417 152.71 29.6397 154.434 29.6397C155.403 29.6552 156.344 29.9672 157.131 30.5339" stroke="#E51674" stroke-width="1.5" stroke-linecap="round" stroke-linejoin="round"/>
<path d="M39.847 54.726L45.963 61.7718L23.6165 67.6804L25.4477 58.5243L39.847 54.726Z" fill="#E51674"/>
<path d="M101.249 47.3221L19.7937 68.8434L34.5286 124.613L115.984 103.092L101.249 47.3221Z" fill="white" stroke="#233564" stroke-width="1.5" stroke-linecap="round" stroke-linejoin="round"/>
<path d="M67.8875 108.168C80.1739 108.168 90.1339 98.208 90.1339 85.9217C90.1339 73.6353 80.1739 63.6753 67.8875 63.6753C55.6012 63.6753 45.6411 73.6353 45.6411 85.9217C45.6411 98.208 55.6012 108.168 67.8875 108.168Z" fill="white" stroke="#233564" stroke-width="1.5" stroke-linecap="round" stroke-linejoin="round"/>
<path d="M67.8875 103.074C77.361 103.074 85.0408 95.3946 85.0408 85.921C85.0408 76.4475 77.361 68.7677 67.8875 68.7677C58.4139 68.7677 50.7341 76.4475 50.7341 85.921C50.7341 95.3946 58.4139 103.074 67.8875 103.074Z" fill="#233564" stroke="#233564" stroke-width="1.5" stroke-linecap="round" stroke-linejoin="round"/>
<path d="M73.3169 78.911C74.8103 78.911 76.0208 77.7005 76.0208 76.2071C76.0208 74.7138 74.8103 73.5032 73.3169 73.5032C71.8236 73.5032 70.613 74.7138 70.613 76.2071C70.613 77.7005 71.8236 78.911 73.3169 78.911Z" fill="white" stroke="#233564" stroke-width="1.5" stroke-linecap="round" stroke-linejoin="round"/>
<path d="M46.3779 91.608L27.7939 96.5222" stroke="#233564" stroke-width="1.5" stroke-linecap="round" stroke-linejoin="round"/>
<path d="M89.3972 80.2342L108.618 75.1555" stroke="#233564" stroke-width="1.5" stroke-linecap="round" stroke-linejoin="round"/>
<path d="M86.9436 59.118L96.5503 56.5786" stroke="#233564" stroke-width="1.5" stroke-linecap="round" stroke-linejoin="round"/>
<path d="M29.3389 47.5871C28.7381 46.3996 28.1873 45.1979 27.6436 44.0105C27.1 42.8231 26.5921 41.5856 26.0628 40.3695C25.5334 39.1535 25.0613 37.9231 24.5892 36.6856C24.1171 35.4481 23.6521 34.2106 23.2373 32.9517C23.2147 32.8815 23.2209 32.8052 23.2544 32.7395C23.2879 32.6738 23.346 32.6241 23.4161 32.6012C23.4792 32.5815 23.5472 32.5843 23.6085 32.609C23.6698 32.6338 23.7206 32.6791 23.7523 32.7371C24.3603 33.9173 24.9111 35.1191 25.4619 36.3137C26.0127 37.5082 26.5277 38.7386 27.0499 39.9475C27.5721 41.1564 28.0657 42.3939 28.5378 43.6242C29.0099 44.8546 29.482 46.0992 29.904 47.3582C29.9174 47.3962 29.923 47.4365 29.9205 47.4767C29.918 47.5169 29.9074 47.5562 29.8894 47.5923C29.8713 47.6283 29.8462 47.6603 29.8156 47.6865C29.7849 47.7126 29.7493 47.7323 29.7109 47.7444C29.6403 47.766 29.5643 47.7621 29.4963 47.7333C29.4283 47.7045 29.3726 47.6528 29.3389 47.5871Z" fill="#E51674"/>
<path d="M17.9369 54.5186C16.6636 54.0965 15.4118 53.6316 14.1671 53.1523C12.9225 52.673 11.6921 52.158 10.4475 51.6573C9.20281 51.1566 7.99395 50.6129 6.77076 50.0693C5.54756 49.5256 4.33868 48.9605 3.15125 48.3525C3.08572 48.3175 3.03637 48.2583 3.01368 48.1876C2.99098 48.1168 2.99669 48.04 3.02961 47.9734C3.05894 47.9149 3.10836 47.869 3.1688 47.8441C3.22924 47.8191 3.29665 47.8168 3.35868 47.8375C4.63194 48.2524 5.88373 48.7173 7.13553 49.1894C8.38734 49.6615 9.61771 50.1766 10.8624 50.6701C12.107 51.1637 13.3231 51.7074 14.5391 52.2581C15.7551 52.8089 16.9712 53.3526 18.1729 53.9535C18.2448 53.9916 18.2991 54.0561 18.3245 54.1335C18.3498 54.2109 18.3442 54.295 18.3088 54.3683C18.275 54.4337 18.219 54.4849 18.1507 54.5124C18.0825 54.54 18.0066 54.5422 17.9369 54.5186Z" fill="#E51674"/>
<path d="M41.5638 45.1258C41.9 44.0743 42.2792 43.0443 42.6726 42.0142C43.066 40.9841 43.488 39.9756 43.8958 38.9598C44.3035 37.944 44.7613 36.9426 45.2191 35.9412C45.6769 34.9397 46.1562 33.9526 46.6498 32.9797C46.6663 32.9475 46.6892 32.9189 46.717 32.8956C46.7448 32.8723 46.7769 32.8548 46.8116 32.8441C46.8463 32.8334 46.8827 32.8298 46.9188 32.8335C46.9549 32.8371 46.9899 32.8479 47.0217 32.8653C47.0791 32.8957 47.1242 32.9452 47.149 33.0053C47.1738 33.0654 47.1768 33.1322 47.1576 33.1943C46.8286 34.2458 46.4423 35.2759 46.0704 36.306C45.6984 37.336 45.262 38.3518 44.8543 39.3675C44.4466 40.3833 43.9959 41.3919 43.5381 42.3862C43.0803 43.3805 42.6153 44.3819 42.1075 45.3547C42.0706 45.4195 42.0115 45.4686 41.9411 45.493C41.8707 45.5174 41.7939 45.5154 41.7248 45.4874C41.6558 45.4595 41.5992 45.4074 41.5657 45.3409C41.5321 45.2744 41.5239 45.198 41.5424 45.1258H41.5638Z" fill="#E51674"/>
<path d="M164.078 68.8784L146.503 64.0242L142.644 77.9935L160.22 82.8478L164.078 68.8784Z" fill="white" stroke="#233564" stroke-width="1.5" stroke-miterlimit="10"/>
<path d="M144.012 73.0594L149.663 69.0179L154.427 81.1926" fill="white"/>
<path d="M144.012 73.0594L149.663 69.0179L154.427 81.1926" stroke="#233564" stroke-width="1.5" stroke-miterlimit="10"/>
<path d="M161.008 80.0199L158.382 75.4633L153.118 77.8453" fill="white"/>
<path d="M161.008 80.0199L158.382 75.4633L153.118 77.8453" stroke="#233564" stroke-width="1.5" stroke-miterlimit="10"/>
<path d="M155.221 72.1658C156.015 72.1658 156.659 71.5221 156.659 70.728C156.659 69.9339 156.015 69.2902 155.221 69.2902C154.427 69.2902 153.783 69.9339 153.783 70.728C153.783 71.5221 154.427 72.1658 155.221 72.1658Z" fill="white" stroke="#233564" stroke-width="1.5" stroke-miterlimit="10"/>
</svg>
