<svg width="24" height="24" viewBox="0 0 24 24" fill="none" xmlns="http://www.w3.org/2000/svg">
    <path fill-rule="evenodd" clip-rule="evenodd"
        d="M9.83508 6C9.83508 5.58579 9.4993 5.25 9.08508 5.25C8.67087 5.25 8.33508 5.58579 8.33508 6V6.90295H5.25C4.83579 6.90295 4.5 7.23874 4.5 7.65295C4.5 8.06717 4.83579 8.40295 5.25 8.40295H10.2246C9.97893 9.17209 9.58051 9.85204 9.11518 10.4414C8.83319 10.1374 8.61421 9.87406 8.46124 9.68023C8.37152 9.56654 8.30472 9.47702 8.26144 9.41753C8.24149 9.3901 8.22165 9.36256 8.20246 9.33458C7.9703 8.99211 7.50454 8.90231 7.16166 9.13409C6.81849 9.36606 6.72835 9.8323 6.96032 10.1755C6.98885 10.2176 7.01857 10.2589 7.04848 10.3C7.10253 10.3743 7.18113 10.4795 7.28374 10.6095C7.47073 10.8464 7.73813 11.1667 8.08256 11.5334C8.02728 11.583 7.97191 11.6315 7.91656 11.679C7.37313 12.1452 6.84765 12.4961 6.45877 12.7298C6.25859 12.85 6.05468 12.967 5.84342 13.0671L5.8429 13.0674C5.46771 13.2416 5.30438 13.6868 5.47809 14.0624C5.65197 14.4384 6.0977 14.6022 6.47365 14.4283C7.34296 13.9939 8.15556 13.4503 8.89322 12.8175C8.98239 12.741 9.0724 12.6614 9.16279 12.5788C9.8403 13.1748 10.6701 13.8013 11.6429 14.3503C11.6616 14.3608 11.6805 14.3705 11.6996 14.3792L10.3308 17.2198C10.151 17.5929 10.3077 18.0412 10.6808 18.221C11.054 18.4008 11.5023 18.2441 11.6821 17.8709L12.6414 15.8801H16.4612L17.4145 17.847C17.5951 18.2198 18.0437 18.3755 18.4165 18.1948C18.7892 18.0142 18.9449 17.5655 18.7643 17.1928L15.2188 9.87737C15.0933 9.61845 14.8308 9.45414 14.543 9.45447C14.2553 9.45479 13.9931 9.61969 13.8682 9.87889L12.351 13.0275C11.5147 12.5525 10.7933 12.011 10.1965 11.4902C10.8799 10.6532 11.4812 9.62484 11.7827 8.40295H12.8716C13.2858 8.40295 13.6216 8.06717 13.6216 7.65295C13.6216 7.23874 13.2858 6.90295 12.8716 6.90295H9.83508V6ZM15.7342 14.3801L14.5458 11.9281L13.3642 14.3801H15.7342Z"
        fill="#233564" />
    <path fill-rule="evenodd" clip-rule="evenodd"
        d="M2.24998 12C2.24998 6.61522 6.61521 2.25 12 2.25C15.1997 2.25 18.0395 3.79056 19.8184 6.17361C20.0662 6.50554 20.5362 6.57375 20.8681 6.32596C21.2 6.07817 21.2682 5.60822 21.0204 5.2763C18.9705 2.5303 15.6931 0.75 12 0.75C5.78678 0.75 0.749983 5.7868 0.749983 12C0.749983 12.3172 0.763131 12.6315 0.788932 12.9423L0.511634 13.0433C0.149946 13.1749 0.066399 13.6487 0.36125 13.8961L2.01978 15.2878C2.31464 15.5352 2.76675 15.3707 2.83358 14.9916L3.20954 12.8594C3.27638 12.4804 2.90782 12.1711 2.54613 12.3028L2.25833 12.4075C2.25279 12.2724 2.24998 12.1366 2.24998 12Z"
        fill="#233564" />
    <path fill-rule="evenodd" clip-rule="evenodd"
        d="M21.9802 8.68216C21.6853 8.43475 21.2332 8.5993 21.1664 8.97836L20.7904 11.1105C20.7236 11.4896 21.0921 11.7988 21.4538 11.6672L21.7404 11.5629C21.7468 11.7078 21.75 11.8535 21.75 12C21.75 17.3848 17.3848 21.75 12 21.75C9.9514 21.75 8.05244 21.119 6.48401 20.0409C6.14547 19.8081 5.703 19.7451 5.30129 19.9048L3.40634 20.6583L4.25825 18.5285C4.41208 18.1439 4.22502 17.7075 3.84043 17.5536C3.45584 17.3998 3.01937 17.5869 2.86553 17.9714L1.7976 20.6413C1.38989 21.6605 2.39997 22.6727 3.42005 22.2671L5.7361 21.3461C7.52674 22.5485 9.68252 23.25 12 23.25C18.2132 23.25 23.25 18.2132 23.25 12C23.25 11.6729 23.236 11.3488 23.2086 11.0285L23.4883 10.9267C23.85 10.7951 23.9336 10.3212 23.6387 10.0738L21.9802 8.68216Z"
        fill="#233564" />
</svg>
