<svg width="24" height="24" viewBox="0 0 24 24" fill="none" xmlns="http://www.w3.org/2000/svg">
    <path fill-rule="evenodd" clip-rule="evenodd"
        d="M21 9.5C21 18 12 23.5 12 23.5C12 23.5 3 18 3 9.5C3 4.52942 7.02945 0.5 12 0.5C16.9666 0.5 20.9936 4.52295 21 9.48804V9.5ZM15.3978 18.6701C17.5299 16.3603 19.5 13.2094 19.5 9.49974V9.4886C19.4939 5.35171 16.1384 2 12 2C7.85787 2 4.5 5.35785 4.5 9.5C4.5 13.2097 6.47009 16.3603 8.60222 18.6701C9.65599 19.8117 10.7137 20.7082 11.5078 21.3185C11.687 21.4562 11.8521 21.5788 12 21.686C12.1479 21.5788 12.3131 21.4562 12.4922 21.3185C13.2864 20.7082 14.3441 19.8117 15.3978 18.6701ZM14.5 9.5C14.5 10.8807 13.3807 12 12 12C10.6193 12 9.5 10.8807 9.5 9.5C9.5 8.11929 10.6193 7 12 7C13.3807 7 14.5 8.11929 14.5 9.5ZM16 9.5C16 11.7091 14.2091 13.5 12 13.5C9.79086 13.5 8 11.7091 8 9.5C8 7.29086 9.79086 5.5 12 5.5C14.2091 5.5 16 7.29086 16 9.5Z"
        fill="#233564" />
</svg>
