<svg width="24" height="24" viewBox="0 0 24 24" fill="none" xmlns="http://www.w3.org/2000/svg">
    <path fill-rule="evenodd" clip-rule="evenodd"
        d="M8.25 2.5C8.01178 2.5 7.76042 2.51501 7.5 2.54242C5.72654 2.72913 3.5325 3.49124 2.20094 4.00761C1.46403 4.29338 1 5.00937 1 5.79975V18.8072C1 20.0736 2.31215 20.94 3.50988 20.5287C4.99303 20.0193 6.84871 19.5 8.25 19.5C9.62499 19.5 10.8125 20 12 20.5C12.9663 20.9069 13.9326 21.3137 15 21.4512C15.2443 21.4827 15.4939 21.5 15.75 21.5C15.9882 21.5 16.2396 21.485 16.5 21.4576C18.2735 21.2709 20.4675 20.5088 21.7991 19.9924C22.536 19.7066 23 18.9906 23 18.2003V5.19285C23 3.92644 21.6878 3.05999 20.4901 3.47134C19.007 3.9807 17.1514 4.49998 15.7501 4.5C14.3752 4.49998 13.1874 3.99999 12 3.5C11.0337 3.09313 10.0673 2.68626 9 2.54881C8.7557 2.51735 8.5061 2.5 8.25 2.5ZM7.5 4.05221C6.90662 4.12666 6.22171 4.27678 5.50244 4.47686C4.47785 4.76188 3.48048 5.12025 2.74327 5.40614C2.61581 5.45557 2.5 5.59326 2.5 5.79975V18.8072C2.5 18.8917 2.53707 18.9807 2.64681 19.055C2.7621 19.1331 2.90066 19.1519 3.02266 19.11C4.29719 18.6723 5.99008 18.1717 7.5 18.0357V4.05221ZM9 18.0393V4.06437C9.74998 4.19106 10.4965 4.4945 11.4179 4.88247C11.4467 4.89457 11.4756 4.90678 11.5048 4.91906C12.4676 5.32489 13.6411 5.81948 15 5.96068V19.9356C14.25 19.809 13.5035 19.5055 12.5821 19.1176C12.5533 19.1054 12.5244 19.0932 12.4952 19.0809C11.5323 18.6751 10.3588 18.1805 9 18.0393ZM16.5 19.9478C17.0934 19.8733 17.7783 19.7232 18.4976 19.5231C19.5222 19.2381 20.5195 18.8797 21.2567 18.5939C21.3842 18.5444 21.5 18.4067 21.5 18.2003V5.19285C21.5 5.10835 21.4629 5.0193 21.3532 4.94499C21.2379 4.86692 21.0993 4.8481 20.9773 4.89001C19.7028 5.32773 18.0099 5.8283 16.5 5.96433V19.9478Z"
        fill="#233564" />
</svg>
