<svg width="24" height="24" viewBox="0 0 24 24" fill="none" xmlns="http://www.w3.org/2000/svg">
    <path fill-rule="evenodd" clip-rule="evenodd"
        d="M9.12826 2.27674C9.24037 1.53067 8.5472 0.866952 7.87214 1.20381C7.84574 1.21698 7.81941 1.23025 7.79313 1.24362C4.05847 3.14335 1.5 7.02293 1.5 11.5001C1.5 17.8514 6.64873 23.0001 13 23.0001C17.4772 23.0001 21.3568 20.4416 23.2565 16.7069C23.2699 16.6806 23.2831 16.6543 23.2963 16.6279C23.6331 15.9528 22.9694 15.2597 22.2234 15.3718C21.6612 15.4563 21.0857 15.5 20.5 15.5C14.1487 15.5 9 10.3513 9 4.00004C9 3.41435 9.04378 2.83888 9.12826 2.27674ZM7.52886 3.12767C4.80087 4.91418 3 7.99803 3 11.5001C3 17.0229 7.47715 21.5001 13 21.5001C16.5021 21.5001 19.5859 19.6992 21.3724 16.9712C21.084 16.9903 20.7931 17 20.5 17C13.3203 17 7.5 11.1797 7.5 4.00004C7.5 3.70701 7.50972 3.41611 7.52886 3.12767Z"
        fill="#233564" />
</svg>
