<svg width="24" height="24" viewBox="0 0 24 24" fill="none" xmlns="http://www.w3.org/2000/svg">
<path fill-rule="evenodd" clip-rule="evenodd" d="M15 4.5C15 6.15685 13.6569 7.5 12 7.5C10.3431 7.5 9 6.15685 9 4.5C9 2.84315 10.3431 1.5 12 1.5C13.6569 1.5 15 2.84315 15 4.5ZM12 6C12.8284 6 13.5 5.32843 13.5 4.5C13.5 3.67157 12.8284 3 12 3C11.1716 3 10.5 3.67157 10.5 4.5C10.5 5.32843 11.1716 6 12 6ZM15 12C15 13.6569 13.6569 15 12 15C10.3431 15 9 13.6569 9 12C9 10.3431 10.3431 9 12 9C13.6569 9 15 10.3431 15 12ZM12 13.5C12.8284 13.5 13.5 12.8284 13.5 12C13.5 11.1716 12.8284 10.5 12 10.5C11.1716 10.5 10.5 11.1716 10.5 12C10.5 12.8284 11.1716 13.5 12 13.5ZM12 22.5C13.6569 22.5 15 21.1569 15 19.5C15 17.8431 13.6569 16.5 12 16.5C10.3431 16.5 9 17.8431 9 19.5C9 21.1569 10.3431 22.5 12 22.5ZM13.5 19.5C13.5 20.3284 12.8284 21 12 21C11.1716 21 10.5 20.3284 10.5 19.5C10.5 18.6716 11.1716 18 12 18C12.8284 18 13.5 18.6716 13.5 19.5Z" fill="white"/>
</svg>
