<svg width="24" height="24" viewBox="0 0 24 24" fill="none" xmlns="http://www.w3.org/2000/svg">
<path fill-rule="evenodd" clip-rule="evenodd" d="M23.5 11.9991C23.5 12.0093 23.4998 12.0194 23.4994 12.0295C23.5075 12.2314 23.4345 12.4359 23.2803 12.5901L20.4519 15.4185C20.159 15.7114 19.6841 15.7114 19.3912 15.4185C19.0983 15.1256 19.0983 14.6507 19.3912 14.3578L21 12.7491H9.24999C8.83578 12.7491 8.49999 12.4133 8.49999 11.9991C8.49999 11.5849 8.83578 11.2491 9.24999 11.2491H21.0012L19.3931 9.64099C19.1002 9.34809 19.1002 8.87322 19.3931 8.58033C19.686 8.28743 20.1608 8.28743 20.4537 8.58033L23.2822 11.4088C23.4421 11.5687 23.5147 11.783 23.5 11.9922L23.5 11.9991ZM16.5 5.5V9.75H15V5.5C15 5.22386 14.7761 5 14.5 5H2.5C2.22386 5 2 5.22386 2 5.5V18.5C2 18.7761 2.22386 19 2.5 19H14.5C14.7761 19 15 18.7761 15 18.5V14.25H16.5V18.5C16.5 19.6046 15.6046 20.5 14.5 20.5H2.5C1.39543 20.5 0.5 19.6046 0.5 18.5V5.5C0.5 4.39543 1.39543 3.5 2.5 3.5H14.5C15.6046 3.5 16.5 4.39543 16.5 5.5Z" fill="#0F1A18"/>
</svg>
