<svg width="24" height="24" viewBox="0 0 24 24" fill="none" xmlns="http://www.w3.org/2000/svg">
<path fill-rule="evenodd" clip-rule="evenodd" d="M1.53033 23.3055C1.23744 23.0126 1.23744 22.5377 1.53033 22.2448L2.28664 21.4885C1.28239 21.382 0.5 20.5323 0.5 19.4998V4.49977C0.5 3.3952 1.39543 2.49977 2.5 2.49977H21.2754L22.2449 1.53022C22.5378 1.23732 23.0127 1.23732 23.3056 1.53022C23.5985 1.82311 23.5985 2.29798 23.3056 2.59088L2.59099 23.3055C2.2981 23.5984 1.82322 23.5984 1.53033 23.3055ZM19.7754 3.99977H2.5C2.22386 3.99977 2 4.22362 2 4.49977V12.4391L5.57153 8.86761C6.1011 8.33803 6.97432 8.38983 7.43758 8.97829L10.6792 13.096L12.4885 11.2867C11.6117 10.8983 11 10.0205 11 8.99977C11 7.61905 12.1193 6.49977 13.5 6.49977C14.5207 6.49977 15.3985 7.11145 15.7869 7.98825L19.7754 3.99977ZM9.61102 14.1641L6.43312 10.1273L2 14.5605V19.4998C2 19.7759 2.22386 19.9998 2.5 19.9998H3.77539L9.61102 14.1641ZM13.5 9.99977C14.0523 9.99977 14.5 9.55205 14.5 8.99977C14.5 8.44748 14.0523 7.99977 13.5 7.99977C12.9477 7.99977 12.5 8.44748 12.5 8.99977C12.5 9.55205 12.9477 9.99977 13.5 9.99977ZM21.5 21.4998H6.49656L7.99656 19.9998H14.205L11.4703 16.526L12.5385 15.4578L13.0205 16.0701L17.2864 13.0839C17.7128 12.7854 18.2796 12.7824 18.7091 13.0763L22 15.3279V5.99633L23.5 4.49633L23.5 4.49977V19.4998C23.5 20.6043 22.6046 21.4998 21.5 21.4998ZM22 17.1455L18.0049 14.4119L13.9498 17.2505L16.1141 19.9998H21.5C21.7761 19.9998 22 19.7759 22 19.4998V17.1455Z" fill="#233564"/>
</svg>
