<svg width="24" height="24" viewBox="0 0 24 24" fill="none" xmlns="http://www.w3.org/2000/svg">
    <path fill-rule="evenodd" clip-rule="evenodd"
        d="M5.24243 3.08487L6.07424 3.50411L6.81883 2.94441C8.58052 1.62018 11.0956 1.76116 12.6991 3.36465L19.4166 10.0822L20.4773 9.0215C20.6726 8.82624 20.9891 8.82624 21.1844 9.0215L21.8915 9.72861C22.0868 9.92387 22.0868 10.2405 21.8915 10.4357L10.5778 21.7494C10.3825 21.9447 10.066 21.9447 9.8707 21.7494L9.16359 21.0423C8.96833 20.8471 8.96833 20.5305 9.16359 20.3352L10.2243 19.2746L3.50674 12.557C1.90325 10.9535 1.76227 8.43843 3.0865 6.67674L3.6462 5.93215L3.22696 5.10034C2.94272 4.53638 3.0387 3.83269 3.50674 3.36465C3.97478 2.89661 4.67847 2.80063 5.24243 3.08487ZM2.44608 13.6177C0.306888 11.4785 0.120687 8.12588 1.88748 5.77545C1.32054 4.6506 1.50674 3.24333 2.44608 2.30399C3.38542 1.36465 4.79269 1.17845 5.91754 1.74539C8.26797 -0.0214027 11.6206 0.164799 13.7598 2.30399L19.4166 7.96084C20.1977 7.1798 21.464 7.17979 22.2451 7.96084L22.9522 8.66795C23.7332 9.449 23.7332 10.7153 22.9522 11.4964L17.5954 16.8531C18.1535 17.3979 18.5 18.1585 18.5 19.0001C18.5 20.6569 17.1569 22.0001 15.5 22.0001C14.6585 22.0001 13.8979 21.6536 13.3531 21.0955L11.6385 22.8101C10.8574 23.5911 9.59109 23.5911 8.81004 22.8101L8.10293 22.103C7.32188 21.3219 7.32189 20.0556 8.10293 19.2746L2.44608 13.6177ZM14.4139 20.0346C14.6871 20.3214 15.0727 20.5001 15.5 20.5001C16.3284 20.5001 17 19.8285 17 19.0001C17 18.5727 16.8213 18.1872 16.5346 17.9139L14.4139 20.0346Z"
        fill="#233564" />
</svg>
