<svg width="80" height="80" viewBox="0 0 80 80" fill="none" xmlns="http://www.w3.org/2000/svg">
<g clip-path="url(#clip0_1019_6272)">
<path opacity="0.4" d="M11.9225 -18.9727C11.4995 -19.3675 11.2041 -19.8801 11.0742 -20.4446C10.9443 -21.009 10.9856 -21.5996 11.1933 -22.1402C11.4011 -22.6808 11.7656 -23.1467 12.2398 -23.4781C12.714 -23.8096 13.2763 -23.9913 13.8544 -23.9999C14.5318 -23.9999 15.2091 -23.9999 15.899 -23.9999C39.5113 -24.0307 62.2669 -15.1403 79.6249 0.897455C81.3193 2.47076 82.588 4.44887 83.312 6.64685C84.0359 8.84483 84.1916 11.1909 83.7646 13.4656C81.5641 25.4609 78.6316 37.3097 74.9835 48.9454C74.7325 49.7523 74.2522 50.4685 73.6013 51.0062C72.9505 51.544 72.1575 51.8801 71.3191 51.9734C70.4806 52.0667 69.6331 51.9134 68.8803 51.5319C68.1276 51.1503 67.5021 50.5572 67.0804 49.8252C52.1469 24.3167 33.5636 1.13793 11.9225 -18.9727Z" fill="#E772A7"/>
<path opacity="0.8" fill-rule="evenodd" clip-rule="evenodd" d="M7.74562 -5.03106C7.40369 -5.34277 7.16499 -5.74746 7.05997 -6.19309C6.95496 -6.63871 6.98837 -7.10493 7.15626 -7.53171C7.32416 -7.9585 7.6188 -8.32635 8.00206 -8.588C8.38531 -8.84966 8.83977 -8.9931 9.30701 -8.99994L10.9595 -8.99994C30.0434 -9.02426 48.4349 -2.00548 62.4639 10.6559C63.8334 11.898 64.8588 13.4596 65.4439 15.1949C66.029 16.9301 66.1548 18.7823 65.8098 20.5781C64.0313 30.0481 61.6611 39.4024 58.7127 48.5884C58.5098 49.2255 58.1216 49.7909 57.5956 50.2154C57.0696 50.64 56.4287 50.9053 55.751 50.979C55.0734 51.0527 54.3884 50.9316 53.78 50.6304C53.1716 50.3292 52.6661 49.861 52.3253 49.2831C40.2557 29.1448 25.2363 10.8457 7.74562 -5.03106ZM61.1221 12.1389C62.2406 13.154 63.074 14.426 63.5488 15.8339C64.0237 17.2424 64.1255 18.7444 63.8457 20.2007L63.8441 20.2089C62.081 29.5969 59.7314 38.8704 56.8084 47.9772L56.807 47.9815C56.7244 48.2409 56.5642 48.4777 56.3394 48.6592C56.1142 48.8409 55.835 48.9581 55.5348 48.9907C55.2343 49.0234 54.9324 48.9693 54.6674 48.838C54.4026 48.7069 54.1892 48.5065 54.048 48.2671L54.0444 48.261L54.0408 48.2549C41.8697 27.9473 26.7249 9.4959 9.08986 -6.51194L7.74562 -5.03106L9.09303 -6.50906C9.04588 -6.55204 9.01823 -6.60271 9.00665 -6.65184C8.99509 -6.7009 8.99857 -6.75163 9.01742 -6.79953C9.03656 -6.84819 9.07315 -6.89761 9.12974 -6.93624C9.18441 -6.97356 9.25321 -6.99725 9.32783 -6.99994L10.962 -6.99994C29.5546 -7.02364 47.4655 -0.185498 61.1221 12.1389Z" fill="white"/>
</g>
<defs>
<clipPath id="clip0_1019_6272">
<rect width="80" height="80" fill="white"/>
</clipPath>
</defs>
</svg>
