<svg width="24" height="24" viewBox="0 0 24 24" fill="none" xmlns="http://www.w3.org/2000/svg">
    <path fill-rule="evenodd" clip-rule="evenodd"
        d="M4.00006 2V22H20.0001V2H4.00006ZM3.50006 0.5C2.94778 0.5 2.50006 0.947715 2.50006 1.5V22.5C2.50006 23.0523 2.94778 23.5 3.50006 23.5H20.5001C21.0523 23.5 21.5001 23.0523 21.5001 22.5V1.5C21.5001 0.947715 21.0523 0.5 20.5001 0.5H3.50006ZM6.75 13.5C6.33579 13.5 6 13.8358 6 14.25C6 14.6642 6.33579 15 6.75 15H11.75C12.1642 15 12.5 14.6642 12.5 14.25C12.5 13.8358 12.1642 13.5 11.75 13.5H6.75ZM6 5.25C6 4.83579 6.33579 4.5 6.75 4.5H17.25C17.6642 4.5 18 4.83579 18 5.25C18 5.66421 17.6642 6 17.25 6H6.75C6.33579 6 6 5.66421 6 5.25ZM6.75 7.5C6.33579 7.5 6 7.83579 6 8.25C6 8.66421 6.33579 9 6.75 9H17.25C17.6642 9 18 8.66421 18 8.25C18 7.83579 17.6642 7.5 17.25 7.5H6.75ZM6 11.25C6 10.8358 6.33579 10.5 6.75 10.5H17.25C17.6642 10.5 18 10.8358 18 11.25C18 11.6642 17.6642 12 17.25 12H6.75C6.33579 12 6 11.6642 6 11.25Z"
        fill="#233564" />
</svg>
