<svg width="23" height="23" viewBox="0 0 23 23" fill="none" xmlns="http://www.w3.org/2000/svg">
<path d="M21.5589 2.21016L21.6797 1.26385C21.6998 1.10948 21.5723 0.981965 21.418 1.0021L20.472 1.12291C16.9764 1.56586 13.7291 3.15647 11.2332 5.64641L4.85938 12.0223L10.6629 17.8277L17.0368 11.4518C19.5327 8.95515 21.1228 5.70682 21.5589 2.21016Z" stroke="white" stroke-width="1.5" stroke-miterlimit="10" stroke-linecap="round" stroke-linejoin="round"/>
<path d="M11.8302 10.8477L6.71094 15.9618" stroke="white" stroke-width="1.5" stroke-miterlimit="10" stroke-linecap="round" stroke-linejoin="round"/>
<path d="M9.15981 7.71374L4.14123 7.70703L1.43066 10.4252L4.85913 12.0158L9.15981 7.71374Z" stroke="white" stroke-width="1.5" stroke-miterlimit="10" stroke-linecap="round" stroke-linejoin="round"/>
<path d="M14.9701 13.519V18.5392L12.2595 21.2573L10.6694 17.8211L14.9701 13.519Z" stroke="white" stroke-width="1.5" stroke-miterlimit="10" stroke-linecap="round" stroke-linejoin="round"/>
<path d="M4.86582 15.4653C4.86582 15.4653 0.665775 15.4519 1.02137 21.6533" stroke="white" stroke-width="1.5" stroke-miterlimit="10" stroke-linecap="round" stroke-linejoin="round"/>
<path d="M7.21432 17.814C7.21432 17.814 7.22774 22.0153 1.02832 21.6596" stroke="white" stroke-width="1.5" stroke-miterlimit="10" stroke-linecap="round" stroke-linejoin="round"/>
<path d="M16.6004 7.4858C17.3785 7.4858 18.0093 6.85479 18.0093 6.07639C18.0093 5.298 17.3785 4.66699 16.6004 4.66699C15.8222 4.66699 15.1914 5.298 15.1914 6.07639C15.1914 6.85479 15.8222 7.4858 16.6004 7.4858Z" stroke="white" stroke-width="1.5" stroke-miterlimit="10" stroke-linecap="round" stroke-linejoin="round"/>
</svg>
