<svg width="24" height="24" viewBox="0 0 24 24" fill="none" xmlns="http://www.w3.org/2000/svg">
<path fill-rule="evenodd" clip-rule="evenodd" d="M8.375 15.375C10.0379 15.375 11.5653 14.7952 12.7662 13.8267L13.5654 14.6259C13.1658 15.4623 13.3124 16.4943 14.0052 17.1871L18.9549 22.1368C19.8336 23.0155 21.2582 23.0155 22.1369 22.1368C23.0156 21.2581 23.0156 19.8335 22.1369 18.9548L17.1872 14.0051C16.4944 13.3124 15.4624 13.1658 14.626 13.5653L13.8268 12.766C14.7952 11.5652 15.375 10.0378 15.375 8.375C15.375 4.50901 12.241 1.375 8.375 1.375C4.50901 1.375 1.375 4.50901 1.375 8.375C1.375 12.241 4.50901 15.375 8.375 15.375ZM12.38 8.38C12.38 10.5891 10.5891 12.38 8.38 12.38C6.17087 12.38 4.38 10.5891 4.38 8.38C4.38 6.17087 6.17087 4.38 8.38 4.38C10.5891 4.38 12.38 6.17087 12.38 8.38ZM13.88 8.38C13.88 11.4176 11.4176 13.88 8.38 13.88C5.34244 13.88 2.88 11.4176 2.88 8.38C2.88 5.34244 5.34244 2.88 8.38 2.88C11.4176 2.88 13.88 5.34244 13.88 8.38Z" fill="#0F1A18"/>
</svg>
