<svg width="24" height="24" viewBox="0 0 24 24" fill="none" xmlns="http://www.w3.org/2000/svg">
    <path fill-rule="evenodd" clip-rule="evenodd"
        d="M13.875 8.375C13.875 11.4126 11.4126 13.875 8.375 13.875C5.33743 13.875 2.875 11.4126 2.875 8.375C2.875 5.33743 5.33743 2.875 8.375 2.875C11.4126 2.875 13.875 5.33743 13.875 8.375ZM12.7662 13.8267C11.5653 14.7952 10.0379 15.375 8.375 15.375C4.50901 15.375 1.375 12.241 1.375 8.375C1.375 4.50901 4.50901 1.375 8.375 1.375C12.241 1.375 15.375 4.50901 15.375 8.375C15.375 10.0378 14.7952 11.5652 13.8268 12.766L14.626 13.5653C15.4624 13.1658 16.4944 13.3124 17.1872 14.0051L22.1369 18.9548C23.0156 19.8335 23.0156 21.2581 22.1369 22.1368C21.2582 23.0155 19.8336 23.0155 18.9549 22.1368L14.0052 17.1871C13.3124 16.4943 13.1658 15.4623 13.5654 14.6259L12.7662 13.8267ZM21.0762 20.0155L16.1265 15.0657C15.8336 14.7728 15.3587 14.7728 15.0658 15.0657C14.7729 15.3586 14.7729 15.8335 15.0658 16.1264L20.0156 21.0761C20.3085 21.369 20.7833 21.369 21.0762 21.0761C21.3691 20.7833 21.3691 20.3084 21.0762 20.0155Z"
        fill="#233564" />
</svg>
