<svg width="24" height="24" viewBox="0 0 24 24" fill="none" xmlns="http://www.w3.org/2000/svg">
    <path fill-rule="evenodd" clip-rule="evenodd"
        d="M19 7C17.8954 7 17 6.10457 17 5C17 3.89543 17.8954 3 19 3C20.1046 3 21 3.89543 21 5C21 6.10457 20.1046 7 19 7ZM15.5 5C15.5 3.067 17.067 1.5 19 1.5C20.933 1.5 22.5 3.067 22.5 5C22.5 6.933 20.933 8.5 19 8.5C17.9004 8.5 16.9192 7.99288 16.2775 7.19974L8.39395 11.1415C8.46321 11.4162 8.5 11.7038 8.5 12C8.5 12.2962 8.46321 12.5838 8.39395 12.8584L16.2775 16.8002C16.9192 16.0071 17.9004 15.5 19 15.5C20.933 15.5 22.5 17.067 22.5 19C22.5 20.933 20.933 22.5 19 22.5C17.067 22.5 15.5 20.933 15.5 19C15.5 18.7038 15.5368 18.4162 15.6061 18.1415L7.72248 14.1998C7.08084 14.9929 6.09964 15.5 5 15.5C3.067 15.5 1.5 13.933 1.5 12C1.5 10.067 3.067 8.5 5 8.5C6.09963 8.5 7.08082 9.00711 7.72246 9.80022L15.606 5.85843C15.5368 5.58376 15.5 5.29617 15.5 5ZM5 14C3.89543 14 3 13.1046 3 12C3 10.8954 3.89543 10 5 10C6.10457 10 7 10.8954 7 12C7 13.1046 6.10457 14 5 14ZM19 21C17.8954 21 17 20.1046 17 19C17 17.8954 17.8954 17 19 17C20.1046 17 21 17.8954 21 19C21 20.1046 20.1046 21 19 21Z"
        fill="#233564" />
</svg>
