<svg width="24" height="24" viewBox="0 0 24 24" fill="none" xmlns="http://www.w3.org/2000/svg">
    <path fill-rule="evenodd" clip-rule="evenodd"
        d="M12.0001 1.86678C10.5114 2.8696 7.36367 4.60476 3.00012 4.94219L3.00006 13C3.00005 15.4993 4.44951 17.8758 6.47019 19.6966C7.46554 20.5935 8.55219 21.3096 9.56433 21.7957C10.6008 22.2934 11.4542 22.5 12.0001 22.5C12.5461 22.5 13.3994 22.2934 14.4359 21.7957C15.448 21.3096 16.5346 20.5935 17.5299 19.6966C19.5506 17.8758 21 15.4993 21.0001 12.9999L21.0001 4.94219C16.6365 4.60477 13.4888 2.8696 12.0001 1.86678ZM2.00111 3.49302C1.72507 3.50069 1.50013 3.72381 1.50013 3.99995L1.50006 13C1.50004 19.1626 8.57613 24 12.0001 24C15.4241 24 22.5 19.1625 22.5001 13L22.5001 4.00078C22.5001 3.72463 22.2752 3.50068 21.9992 3.49302C16.8794 3.35079 13.4002 1.06449 12.3405 0.269704C12.1401 0.11941 11.8602 0.119408 11.6598 0.2697C10.6001 1.06448 7.12077 3.35079 2.00111 3.49302ZM11 12.792V15.5C11 16.0523 11.4477 16.5 12 16.5C12.5523 16.5 13 16.0523 13 15.5V12.792C13.883 12.4062 14.5 11.5252 14.5 10.5C14.5 9.11929 13.3807 8 12 8C10.6193 8 9.5 9.11929 9.5 10.5C9.5 11.5252 10.117 12.4062 11 12.792ZM12 11.5C11.4477 11.5 11 11.0523 11 10.5C11 9.94772 11.4477 9.5 12 9.5C12.5523 9.5 13 9.94772 13 10.5C13 11.0523 12.5523 11.5 12 11.5Z"
        fill="#233564" />
</svg>
