<svg width="32" height="24" viewBox="0 0 32 24" fill="none" xmlns="http://www.w3.org/2000/svg">
<path d="M9.38581 16.9998L8.65781 14.6198H5.01781L4.28981 16.9998H2.00781L5.53581 6.96177H8.12581L11.6678 16.9998H9.38581ZM7.42581 10.5178C7.37915 10.3591 7.31848 10.1584 7.24381 9.91577C7.16915 9.6731 7.09448 9.42577 7.01981 9.17377C6.94515 8.92177 6.88448 8.70244 6.83781 8.51577C6.79115 8.70244 6.72581 8.93577 6.64181 9.21577C6.56715 9.48644 6.49248 9.74777 6.41781 9.99977C6.35248 10.2424 6.30115 10.4151 6.26381 10.5178L5.54981 12.8418H8.15381L7.42581 10.5178Z" fill="#0F1A18"/>
<path d="M16.0418 7.00377C16.9285 7.00377 17.6705 7.08777 18.2678 7.25577C18.8745 7.41444 19.3272 7.68044 19.6258 8.05377C19.9338 8.41777 20.0878 8.91244 20.0878 9.53777C20.0878 9.9111 20.0272 10.2518 19.9058 10.5598C19.7845 10.8678 19.6072 11.1198 19.3738 11.3158C19.1498 11.5118 18.8745 11.6378 18.5478 11.6938V11.7638C18.8838 11.8291 19.1872 11.9458 19.4578 12.1138C19.7285 12.2818 19.9432 12.5244 20.1018 12.8418C20.2605 13.1591 20.3398 13.5791 20.3398 14.1018C20.3398 14.7084 20.1905 15.2311 19.8918 15.6698C19.6025 16.0991 19.1825 16.4304 18.6318 16.6638C18.0812 16.8878 17.4278 16.9998 16.6718 16.9998H12.9338V7.00377H16.0418ZM16.2798 10.9658C16.8958 10.9658 17.3205 10.8678 17.5538 10.6718C17.7965 10.4758 17.9178 10.1911 17.9178 9.81777C17.9178 9.4351 17.7778 9.15977 17.4978 8.99177C17.2178 8.82377 16.7745 8.73977 16.1678 8.73977H15.0478V10.9658H16.2798ZM15.0478 12.6458V15.2498H16.4338C17.0685 15.2498 17.5118 15.1284 17.7638 14.8858C18.0158 14.6338 18.1418 14.3024 18.1418 13.8918C18.1418 13.6398 18.0858 13.4204 17.9738 13.2338C17.8712 13.0471 17.6892 12.9024 17.4278 12.7998C17.1665 12.6971 16.8118 12.6458 16.3638 12.6458H15.0478Z" fill="#0F1A18"/>
<path d="M26.5821 8.62777C26.1807 8.62777 25.8214 8.7071 25.5041 8.86577C25.1961 9.02444 24.9347 9.2531 24.7201 9.55177C24.5054 9.8411 24.3421 10.1958 24.2301 10.6158C24.1274 11.0358 24.0761 11.5071 24.0761 12.0298C24.0761 12.7391 24.1601 13.3458 24.3281 13.8498C24.5054 14.3444 24.7807 14.7224 25.1541 14.9838C25.5274 15.2451 26.0034 15.3758 26.5821 15.3758C26.9927 15.3758 27.3987 15.3291 27.8001 15.2358C28.2107 15.1424 28.6541 15.0118 29.1301 14.8438V16.6218C28.6914 16.7991 28.2574 16.9298 27.8281 17.0138C27.3987 17.0978 26.9181 17.1398 26.3861 17.1398C25.3594 17.1398 24.5101 16.9298 23.8381 16.5098C23.1754 16.0804 22.6854 15.4831 22.3681 14.7178C22.0507 13.9431 21.8921 13.0424 21.8921 12.0158C21.8921 11.2598 21.9947 10.5691 22.2001 9.94377C22.4054 9.3091 22.7041 8.7631 23.0961 8.30577C23.4974 7.84844 23.9874 7.49377 24.5661 7.24177C25.1541 6.98977 25.8261 6.86377 26.5821 6.86377C27.0767 6.86377 27.5714 6.9291 28.0661 7.05977C28.5701 7.1811 29.0507 7.3491 29.5081 7.56377L28.8221 9.28577C28.4487 9.10844 28.0707 8.95444 27.6881 8.82377C27.3147 8.6931 26.9461 8.62777 26.5821 8.62777Z" fill="#0F1A18"/>
</svg>
