<svg width="24" height="24" viewBox="0 0 24 24" fill="none" xmlns="http://www.w3.org/2000/svg">
<path d="M10.0804 17.9998L9.24844 15.2798H5.08844L4.25644 17.9998H1.64844L5.68044 6.52783H8.64044L12.6884 17.9998H10.0804ZM7.84044 10.5918C7.7871 10.4105 7.71777 10.1812 7.63244 9.90383C7.5471 9.6265 7.46177 9.34383 7.37644 9.05583C7.2911 8.76783 7.22177 8.51717 7.16844 8.30383C7.1151 8.51717 7.04044 8.78383 6.94444 9.10383C6.8591 9.41317 6.77377 9.71183 6.68844 9.99983C6.61377 10.2772 6.5551 10.4745 6.51244 10.5918L5.69644 13.2478H8.67244L7.84044 10.5918Z" fill="#0F1A18"/>
<path d="M17.5273 9.08783C18.7006 9.08783 19.5966 9.34383 20.2153 9.85583C20.8446 10.3572 21.1593 11.1305 21.1593 12.1758V17.9998H19.4953L19.0313 16.8158H18.9673C18.722 17.1252 18.466 17.3812 18.1993 17.5838C17.9433 17.7865 17.6446 17.9305 17.3033 18.0158C16.9726 18.1118 16.562 18.1598 16.0713 18.1598C15.5593 18.1598 15.0953 18.0638 14.6793 17.8718C14.274 17.6692 13.954 17.3652 13.7193 16.9598C13.4846 16.5438 13.3673 16.0212 13.3673 15.3918C13.3673 14.4638 13.6926 13.7812 14.3433 13.3438C14.994 12.8958 15.97 12.6505 17.2713 12.6078L18.7913 12.5598V12.1758C18.7913 11.7172 18.6686 11.3812 18.4233 11.1678C18.1886 10.9545 17.858 10.8478 17.4313 10.8478C17.0046 10.8478 16.5886 10.9118 16.1833 11.0398C15.778 11.1572 15.3726 11.3065 14.9673 11.4878L14.1833 9.87183C14.6526 9.6265 15.17 9.4345 15.7353 9.29583C16.3113 9.15716 16.9086 9.08783 17.5273 9.08783ZM17.8633 13.9838C17.0953 14.0052 16.562 14.1438 16.2633 14.3998C15.9646 14.6558 15.8153 14.9918 15.8153 15.4078C15.8153 15.7705 15.922 16.0318 16.1353 16.1918C16.3486 16.3412 16.626 16.4158 16.9673 16.4158C17.4793 16.4158 17.9113 16.2665 18.2633 15.9678C18.6153 15.6585 18.7913 15.2265 18.7913 14.6718V13.9518L17.8633 13.9838Z" fill="#0F1A18"/>
</svg>
