<svg width="24" height="24" viewBox="0 0 24 24" fill="none" xmlns="http://www.w3.org/2000/svg">
<path d="M11.2124 18.5L9.57842 14.301H4.20142L2.58642 18.5H0.857422L6.15842 4.87695H7.69742L12.9794 18.5H11.2124ZM7.54542 8.67695C7.50742 8.57562 7.44409 8.39195 7.35542 8.12595C7.26676 7.85995 7.17809 7.58762 7.08942 7.30895C7.01342 7.01762 6.95009 6.79595 6.89942 6.64395C6.81076 7.03662 6.70942 7.42295 6.59542 7.80295C6.48142 8.17029 6.38642 8.46162 6.31042 8.67695L4.77142 12.781H9.06542L7.54542 8.67695Z" fill="#0F1A18"/>
<path d="M18.4642 8.14495C19.7055 8.14495 20.6239 8.41729 21.2192 8.96195C21.8145 9.50662 22.1122 10.3743 22.1122 11.565V18.5H20.8962L20.5732 17.056H20.4972C20.0539 17.6133 19.5852 18.025 19.0912 18.291C18.6099 18.557 17.9385 18.69 17.0772 18.69C16.1525 18.69 15.3862 18.4493 14.7782 17.968C14.1702 17.474 13.8662 16.7076 13.8662 15.669C13.8662 14.6556 14.2652 13.8766 15.0632 13.332C15.8612 12.7746 17.0899 12.4706 18.7492 12.42L20.4782 12.363V11.755C20.4782 10.9063 20.2945 10.3173 19.9272 9.98795C19.5599 9.65862 19.0405 9.49395 18.3692 9.49395C17.8372 9.49395 17.3305 9.57629 16.8492 9.74095C16.3679 9.89295 15.9182 10.0703 15.5002 10.273L14.9872 9.01895C15.4305 8.77829 15.9562 8.57562 16.5642 8.41095C17.1722 8.23362 17.8055 8.14495 18.4642 8.14495ZM18.9582 13.579C17.6915 13.6296 16.8112 13.8323 16.3172 14.187C15.8359 14.5416 15.5952 15.042 15.5952 15.688C15.5952 16.258 15.7662 16.676 16.1082 16.942C16.4629 17.208 16.9125 17.341 17.4572 17.341C18.3185 17.341 19.0342 17.1066 19.6042 16.638C20.1742 16.1566 20.4592 15.422 20.4592 14.434V13.522L18.9582 13.579Z" fill="#0F1A18"/>
</svg>
