<svg width="24" height="24" viewBox="0 0 24 24" fill="none" xmlns="http://www.w3.org/2000/svg">
<path d="M10.5603 17L9.93633 14.96H6.81633L6.19233 17H4.23633L7.26033 8.396H9.48033L12.5163 17H10.5603ZM8.88033 11.444C8.84033 11.308 8.78833 11.136 8.72433 10.928C8.66033 10.72 8.59633 10.508 8.53233 10.292C8.46833 10.076 8.41633 9.888 8.37633 9.728C8.33633 9.888 8.28033 10.088 8.20833 10.328C8.14433 10.56 8.08033 10.784 8.01633 11C7.96033 11.208 7.91633 11.356 7.88433 11.444L7.27233 13.436H9.50433L8.88033 11.444Z" fill="#0F1A18"/>
<path d="M16.1455 10.316C17.0255 10.316 17.6975 10.508 18.1615 10.892C18.6335 11.268 18.8695 11.848 18.8695 12.632V17H17.6215L17.2735 16.112H17.2255C17.0415 16.344 16.8495 16.536 16.6495 16.688C16.4575 16.84 16.2335 16.948 15.9775 17.012C15.7295 17.084 15.4215 17.12 15.0535 17.12C14.6695 17.12 14.3215 17.048 14.0095 16.904C13.7055 16.752 13.4655 16.524 13.2895 16.22C13.1135 15.908 13.0255 15.516 13.0255 15.044C13.0255 14.348 13.2695 13.836 13.7575 13.508C14.2455 13.172 14.9775 12.988 15.9535 12.956L17.0935 12.92V12.632C17.0935 12.288 17.0015 12.036 16.8175 11.876C16.6415 11.716 16.3935 11.636 16.0735 11.636C15.7535 11.636 15.4415 11.684 15.1375 11.78C14.8335 11.868 14.5295 11.98 14.2255 12.116L13.6375 10.904C13.9895 10.72 14.3775 10.576 14.8015 10.472C15.2335 10.368 15.6815 10.316 16.1455 10.316ZM16.3975 13.988C15.8215 14.004 15.4215 14.108 15.1975 14.3C14.9735 14.492 14.8615 14.744 14.8615 15.056C14.8615 15.328 14.9415 15.524 15.1015 15.644C15.2615 15.756 15.4695 15.812 15.7255 15.812C16.1095 15.812 16.4335 15.7 16.6975 15.476C16.9615 15.244 17.0935 14.92 17.0935 14.504V13.964L16.3975 13.988Z" fill="#0F1A18"/>
</svg>
