<svg width="24" height="24" viewBox="0 0 24 24" fill="none" xmlns="http://www.w3.org/2000/svg">
<path d="M10.3194 16.9999L9.59141 14.6199H5.95141L5.22341 16.9999H2.94141L6.46941 6.96191H9.05941L12.6014 16.9999H10.3194ZM8.35941 10.5179C8.31274 10.3592 8.25207 10.1586 8.17741 9.91591C8.10274 9.67325 8.02807 9.42591 7.95341 9.17391C7.87874 8.92191 7.81807 8.70258 7.77141 8.51591C7.72474 8.70258 7.65941 8.93591 7.57541 9.21591C7.50074 9.48658 7.42607 9.74791 7.35141 9.99991C7.28607 10.2426 7.23474 10.4152 7.19741 10.5179L6.48341 12.8419H9.08741L8.35941 10.5179Z" fill="#0F1A18"/>
<path d="M16.8354 9.20191C17.8621 9.20191 18.6461 9.42591 19.1874 9.87391C19.7381 10.3126 20.0134 10.9892 20.0134 11.9039V16.9999H18.5574L18.1514 15.9639H18.0954C17.8808 16.2346 17.6568 16.4586 17.4234 16.6359C17.1994 16.8132 16.9381 16.9392 16.6394 17.0139C16.3501 17.0979 15.9908 17.1399 15.5614 17.1399C15.1134 17.1399 14.7074 17.0559 14.3434 16.8879C13.9888 16.7106 13.7088 16.4446 13.5034 16.0899C13.2981 15.7259 13.1954 15.2686 13.1954 14.7179C13.1954 13.9059 13.4801 13.3086 14.0494 12.9259C14.6188 12.5339 15.4728 12.3192 16.6114 12.2819L17.9414 12.2399V11.9039C17.9414 11.5026 17.8341 11.2086 17.6194 11.0219C17.4141 10.8352 17.1248 10.7419 16.7514 10.7419C16.3781 10.7419 16.0141 10.7979 15.6594 10.9099C15.3048 11.0126 14.9501 11.1432 14.5954 11.3019L13.9094 9.88791C14.3201 9.67325 14.7728 9.50525 15.2674 9.38391C15.7714 9.26258 16.2941 9.20191 16.8354 9.20191ZM17.1294 13.4859C16.4574 13.5046 15.9908 13.6259 15.7294 13.8499C15.4681 14.0739 15.3374 14.3679 15.3374 14.7319C15.3374 15.0492 15.4308 15.2779 15.6174 15.4179C15.8041 15.5486 16.0468 15.6139 16.3454 15.6139C16.7934 15.6139 17.1714 15.4832 17.4794 15.2219C17.7874 14.9512 17.9414 14.5732 17.9414 14.0879V13.4579L17.1294 13.4859Z" fill="#0F1A18"/>
</svg>
