<svg width="32" height="24" viewBox="0 0 32 24" fill="none" xmlns="http://www.w3.org/2000/svg">
<path d="M1.40625 16.9998V16.2578H1.57425C1.74225 16.2578 1.89158 16.2298 2.02225 16.1738C2.15292 16.1178 2.26958 16.0198 2.37225 15.8798C2.48425 15.7304 2.59158 15.5158 2.69425 15.2358L5.73225 7.00377H7.65025L10.5763 15.2498C10.6696 15.5111 10.7676 15.7164 10.8703 15.8658C10.9823 16.0058 11.0989 16.1084 11.2203 16.1738C11.3509 16.2298 11.4909 16.2578 11.6403 16.2578H11.8923V16.9998H7.27225V16.2578H7.81825C7.95825 16.2578 8.09358 16.2158 8.22425 16.1318C8.35492 16.0478 8.42025 15.9078 8.42025 15.7118C8.42025 15.6371 8.41092 15.5624 8.39225 15.4878C8.38292 15.4131 8.36892 15.3431 8.35025 15.2778C8.33158 15.2124 8.31292 15.1564 8.29425 15.1098L7.80425 13.7098H4.40225L3.99625 14.9138C3.97758 14.9884 3.95425 15.0724 3.92625 15.1658C3.89825 15.2591 3.87492 15.3571 3.85625 15.4598C3.83758 15.5531 3.82825 15.6371 3.82825 15.7118C3.82825 15.8891 3.89358 16.0244 4.02425 16.1178C4.15492 16.2111 4.29958 16.2578 4.45825 16.2578H5.04625V16.9998H1.40625ZM4.69625 12.8558H7.52425L6.78225 10.5598C6.71692 10.3451 6.64692 10.1164 6.57225 9.87377C6.49758 9.62177 6.42758 9.36977 6.36225 9.11777C6.29692 8.86577 6.23625 8.63244 6.18025 8.41777C6.14292 8.5671 6.09625 8.73044 6.04025 8.90777C5.98425 9.07577 5.92825 9.2531 5.87225 9.43977C5.81625 9.6171 5.75558 9.7991 5.69025 9.98577C5.63425 10.1631 5.57825 10.3311 5.52225 10.4898L4.69625 12.8558Z" fill="#0F1A18"/>
<path d="M12.2833 16.9998V16.2578H12.8573C12.9973 16.2578 13.1186 16.2391 13.2213 16.2018C13.3333 16.1551 13.4219 16.0664 13.4873 15.9358C13.5526 15.8051 13.5853 15.6091 13.5853 15.3478V8.64177C13.5853 8.38977 13.5526 8.2031 13.4873 8.08177C13.4219 7.9511 13.3333 7.86244 13.2213 7.81577C13.1093 7.7691 12.9879 7.74577 12.8573 7.74577H12.2833V7.00377H16.3713C17.7059 7.00377 18.7046 7.2091 19.3673 7.61977C20.0393 8.03044 20.3753 8.67444 20.3753 9.55177C20.3753 9.96244 20.3006 10.3078 20.1513 10.5878C20.0019 10.8584 19.7966 11.0824 19.5353 11.2598C19.2739 11.4278 18.9659 11.5678 18.6113 11.6798V11.7498C19.0406 11.8524 19.4186 12.0158 19.7453 12.2398C20.0719 12.4638 20.3286 12.7438 20.5153 13.0798C20.7019 13.4064 20.7953 13.7984 20.7953 14.2558C20.7953 15.1704 20.4593 15.8564 19.7873 16.3138C19.1153 16.7711 18.1166 16.9998 16.7913 16.9998H12.2833ZM16.7213 16.1458C17.3466 16.1458 17.7899 16.0011 18.0513 15.7118C18.3126 15.4224 18.4433 14.9231 18.4433 14.2138C18.4433 13.7564 18.3919 13.3784 18.2893 13.0798C18.1866 12.7811 18.0093 12.5618 17.7573 12.4218C17.5146 12.2724 17.1786 12.1978 16.7493 12.1978H15.7973V16.1458H16.7213ZM16.3293 11.3438C16.7679 11.3438 17.1086 11.2831 17.3513 11.1618C17.5939 11.0404 17.7666 10.8491 17.8693 10.5878C17.9719 10.3171 18.0233 9.97177 18.0233 9.55177C18.0233 8.9171 17.8926 8.47844 17.6313 8.23577C17.3793 7.98377 16.9359 7.85777 16.3013 7.85777H15.7973V11.3438H16.3293Z" fill="#0F1A18"/>
<path d="M26.9115 17.1398C25.8288 17.1398 24.9282 16.9251 24.2095 16.4958C23.4909 16.0664 22.9542 15.4691 22.5995 14.7038C22.2449 13.9291 22.0675 13.0238 22.0675 11.9878C22.0675 10.9798 22.2495 10.0931 22.6135 9.32777C22.9775 8.5531 23.5189 7.9511 24.2375 7.52177C24.9562 7.0831 25.8428 6.86377 26.8975 6.86377C27.6162 6.86377 28.2088 6.93844 28.6755 7.08777C29.1515 7.22777 29.5062 7.4191 29.7395 7.66177C29.9729 7.90444 30.0895 8.17977 30.0895 8.48777C30.0895 8.8331 29.9402 9.12244 29.6415 9.35577C29.3428 9.5891 28.9088 9.70577 28.3395 9.70577C28.3395 9.39777 28.2929 9.09444 28.1995 8.79577C28.1062 8.4971 27.9475 8.24977 27.7235 8.05377C27.4995 7.85777 27.1915 7.75977 26.7995 7.75977C26.2115 7.75977 25.7402 7.92777 25.3855 8.26377C25.0402 8.59044 24.7929 9.06644 24.6435 9.69177C24.4942 10.3171 24.4195 11.0824 24.4195 11.9878C24.4195 12.8838 24.5082 13.6304 24.6855 14.2278C24.8722 14.8251 25.1708 15.2731 25.5815 15.5718C26.0015 15.8704 26.5569 16.0198 27.2475 16.0198C27.7048 16.0198 28.0968 15.9544 28.4235 15.8238C28.7502 15.6838 29.0255 15.5111 29.2495 15.3058C29.4828 15.1004 29.6789 14.8951 29.8375 14.6898C29.9122 14.7458 29.9682 14.8298 30.0055 14.9418C30.0522 15.0538 30.0755 15.1704 30.0755 15.2918C30.0755 15.4878 30.0195 15.6931 29.9075 15.9078C29.8048 16.1224 29.6322 16.3231 29.3895 16.5098C29.1469 16.6964 28.8202 16.8504 28.4095 16.9718C28.0082 17.0838 27.5089 17.1398 26.9115 17.1398Z" fill="#0F1A18"/>
</svg>
