<svg width="24" height="24" viewBox="0 0 24 24" fill="none" xmlns="http://www.w3.org/2000/svg">
    <path fill-rule="evenodd" clip-rule="evenodd"
        d="M6.06636 4.5H16.5C16.7761 4.5 17 4.72386 17 5V11V11.4457C17 11.4757 16.9757 11.5 16.9457 11.5C16.1715 11.5 15.4757 11.9725 15.1902 12.6922L13.1762 17.7693C13.0598 18.0627 13 18.3755 13 18.6911V20.9937C12.143 20.9236 11.4358 20.2715 11.3077 19.4078L10.7971 15.9652C10.6516 14.9847 9.80993 14.2586 8.8187 14.2586H4.42242C3.80839 14.2586 3.33939 13.7104 3.43449 13.1038L4.58446 5.7677C4.69887 5.03787 5.32762 4.5 6.06636 4.5ZM17.9014 12.6715C17.6378 12.8774 17.3061 13 16.9457 13C16.7864 13 16.6433 13.0972 16.5845 13.2453L14.5705 18.3224C14.5239 18.4397 14.5 18.5648 14.5 18.6911V21.1536C14.5 21.8972 13.8972 22.5 13.1536 22.5C11.4853 22.5 10.0687 21.2781 9.82395 19.6279L9.31329 16.1853C9.27693 15.9401 9.0665 15.7586 8.8187 15.7586H4.42242C2.88734 15.7586 1.71485 14.388 1.95258 12.8715L3.10256 5.5354C3.33137 4.07574 4.58888 3 6.06636 3H16.5C16.973 3 17.4076 3.16418 17.75 3.43866C18.0924 3.16418 18.527 3 19 3H20.5C21.6046 3 22.5 3.89543 22.5 5V11C22.5 12.1046 21.6046 13 20.5 13H19C18.5942 13 18.2167 12.8792 17.9014 12.6715ZM18.5 11C18.5 11.2761 18.7239 11.5 19 11.5H20.5C20.7761 11.5 21 11.2761 21 11V5C21 4.72386 20.7761 4.5 20.5 4.5H19C18.7239 4.5 18.5 4.72386 18.5 5V11Z"
        fill="#233564" />
</svg>
