<svg width="24" height="24" viewBox="0 0 24 24" fill="none" xmlns="http://www.w3.org/2000/svg">
    <path fill-rule="evenodd" clip-rule="evenodd"
        d="M13.1536 22.5C11.4853 22.5 10.0687 21.2781 9.82396 19.6279L9.31329 16.1853C9.27693 15.9401 9.06651 15.7586 8.81871 15.7586H4.42243C2.88735 15.7586 1.71486 14.388 1.95259 12.8715L3.10257 5.5354C3.33138 4.07574 4.58889 3 6.06637 3H16.5C16.7762 3 17 3.22386 17 3.5V12.8105C17 12.9152 16.9152 13 16.8105 13C16.7328 13 16.663 13.0474 16.6344 13.1196L14.5705 18.3224C14.5239 18.4397 14.5 18.5648 14.5 18.6911V21.1536C14.5 21.8972 13.8972 22.5 13.1536 22.5ZM20.5 13C21.6046 13 22.5 12.1046 22.5 11V5C22.5 3.89543 21.6046 3 20.5 3H19C18.7239 3 18.5 3.22386 18.5 3.5V12.5C18.5 12.7761 18.7239 13 19 13H20.5Z"
        fill="#233564" />
</svg>
